<svg xmlns="http://www.w3.org/2000/svg" xmlns:xlink="http://www.w3.org/1999/xlink" width="52" height="34" viewBox="394.94 280.64 52 34"><path fill="#41479b" d="M443.05 280.64h-44.2a3.89 3.89 0 0 0-3.89 3.89v26.23a3.89 3.89 0 0 0 3.89 3.89h44.2a3.89 3.89 0 0 0 3.89-3.89v-26.23a3.89 3.89 0 0 0-3.89-3.89z"/><path fill="#f5f5f5" d="M395.84 297.64h1.56l8.3-5.43v5.43h4.48v-5.43l8.3 5.43h1.56c.5 0 .9-.4.9-.9v-.7l-7.13-4.66h7.13v-4.47h-7.13l7.13-4.66v-.7c0-.5-.4-.9-.9-.9h-1.56l-8.3 5.43v-5.43h-4.48v5.43l-8.03-5.25c-.94.3-1.72.93-2.2 1.77l6.6 4.32h-7.13v4.47h7.13l-7.13 4.66v.7c.01.48.42.88.9.88z"/><path d="M420.94 287.8H409.3v-7.16h-2.7v7.16h-11.66v2.68h11.66v7.16h2.7v-7.16h11.65zm-25.16-5.68l7.38 4.78h1.65l-8.38-5.43c-.24.2-.46.4-.65.65zm16.05 4.78l8.98-5.8c-.16-.26-.43-.45-.76-.45h-.2l-9.67 6.26h1.64zm-7.8 4.48l-8.96 5.8c.15.27.43.46.77.46h.17l9.67-6.26h-1.65zm16.9 5.42l-8.4-5.44h-1.65l9.53 6.18c.3-.13.5-.4.52-.74z" fill="#ff4b55"/><g fill="#f5f5f5"><path d="M408.22 302.52l.68 2.23 2.17-.86c.2-.07.35.14.24.3l-1.33 1.92 2.03 1.15c.17.1.1.36-.1.38l-2.33.16.36 2.3c.03.2-.2.3-.35.17l-1.58-1.72-1.58 1.72c-.13.15-.38.03-.35-.17l.36-2.3-2.33-.16c-.2-.01-.26-.28-.1-.38l2.03-1.15-1.32-1.92c-.1-.16.06-.37.24-.3l2.17.86.68-2.23c.06-.2.33-.2.4 0z"/><use xlink:href="#B"/><use xlink:href="#B" x="-7.38" y="8.36"/><use xlink:href="#B" x="6.96" y="4.78"/><path d="M434.9 305.76l.33 1.1 1.06-.42c.1-.04.17.07.12.15l-.65.94 1 .56c.08.05.06.18-.04.18l-1.14.08.18 1.12c.02.1-.1.15-.17.08l-.77-.84-.77.84c-.07.07-.18.01-.17-.08l.18-1.12-1.14-.08c-.1-.01-.13-.14-.04-.18l1-.56-.65-.94c-.06-.08.03-.18.12-.15l1.06.42.33-1.1c.02-.1.15-.1.18 0zm2.54-8.78l-.27.8-.84.01c-.1 0-.15.14-.07.2l.67.5-.25.8c-.03.1.1.2.17.13l.68-.5.68.5a.11.11 0 0 0 .17-.13l-.25-.8.67-.5c.1-.06.04-.2-.07-.2l-.84-.01-.27-.8c0-.1-.14-.1-.18 0z"/></g><defs ><path id="B" d="M434.9 286.67l.33 1.1 1.06-.42c.1-.04.17.07.12.15l-.65.94 1 .56c.08.05.06.18-.04.18l-1.14.08.18 1.12c.02.1-.1.15-.17.08l-.77-.84-.77.84c-.07.07-.18.01-.17-.08l.18-1.12-1.14-.08c-.1-.01-.13-.13-.04-.18l1-.56-.65-.94c-.06-.08.03-.18.12-.15l1.06.42.33-1.1c.02-.1.15-.1.18 0z"/></defs></svg>