<svg xmlns="http://www.w3.org/2000/svg" xmlns:xlink="http://www.w3.org/1999/xlink" width="52" height="34" viewBox="394.9 280.6 52 34"><path fill="#41479b" d="M443.1 280.6h-44.2a3.84 3.84 0 0 0-3.9 3.9v26.2c0 2.1 1.7 3.9 3.9 3.9h44.2a3.84 3.84 0 0 0 3.9-3.9v-26.2c-.1-2.1-1.8-3.9-3.9-3.9z"/><g fill="#ffe15a"><use xlink:href="#B"/><use xlink:href="#B" y="23.1"/><path d="M432.9 296.1l.4 1.1h1.1c.1 0 .2.2.1.3l-.9.7.3 1.1c0 .1-.1.3-.2.2l-.9-.7-.9.7c-.1.1-.3 0-.2-.2l.3-1.1-.9-.7c-.1-.1-.1-.3.1-.3h1.1l.4-1.1c-.1-.2.1-.2.2 0zm-23.2 0l.4 1.1h1.1c.1 0 .2.2.1.3l-.9.7.3 1.1c0 .1-.1.3-.2.2l-.9-.7-.9.7c-.1.1-.3 0-.2-.2l.3-1.1-.9-.7c-.1-.1-.1-.3.1-.3h1.1l.4-1.1c0-.2.2-.2.2 0z"/><use xlink:href="#C"/><use xlink:href="#B" x="10.2" y="17.1"/><use xlink:href="#C" x="15.8" y="-4.2"/><use xlink:href="#B" x="-5.6" y="21.3"/><path d="M431.2 290l-.4 1.1h-1.1c-.1 0-.2.2-.1.3l.9.7-.3 1.1c0 .1.1.3.2.2l.9-.7.9.7c.1.1.3 0 .2-.2l-.3-1.1.9-.7c.1-.1.1-.3-.1-.3h-1.1l-.4-1.1c.1-.1-.1-.1-.2 0z"/><use xlink:href="#D"/><path d="M415.4 285.8l-.4 1.1h-1.1c-.1 0-.2.2-.1.3l.9.7-.3 1.1c0 .1.1.3.2.2l.9-.7.9.7c.1.1.3 0 .2-.2l-.3-1.1.9-.7c.1-.1.1-.3-.1-.3H416l-.4-1.1c.1-.1-.1-.1-.2 0z"/><use xlink:href="#D" x="15.8" y="4.2"/></g><defs ><path id="B" d="M421.3 284.5l.4 1.1h1.1c.1 0 .2.2.1.3l-.9.7.3 1.1c0 .1-.1.3-.2.2l-.9-.7-.9.7c-.1.1-.3 0-.2-.2l.3-1.1-.9-.7c-.1-.1-.1-.3.1-.3h1.1l.4-1.1c0-.1.2-.1.2 0z"/><path id="C" d="M411.5 290l.4 1.1h1.1c.1 0 .2.2.1.3l-.9.7.3 1.1c0 .1-.1.3-.2.2l-.9-.7-.9.7c-.1.1-.3 0-.2-.2l.3-1.1-.9-.7c-.1-.1-.1-.3.1-.3h1.1l.4-1.1c-.1-.1.1-.1.2 0z"/><path id="D" d="M411.2 301.6l-.4 1.1h-1.1c-.1 0-.2.2-.1.3l.9.7-.3 1.1c0 .1.1.3.2.2l.9-.7.9.7c.1.1.3 0 .2-.2l-.3-1.1.9-.7c.1-.1.1-.3-.1-.3h-1.1l-.4-1.1c0-.1-.2-.1-.2 0z"/></defs></svg>