<svg xmlns="http://www.w3.org/2000/svg" width="52" height="34" viewBox="394.9 280.6 52 34"><path fill="#41479b" d="M443.1 280.6h-44.2a3.84 3.84 0 0 0-3.9 3.9v26.2a3.84 3.84 0 0 0 3.9 3.9h44.2c2.1 0 3.9-1.7 3.9-3.9v-26.2c-.1-2.1-1.8-3.9-3.9-3.9z"/><path fill="#f5f5f5" d="M446.9 283.9a3.87 3.87 0 0 0-3.8-3.2h-1l-16.6 10.9v-10.9h-9v10.9l-16.6-10.9h-1a3.87 3.87 0 0 0-3.8 3.2l14.2 9.3H395v8.9h14.3l-14.2 9.3c.3 1.8 1.9 3.3 3.8 3.3h1l16.6-10.9v10.9h9v-10.9l16.6 10.9h1c1.9 0 3.5-1.4 3.8-3.3l-14.2-9.3H447v-9h-14.3l14.2-9.2z"/><path d="M423.6 280.6h-5.3V295h-23.4v5.3h23.4v14.3h5.3v-14.3h23.3V295h-23.3zm-26.1 33.8l18.9-12.3h-3.3l-17.2 11.2c.4.5.9.9 1.6 1.1zm32.6-12.3h-3.3l18.3 11.9c.5-.3.9-.8 1.3-1.3l-16.3-10.6zm-34.7-19.3l16 10.4h3.3l-18.2-11.8c-.5.4-.9.8-1.1 1.4zm33.3 10.4L446 282c-.4-.5-1-.9-1.6-1.1l-19 12.3h3.3z" fill="#ff4b55"/></svg>