<svg xmlns="http://www.w3.org/2000/svg" width="52" height="34" viewBox="394.94 280.64 52 34"><path fill="#ff4b55" d="M443.05 314.64h-44.2a3.89 3.89 0 0 1-3.89-3.89v-26.23a3.89 3.89 0 0 1 3.89-3.89h44.2a3.89 3.89 0 0 1 3.89 3.89v26.23a3.89 3.89 0 0 1-3.89 3.89z"/><path d="M417.74 298.95c-1.13.01-2.4-.35-3.5-1.57-.08-.08-.07-.22.02-.3.08-.07.2-.06.28.02 1.7 1.86 3.8 1.53 5.05 1.08-.46.02-1.05-.01-1.42-.26-1.57-1.03-.86-2.12-1.9-3.44-1.03-1.3-1.96-1.28-3.43-1.06-1.45.22-1.9-.84-2.05-1.43-.03-.1-.17-.1-.2-.01-1.8 4.87 3.63 10.9 9.2 6.56-.54.2-1.25.4-2.03.4zm-4.07-1.65c-.03.1-.16.08-.18 0l-.2-.68-.72-.02c-.1 0-.13-.12-.05-.18l.6-.4-.2-.7c-.03-.1.08-.16.15-.1l.57.43.6-.4c.08-.05.18.02.15.1l-.23.68.56.44c.07.06.03.17-.06.17l-.72-.01-.24.66zm8.07-1.6c.9-.7 2.13-1.16 3.75-.84.1.02.18.13.16.25-.02.1-.13.17-.24.15-2.47-.47-3.96 1.05-4.7 2.16.36-.3.85-.6 1.3-.64 1.87-.12 1.96 1.18 3.58 1.62 1.62.43 2.34-.15 3.38-1.2 1.03-1.04 2.04-.47 2.5-.08.08.07.2-.01.17-.12-1.48-4.98-9.45-6.55-11.3.25.34-.5.8-1.07 1.4-1.55zm4.25-1.1c-.03-.1.08-.16.15-.1l.58.42.6-.4c.08-.05.18.02.15.1l-.22.68.57.43c.07.06.03.17-.06.17h-.72l-.24.68a.09.09 0 0 1-.18 0l-.22-.68h-.72c-.1 0-.13-.12-.05-.17l.58-.42-.2-.7zm-7.24 1.58c-.44-1.04-.6-2.35.12-3.84.05-.1.18-.14.28-.1a.2.2 0 0 1 .09.27c-1.08 2.27.02 4.1.92 5.07-.2-.42-.38-.97-.3-1.4.36-1.84 1.64-1.6 2.47-3.06.82-1.45.44-2.3-.32-3.57-.75-1.25.05-2.08.54-2.44.1-.06.04-.2-.07-.2-5.2.2-8.72 7.5-2.58 11a5.73 5.73 0 0 1-1.15-1.72zm-.02-4.38c-.1 0-.14-.1-.06-.17l.55-.45-.25-.67c-.03-.1.06-.16.14-.1l.6.4.56-.44c.07-.06.18.01.15.1l-.18.7.6.4c.08.05.04.17-.05.18l-.72.04-.2.7c-.02.1-.15.1-.18.01l-.26-.67h-.7zm4.07 6.74c.93.63 1.77 1.66 1.98 3.3.01.1-.07.22-.18.23s-.2-.07-.22-.18c-.33-2.5-2.24-3.42-3.53-3.77.4.25.85.6 1.02 1.02.7 1.73-.5 2.23-.4 3.9s.88 2.17 2.2 2.82c1.3.65 1.1 1.78.87 2.35-.04.1.08.2.17.13 4.27-2.97 3.26-11-3.8-10.63a6.16 6.16 0 0 1 1.88.83zm2.4 3.68c.08-.05.18.02.15.1l-.22.68.57.43c.07.06.03.17-.06.17h-.72l-.23.68a.09.09 0 0 1-.18 0l-.22-.68h-.72c-.1 0-.13-.12-.06-.17l.58-.42-.2-.68c-.03-.1.07-.16.15-.1l.58.42.6-.42zm-4.73-1.66c-.32 1.08-1.04 2.18-2.54 2.88-.1.05-.23 0-.27-.1s0-.22.1-.26c2.28-1.07 2.6-3.17 2.52-4.5-.12.45-.32 1-.67 1.28-1.44 1.2-2.28.2-3.85.8-1.56.6-1.8 1.5-2.02 2.96-.22 1.45-1.37 1.57-1.98 1.54-.1-.01-.16.13-.07.2 4.13 3.16 11.5-.25 9-6.84.03.58 0 1.3-.22 2.05zm-2.78 3.4c.07.06.03.17-.06.17h-.72l-.23.68a.09.09 0 0 1-.18 0l-.22-.68-.72-.01c-.1 0-.13-.12-.05-.17l.58-.42-.2-.68c-.03-.1.07-.16.15-.1l.58.42.6-.4c.08-.05.18.02.15.1l-.22.68.56.42z" fill="#f5f5f5"/></svg>