<svg xmlns="http://www.w3.org/2000/svg" xmlns:xlink="http://www.w3.org/1999/xlink" width="52" height="34" viewBox="394.94 280.64 52 34"><path fill="#41479b" d="M443.05 314.64h-44.2a3.89 3.89 0 0 1-3.89-3.89v-26.23a3.89 3.89 0 0 1 3.89-3.89h44.2a3.89 3.89 0 0 1 3.89 3.89v26.23a3.89 3.89 0 0 1-3.89 3.89z"/><path fill="#f5f5f5" d="M395.84 297.64h1.56l8.3-5.43v5.43h4.48v-5.43l8.3 5.43h1.56c.5 0 .9-.4.9-.9v-.7l-7.13-4.66h7.13v-4.47h-7.13l7.13-4.66v-.7c0-.5-.4-.9-.9-.9h-1.56l-8.3 5.43v-5.43h-4.48v5.43l-8.03-5.25c-.94.3-1.72.93-2.2 1.77l6.6 4.32h-7.13v4.47h7.13l-7.13 4.66v.7c.01.48.42.88.9.88z"/><path d="M420.94 287.8H409.3v-7.16h-2.7v7.16h-11.66v2.68h11.66v7.16h2.7v-7.16h11.65zm-25.16-5.68l7.38 4.78h1.65l-8.38-5.43c-.24.2-.46.4-.65.65zm16.05 4.78l8.98-5.8c-.16-.26-.43-.45-.76-.45h-.2l-9.67 6.26h1.64zm-7.8 4.48l-8.96 5.8c.15.27.43.46.77.46h.17l9.67-6.26h-1.65zm16.9 5.44l-8.4-5.44h-1.65l9.53 6.18a.9.9 0 0 0 .52-.74zM435.1 309c-.04 0-.07-.01-.1-.03l-1.06-.76-1.06.76c-.03.02-.07.03-.1.03-.04 0-.07-.01-.1-.03-.06-.05-.1-.13-.07-.2l.4-1.24-1.05-.77c-.06-.05-.1-.13-.06-.2s.1-.12.17-.12l1.3-.01.4-1.23c.02-.07.1-.12.17-.12s.15.05.17.12l.4 1.23 1.3.01c.08 0 .15.05.17.12s0 .15-.06.2l-1.05.77.4 1.24a.18.18 0 0 1-.07.2c-.02.02-.05.03-.1.03z" fill="#ff4b55"/><path fill="#f5f5f5" d="M433.94 305.25l.45 1.36 1.43.01-1.15.85.43 1.36-1.17-.83-1.17.83.43-1.36-1.15-.85 1.43-.01.47-1.36m0-.36c-.15 0-.3.1-.34.25l-.37 1.1-1.18.01c-.15 0-.3.1-.34.25s0 .3.13.4l.95.7-.35 1.12a.36.36 0 0 0 .13.4c.06.05.14.07.2.07s.15-.02.2-.07l.96-.68.96.68c.06.04.14.07.2.07s.15-.02.2-.07c.13-.1.18-.25.13-.4l-.35-1.12.95-.7a.36.36 0 0 0 .13-.4c-.05-.15-.18-.25-.34-.25l-1.18-.01-.37-1.1a.39.39 0 0 0-.36-.25z"/><path fill="#ff4b55" d="M435.1 294.58c-.04 0-.07-.01-.1-.03l-1.06-.76-1.06.76c-.03.02-.07.03-.1.03-.04 0-.07-.01-.1-.03-.06-.05-.1-.13-.07-.2l.4-1.24-1.05-.77c-.06-.05-.1-.13-.06-.2.02-.07.1-.12.17-.12l1.3-.01.4-1.23c.02-.07.1-.12.17-.12s.15.05.17.12l.4 1.23 1.3.01c.08 0 .15.05.17.12s0 .15-.06.2l-1.05.77.4 1.24a.18.18 0 0 1-.07.2c-.02.02-.05.03-.1.03z"/><path fill="#f5f5f5" d="M433.94 290.82l.45 1.36 1.43.01-1.15.85.43 1.36-1.17-.83-1.17.83.43-1.36-1.15-.85 1.43-.01.47-1.36m0-.36c-.15 0-.3.1-.34.24l-.37 1.1-1.18.01c-.15 0-.3.1-.34.25s0 .3.13.4l.95.7-.35 1.12a.36.36 0 0 0 .13.4c.06.05.14.07.2.07s.15-.02.2-.07l.96-.68.96.68c.06.04.14.07.2.07s.15-.02.2-.07c.13-.1.18-.25.13-.4l-.35-1.12.95-.7a.36.36 0 0 0 .13-.4c-.05-.15-.18-.25-.34-.25l-1.18-.01-.37-1.1c-.06-.14-.2-.24-.36-.24z"/><use xlink:href="#B" fill="#ff4b55"/><path fill="#f5f5f5" d="M440.22 295.3l.45 1.36 1.43.01-1.15.85.43 1.36-1.17-.83-1.17.83.43-1.36-1.15-.85 1.43-.01.47-1.36m0-.35c-.15 0-.3.1-.34.24l-.37 1.1h-1.18c-.15 0-.3.1-.34.25s0 .3.13.4l.95.7-.35 1.12a.36.36 0 0 0 .13.4c.06.05.14.07.2.07s.15-.02.2-.07l.96-.68.96.68c.06.04.13.07.2.07.07 0 .15-.02.2-.07.13-.1.18-.25.13-.4l-.35-1.12.95-.7a.36.36 0 0 0 .13-.4c-.05-.15-.18-.25-.34-.25h-1.18l-.37-1.1a.39.39 0 0 0-.36-.24z"/><use xlink:href="#B" x="-12.57" y="1.79" fill="#ff4b55"/><path fill="#f5f5f5" d="M427.67 297.08l.45 1.36 1.43.01-1.15.85.43 1.36-1.17-.83-1.17.83.43-1.36-1.15-.85 1.43-.01.47-1.36m0-.35c-.15 0-.3.1-.34.24l-.37 1.1-1.18.01c-.15 0-.3.1-.34.25s0 .3.13.4l.95.7-.36 1.12a.36.36 0 0 0 .13.4c.06.05.14.07.2.07s.15-.02.2-.07l.96-.68.96.68c.06.04.13.07.2.07.07 0 .15-.02.2-.07.13-.1.18-.25.13-.4l-.35-1.12.95-.7a.36.36 0 0 0 .13-.4c-.05-.15-.18-.25-.34-.25l-1.18-.01-.37-1.1c-.06-.15-.2-.24-.35-.24z"/><defs ><path id="B" d="M441.4 299.05c-.04 0-.07-.01-.1-.03l-1.06-.76-1.06.76c-.03.02-.07.03-.1.03-.04 0-.07-.01-.1-.03-.06-.04-.1-.13-.07-.2l.4-1.24-1.05-.77c-.06-.05-.1-.13-.06-.2.02-.07.1-.12.17-.12l1.3-.01.4-1.23c.02-.07.1-.12.17-.12s.15.05.17.12l.4 1.23 1.3.01c.08 0 .15.05.17.12s0 .15-.06.2l-1.05.77.4 1.24a.18.18 0 0 1-.07.2c-.02.02-.06.03-.1.03z"/></defs></svg>