<svg xmlns="http://www.w3.org/2000/svg" width="52" height="34" viewBox="394.9 280.6 52 34"><path fill="#ff4b55" d="M443.1 280.6h-44.2a3.84 3.84 0 0 0-3.9 3.9v26.2a3.84 3.84 0 0 0 3.9 3.9h44.2c2.1 0 3.9-1.7 3.9-3.9v-26.2c-.1-2.1-1.8-3.9-3.9-3.9z"/><path d="M403.6 286.5l1 3.1h3.3c.4 0 .6.5.3.8l-2.6 1.9 1 3.1c.1.4-.3.7-.7.5l-2.6-1.9-2.7 1.9c-.3.2-.8-.1-.7-.5l1-3.1-2.6-1.9c-.3-.3-.2-.8.3-.8h3.3l1-3.1c0-.4.6-.4.7 0zm11.8.8l.7 1 1.2-.4c.1-.1.3.1.2.3l-.7 1 .7 1c.1.1 0 .3-.2.3l-1.2-.4-.7 1c-.1.1-.3.1-.3-.1v-1.2l-1.2-.4c-.1 0-.1-.3 0-.3l1.2-.4v-1.2c.1-.3.2-.3.3-.2zm-4.4-3l1.2.1.5-1.1c.1-.1.3-.1.3 0l.3 1.2 1.2.1c.2 0 .2.2.1.3l-1.1.6.2 1.2c0 .2-.2.3-.3.2l-.9-.8-1.1.6c-.1.1-.3-.1-.2-.2l.5-1.1-.9-.9c-.1 0 0-.2.2-.2zm1.9 12l-.7 1-1.2-.3c-.2-.1-.3.1-.2.3l.7 1-.7 1c-.1.1 0 .3.2.3l1.2-.4.7 1c.1.1.3.1.3-.1v-1.2l1.2-.4c.2-.1.2-.3 0-.3l-1.2-.4v-1.2c0-.3-.2-.4-.3-.3zm4.5-2.8l-1.2.1-.5-1.1c-.1-.1-.3-.1-.3 0l-.3 1.2-1.2.2c-.2 0-.2.2-.1.3l1.1.6-.2 1.2c0 .2.2.3.3.2l.9-.8 1.1.6c.1.1.3-.1.2-.2l-.5-1.1.9-.8c.1-.2 0-.4-.2-.4z" fill="#ffe15a"/></svg>