<svg xmlns="http://www.w3.org/2000/svg" xmlns:xlink="http://www.w3.org/1999/xlink" width="52" height="34" viewBox="394.9 280.6 52 34"><path fill="#f5f5f5" d="M443.1 280.6h-44.2a3.84 3.84 0 0 0-3.9 3.9v26.2a3.84 3.84 0 0 0 3.9 3.9h44.2c2.1 0 3.9-1.7 3.9-3.9v-26.2c-.1-2.1-1.8-3.9-3.9-3.9z"/><path d="M395.2 283.3h51.6c-.5-1.5-2-2.6-3.7-2.6h-44.2c-1.8-.1-3.2 1-3.7 2.6zm-.3 7.8h52v2.6h-52zm0-5.2h52v2.6h-52zm0 12.1c0 .5.4.9.9.9h51.1v-2.6h-52v1.7zm0 8.8h52v2.6h-52zm51.8 5.2h-51.6c.5 1.5 2 2.6 3.7 2.6H443c1.8 0 3.2-1.1 3.7-2.6zm-51.8-10.4h52v2.6h-52z" fill="#ff4b55"/><path fill="#41479b" d="M395.8 299h22.4c.5 0 .9-.4.9-.9v-16.5c0-.5-.4-.9-.9-.9h-19.4a3.84 3.84 0 0 0-3.9 3.9v13.5c0 .4.4.9.9.9z"/><g fill="#f5f5f5"><use xlink:href="#B"/><use xlink:href="#C"/><use xlink:href="#D"/><use xlink:href="#B" y="9.3"/><use xlink:href="#E"/><use xlink:href="#F"/><use xlink:href="#G"/><use xlink:href="#H"/><use xlink:href="#I"/><use xlink:href="#J"/><use xlink:href="#K"/><use xlink:href="#L"/><use xlink:href="#J" y="9.3"/><use xlink:href="#M"/><use xlink:href="#N"/><path d="M404.7 287.3l.2.6h.6c.1 0 .1.1.1.2l-.5.4.2.6c0 .1-.1.1-.1.1l-.5-.4-.5.4c-.1 0-.2 0-.1-.1l.2-.6-.5-.4c-.1-.1 0-.2.1-.2h.6l.2-.6c-.1 0 0 0 0 0z"/><use xlink:href="#O"/><path d="M404.7 293.5l.2.6h.6c.1 0 .1.1.1.1l-.5.4.2.6c0 .1-.1.1-.1.1l-.5-.4-.5.4c-.1.1-.2 0-.1-.1l.2-.6-.5-.4c-.1 0 0-.1.1-.1h.6l.2-.6c-.1 0 0 0 0 0z"/><use xlink:href="#J" x="4.8"/><use xlink:href="#K" x="4.8"/><use xlink:href="#L" x="4.8"/><use xlink:href="#J" x="4.8" y="9.3"/><use xlink:href="#M" x="4.8"/><use xlink:href="#F" x="9.7"/><use xlink:href="#G" x="9.7"/><use xlink:href="#H" x="9.7"/><use xlink:href="#I" x="9.7"/><use xlink:href="#B" x="14.5"/><use xlink:href="#C" x="14.5"/><use xlink:href="#D" x="14.5"/><use xlink:href="#B" x="14.5" y="9.3"/><use xlink:href="#E" x="14.5"/><use xlink:href="#F" x="14.5"/><use xlink:href="#G" x="14.5"/><use xlink:href="#H" x="14.5"/><use xlink:href="#I" x="14.5"/><use xlink:href="#O" x="12.1" y="-7.7"/><use xlink:href="#N" x="12.1" y="1.6"/><path d="M416.8 288.9l.2.6h.6c.1 0 .1.1.1.2l-.5.4.2.6c0 .1-.1.1-.1.1l-.5-.4-.5.4c-.1 0-.2 0-.1-.1l.2-.6-.5-.4c-.1-.1 0-.2.1-.2h.6l.2-.6c-.1-.1 0-.1 0 0z"/><use xlink:href="#O" x="12.1" y="1.6"/><path d="M416.8 295.1l.2.6h.6c.1 0 .1.1.1.1l-.5.4.2.6c0 .1-.1.1-.1.1l-.5-.4-.5.4c-.1 0-.2 0-.1-.1l.2-.6-.5-.4c-.1 0 0-.1.1-.1h.6l.2-.6c-.1-.1 0-.1 0 0z"/></g><defs ><path id="B" d="M397.5 282.7l.2.6h.6c.1 0 .1.1.1.2l-.5.4.2.6c0 .1-.1.1-.1.1l-.5-.4-.5.4c-.1 0-.2 0-.1-.1l.2-.6-.5-.4c-.1 0 0-.2.1-.2h.6l.2-.6c-.2-.1-.1-.1 0 0z"/><path id="C" d="M397.5 285.8l.2.6h.6c.1 0 .1.1.1.1l-.5.4.2.6c0 .1-.1.1-.1.1l-.5-.4-.5.4c-.1.1-.2 0-.1-.1l.2-.6-.5-.4c-.1 0 0-.1.1-.1h.6l.2-.6c-.2-.1-.1-.1 0 0z"/><path id="D" d="M397.5 288.9l.2.6h.6c.1 0 .1.1.1.2l-.5.4.2.6c0 .1-.1.1-.1.1l-.5-.4-.5.4c-.1 0-.2 0-.1-.1l.2-.6-.5-.4c-.1-.1 0-.2.1-.2h.6l.2-.6c-.2-.1-.1-.1 0 0z"/><path id="E" d="M397.5 295.1l.2.6h.6c.1 0 .1.1.1.1l-.5.4.2.6c0 .1-.1.1-.1.1l-.5-.4-.5.4c-.1 0-.2 0-.1-.1l.2-.6-.5-.4c-.1 0 0-.1.1-.1h.6l.2-.6c-.2-.1-.1-.1 0 0z"/><path id="F" d="M399.9 284.2l.2.6h.6c.1 0 .1.1 0 .1l-.5.4.2.6c0 .1-.1.1-.1.1l-.5-.4-.5.4c-.1.1-.2 0-.1-.1l.2-.6-.5-.4c-.1 0 0-.1.1-.1h.6l.2-.6c-.1-.1 0-.1.1 0z"/><path id="G" d="M399.9 287.3l.2.6h.6c.1 0 .1.1 0 .2l-.5.4.2.6c0 .1-.1.1-.1.1l-.5-.4-.5.4c-.1 0-.2 0-.1-.1l.2-.6-.5-.4c-.1-.1 0-.2.1-.2h.6l.2-.6c-.1 0 0 0 .1 0z"/><path id="H" d="M399.9 290.4l.2.6h.6c.1 0 .1.1 0 .2l-.5.4.2.6c0 .1-.1.1-.1.1l-.5-.4-.5.4c-.1 0-.2 0-.1-.1l.2-.6-.5-.4c-.1 0 0-.2.1-.2h.6l.2-.6c-.1-.1 0-.1.1 0z"/><path id="I" d="M399.9 293.5l.2.6h.6c.1 0 .1.1 0 .1l-.5.4.2.6c0 .1-.1.1-.1.1l-.5-.4-.5.4c-.1.1-.2 0-.1-.1l.2-.6-.5-.4c-.1 0 0-.1.1-.1h.6l.2-.6c-.1 0 0 0 .1 0z"/><path id="J" d="M402.3 282.7l.2.6h.6c.1 0 .1.1 0 .2l-.5.4.2.6c0 .1-.1.1-.1.1l-.5-.4-.5.4c-.1 0-.2 0-.1-.1l.2-.6-.5-.4c-.1 0 0-.2.1-.2h.6l.2-.6c0-.1.1-.1.1 0z"/><path id="K" d="M402.3 285.8l.2.6h.6c.1 0 .1.1 0 .1l-.5.4.2.6c0 .1-.1.1-.1.1l-.5-.4-.5.4c-.1.1-.2 0-.1-.1l.2-.6-.5-.4c-.1 0 0-.1.1-.1h.6l.2-.6c0-.1.1-.1.1 0z"/><path id="L" d="M402.3 288.9l.2.6h.6c.1 0 .1.1 0 .2l-.5.4.2.6c0 .1-.1.1-.1.1l-.5-.4-.5.4c-.1 0-.2 0-.1-.1l.2-.6-.5-.4c-.1-.1 0-.2.1-.2h.6l.2-.6c0-.1.1-.1.1 0z"/><path id="M" d="M402.3 295.1l.2.6h.6c.1 0 .1.1 0 .1l-.5.4.2.6c0 .1-.1.1-.1.1l-.5-.4-.5.4c-.1 0-.2 0-.1-.1l.2-.6-.5-.4c-.1 0 0-.1.1-.1h.6l.2-.6c0-.1.1-.1.1 0z"/><path id="N" d="M404.7 284.2l.2.6h.6c.1 0 .1.1.1.1l-.5.4.2.6c0 .1-.1.1-.1.1l-.5-.4-.5.4c-.1.1-.2 0-.1-.1l.2-.6-.5-.4c-.1 0 0-.1.1-.1h.6l.2-.6c-.1-.1 0-.1 0 0z"/><path id="O" d="M404.7 290.4l.2.6h.6c.1 0 .1.1.1.2l-.5.4.2.6c0 .1-.1.1-.1.1l-.5-.4-.5.4c-.1 0-.2 0-.1-.1l.2-.6-.5-.4c-.1 0 0-.2.1-.2h.6l.2-.6c-.1-.1 0-.1 0 0z"/></defs></svg>