<svg xmlns="http://www.w3.org/2000/svg" width="52" height="34" viewBox="394.9 280.6 52 34"><path fill="#f5f5f5" d="M443.1 280.6h-44.2a3.84 3.84 0 0 0-3.9 3.9v26.2c0 2.1 1.7 3.9 3.9 3.9h44.2a3.84 3.84 0 0 0 3.9-3.9v-26.2c-.1-2.1-1.8-3.9-3.9-3.9z"/><path fill="#ff4b55" d="M425.9 290.2c-4.1-2.7-9.7-1.6-12.4 2.5-1.4 2-.8 4.8 1.2 6.2 2.1 1.4 4.8.8 6.2-1.2 1.4-2.1 4.2-2.6 6.2-1.2 2.1 1.4 2.6 4.2 1.2 6.2 2.8-4.2 1.7-9.8-2.4-12.5"/><path fill="#41479b" d="M413.5 292.7c-1.4 2-.8 4.8 1.2 6.2 2.1 1.4 4.8.8 6.2-1.2s4.2-2.6 6.2-1.2c2.1 1.4 2.6 4.2 1.2 6.2-2.7 4.1-8.3 5.2-12.4 2.5-4-2.9-5.2-8.4-2.4-12.5"/><path d="M430.5 286.8l1.6 2.4c.1.2.1.5-.1.6l-.4.3c-.2.1-.5.1-.6-.1l-1.6-2.4c-.1-.2-.1-.5.1-.6l.4-.3a.47.47 0 0 1 .6.1zm2.5 3.8l1.6 2.4c.1.2.1.5-.1.6l-.4.3c-.2.1-.5.1-.6-.1l-1.6-2.4c-.1-.2-.1-.5.1-.6l.4-.3c.2-.2.5-.1.6.1zm-.8-4.9l4.1 6.2c.1.2.1.5-.1.6l-.4.3c-.2.1-.5.1-.6-.1l-4.1-6.2c-.1-.2-.1-.5.1-.6l.4-.3c.2-.2.5-.2.6.1zm1.8-1.2l1.6 2.4c.1.2.1.5-.1.6l-.4.3c-.2.1-.5.1-.6-.1l-1.6-2.4c-.1-.2-.1-.5.1-.6l.4-.3c.2-.2.4-.1.6.1zm2.5 3.8l1.6 2.4c.1.2.1.5-.1.6l-.4.3c-.2.1-.5.1-.6-.1l-1.6-2.4c-.1-.2-.1-.5.1-.6l.4-.3c.2-.2.4-.1.6.1zm-28.1 13.2l4.1 6.2c.1.2.1.5-.1.6l-.4.3c-.2.1-.5.1-.6-.1l-4.1-6.2c-.1-.2-.1-.5.1-.6l.4-.3c.2-.2.5-.1.6.1zm-1.7 1.2l1.6 2.4c.1.2.1.5-.1.6l-.4.3c-.2.1-.5.1-.6-.1l-1.6-2.4c-.1-.2-.1-.5.1-.6l.4-.3c.2-.2.4-.2.6.1zm2.5 3.7l1.6 2.4c.1.2.1.5-.1.6l-.4.3c-.2.1-.5.1-.6-.1l-1.6-2.4c-.1-.2-.1-.5.1-.6l.4-.3c.2-.1.5-.1.6.1zm-4.3-2.6l4.1 6.2c.1.2.1.5-.1.6l-.4.3c-.2.1-.5.1-.6-.1l-4.1-6.2c-.1-.2-.1-.5.1-.6l.4-.3c.2-.2.5-.1.6.1zm2.4-10.8l4.1-6.2c.1-.2.4-.3.6-.1l.4.3c.2.1.3.4.1.6l-4.1 6.2c-.1.2-.4.3-.6.1l-.4-.3c-.2-.1-.3-.4-.1-.6zm-1.8-1.1l4.1-6.2c.1-.2.4-.3.6-.1l.4.3c.2.1.3.4.1.6l-4.1 6.2c-.1.2-.4.3-.6.1l-.4-.3a.47.47 0 0 1-.1-.6zm-1.7-1.2l4.1-6.2c.1-.2.4-.3.6-.1l.4.3c.2.1.3.4.1.6l-4.1 6.2c-.1.2-.4.3-.6.1l-.4-.3c-.2-.1-.3-.4-.1-.6zm25.5 17l1.6-2.4c.1-.2.4-.3.6-.1l.4.3c.2.1.3.4.1.6l-1.6 2.4c-.1.2-.4.3-.6.1l-.4-.3c-.2-.1-.2-.4-.1-.6zm2.5-3.8l1.6-2.4c.1-.2.4-.3.6-.1l.4.3c.2.1.3.4.1.6l-1.6 2.4c-.1.2-.4.3-.6.1l-.4-.3c-.1-.1-.2-.4-.1-.6zm-.7 5l1.6-2.4c.1-.2.4-.3.6-.1l.4.3c.2.1.3.4.1.6l-1.6 2.4c-.1.2-.4.3-.6.1l-.4-.3c-.2-.2-.3-.4-.1-.6zm2.5-3.8l1.6-2.4c.1-.2.4-.3.6-.1l.4.3c.2.1.3.4.1.6l-1.6 2.4c-.1.2-.4.3-.6.1l-.4-.3c-.2-.1-.3-.4-.1-.6zm-.8 4.9l1.6-2.4c.1-.2.4-.3.6-.1l.4.3c.2.1.3.4.1.6l-1.6 2.4c-.1.2-.4.3-.6.1l-.4-.3c-.2-.1-.2-.4-.1-.6zm2.5-3.7l1.6-2.4c.1-.2.4-.3.6-.1l.4.3c.2.1.3.4.1.6l-1.6 2.4c-.1.2-.4.3-.6.1l-.4-.3a.47.47 0 0 1-.1-.6z" fill="#464655"/></svg>