<svg xmlns="http://www.w3.org/2000/svg" width="363" height="273" viewBox="-0.02 45.5 363 272"><style><![CDATA[.B{fill:#ccd3d9}.C{fill:none}.D{stroke:none}.E{stroke-linecap:round}.F{stroke-linejoin:round}]]></style><path d="M69.38 112.15c-1.4-1.4-.7-.7 0 0z" class="B"/><path d="M74.13 106.2l.08.08" class="C D E F"/><g class="B"><path d="M71.37 67.56c-6.44 5.4-10.42 13.32-10.8 21.73a30.39 30.39 0 0 0 8.82 22.87c8.5 8.5 21.65 11.2 32.8 6.65a29.17 29.17 0 0 0 4.31-2.21v-.9c-7.82 4.9-17.75 6.03-26.53 2.56a30.03 30.03 0 0 1-16.12-15.4c-3.32-7.37-3.42-16.1-.27-23.53h-.01C68.1 68.6 78.8 61.4 90.4 61.28c5.77-.07 11.35 1.6 16.1 4.6v-.98a30.94 30.94 0 0 0-1.87-1.05c-10.67-5.52-24.06-4.03-33.26 3.7zm-7.73 11.58l.27-.63c-.07.15-.16.4-.27.63zm11.1 27.66l-.52-.52.52.52z"/><path d="M76.26 73.34C67 81.1 65.4 95.24 72.94 104.77a20.61 20.61 0 0 0 1.81 2.04h-.02c8.56 8.56 22.78 8.8 31.6.48.06-.06.1-.12.18-.18V106c-6.32 6.42-16.34 8.65-24.86 4.74-10.6-4.88-15.66-17.7-11.1-28.48h-.01C75.3 71.04 88.82 65.7 99.92 70.82c2.54 1.17 4.75 2.8 6.6 4.74v-1.1c-8.2-7.85-21.44-8.53-30.26-1.12zm22.64 4.7c-4.87-3.16-11.43-3.15-16.3 0-7.94 5.13-9.27 16.5-2.7 23.28l.17.17c.04.04.1.08.14.13l-.14-.14.14.14c4.13 4.03 10.35 5.38 15.76 3.4 5.26-1.93 9.17-6.85 9.8-12.42.65-5.76-2-11.4-6.87-14.56zm1.8 23.14c-4.24 4.06-10.77 5.15-16.08 2.6-6.82-3.26-10.07-11.57-7.1-18.57h-.01a14.52 14.52 0 0 1 13.27-8.8c5.78.02 11 3.48 13.27 8.8 2.3 5.45.9 11.9-3.35 15.96z"/><path d="M80.06 101.48a2.59 2.59 0 0 1-.15-.17l-.02.01c.05.06.1.1.17.16z"/></g><path d="M58.5 59.17l-1.07 1.07m3.6-3.57l-.4.4m-.13.1l-1.33 1.33" class="C D E F"/><path d="M57.03 60.67l-.37.37c.05-.04.18-.18.37-.37zm23.2 40.93c.42.43.26.26 0 0l-.14-.14c.05.06.1.1.14.14z" class="B"/><path d="M54.7 52.27l-.8.8" class="C D E F"/><path d="M54.03 62.32v-.01c-14.9 12.95-34.27 20.15-54 20.15v.76c21.95 0 43.3-8.84 58.8-24.37 4.07-4.07 7.67-8.55 10.8-13.33h-.92c-4.1 6.2-9 11.86-14.67 16.8zm-.73-8.62l.2-.2a1.89 1.89 0 0 1 .2-.2c.07-.06.14-.15.22-.23 2.33-2.38 4.5-4.9 6.5-7.55h-.98c-4.24 5.57-9.26 10.57-14.97 14.8-12.8 9.46-28.5 14.6-44.43 14.6v.74c19.86 0 39.16-7.97 53.26-21.95zM.03 74.9z" class="B"/><path d="M288.27 74.73l.37.37m5.46-5.23l.24.24M55.38 51.6l-.56.56M25.57 45.5h.01" class="C D E F"/><path d="M292.47 99.3h.01zm-.85 14.68c6.44-5.4 10.42-13.32 10.8-21.73.4-8.42-2.74-16.67-8.64-22.68l.3.3.03-.01-.5-.5-.13-.12-.01-.01c-8.5-8.4-21.56-11.05-32.66-6.5a30.28 30.28 0 0 0-4.32 2.21v.9c7.83-4.9 17.75-6.04 26.54-2.57 7.1 2.8 13 8.43 16.13 15.4 3.32 7.4 3.42 16.1.27 23.55v-.01c-4.53 10.7-15.22 17.9-26.84 18.03-5.78.07-11.36-1.6-16.1-4.6v1a30.68 30.68 0 0 0 1.86 1.05c10.68 5.53 24.07 4.04 33.27-3.7zM38.73 45.5c-4.55 3.87-9.66 7.08-15.16 9.44-7.42 3.2-15.47 4.8-23.55 4.8v.76c14.66-.02 28.82-5.35 39.86-15h-1.15zm16.67 6.1c.14-.13.16-.15 0 0zm-2.1 2.1c-3.05 3.05-1.62 1.62 0 0zm-27.72-8.2c-4.34 2.45-9.03 4.3-13.92 5.4A52.81 52.81 0 0 1 .03 52.2v.76c9.56 0 18.92-2.63 27.04-7.45h-1.5zM.03 67.33v.76c17.97 0 35.42-7.23 48.12-19.94a69.07 69.07 0 0 0 2.5-2.64h-1.08c-4.45 4.88-9.63 9.14-15.42 12.55C23.85 64.13 12 67.33.03 67.33zm286.7 40.87c9.26-7.77 10.85-21.9 3.32-31.43a20.61 20.61 0 0 0-1.81-2.04h.02c-8.56-8.56-22.78-8.8-31.6-.48-.07.06-.12.13-.2.2v1.13c6.32-6.43 16.35-8.67 24.88-4.76 10.57 4.87 15.64 17.68 11.1 28.45 0 .02 0 .02-.01.03-4.75 11.22-18.27 16.55-29.37 11.45a21.14 21.14 0 0 1-6.6-4.76v1.1c8.2 7.84 21.44 8.52 30.26 1.12zm-3.93-28.26c-.27-.27-.45-.44 0 0zm6-4.7c.15.14.12.1 0 0zm-24.7 28.3c4.87 3.16 11.43 3.15 16.3 0 7.96-5.16 9.28-16.6 2.63-23.35l-.1-.1.1.1c-.03-.03-.05-.06-.08-.1-.05-.05-.1-.1-.15-.13-4.13-4-10.34-5.38-15.75-3.4h-.02c-5.26 1.93-9.17 6.85-9.8 12.42-.65 5.75 2 11.4 6.87 14.55zm-1.8-23.13c4.24-4.06 10.77-5.15 16.08-2.6 6.82 3.26 10.07 11.56 7.1 18.56v-.02.02c-2.24 5.28-7.53 8.8-13.27 8.8a14.5 14.5 0 0 1-13.27-8.8c-2.3-5.45-.9-11.9 3.35-15.96z" class="B"/><path d="M283.03 80.17l.3.3m-.4-.4l.1.1m57.8 80.68l.4-.4" class="C D E F"/><g class="B"><path d="M304.38 303.94z"/><path d="M361.47 211.72l1.5.04V211c-11.63 0-22.4-7.06-27.07-17.72-4.75-10.88-2.3-23.9 5.97-32.38a29.56 29.56 0 0 1 21.09-8.88v-.76c-8 0-15.73 3.2-21.38 8.86l.12-.12a1.54 1.54 0 0 1-.13.12c-8.5 8.5-11.2 21.65-6.64 32.8h-.01c4.4 10.77 14.93 18.25 26.55 18.8zm1.5 105.78v-.75h-24.2c3.95-2.08 8.16-3.66 12.54-4.65 3.82-.87 7.73-1.3 11.64-1.3v-.76c-9.05 0-17.92 2.36-25.74 6.7h-12.04c4.3-3.53 9.1-6.5 14.24-8.7 7.43-3.2 15.48-4.82 23.56-4.82v-.76c-14.26 0-28.13 5.15-38.97 14.27h-9.87c4.3-4.56 9.22-8.56 14.72-11.8 10.3-6.07 22.16-9.27 34.12-9.27v-.76c-17.97 0-35.42 7.23-48.13 19.94-.6.62-1.2 1.25-1.78 1.9h-8.9c4.1-5.26 8.93-10 14.38-14.04 12.8-9.47 28.5-14.6 44.43-14.6v-.76a75.91 75.91 0 0 0-53.26 21.96 2.09 2.09 0 0 0-.2.22l-.25.25c-2.17 2.2-4.2 4.5-6.07 6.96h-8.38c3.98-5.9 8.72-11.3 14.17-16.04 14.9-12.96 34.27-20.16 54-20.16v-.76c-21.86 0-43.1 8.77-58.6 24.18l-.04.04c-.05.05-.1.1-.16.15-.05.04-.1.1-.14.15l-.06.06c-3.78 3.8-7.13 7.96-10.07 12.38h-8.08c4.2-7.02 9.34-13.5 15.35-19.17 16.63-15.72 38.95-24.6 61.8-24.6l-.28-8.22h.26v-.85h-.38a87.08 87.08 0 0 0-.88-6.82c.42.01.84.01 1.26.01v-.76c-.46 0-.93-.01-1.4-.01a79.58 79.58 0 0 0-1.5-6.85c.96.04 1.92.06 2.88.06v-.76a63.3 63.3 0 0 1-3.08-.07c-.63-2.36-1.35-4.68-2.17-6.96 1.73.15 3.48.22 5.24.22v-.76c-1.86 0-3.7-.08-5.53-.25a89.83 89.83 0 0 0-3.02-7.24c2.8.45 5.66.68 8.55.68v-.76c-3 0-6-.25-8.94-.76a94.32 94.32 0 0 0-4.38-8.02c4.32 1.3 8.8 1.97 13.32 1.97v-.76c-4.8 0-9.47-.74-13.93-2.2-3-4.75-6.43-9.22-10.25-13.34 6.76 5.65 15.38 8.74 24.18 8.74v-.76c-11.8 0-23.03-5.74-30-15.27-7.05-9.66-8.97-22.53-5.08-33.85 5.1-14.8 19.42-25 35.07-25v-.76c-11.76 0-22.97 5.58-30.1 14.93-7.23 9.46-9.54 22.12-6.2 33.55 1.45 4.95 3.93 9.57 7.23 13.52-4.12-3.82-8.6-7.25-13.34-10.25-3.8-11.57-2.64-24.54 3.18-35.24 5.45-10 14.75-17.74 25.6-21.2 4.4-1.4 9-2.1 13.62-2.1v-.76c-11.75 0-23.17 4.62-31.6 12.8-8.4 8.16-13.4 19.38-13.75 31.1a46.09 46.09 0 0 0 1.95 14.8 90.18 90.18 0 0 0-8.02-4.38c-2.05-11.98.13-24.5 6.22-35.04 5.72-9.88 14.7-17.77 25.25-22.14 6.32-2.62 13.13-3.94 19.96-3.94v-.76c-11.87 0-23.54 4.02-32.84 11.4-9.06 7.2-15.66 17.28-18.5 28.5-1.77 7.02-2.07 14.42-.92 21.57-2.36-1.1-4.77-2.12-7.24-3.02-1.1-12.17 1.52-24.53 7.6-35.15 5.6-9.82 14.06-17.98 24.06-23.26 8.57-4.52 18.17-6.86 27.84-6.86v-.7c-23.6 0-45.53 14.2-55.2 35.7-4.22 9.38-5.93 19.78-5.06 30.03-2.3-.82-4.6-1.54-6.96-2.17-1.07-23.78 10.8-46.78 30.8-59.7 10.82-6.98 23.56-10.7 36.44-10.7v-.76c-23.73 0-46.2 12.73-58.4 33.07-6.83 11.37-10.14 24.62-9.6 37.86-2.25-.58-4.54-1.08-6.85-1.5-.45-23.64 10.6-46.46 29.34-60.85 13-9.98 29.14-15.4 45.5-15.4v-.76c-23.6 0-46.18 11.3-60.4 30.1-10.12 13.4-15.5 30-15.2 46.78-2.26-.38-4.54-.67-6.82-.88-.18-23.76 10.32-46.8 28.16-62.42C323.6 106.28 343.07 99 362.93 99v-.76c-23.73 0-46.63 10.36-62.33 28.12-13.5 15.23-20.83 35.07-20.83 55.38a91.25 91.25 0 0 0-6.81-.31c0-24.48 10.18-48.26 27.9-65.14 16.68-15.78 39.1-24.76 62.1-24.76l-.23-8.16h.23v-.9h-.38c-.2-2.3-.5-4.57-.88-6.8.42.01.84.01 1.26.01v-.76c-.46 0-.93-.01-1.4-.01a79.58 79.58 0 0 0-1.5-6.85c.96.04 1.92.06 2.88.06v-.76a63.3 63.3 0 0 1-3.08-.07c-.63-2.36-1.35-4.68-2.17-6.96 1.73.15 3.48.22 5.24.22v-.76c-1.86 0-3.7-.08-5.53-.25-.9-2.47-1.9-4.88-3.02-7.24 2.8.45 5.66.68 8.55.68v-.76c-3 0-6-.25-8.94-.76-.98-2.02-2.04-4-3.17-5.93H350c7.98 13.75 12.2 29.36 12.2 45.26a91.25 91.25 0 0 0-6.81.31c0-16.27-4.75-32.1-13.44-45.57h-.87C349.9 59 354.74 75 354.62 91.18c-2.28.2-4.56.5-6.82.87.27-16.82-5.2-33.22-15.08-46.52h-.88c10.14 13.32 15.52 29.9 15.2 46.65a79.58 79.58 0 0 0-6.85 1.5c.72-17.75-5.66-35.07-17.22-48.14H322c2.5 2.73 4.78 5.68 6.82 8.83 7.55 11.7 11.25 25.6 10.63 39.5-2.36.63-4.68 1.35-6.96 2.17 1.03-12.07-1.56-24.3-7.5-34.86-3.3-5.88-7.6-11.18-12.65-15.65h-1.15c5.68 4.9 10.4 10.8 13.9 17.42 5.4 10.2 7.66 21.88 6.6 33.37a89.83 89.83 0 0 0-7.24 3.02c1.95-12.08-.33-24.65-6.5-35.22-4.44-7.6-10.8-14-18.3-18.6h-1.44a.88.88 0 0 1 .1.06c9.88 5.72 17.77 14.7 22.14 25.25 3.76 9.08 4.84 19.2 3.17 28.9a94.32 94.32 0 0 0-8.02 4.38c3.56-11.64 2.25-24.55-3.63-35.2-5.5-9.94-14.72-17.65-25.5-21.2-3.58-1.18-7.3-1.9-11.08-2.16h-6.42c-3.4.24-6.8.86-10.05 1.86.37-.6.72-1.24 1.08-1.86h-.96c-.82 1.4-1.68 2.77-2.57 4.12V51l1.75-2.63c11.57-3.8 24.54-2.64 35.24 3.2 10 5.45 17.74 14.75 21.2 25.6a45.08 45.08 0 0 1-.11 27.55c-4.76 3-9.23 6.43-13.34 10.24l.01-.01c7.7-9.2 10.53-21.83 7.6-33.46-2.8-11.15-10.85-20.64-21.35-25.3-9.9-4.4-21.3-4.17-31 .2v.82c3.22-1.52 6.67-2.58 10.23-3.1 11.8-1.7 23.85 2.37 32.13 10.96s11.92 20.84 9.75 32.57c-1.33 7.2-4.88 13.9-10 19.1-.08.08-.14.14-.24.23l-.02.02c-1.66 1.66-.85.84 0 0-8.43 8.42-20.57 12.28-32.34 10.34-3.3-.55-6.5-1.58-9.5-3v.86c.12.05.23.1.35.17 13 5.77 28.6 3.6 39.5-5.52-3.82 4.12-7.25 8.6-10.25 13.34-.14.05-.27.08-.4.12-9.5 3.02-19.9 2.72-29.2-.74v.77l1.4.5c8.87 2.93 18.65 3.04 27.58.3-1.58 2.6-3.03 5.3-4.36 8.03v.02c-8.23 1.42-16.7.83-24.62-1.65v.8c7.8 2.4 16.16 3 24.24 1.68a89.83 89.83 0 0 0-3.02 7.24v.01c-7.14.65-14.34 0-21.22-1.86v.8c6.8 1.8 13.9 2.46 20.94 1.86a89.19 89.19 0 0 0-2.17 6.97v-.01c-6.38.28-12.7-.37-18.77-1.85v.8a68.72 68.72 0 0 0 18.54 1.78c-.6 2.25-1.08 4.54-1.5 6.85h.03c-5.78.1-11.5-.48-17.07-1.7v.77c5.54 1.18 11.23 1.75 16.94 1.67-.38 2.26-.67 4.54-.88 6.82a80.49 80.49 0 0 1-16.06-1.51v.75c5.27 1.02 10.65 1.55 16.05 1.53a77.33 77.33 0 0 0-.3 6.8c-5.3 0-10.57-.48-15.74-1.4v11.6a76.5 76.5 0 0 0 .61-10.71c2.26.38 4.54.67 6.82.88.1 11.96-2.53 23.74-7.42 34.48v1.8c5.33-11.15 8.18-23.46 8.18-35.93h6.8c0 12.15-2.38 23.93-7.07 35.03-2.17 5.13-4.85 10.02-7.92 14.63v1.37l1.77-2.67c11.58-3.8 24.54-2.64 35.24 3.18 10 5.45 17.74 14.75 21.2 25.6a45.08 45.08 0 0 1-.11 27.55c-4.74 3-9.2 6.42-13.3 10.22 7.68-9.2 10.5-21.8 7.58-33.43-2.8-11.15-10.85-20.64-21.35-25.3-9.9-4.4-21.33-4.17-31.02.22v.78a36.25 36.25 0 0 1 10.27-3.12c11.8-1.7 23.85 2.38 32.13 10.96 8.28 8.6 11.92 20.84 9.75 32.57-1.37 7.32-5 14.1-10.24 19.34-.01.01-.02.01-.02.02-8.43 8.42-20.58 12.28-32.34 10.34-3.33-.55-6.54-1.6-9.55-3v.87c.13.06.25.13.4.18 13 5.77 28.6 3.6 39.5-5.52-3.82 4.12-7.25 8.6-10.25 13.34-.14.05-.27.08-.4.12-3.46 1.1-7.04 1.75-10.63 1.98h-5.67c-4.42-.27-8.78-1.2-12.93-2.75v.8c.47.17.93.35 1.4.5a44.68 44.68 0 0 0 5.46 1.42h-6.86v.8m15.65-135.27c12 .01 23.94 2.4 35 7.07h.02c.01 0 .01 0 .02.01.06.02.1.04.15.06 22.5 9.57 40.5 28.34 49.1 51.24 3.8 10.1 5.7 20.84 5.7 31.62a91.25 91.25 0 0 0-6.81.31c0-23.76-10.12-46.6-27.86-62.44-15.27-13.63-35.2-21.06-55.63-21.06a91.25 91.25 0 0 0 .31-6.81zm-.35 7.56c23.76-.18 46.78 10.32 62.42 28.16 13.15 15 20.53 34.68 20.38 54.65a87.08 87.08 0 0 0-6.82.88h-.01c.38-23.56-10.48-46.3-29-60.83-13.57-10.65-30.62-16.32-47.85-16.04a87.08 87.08 0 0 0 .88-6.82zm-1 7.58c23.64-.45 46.46 10.6 60.83 29.34 10.26 13.36 15.7 30.06 15.4 46.9-2.3.4-4.6.9-6.84 1.5h-.03c.97-23.78-10.8-46.77-30.7-59.83-11.86-7.78-26-11.63-40.17-11.05.6-2.25 1.1-4.54 1.5-6.85zm-1.7 7.6c23.78-1.07 46.77 10.8 59.67 30.8 7.56 11.7 11.26 25.6 10.64 39.5v.02c-2.36.63-4.68 1.35-6.96 2.17 1.03-12.07-1.56-24.3-7.5-34.86-5.53-9.84-13.86-18.07-23.76-23.5-10.43-5.7-22.43-8.18-34.27-7.17.83-2.3 1.55-4.6 2.18-6.96zm-2.44 7.75c12.17-1.1 24.53 1.52 35.15 7.6 9.82 5.6 17.98 14.06 23.26 24.06 5.4 10.2 7.66 21.88 6.6 33.37v-.01a89.83 89.83 0 0 0-7.24 3.02c1.95-12.08-.33-24.65-6.5-35.22-5.74-9.83-14.67-17.68-25.15-22.12-9.15-3.87-19.34-5.04-29.14-3.46 1.1-2.36 2.12-4.77 3.02-7.24zm45.3 37.6c-5.5-9.94-14.72-17.65-25.5-21.2-8.87-2.93-18.65-3.04-27.58-.3a90.18 90.18 0 0 0 4.38-8.02c11.98-2.05 24.5.13 35.04 6.22 9.88 5.72 17.77 14.7 22.14 25.25 3.76 9.08 4.84 19.2 3.17 28.9v-.03a94.32 94.32 0 0 0-8.02 4.38c3.56-11.64 2.25-24.55-3.63-35.2zm-27.12 66.38h-3.9c1.53-.3 3.04-.67 4.53-1.12-.22.37-.43.74-.64 1.12zm-178.36.82v-.76h-2.1v-.01l2.1-3.34v-1.52l-1.82 2.73c-.14.05-.27.08-.4.12-3.46 1.1-7.04 1.75-10.64 1.98H88c-6.46-.4-12.82-2.17-18.54-5.28-10-5.45-17.74-14.75-21.2-25.6-2.84-8.9-2.8-18.68.1-27.55a90.43 90.43 0 0 0 13.27-10.19c-7.66 9.2-10.48 21.8-7.55 33.4 2.8 11.15 10.85 20.64 21.35 25.3 9.92 4.4 21.36 4.17 31.06-.24v-.84c-6.75 3.16-14.4 4.3-21.9 3.05-11.45-1.9-21.57-9.36-26.86-19.68-5.48-10.68-5.36-23.78.32-34.36 5.5-10.24 15.75-17.52 27.26-19.2 7.28-1.05 14.65.1 21.17 3.16v-.88c-.14-.07-.28-.14-.43-.2-13-5.77-28.6-3.6-39.5 5.52 3.82-4.12 7.25-8.6 10.25-13.34 9.64-3.16 20.22-2.88 29.67.66v-.78l-1.48-.53c-8.87-2.93-18.66-3.04-27.58-.3a90.18 90.18 0 0 0 4.38-8.02v-.03a52.83 52.83 0 0 1 24.67 1.67v-.8c-7.82-2.4-16.2-3-24.3-1.67 1.1-2.36 2.12-4.77 3.02-7.24v-.04a60.22 60.22 0 0 1 21.27 1.88v-.8a61.06 61.06 0 0 0-20.99-1.87c.82-2.3 1.54-4.6 2.17-6.96v.02c6.4-.3 12.73.37 18.82 1.86V206a68.33 68.33 0 0 0-18.6-1.79c.58-2.25 1.08-4.54 1.5-6.85l-.02-.01c5.8-.1 11.54.47 17.12 1.7v-.78c-5.56-1.18-11.25-1.76-16.97-1.67.38-2.26.67-4.54.88-6.82a80.23 80.23 0 0 1 16.1 1.52v-.68c-5.26-1.02-10.63-1.55-16.03-1.55a77.33 77.33 0 0 0 .3-6.8c5.3 0 10.56.48 15.72 1.4V172.2a76.31 76.31 0 0 0-.6 10.59c-2.26-.38-4.53-.67-6.8-.88-.1-11.94 2.52-23.7 7.4-34.44v-1.84a83.41 83.41 0 0 0-8.18 36.22 77.33 77.33 0 0 0-6.8-.3c0-12 2.4-23.97 7.07-35.03 2.17-5.13 4.84-10.02 7.9-14.63v-1.46l-1.8 2.72c-11.57 3.8-24.54 2.64-35.24-3.2-10-5.45-17.74-14.75-21.2-25.6-2.84-8.9-2.8-18.68.1-27.55 4.76-3 9.23-6.43 13.34-10.24v.01c-7.7 9.2-10.53 21.83-7.6 33.46 2.8 11.16 10.85 20.64 21.35 25.3 9.92 4.4 21.35 4.17 31.05-.24v-.78a36.45 36.45 0 0 1-10.31 3.14c-11.8 1.7-23.85-2.38-32.12-10.96-8.28-8.6-11.92-20.84-9.75-32.57 1.36-7.32 5-14.1 10.24-19.35v-.02c8.44-8.4 20.6-12.28 32.34-10.34 3.34.55 6.57 1.6 9.6 3.03v-.88c-.14-.06-.27-.13-.4-.2-13-5.77-28.6-3.6-39.5 5.52 3.82-4.12 7.25-8.6 10.25-13.34h-.01c.14-.05.27-.08.4-.12 9.52-3.03 19.95-2.7 29.26.77v-.72c-.5-.18-.97-.36-1.47-.52-3.63-1.2-7.42-1.92-11.23-2.17h-6.17c-3.45.23-6.87.86-10.17 1.87.37-.6.7-1.25 1.07-1.87h-.9C73.3 52.88 68 59.6 61.8 65.48 45.23 81.13 22.9 90 .03 90v1.5a91.25 91.25 0 0 0 .31 6.81h-.3v.76H.4c.2 2.3.5 4.57.88 6.8-.42-.01-.84-.01-1.26-.01v.76l1.4.01a79.58 79.58 0 0 0 1.5 6.85c-.96-.04-1.92-.06-2.88-.06v.76c1.03 0 2.06.02 3.08.07.63 2.36 1.35 4.68 2.17 6.96-1.75-.16-3.5-.23-5.25-.23v.76c1.86 0 3.7.08 5.53.25a89.83 89.83 0 0 0 3.02 7.24 54.46 54.46 0 0 0-8.55-.68v.76c3 0 6 .25 8.94.76a94.32 94.32 0 0 0 4.38 8.02c-4.32-1.3-8.8-1.97-13.32-1.97v.76c4.8 0 9.47.74 13.93 2.2 3 4.75 6.43 9.22 10.25 13.34-6.77-5.62-15.4-8.72-24.2-8.72v.76c11.8 0 23.03 5.74 30 15.27 7.05 9.66 8.97 22.53 5.08 33.85-5.1 14.8-19.42 25-35.07 25v.76c11.76 0 22.97-5.58 30.1-14.93 7.23-9.46 9.53-22.12 6.2-33.55-1.45-4.94-3.93-9.57-7.23-13.52 4.12 3.82 8.6 7.25 13.34 10.25 3.8 11.57 2.64 24.54-3.2 35.24-5.45 10-14.75 17.74-25.6 21.2-4.4 1.4-9 2.1-13.62 2.1v.76c11.75 0 23.17-4.62 31.6-12.8C40 205.95 45 194.73 45.37 183a46.09 46.09 0 0 0-1.95-14.8 90.18 90.18 0 0 0 8.02 4.38c2.06 11.98-.13 24.5-6.22 35.04-5.72 9.88-14.7 17.77-25.25 22.14-6.32 2.62-13.13 3.94-19.96 3.94v.76c11.87 0 23.54-4.02 32.84-11.4 9.06-7.2 15.66-17.28 18.5-28.5 1.77-7.02 2.07-14.42.92-21.57 2.36 1.1 4.77 2.12 7.24 3.02 1.1 12.17-1.52 24.53-7.6 35.15a60.23 60.23 0 0 1-24.06 23.26C19.3 238.95 9.68 241.3.01 241.3v.7c23.6 0 45.53-14.2 55.2-35.7 4.22-9.38 5.93-19.78 5.06-30.03 2.3.82 4.6 1.54 6.96 2.17 1.06 23.78-10.8 46.78-30.8 59.7-10.82 6.98-23.56 10.7-36.44 10.7v.76c23.73 0 46.18-12.73 58.4-33.07 6.83-11.37 10.14-24.62 9.6-37.86 2.25.58 4.54 1.08 6.85 1.5.42 23.65-10.58 46.45-29.34 60.85-13 9.98-29.14 15.4-45.5 15.4v.76c23.6 0 46.17-11.3 60.4-30.1 10.13-13.4 15.47-30 15.2-46.78 2.26.38 4.53.67 6.8.88.18 23.76-10.32 46.8-28.16 62.42-14.92 13.06-34.4 20.34-54.24 20.34v.76c23.73 0 46.62-10.36 62.33-28.12 13.38-15.1 20.83-34.9 20.83-55.07H90c0 24.6-10.3 48.5-28.17 65.4a90.42 90.42 0 0 1-61.81 24.6l.33 8.15-.33.02v.9H.4a87.08 87.08 0 0 0 .88 6.82c-.42-.01-.84-.01-1.26-.01v.76l1.4.01a79.58 79.58 0 0 0 1.5 6.85c-.96-.04-1.92-.06-2.88-.06v.76c1.03 0 2.06.02 3.08.07.63 2.36 1.35 4.68 2.17 6.96-1.73-.15-3.48-.22-5.24-.22v.76c1.86 0 3.7.08 5.53.25a89.83 89.83 0 0 0 3.02 7.24 54.46 54.46 0 0 0-8.55-.68v.76c3 0 6 .25 8.94.76.85 1.76 1.78 3.47 2.74 5.16H.02v.75m104-1.92c-.22.37-.43.74-.64 1.12h-3.9c1.53-.3 3.04-.67 4.53-1.12zM39.36 81.8v.02a94.32 94.32 0 0 0 8.02-4.38C43.8 89.1 45.13 102 51 112.66c5.5 9.94 14.72 17.65 25.5 21.2 8.87 2.93 18.65 3.04 27.58.3a90.18 90.18 0 0 0-4.38 8.02c-11.98 2.06-24.5-.13-35.04-6.22-9.88-5.72-17.77-14.7-22.14-25.25-3.76-9.07-4.84-19.2-3.17-28.9zm-8.07 3.4a90.28 90.28 0 0 0 7.24-3c-1.95 12.08.33 24.65 6.5 35.22a53.45 53.45 0 0 0 25.15 22.12c9.15 3.87 19.34 5.04 29.14 3.46-1.1 2.36-2.12 4.77-3.02 7.24-12.17 1.1-24.53-1.52-35.15-7.6-9.82-5.6-17.98-14.06-23.26-24.06-5.4-10.2-7.66-21.88-6.6-33.37zm-7.75 2.48v-.02c2.36-.63 4.68-1.35 6.96-2.17-1.03 12.07 1.56 24.3 7.5 34.86 5.53 9.84 13.86 18.07 23.76 23.5 10.43 5.7 22.43 8.18 34.27 7.17-.82 2.3-1.54 4.6-2.17 6.96-23.78 1.06-46.78-10.8-59.67-30.8-7.57-11.7-11.26-25.6-10.65-39.5zm-.78.17l.02.01c-.97 23.78 10.8 46.77 30.7 59.83 11.86 7.78 26 11.62 40.17 11.05-.58 2.25-1.08 4.54-1.5 6.85-23.65.43-46.44-10.58-60.83-29.34-10.27-13.37-15.7-30.05-15.4-46.9 2.3-.42 4.6-.9 6.84-1.5zm-7.6 1.64l.01-.03c-.36 23.57 10.46 46.28 29 60.82 13.58 10.65 30.6 16.3 47.85 16.04-.38 2.26-.67 4.53-.88 6.8-23.76.18-46.78-10.32-62.4-28.16-13.16-15-20.52-34.66-20.4-54.62 2.3-.2 4.57-.48 6.82-.86zm40.6 84.13h-.02c-22.57-9.55-40.63-28.37-49.25-51.3C2.7 112.24.8 101.5.8 90.72a91.25 91.25 0 0 0 6.81-.31c-.1 23.7 10.18 46.66 27.86 62.44C50.7 166.43 70.7 174 91.1 173.9a77.33 77.33 0 0 0-.3 6.8c-12 0-23.96-2.4-35.03-7.07zM39.3 263.26a94.32 94.32 0 0 0 8.02-4.38c-3.56 11.64-2.25 24.55 3.63 35.2 5.5 9.94 14.72 17.65 25.5 21.2 1.78.6 3.6 1.06 5.45 1.42H63.5v.02c-9.35-5.74-16.8-14.42-21-24.56-3.77-9.1-4.85-19.2-3.2-28.9zm-8.04 3.42c2.47-.9 4.88-1.9 7.24-3.02-1.95 12.08.33 24.65 6.5 35.22 4.2 7.2 10.16 13.33 17.15 17.84H50.93c-5.28-4.74-9.76-10.4-13.07-16.67-5.38-10.2-7.66-21.88-6.6-33.37zm-7.76 2.45c2.36-.63 4.68-1.35 6.96-2.17-1.03 12.07 1.56 24.3 7.5 34.86 3.12 5.56 7.15 10.6 11.84 14.9h-9.52c-2.24-2.52-4.3-5.2-6.15-8.07-7.55-11.7-11.25-25.6-10.63-39.52zm-.76.2c-.7 17.43 5.44 34.4 16.6 47.4h-8.77l-.01-.01c-9.8-13.2-14.96-29.46-14.67-45.9a83.49 83.49 0 0 0 6.85-1.49zm-7.62 1.6c-.25 16.52 5 32.6 14.55 45.77h-8.3c-8.52-13.3-13.2-29-13.06-44.9 2.3-.2 4.57-.5 6.8-.88zM.8 272.23a91.25 91.25 0 0 0 6.81-.31c-.07 15.93 4.56 31.52 12.96 44.82H12.6v-.02C4.95 303.26.8 287.9.8 272.23zm308.73 37.25c-.03.03-.05.06-.08.08l.14-.14c-.02.03-.04.04-.06.06z"/></g><path d="M341.7 160l.58-.6" class="C D E F"/><g class="B"><path d="M347.03 165.36c-.03.03-.07.06-.1.1-.04.04-.08.1-.13.13l.13-.13a.73.73 0 0 1 .1-.09z"/><path d="M346.93 165.46l-.13.13c-6.35 6.44-8.3 16.35-4.78 24.7 3.53 8.34 11.9 13.88 20.93 13.88v-.76c-11.97 0-21.93-9.96-21.93-21.93s9.96-21.93 21.93-21.93v-.76c-5.97 0-11.7 2.36-15.92 6.55a.47.47 0 0 1-.1.1zm16.03-6.66h.01z"/></g><g class="C D E F"><path d="M304.38 303.94"/><path d="M304.36 303.96l.02-.02m-.42.42l.02-.02m.4-.4l1.8-1.8"/></g><path d="M346.7 165.7l-.28.28c.07-.06.17-.16.28-.28zm16.27 1.42v-.76a15.09 15.09 0 0 0-10.69 4.43c-4.3 4.3-5.65 10.96-3.28 16.57 2.35 5.57 7.93 9.26 13.97 9.26v-.76c-7.85 0-14.37-6.52-14.37-14.37s6.52-14.37 14.37-14.37zm-16.57-1.14c-.1.1-.13.13 0 0zM264.08 285c4.87 3.16 11.43 3.15 16.3 0 8-5.17 9.3-16.7 2.54-23.45-4.17-4.15-10.36-5.53-15.9-3.53H267c-5.26 1.93-9.17 6.84-9.8 12.42-.65 5.76 2 11.4 6.87 14.56zm-1.76-23.14c4.24-4.06 10.77-5.15 16.08-2.6 6.82 3.26 10.07 11.56 7.1 18.57v-.01c-.02.04-.03.07-.05.1-2.26 5.22-7.52 8.7-13.22 8.7-5.78-.03-11-3.48-13.27-8.8-2.3-5.45-.9-11.9 3.35-15.96zm29.3 33.58c6.44-5.4 10.42-13.32 10.8-21.72.4-8.5-2.8-16.85-8.83-22.88-8.5-8.5-21.64-11.2-32.8-6.65h.02a30.28 30.28 0 0 0-4.32 2.21v.92c7.83-4.9 17.75-6.03 26.54-2.57 7.1 2.8 13 8.43 16.13 15.4 3.32 7.4 3.42 16.1.27 23.55-4.53 10.7-15.22 17.9-26.84 18.03-5.78.07-11.36-1.6-16.1-4.6v.97a34.22 34.22 0 0 0 1.86 1.06c10.68 5.53 24.07 4.04 33.27-3.7zm55.54-130.2c.6-.6.37-.37 0 0zm-60.42 124.42c9.26-7.77 10.85-21.9 3.32-31.43a20.61 20.61 0 0 0-1.81-2.04h.02c-8.56-8.56-22.78-8.8-31.6-.48-.07.06-.12.13-.2.2v1.12c6.32-6.43 16.35-8.67 24.88-4.76 10.58 4.87 15.65 17.7 11.1 28.48v-.01c-4.75 11.22-18.27 16.56-29.37 11.45a21.14 21.14 0 0 1-6.6-4.76v1.1c8.2 7.86 21.44 8.55 30.26 1.13zm5.53-8.42c-.15.36-.12.27 0 0zm17.45 28.06c3.1-3.12 1.53-1.54-.14.13l-.08.08a1.47 1.47 0 0 0 .22-.21zm37.08-143.7l-.1.1c.04-.04.07-.08.1-.1l.13-.13a.8.8 0 0 0-.13.13zm.23-.24l.13-.13-.13.13zM79.35 244.2c-10.77 4.4-18.25 14.92-18.8 26.55-.55 11.75 5.88 22.98 16.35 28.4h.01c9.33 4.83 20.73 4.3 29.6-1.07v-.96c-4.54 2.87-9.84 4.54-15.36 4.6-11.64.14-22.5-6.8-27.3-17.42-4.87-10.82-2.6-23.88 5.6-32.45v-.01c8.2-8.56 21.08-11.46 32.14-7.1 1.72.68 3.37 1.53 4.93 2.52v-.82c-8.08-4.88-18.25-5.9-27.16-2.25zm27.15 11.7c-.3-.3-.47-.47 0 0z" class="B"/><path d="M15.97 197.65v.01m-.01 0l-.26.26" class="C D E F"/><g class="B"><path d="M27.1 169.72c4.75 10.88 2.3 23.9-5.97 32.38a29.56 29.56 0 0 1-21.09 8.88v.76c8 0 15.73-3.2 21.4-8.86 8.5-8.5 11.2-21.65 6.64-32.8-4.4-10.77-14.92-18.25-26.55-18.8l-1.5-.04v.76c11.63 0 22.4 7.06 27.07 17.72zm48.12 86c-8.8 8.3-9.5 22.5-1.43 31.57 8.04 9.03 22.22 10.18 31.5 2.38h.02c.42-.35.8-.73 1.2-1.1v-1.08c-6.3 6.4-16.3 8.67-24.86 4.73-11.06-5.1-16-18.77-10.53-29.7 5.2-10.44 18.17-15.1 28.8-10.22 2.54 1.17 4.75 2.8 6.6 4.75v-1.12c-8.6-8.26-22.6-8.42-31.3-.2zM85.55 258c-5.26 1.93-9.17 6.84-9.8 12.42-.65 5.76 2 11.4 6.87 14.56h-.01c4.87 3.15 11.43 3.15 16.3 0 8-5.17 9.3-16.7 2.54-23.45-4.1-4.13-10.4-5.54-15.9-3.53zm18.48 19.8c.18-.43.37-.86 0 0a14.52 14.52 0 0 1-13.27 8.8c-5.78-.03-11-3.48-13.27-8.8-2.3-5.45-.9-11.9 3.35-15.96l.01-.01c4.24-4.06 10.77-5.15 16.08-2.6 6.82 3.26 10.07 11.57 7.1 18.57zm-104-74.37v.76c5.96 0 11.68-2.36 15.93-6.53l.03-.03c.02-.02.05-.04.08-.07s.06-.07.1-.1c.17-.17.34-.33.43-.43l-.4.4c6.34-6.45 8.3-16.36 4.77-24.72-3.52-8.34-11.9-13.88-20.93-13.88v.76c11.97-.02 21.93 9.94 21.93 21.9S12 203.43.03 203.43zM10.7 192.2l-.1.1c.03-.03.07-.06.1-.1 4.3-4.3 5.65-10.95 3.28-16.56v.01c-2.35-5.57-7.93-9.26-13.97-9.26v.76c7.85 0 14.37 6.52 14.37 14.37S7.87 195.88.02 195.88v.76c3.98-.01 7.76-1.57 10.6-4.34l.1-.1zm5.9 4.82c.13-.13.1-.1 0 0z"/><path d="M15.56 198.05c-.14.15-.1.12 0 0zm-4.94-5.75c-.3.3-.5.5 0 0l.1-.1c-.04.03-.07.06-.1.1z"/></g></svg>