<svg xmlns="http://www.w3.org/2000/svg" width="363" height="272" viewBox="0 45.5 363 272" fill="#ccd3d9"><path d="M69.37 112.15c-1.4-1.4-.7-.7 0 0z"/><path d="M102.18 118.8c10.77-4.4 18.25-14.92 18.8-26.55.55-11.75-5.88-22.98-16.35-28.4-10.68-5.53-24.07-4.04-33.27 3.7-6.44 5.4-10.42 13.32-10.8 21.73a30.33 30.33 0 0 0 8.82 22.87c8.5 8.5 21.65 11.2 32.8 6.65zM63.9 78.5c-.07.15-.16.4-.27.63l.27-.63zm-.34.8C68.1 68.6 78.78 61.4 90.4 61.28c11.64-.14 22.5 6.8 27.3 17.42 4.87 10.82 2.6 23.88-5.6 32.45-8.2 8.56-21.08 11.46-32.14 7.1a29.98 29.98 0 0 1-16.12-15.41c-3.32-7.37-3.42-16.1-.27-23.53zm11.16 27.5c-2.1-2.1 2.1 2.1 0 0z"/><path d="M74.72 106.8c8.56 8.56 22.78 8.8 31.6.48 8.8-8.3 9.5-22.5 1.43-31.57-8.04-9.03-22.22-10.18-31.5-2.38-9.26 7.77-10.85 21.9-3.32 31.43a20.61 20.61 0 0 0 1.81 2.04zm-4.2-24.56C75.27 71.02 88.8 65.68 99.9 70.8c11.06 5.1 16 18.77 10.53 29.7-5.2 10.44-18.17 15.1-28.8 10.22-10.6-4.88-15.66-17.7-11.1-28.48zm9.38 19.06l.17.17C84.2 105.6 90.5 107 95.97 105c5.26-1.93 9.17-6.85 9.8-12.42.65-5.76-2-11.4-6.87-14.56s-11.43-3.15-16.3 0c-8 5.17-9.3 16.7-2.55 23.45-.07-.06-.12-.1-.17-.16zm-2.4-16.1a14.51 14.51 0 0 1 13.27-8.8 14.5 14.5 0 0 1 13.27 8.8c2.3 5.45.9 11.9-3.35 15.96-4.24 4.06-10.77 5.15-16.08 2.6-6.82-3.26-10.07-11.57-7.1-18.57z"/><path d="M80.07 101.46c.7.7.35.35 0 0zm-19.45-44.4l.4-.4-.4.4zm-.12.1l-1.33 1.33 1.33-1.33zm-2 2l-1.07 1.07 1.07-1.07zm-1.48 1.5l-.37.37c.05-.04.18-.18.37-.37z"/><path d="M54.02 62.3c-14.9 12.95-34.27 20.15-54 20.15v.76c21.95 0 43.3-8.84 58.8-24.37 4.07-4.07 7.67-8.55 10.8-13.33h-.92c-4.1 6.2-9 11.86-14.68 16.8zm-54 12.58v.76c19.86 0 39.16-7.97 53.26-21.95.07-.07.14-.13.2-.2a1.89 1.89 0 0 1 .2-.2c.07-.06.14-.15.22-.23l.8-.8-.8.8c2.33-2.38 4.5-4.9 6.5-7.55h-.98c-4.24 5.57-9.26 10.57-14.97 14.8C31.63 69.77 15.93 74.9.01 74.9z"/><path d="M53.28 53.7c-3.05 3.05-1.62 1.62 0 0zm2.1-2.1c.14-.13.16-.15 0 0zm-.01 0l-.56.56.56-.56zM.02 67.32v.76c17.97 0 35.42-7.23 48.12-19.94a69.07 69.07 0 0 0 2.5-2.64h-1.08c-4.45 4.88-9.63 9.14-15.42 12.55-10.3 6.07-22.16 9.27-34.12 9.27zm38.7-21.82c-4.55 3.87-9.66 7.08-15.16 9.44-7.42 3.2-15.47 4.8-23.55 4.8v.76a60.72 60.72 0 0 0 39.86-15h-1.15zm-13.15 0c-4.34 2.45-9.03 4.3-13.92 5.4A52.88 52.88 0 0 1 .02 52.19v.76c9.56 0 18.92-2.63 27.04-7.45h-1.5zm268.55 24.36l.24.24-.24-.24zm0 0l-.5-.5-.13-.12-.01-.01c-8.5-8.4-21.56-11.05-32.66-6.5-10.77 4.4-18.25 14.92-18.8 26.55-.55 11.76 5.88 23 16.34 28.4 10.68 5.53 24.07 4.04 33.27-3.7 6.44-5.4 10.42-13.32 10.8-21.73.4-8.42-2.74-16.67-8.64-22.68l.3.3zm5.32 32.36c-4.53 10.7-15.22 17.9-26.84 18.03-11.64.14-22.5-6.8-27.3-17.42-4.87-10.82-2.6-23.88 5.6-32.45 8.2-8.56 21.08-11.46 32.14-7.1 7.1 2.8 13 8.43 16.13 15.4 3.32 7.4 3.42 16.1.27 23.55zm-11.16-27.5l.37.37-.37-.37zm4.2 24.56h.01v-.01z"/><path d="M288.8 75.23c.15.14.12.1 0 0zm-.52-.5c-8.56-8.56-22.78-8.8-31.6-.48-8.8 8.3-9.5 22.5-1.43 31.57 8.04 9.03 22.22 10.17 31.5 2.38 9.26-7.77 10.85-21.9 3.32-31.43a20.61 20.61 0 0 0-1.81-2.04zm4.2 24.56c-4.75 11.22-18.27 16.55-29.37 11.45-11.06-5.1-16-18.77-10.53-29.7 5.2-10.44 18.17-15.1 28.8-10.22 10.58 4.87 15.65 17.7 11.1 28.48zm-9.55-19.23c-.35-.35-.7-.7 0 0z"/><path d="M267.03 76.54c-5.26 1.93-9.17 6.85-9.8 12.42-.65 5.76 2 11.4 6.87 14.56s11.43 3.15 16.3 0c8-5.18 9.3-16.7 2.55-23.45-4.13-4.12-10.42-5.54-15.9-3.53zm18.48 19.78v.02c-2.24 5.28-7.53 8.8-13.27 8.8s-11.03-3.5-13.27-8.8c-2.3-5.45-.9-11.9 3.35-15.96 4.24-4.06 10.77-5.15 16.08-2.6 6.82 3.26 10.07 11.56 7.1 18.56z"/><path d="M283.33 80.46l-.4-.4.4.4zM363 317.5v-.75h-24.2c3.95-2.08 8.16-3.66 12.54-4.65 3.82-.87 7.73-1.3 11.64-1.3v-.76c-9.05 0-17.92 2.36-25.74 6.7H325.2c4.3-3.53 9.1-6.5 14.24-8.7 7.43-3.2 15.48-4.82 23.56-4.82v-.76c-14.26 0-28.13 5.15-38.97 14.27h-9.87c4.3-4.56 9.22-8.56 14.72-11.8 10.3-6.07 22.16-9.27 34.12-9.27v-.76c-17.97 0-35.42 7.23-48.13 19.94-.6.62-1.2 1.25-1.78 1.9h-8.9c4.1-5.26 8.93-10 14.38-14.04 12.8-9.47 28.5-14.6 44.43-14.6v-.76c-19.96 0-39.36 8.04-53.46 22.15a73.66 73.66 0 0 0-6.34 7.24h-8.38c3.98-5.9 8.72-11.3 14.17-16.04 14.9-12.96 34.27-20.16 54-20.16v-.76c-21.86 0-43.1 8.77-58.6 24.18l-.04.04c-.05.05-.1.1-.16.15a.96.96 0 0 0-.14.15l-.06.06c-3.78 3.8-7.13 7.96-10.07 12.38h-8.08c4.2-7.02 9.34-13.5 15.35-19.17 16.63-15.72 38.95-24.6 61.82-24.6l-.28-8.22h.26v-.85h-.38a90.1 90.1 0 0 0-.88-6.82c.42.01.84.01 1.26.01v-.76c-.46 0-.93-.01-1.4-.01a90.54 90.54 0 0 0-1.49-6.85 68.46 68.46 0 0 0 2.88.06v-.76a63.3 63.3 0 0 1-3.08-.07c-.63-2.36-1.35-4.68-2.17-6.96 1.73.15 3.48.22 5.24.22v-.76c-1.86 0-3.7-.08-5.53-.25a88.34 88.34 0 0 0-3.02-7.24c2.8.45 5.66.68 8.55.68v-.76a52.12 52.12 0 0 1-8.94-.76 94.06 94.06 0 0 0-4.38-8.02 45.69 45.69 0 0 0 13.32 1.97v-.76c-4.8 0-9.47-.74-13.93-2.2a91.05 91.05 0 0 0-10.25-13.34c6.76 5.65 15.38 8.74 24.18 8.74v-.76c-11.8 0-23.03-5.74-30-15.27-7.05-9.66-8.97-22.53-5.08-33.85 5.1-14.8 19.42-25 35.07-25v-.76c-11.76 0-22.97 5.58-30.1 14.93-7.23 9.46-9.54 22.12-6.2 33.55 1.45 4.95 3.93 9.57 7.23 13.52a91.75 91.75 0 0 0-13.34-10.25c-3.8-11.57-2.64-24.54 3.18-35.24 5.45-10 14.75-17.74 25.6-21.2 4.4-1.4 9-2.1 13.62-2.1v-.76c-11.75 0-23.17 4.62-31.6 12.8-8.4 8.16-13.4 19.38-13.75 31.1a46.09 46.09 0 0 0 1.95 14.8 90.18 90.18 0 0 0-8.02-4.38c-2.05-11.98.13-24.5 6.22-35.04 5.72-9.88 14.7-17.77 25.25-22.14 6.32-2.62 13.13-3.94 19.96-3.94v-.76c-11.87 0-23.54 4.02-32.84 11.4-9.06 7.2-15.66 17.28-18.5 28.5-1.77 7.02-2.07 14.42-.92 21.57-2.36-1.1-4.77-2.12-7.24-3.02-1.1-12.17 1.52-24.53 7.6-35.15 5.6-9.82 14.06-17.98 24.06-23.26 8.57-4.52 18.17-6.86 27.84-6.86v-.7c-23.6 0-45.53 14.2-55.2 35.7-4.22 9.38-5.93 19.78-5.06 30.03a90.59 90.59 0 0 0-6.96-2.17c-1.07-23.78 10.8-46.78 30.8-59.7 10.82-6.98 23.56-10.7 36.44-10.7v-.76c-23.73 0-46.2 12.73-58.4 33.07-6.83 11.37-10.14 24.62-9.6 37.86-2.25-.58-4.54-1.08-6.85-1.5-.45-23.64 10.6-46.46 29.34-60.85 13-9.98 29.14-15.4 45.5-15.4v-.76c-23.6 0-46.18 11.3-60.4 30.1-10.12 13.4-15.5 30-15.2 46.78a90.1 90.1 0 0 0-6.82-.88c-.18-23.76 10.32-46.8 28.16-62.42C323.65 106.28 343.1 99 362.97 99v-.76c-23.73 0-46.63 10.36-62.34 28.12-13.5 15.23-20.83 35.07-20.83 55.38a90.28 90.28 0 0 0-6.81-.31c0-24.48 10.18-48.26 27.9-65.15C317.57 100.5 340 91.52 363 91.52l-.23-8.16h.23v-.9h-.38c-.2-2.3-.5-4.57-.88-6.8.42.01.84.01 1.26.01v-.76c-.46 0-.93-.01-1.4-.01a90.54 90.54 0 0 0-1.49-6.85 68.46 68.46 0 0 0 2.88.06v-.76a63.3 63.3 0 0 1-3.08-.07c-.63-2.36-1.35-4.68-2.17-6.96 1.73.15 3.48.22 5.24.22v-.76c-1.86 0-3.7-.08-5.53-.25-.9-2.47-1.9-4.88-3.02-7.24 2.8.45 5.66.68 8.55.68v-.76a52.12 52.12 0 0 1-8.94-.76 90.88 90.88 0 0 0-3.17-5.93h-.83a90.35 90.35 0 0 1 12.2 45.26 90.28 90.28 0 0 0-6.81.31c0-16.27-4.75-32.1-13.44-45.57h-.87c8.83 13.47 13.66 29.46 13.54 45.65a85.26 85.26 0 0 0-6.82.87c.27-16.82-5.2-33.22-15.08-46.52h-.88c10.14 13.32 15.52 29.9 15.2 46.65a79.58 79.58 0 0 0-6.85 1.5c.72-17.75-5.66-35.07-17.22-48.14h-.98c2.5 2.73 4.78 5.68 6.82 8.83 7.55 11.7 11.25 25.6 10.63 39.5-2.36.63-4.68 1.35-6.96 2.17 1.03-12.07-1.56-24.3-7.5-34.86-3.3-5.88-7.6-11.18-12.65-15.65h-1.15a60.21 60.21 0 0 1 13.9 17.42c5.4 10.2 7.66 21.88 6.6 33.37a88.34 88.34 0 0 0-7.24 3.02c1.95-12.08-.33-24.65-6.5-35.22-4.44-7.6-10.8-14-18.3-18.6h-1.44a.88.88 0 0 1 .1.06c9.88 5.72 17.77 14.7 22.14 25.25 3.76 9.08 4.84 19.2 3.17 28.9a94.06 94.06 0 0 0-8.02 4.38c3.56-11.64 2.25-24.55-3.63-35.2-5.5-9.94-14.72-17.65-25.5-21.2-3.58-1.18-7.3-1.9-11.08-2.16H269c-3.4.24-6.8.86-10.05 1.86.37-.6.72-1.24 1.08-1.86h-.96c-4.27 7.3-9.56 14.02-15.77 19.9C226.67 81.1 204.35 90 181.48 90a90.28 90.28 0 0 0-.31-6.81c23.76.13 46.7-10.17 62.48-27.84 2.76-3.1 5.25-6.4 7.5-9.84h-.94c-4.08 6.2-9 11.86-14.68 16.8-14.97 13-34.54 20.3-54.38 20.15-.2-2.3-.5-4.57-.88-6.8 23.57.36 46.28-10.46 60.82-29 .3-.37.56-.75.84-1.12h-1c-4.24 5.57-9.27 10.57-14.98 14.8-13.2 9.75-29.43 14.87-45.82 14.58a90.54 90.54 0 0 0-1.49-6.85c20.3.83 40.03-7.64 53.5-22.53h-1.07c-4.45 4.9-9.64 9.15-15.45 12.57-11.2 6.6-24.2 9.77-37.2 9.2-.63-2.36-1.35-4.68-2.17-6.96 12.07 1.03 24.3-1.56 34.86-7.5 3.68-2.07 7.13-4.52 10.3-7.3h-1.17c-4.55 3.87-9.66 7.08-15.16 9.44-9.13 3.92-19.2 5.46-29.1 4.57-.9-2.47-1.9-4.88-3.02-7.24 12.08 1.95 24.65-.33 35.22-6.5.14-.08.28-.17.42-.26h-1.55c-4.34 2.45-9.03 4.3-13.92 5.4-6.73 1.53-13.78 1.7-20.58.54a86.64 86.64 0 0 0-3.18-5.94h-.86c7.93 13.66 12.25 29.32 12.25 45.26a90.28 90.28 0 0 0-6.81.31c.08-16.23-4.73-32.1-13.43-45.57h-.86c8.83 13.46 13.66 29.46 13.53 45.64-2.3.2-4.57.5-6.8.88.26-16.83-5.2-33.22-15.08-46.52h-.9c10.15 13.33 15.5 29.9 15.2 46.65a90.54 90.54 0 0 0-6.85 1.49c.72-17.75-5.66-35.07-17.22-48.14h-.98c2.5 2.73 4.78 5.67 6.8 8.82 7.55 11.7 11.25 25.6 10.63 39.52-2.36.63-4.68 1.35-6.96 2.17 1.03-12.07-1.56-24.3-7.5-34.86-3.3-5.88-7.6-11.18-12.65-15.65h-1.15c5.65 4.88 10.4 10.8 13.9 17.42 5.38 10.2 7.66 21.88 6.6 33.37-2.47.9-4.88 1.9-7.24 3.02 1.95-12.08-.33-24.65-6.5-35.22-4.44-7.6-10.8-14-18.3-18.6h-1.45c.04.02.07.04.1.06 9.88 5.72 17.77 14.7 22.14 25.25 3.77 9.1 4.85 19.2 3.2 28.9a94.06 94.06 0 0 0-8.02 4.38c3.56-11.64 2.25-24.55-3.63-35.2-5.5-9.94-14.72-17.65-25.5-21.2-3.63-1.2-7.42-1.92-11.23-2.17h-6.17c-3.45.23-6.87.86-10.17 1.87.37-.6.7-1.25 1.07-1.87h-.9c-4.27 7.3-9.56 14.02-15.78 19.9C45.22 81.12 22.9 90 .02 90v1.5a90.28 90.28 0 0 0 .31 6.81h-.3v.76H.4c.2 2.3.5 4.57.88 6.8-.42-.01-.84-.01-1.26-.01v.76l1.4.01a90.54 90.54 0 0 0 1.49 6.85 68.46 68.46 0 0 0-2.88-.06v.76c1.03 0 2.06.02 3.08.07.63 2.36 1.35 4.68 2.17 6.96a57.46 57.46 0 0 0-5.25-.23v.76c1.86 0 3.7.08 5.53.25a88.34 88.34 0 0 0 3.02 7.24 53.8 53.8 0 0 0-8.55-.68v.76a52.12 52.12 0 0 1 8.94.76 94.06 94.06 0 0 0 4.38 8.02 45.69 45.69 0 0 0-13.32-1.97v.76c4.8 0 9.47.74 13.93 2.2a91.05 91.05 0 0 0 10.25 13.34c-6.77-5.62-15.4-8.72-24.2-8.72v.76c11.8 0 23.03 5.74 30 15.27 7.05 9.66 8.97 22.53 5.08 33.85-5.1 14.8-19.42 25-35.07 25v.76c11.76 0 22.97-5.58 30.1-14.93 7.23-9.46 9.53-22.12 6.2-33.55-1.45-4.94-3.93-9.57-7.23-13.52a91.21 91.21 0 0 0 13.34 10.25c3.8 11.57 2.64 24.54-3.2 35.24-5.45 10-14.75 17.74-25.6 21.2-4.4 1.4-9 2.1-13.62 2.1v.76c11.75 0 23.17-4.62 31.6-12.8C40 205.94 45 194.72 45.36 183a46.09 46.09 0 0 0-1.95-14.8 90.18 90.18 0 0 0 8.02 4.38c2.06 11.98-.13 24.5-6.22 35.04-5.72 9.88-14.7 17.77-25.25 22.14-6.32 2.62-13.13 3.94-19.96 3.94v.76c11.87 0 23.54-4.02 32.84-11.4 9.06-7.2 15.66-17.28 18.5-28.5 1.77-7.02 2.07-14.42.92-21.57 2.36 1.1 4.77 2.12 7.24 3.02 1.1 12.17-1.52 24.53-7.6 35.15a60.23 60.23 0 0 1-24.06 23.26c-8.56 4.52-18.17 6.86-27.84 6.86v.72c23.6 0 45.53-14.2 55.2-35.7 4.22-9.38 5.93-19.78 5.06-30.03a90.59 90.59 0 0 0 6.96 2.17c1.06 23.78-10.8 46.78-30.8 59.7-10.82 6.98-23.56 10.7-36.44 10.7v.76c23.73 0 46.18-12.73 58.4-33.07 6.83-11.37 10.14-24.62 9.6-37.86 2.25.58 4.54 1.08 6.85 1.5.42 23.65-10.58 46.45-29.34 60.85-13 9.98-29.14 15.4-45.5 15.4v.76c23.6 0 46.17-11.3 60.4-30.1 10.13-13.4 15.47-30 15.2-46.78a89.84 89.84 0 0 0 6.81.88c.18 23.76-10.32 46.8-28.16 62.42-14.92 13.06-34.4 20.34-54.24 20.34v.76c23.73 0 46.62-10.36 62.34-28.12 13.38-15.1 20.83-34.9 20.83-55.07H90c0 24.6-10.3 48.5-28.17 65.4a90.38 90.38 0 0 1-61.81 24.6l.33 8.15-.33.02v.9H.4a90.1 90.1 0 0 0 .88 6.82c-.42-.01-.84-.01-1.26-.01v.76l1.4.01a90.54 90.54 0 0 0 1.49 6.85 68.46 68.46 0 0 0-2.88-.06v.76c1.03 0 2.06.02 3.08.07.63 2.36 1.35 4.68 2.17 6.96-1.73-.15-3.48-.22-5.24-.22v.76c1.86 0 3.7.08 5.53.25a88.34 88.34 0 0 0 3.02 7.24 53.8 53.8 0 0 0-8.55-.68v.76a52.12 52.12 0 0 1 8.94.76c.85 1.76 1.78 3.47 2.74 5.16H0v.75M189.06 90.45c0 23.76 10.12 46.6 27.86 62.44 15.22 13.58 35.24 21.15 55.63 21.06a90.28 90.28 0 0 0-.31 6.81c-24.48 0-48.25-10.18-65.14-27.9-15.88-16.65-24.85-39.1-24.85-62.1 2.3-.03 4.57-.14 6.8-.32zm44.7 82.5c2.36 1.1 4.77 2.12 7.24 3.02 1.1 12.17-1.52 24.53-7.6 35.15a60.23 60.23 0 0 1-24.06 23.26c-10.2 5.38-21.88 7.66-33.37 6.6a88.34 88.34 0 0 0-3.02-7.24c2.8.46 5.65.7 8.54.7 11.87 0 23.54-4.02 32.84-11.4 9.06-7.2 15.66-17.28 18.5-28.5 1.77-7.02 2.07-14.42.92-21.57zm8 3.3a90.59 90.59 0 0 0 6.96 2.17c1.07 23.77-10.8 46.78-30.8 59.7-11.7 7.55-25.62 11.25-39.52 10.63-.63-2.36-1.35-4.68-2.17-6.96 1.76.13 3.5.2 5.27.2 23.6 0 45.54-14.2 55.2-35.7 4.22-9.38 5.93-19.78 5.06-30.03zm7.73 2.37c2.25.58 4.54 1.08 6.85 1.5.45 23.64-10.6 46.46-29.34 60.85-13.36 10.26-30.06 15.7-46.9 15.4a90.54 90.54 0 0 0-1.49-6.85l2.9.05c23.73 0 46.18-12.73 58.4-33.07 6.83-11.37 10.14-24.62 9.6-37.86zm-22.8 28.98c-5.72 9.88-14.7 17.77-25.25 22.14-9.1 3.77-19.2 4.85-28.9 3.2a94.06 94.06 0 0 0-4.38-8.02 46.14 46.14 0 0 0 13.33 1.96c11.75 0 23.17-4.62 31.6-12.8 8.4-8.16 13.4-19.38 13.75-31.1a46.09 46.09 0 0 0-1.95-14.8 90.18 90.18 0 0 0 8.02 4.38c2.05 11.98-.13 24.5-6.22 35.04zm-5.97-4.8c-5.45 10-14.75 17.74-25.6 21.2a45.08 45.08 0 0 1-27.55-.11 91.05 91.05 0 0 0-10.25-13.34 37.16 37.16 0 0 0 9.48 5.79c11 4.66 24 3.73 34.23-2.46 9.93-6 16.74-16.5 18.04-28.05 1.15-10.23-1.9-20.62-8.5-28.53a91.21 91.21 0 0 0 13.34 10.25c3.8 11.57 2.64 24.54-3.18 35.24zm-3.43-11.65c-3 11.15-11.34 20.5-22.06 24.78-11.13 4.45-24.14 3.13-34.13-3.48-6.08-4.03-10.94-9.84-13.78-16.55-4.67-11.05-3.6-24.1 2.84-34.23 6.28-9.88 17.08-16.37 28.77-17.15 11.85-.8 23.47 4.18 31.08 13.3 7.65 9.17 10.37 21.8 7.28 33.33zm-45.07-46.33c-11.16 2.8-20.64 10.85-25.3 21.35-5.77 13-3.6 28.6 5.52 39.5a91.21 91.21 0 0 0-13.34-10.25c-1.47-4.47-2.2-9.14-2.2-13.94 0-11.8 4.73-23.2 13.07-31.55s19.76-13.07 31.55-13.07c4.72 0 9.44.73 13.93 2.2a91.05 91.05 0 0 0 10.25 13.34c-9.2-7.7-21.83-10.53-33.46-7.6zm-12.6-3.1c-9.94 5.5-17.65 14.72-21.2 25.5-2.93 8.87-3.04 18.65-.3 27.58a90.18 90.18 0 0 0-8.02-4.38c-1.7-9.8-.56-20.05 3.32-29.22 4.4-10.4 12.22-19.25 22-24.9 10.53-6.1 23.06-8.27 35.04-6.22a94.06 94.06 0 0 0 4.38 8.02c-11.64-3.56-24.55-2.25-35.2 3.63zm-4.78-5.96a53.5 53.5 0 0 0-22.12 25.15c-3.87 9.14-5.04 19.34-3.46 29.14-2.36-1.1-4.77-2.12-7.24-3.02-1.1-12.17 1.52-24.53 7.6-35.15 5.6-9.82 14.06-17.98 24.06-23.26 10.2-5.38 21.88-7.66 33.37-6.6a88.34 88.34 0 0 0 3.02 7.24c-12.08-1.95-24.65.33-35.22 6.5zm-2.94-7.05a61.06 61.06 0 0 0-23.5 23.76c-5.7 10.43-8.18 22.44-7.18 34.27a90.59 90.59 0 0 0-6.96-2.17c-1.06-23.78 10.8-46.78 30.8-59.7 11.7-7.55 25.6-11.25 39.52-10.63.63 2.36 1.35 4.68 2.17 6.96-12.07-1.03-24.3 1.56-34.86 7.5zm-27.34 15.5c-7.8 11.87-11.63 26-11.05 40.18-2.25-.58-4.54-1.08-6.85-1.5-.42-23.65 10.58-46.45 29.34-60.85 13.37-10.27 30.05-15.7 46.9-15.4a90.54 90.54 0 0 0 1.49 6.85c-23.78-.97-46.77 10.8-59.82 30.7zm31.34 65.94c15.87 16.66 24.85 39.1 24.85 62.08a107.89 107.89 0 0 0-6.8.33c.1-23.7-10.18-46.66-27.86-62.44-15.27-13.63-35.2-21.06-55.63-21.06a90.28 90.28 0 0 0 .31-6.81c24.48 0 48.25 10.18 65.14 27.9zm24.34 46.96c23.56.38 46.28-10.48 60.82-29 10.65-13.57 16.32-30.62 16.04-47.86a90.1 90.1 0 0 0 6.82.88c.18 23.76-10.32 46.8-28.16 62.42-15 13.15-34.68 20.53-54.64 20.38-.2-2.3-.5-4.56-.88-6.8zm63.38-20.3c13.52-15.15 21.06-35.03 21.06-55.33h6.8c0 12.15-2.38 23.93-7.07 35.03-9.55 22.57-28.37 40.63-51.3 49.25-10.1 3.8-20.85 5.72-31.62 5.72a90.28 90.28 0 0 0-.31-6.81c23.76 0 46.6-10.12 62.43-27.86zm-60.86-130.9c-23.57-.36-46.28 10.46-60.82 29.02-10.65 13.58-16.3 30.6-16.04 47.86a89.84 89.84 0 0 0-6.81-.88c-.18-23.76 10.32-46.8 28.16-62.43 15-13.15 34.7-20.53 54.64-20.38a85.6 85.6 0 0 0 .87 6.81zm-32.88-8.67c10.1-3.8 20.85-5.7 31.62-5.7a90.28 90.28 0 0 0 .31 6.81c-23.7-.1-46.66 10.18-62.43 27.86a83.45 83.45 0 0 0-21.06 55.64 90.28 90.28 0 0 0-6.81-.31c0-12 2.4-23.97 7.07-35.03 9.55-22.58 28.37-40.64 51.3-49.26zm-73.05-48.9c.14-.05.27-.08.4-.12 11.48-3.65 24.27-2.46 34.85 3.3 10 5.45 17.74 14.75 21.2 25.6 2.84 8.9 2.8 18.68-.1 27.55a91.05 91.05 0 0 0-13.34 10.25c7.7-9.2 10.53-21.83 7.6-33.46-2.8-11.15-10.85-20.64-21.35-25.3-13-5.77-28.6-3.6-39.5 5.52a91.75 91.75 0 0 0 10.25-13.34zm-12.27 16.2C73 56.13 85.15 52.26 96.9 54.2c11.45 1.9 21.57 9.36 26.86 19.68 5.48 10.68 5.36 23.78-.32 34.36-5.5 10.24-15.75 17.52-27.26 19.2-11.8 1.7-23.85-2.38-32.12-10.96-8.28-8.6-11.92-20.84-9.75-32.57 1.36-7.32 5-14.1 10.24-19.35zm-2.87 2.02c-7.7 9.2-10.53 21.83-7.6 33.46 2.8 11.16 10.85 20.64 21.35 25.3 13 5.77 28.6 3.6 39.5-5.52a91.21 91.21 0 0 0-10.25 13.34c-11.57 3.8-24.54 2.64-35.24-3.2-10-5.45-17.74-14.75-21.2-25.6-2.84-8.9-2.8-18.68.1-27.55 4.76-3 9.23-6.43 13.34-10.24zM39.35 81.82a94.06 94.06 0 0 0 8.02-4.38C43.8 89.08 45.12 102 51 112.65c5.5 9.94 14.72 17.65 25.5 21.2 8.87 2.93 18.65 3.04 27.58.3a90.18 90.18 0 0 0-4.38 8.02c-11.98 2.06-24.5-.13-35.04-6.22-9.88-5.72-17.77-14.7-22.14-25.25-3.76-9.07-4.84-19.2-3.17-28.9zm-8.07 3.4c2.47-.9 4.88-1.9 7.24-3.02-1.95 12.08.33 24.65 6.5 35.22a53.5 53.5 0 0 0 25.15 22.12c9.15 3.87 19.34 5.04 29.14 3.46-1.1 2.36-2.12 4.77-3.02 7.24-12.17 1.1-24.53-1.52-35.15-7.6-9.82-5.6-17.98-14.06-23.26-24.06-5.4-10.2-7.66-21.88-6.6-33.37zm-7.75 2.45c2.36-.63 4.68-1.35 6.96-2.17-1.03 12.07 1.56 24.3 7.5 34.86 5.53 9.84 13.86 18.07 23.76 23.5 10.43 5.7 22.43 8.18 34.27 7.17a90.59 90.59 0 0 0-2.17 6.96c-23.78 1.06-46.78-10.8-59.68-30.8-7.56-11.7-11.25-25.6-10.64-39.5zm-.76.2c-.97 23.78 10.8 46.77 30.7 59.83 11.86 7.78 26 11.62 40.17 11.05-.58 2.25-1.08 4.54-1.5 6.85-23.65.43-46.44-10.58-60.84-29.34-10.27-13.37-15.7-30.05-15.4-46.9 2.3-.42 4.6-.9 6.85-1.5zm-7.6 1.6c-.36 23.57 10.46 46.28 29 60.82 13.58 10.65 30.6 16.3 47.85 16.04a89.84 89.84 0 0 0-.88 6.81c-23.76.18-46.78-10.32-62.42-28.16C15.57 130 8.2 110.33 8.34 90.36c2.3-.2 4.57-.48 6.82-.86zm40.57 84.17c-22.57-9.55-40.63-28.37-49.25-51.3C2.7 112.24.8 101.5.8 90.72a90.28 90.28 0 0 0 6.81-.31c-.1 23.7 10.18 46.66 27.86 62.44C50.68 166.43 70.7 174 91.1 173.9a90.28 90.28 0 0 0-.31 6.81c-12 0-23.96-2.4-35.03-7.07zm34.65 16.14c23.76-.18 46.78 10.32 62.42 28.16 13.15 15 20.53 34.68 20.38 54.65a90.1 90.1 0 0 0-6.82.88c.36-23.57-10.46-46.28-29-60.83-13.57-10.65-30.62-16.32-47.85-16.04a90.1 90.1 0 0 0 .88-6.82zm-1.02 7.58c23.64-.45 46.45 10.6 60.84 29.34 10.27 13.37 15.7 30.05 15.4 46.9a79.58 79.58 0 0 0-6.85 1.5c.97-23.78-10.8-46.77-30.7-59.83-11.86-7.78-26-11.63-40.17-11.05.58-2.25 1.08-4.54 1.5-6.85zm-1.7 7.62c23.78-1.07 46.78 10.8 59.68 30.8 7.56 11.7 11.25 25.6 10.64 39.5-2.36.63-4.68 1.35-6.96 2.17 1.03-12.07-1.56-24.3-7.5-34.86a61.06 61.06 0 0 0-23.76-23.5c-10.43-5.7-22.43-8.18-34.27-7.17a90.59 90.59 0 0 0 2.17-6.96zm-2.45 7.74c12.17-1.1 24.53 1.52 35.15 7.6 9.82 5.6 17.98 14.06 23.26 24.06 5.4 10.2 7.66 21.88 6.6 33.37-2.47.9-4.88 1.9-7.24 3.02 1.95-12.08-.33-24.65-6.5-35.22-5.74-9.83-14.67-17.68-25.15-22.12C102.2 219.58 92 218.4 82.2 220c1.1-2.36 2.12-4.77 3.02-7.24zm-3.4 8.07c11.98-2.05 24.5.13 35.04 6.22 9.88 5.72 17.77 14.7 22.14 25.25 3.76 9.08 4.84 19.2 3.17 28.9a94.06 94.06 0 0 0-8.02 4.38c3.56-11.64 2.25-24.55-3.63-35.2-5.5-9.94-14.72-17.65-25.5-21.2-8.87-2.93-18.66-3.04-27.58-.3a90.18 90.18 0 0 0 4.38-8.02zm-5 9c11.58-3.8 24.54-2.64 35.24 3.18 10 5.45 17.74 14.75 21.2 25.6 2.84 8.9 2.8 18.68-.1 27.55a91.75 91.75 0 0 0-13.34 10.25c7.7-9.2 10.53-21.83 7.6-33.46-2.8-11.15-10.85-20.64-21.35-25.3-13-5.77-28.6-3.6-39.5 5.52a91.75 91.75 0 0 0 10.25-13.34zm8.5 5.74c11.8-1.7 23.85 2.38 32.12 10.96 8.28 8.6 11.92 20.84 9.75 32.57-1.36 7.3-4.98 14.1-10.23 19.34-8.44 8.44-20.6 12.3-32.36 10.36-11.45-1.9-21.57-9.36-26.86-19.68-5.48-10.68-5.36-23.78.32-34.36 5.5-10.24 15.75-17.52 27.26-19.2zm-23.64 12.5c-7.7 9.2-10.53 21.83-7.6 33.46 2.8 11.15 10.85 20.64 21.35 25.3 13 5.77 28.6 3.6 39.5-5.52a91.75 91.75 0 0 0-10.25 13.34c-.14.05-.27.08-.4.12-3.46 1.1-7.04 1.75-10.64 1.98H88c-6.46-.4-12.82-2.17-18.54-5.28-10-5.45-17.74-14.75-21.2-25.6-2.84-8.9-2.8-18.68.1-27.55a91.05 91.05 0 0 0 13.34-10.25zm-49.1 68.7C4.94 303.27.78 287.9.78 272.24a90.28 90.28 0 0 0 6.81-.31c-.07 15.93 4.56 31.52 12.96 44.82H12.6zm8.8 0c-8.52-13.3-13.2-29-13.07-44.9 2.3-.2 4.57-.5 6.8-.88-.25 16.52 5 32.6 14.55 45.77h-8.3zm9.17 0c-9.8-13.2-14.96-29.46-14.67-45.9a90.54 90.54 0 0 0 6.85-1.49c-.7 17.43 5.44 34.4 16.6 47.4h-8.77zm9.72 0c-2.24-2.52-4.3-5.2-6.15-8.07-7.55-11.7-11.25-25.6-10.63-39.52 2.36-.63 4.68-1.35 6.96-2.17-1.03 12.07 1.56 24.3 7.5 34.86 3.12 5.56 7.15 10.6 11.84 14.9h-9.5zm10.65 0c-5.28-4.74-9.76-10.4-13.07-16.67-5.38-10.2-7.66-21.88-6.6-33.37 2.47-.9 4.88-1.9 7.24-3.02-1.95 12.08.33 24.65 6.5 35.22 4.2 7.2 10.16 13.33 17.15 17.84h-11.2zm12.57 0c-9.35-5.74-16.8-14.42-21-24.56-3.77-9.1-4.85-19.2-3.2-28.9a94.06 94.06 0 0 0 8.02-4.38c-3.56 11.64-2.25 24.55 3.63 35.2 5.5 9.94 14.72 17.65 25.5 21.2 1.78.6 3.6 1.06 5.45 1.42H63.5zm36 0c1.53-.3 3.04-.67 4.53-1.12-.22.37-.43.74-.64 1.12h-3.9zm4.9 0c4.18-7 9.3-13.44 15.3-19.1 16.63-15.72 38.95-24.6 61.82-24.6a90.28 90.28 0 0 0 .31 6.81c-23.76 0-46.6 10.12-62.43 27.86-2.56 2.84-4.88 5.88-7 9.04h-8zm8.9 0c4-5.9 8.73-11.3 14.17-16.04 14.97-13 34.54-20.3 54.38-20.15a90.1 90.1 0 0 0 .88 6.82c-23.56-.38-46.3 10.48-60.82 29l-.27.36h-8.34zm9.38 0c4.1-5.26 8.93-10 14.38-14.04a74.97 74.97 0 0 1 45.8-14.58 90.54 90.54 0 0 0 1.49 6.85c-19.95-.82-39.32 7.37-52.76 21.77h-8.92zm9.97 0c4.3-4.56 9.22-8.57 14.72-11.8 11.2-6.6 24.2-9.78 37.2-9.2.63 2.36 1.35 4.68 2.17 6.96-12.06-1.03-24.3 1.56-34.86 7.5-3.33 1.87-6.47 4.08-9.4 6.55h-9.84zm11.05 0c4.32-3.53 9.1-6.5 14.25-8.7 9.13-3.92 19.2-5.46 29.08-4.57a88.34 88.34 0 0 0 3.02 7.24c-11.75-1.9-23.97.22-34.35 6.03h-12zm13.6 0c3.96-2.08 8.18-3.67 12.58-4.67 6.73-1.53 13.78-1.7 20.58-.54.86 1.77 1.8 3.5 2.77 5.2H157.3zm36.76 0c-7.66-13.48-11.83-28.87-11.83-44.52a90.28 90.28 0 0 0 6.81-.31c0 15.97 4.6 31.53 12.97 44.83h-7.95zm8.8 0c-8.52-13.3-13.2-29-13.07-44.9a90.1 90.1 0 0 0 6.82-.88c-.27 16.5 5 32.6 14.55 45.77h-8.3zm9.16 0a75.04 75.04 0 0 1-14.66-45.9 90.54 90.54 0 0 0 6.85-1.49c-.7 17.43 5.44 34.4 16.6 47.4h-8.78zm9.72 0c-2.23-2.52-4.3-5.2-6.15-8.07-7.55-11.7-11.25-25.6-10.63-39.52 2.36-.63 4.68-1.35 6.96-2.17-1.03 12.07 1.56 24.3 7.5 34.86 3.12 5.56 7.15 10.6 11.84 14.9h-9.52zm10.65 0c-5.28-4.74-9.75-10.4-13.07-16.67-5.38-10.2-7.66-21.88-6.6-33.37a88.34 88.34 0 0 0 7.24-3.02c-1.95 12.08.33 24.65 6.5 35.22 4.2 7.2 10.16 13.33 17.15 17.84h-11.2zm12.57 0c-9.35-5.74-16.8-14.42-21-24.56-3.77-9.1-4.85-19.2-3.2-28.9a94.06 94.06 0 0 0 8.02-4.38c-3.56 11.64-2.25 24.55 3.63 35.2 5.5 9.94 14.72 17.65 25.5 21.2a44.68 44.68 0 0 0 5.46 1.42h-18.42zm36 0c1.53-.3 3.04-.67 4.53-1.12-.22.37-.43.74-.64 1.12H281zm5.18-2.1c-.14.05-.27.08-.4.12-3.46 1.1-7.04 1.75-10.63 1.98h-5.67c-6.46-.4-12.82-2.17-18.54-5.28-10-5.45-17.74-14.75-21.2-25.6-2.84-8.9-2.8-18.68.1-27.55a91.05 91.05 0 0 0 13.34-10.25c-7.7 9.2-10.53 21.83-7.6 33.46 2.8 11.15 10.85 20.64 21.35 25.3 13 5.77 28.6 3.6 39.5-5.52a91.75 91.75 0 0 0-10.25 13.34zm12.28-16.22c-.01.01-.02.01-.02.02-8.43 8.42-20.58 12.28-32.34 10.34-11.45-1.9-21.57-9.36-26.86-19.68-5.48-10.68-5.36-23.78.32-34.36 5.5-10.24 15.75-17.52 27.26-19.2 11.8-1.7 23.85 2.38 32.13 10.96 8.28 8.6 11.92 20.84 9.75 32.57-1.37 7.32-5 14.1-10.24 19.34zm2.86-2c7.7-9.2 10.53-21.83 7.6-33.46-2.8-11.15-10.85-20.64-21.35-25.3-13-5.77-28.6-3.6-39.5 5.52a91.75 91.75 0 0 0 10.25-13.34c11.58-3.8 24.54-2.64 35.24 3.18 10 5.45 17.74 14.75 21.2 25.6a45.08 45.08 0 0 1-.11 27.55 91.75 91.75 0 0 0-13.34 10.25zm22.34-15.24a94.06 94.06 0 0 0-8.02 4.38c3.56-11.64 2.25-24.55-3.63-35.2-5.5-9.94-14.72-17.65-25.5-21.2-8.87-2.93-18.65-3.04-27.58-.3a90.18 90.18 0 0 0 4.38-8.02c11.98-2.05 24.5.13 35.04 6.22 9.88 5.72 17.77 14.7 22.14 25.25 3.76 9.08 4.84 19.2 3.17 28.9zm8.07-3.4a88.34 88.34 0 0 0-7.24 3.02c1.95-12.08-.33-24.65-6.5-35.22-5.74-9.83-14.67-17.68-25.15-22.12-9.15-3.87-19.34-5.04-29.14-3.46 1.1-2.36 2.12-4.77 3.02-7.24 12.17-1.1 24.53 1.52 35.15 7.6 9.82 5.6 17.98 14.06 23.26 24.06 5.4 10.2 7.66 21.88 6.6 33.37zm7.75-2.45c-2.36.63-4.68 1.35-6.96 2.17 1.03-12.07-1.56-24.3-7.5-34.86-5.53-9.84-13.86-18.07-23.76-23.5-10.43-5.7-22.43-8.18-34.27-7.17a90.59 90.59 0 0 0 2.17-6.96c23.78-1.07 46.77 10.8 59.68 30.8 7.56 11.7 11.26 25.6 10.64 39.5zm.76-.2c.97-23.78-10.8-46.77-30.7-59.83-11.86-7.78-26-11.63-40.17-11.05.58-2.25 1.08-4.54 1.5-6.85 23.64-.45 46.46 10.6 60.84 29.34 10.26 13.36 15.7 30.06 15.4 46.9-2.3.4-4.6.9-6.84 1.5zm7.6-1.62c.38-23.56-10.48-46.3-29-60.83-13.57-10.65-30.62-16.32-47.85-16.04a90.1 90.1 0 0 0 .88-6.82c23.76-.18 46.78 10.32 62.42 28.16 13.15 15 20.53 34.68 20.38 54.65a90.1 90.1 0 0 0-6.82.88zm-40.6-84.18c.01 0 .01 0 .02.01.06.02.1.04.15.06 22.5 9.57 40.5 28.34 49.1 51.24 3.8 10.1 5.7 20.84 5.7 31.62a90.28 90.28 0 0 0-6.81.31c0-23.76-10.12-46.6-27.86-62.44-15.27-13.63-35.2-21.06-55.63-21.06a90.28 90.28 0 0 0 .31-6.81c12 .01 23.94 2.4 35 7.07zm-34.62-16.14c-23.76.18-46.8-10.32-62.42-28.16-13.15-15-20.53-34.68-20.38-54.65a85.6 85.6 0 0 0 6.81-.87c-.38 23.56 10.48 46.3 29 60.82 13.58 10.65 30.6 16.3 47.86 16.04a90.1 90.1 0 0 0-.88 6.82zm1-7.57c-23.65.42-46.45-10.58-60.84-29.34-10.26-13.36-15.7-30.06-15.4-46.9 2.3-.4 4.6-.9 6.84-1.5-.97 23.78 10.8 46.77 30.7 59.83 11.86 7.78 26 11.62 40.17 11.05-.6 2.25-1.08 4.54-1.5 6.85zm1.7-7.6c-23.78 1.06-46.77-10.8-59.68-30.8-7.56-11.7-11.26-25.6-10.64-39.52 2.36-.63 4.68-1.35 6.96-2.17-1.03 12.07 1.56 24.3 7.5 34.86 5.53 9.84 13.86 18.07 23.76 23.5 10.43 5.7 22.43 8.18 34.27 7.17a87.88 87.88 0 0 0-2.17 6.97zm2.45-7.75c-12.17 1.1-24.53-1.52-35.15-7.6-9.82-5.6-17.98-14.06-23.26-24.06-5.38-10.2-7.66-21.88-6.6-33.37a88.34 88.34 0 0 0 7.24-3.02c-1.95 12.08.33 24.65 6.5 35.22a53.5 53.5 0 0 0 25.15 22.12c9.15 3.87 19.34 5.04 29.14 3.46a88.34 88.34 0 0 0-3.02 7.24zm3.4-8.07c-11.98 2.06-24.5-.13-35.04-6.22-9.88-5.72-17.77-14.7-22.14-25.25-3.77-9.1-4.85-19.2-3.2-28.9a94.06 94.06 0 0 0 8.02-4.38c-3.56 11.64-2.25 24.55 3.63 35.2 5.5 9.94 14.72 17.65 25.5 21.2 8.87 2.93 18.65 3.04 27.58.3a98.57 98.57 0 0 0-4.36 8.03zm4.97-9c-.14.05-.27.08-.4.12-11.48 3.65-24.27 2.46-34.85-3.3-10-5.45-17.74-14.75-21.2-25.6-2.84-8.9-2.8-18.68.1-27.55a90.61 90.61 0 0 0 13.35-10.25c-7.7 9.2-10.53 21.83-7.6 33.46 2.8 11.15 10.85 20.64 21.35 25.3 13 5.77 28.6 3.6 39.5-5.52a91.75 91.75 0 0 0-10.25 13.34zm12.52-16.44c-.08.08-.14.14-.24.23l-.02.02c-1.66 1.66-.85.84 0 0-8.43 8.42-20.57 12.28-32.34 10.34-11.45-1.9-21.57-9.36-26.86-19.68-5.48-10.68-5.36-23.78.32-34.36 5.5-10.23 15.75-17.5 27.26-19.18 11.8-1.7 23.85 2.37 32.13 10.96s11.92 20.84 9.75 32.57c-1.33 7.2-4.88 13.9-10 19.1zm2.63-1.8c7.7-9.2 10.53-21.83 7.6-33.46-2.8-11.15-10.85-20.64-21.35-25.3-13-5.77-28.6-3.6-39.5 5.52a91.21 91.21 0 0 0 10.25-13.34c11.57-3.8 24.54-2.64 35.24 3.2 10 5.45 17.74 14.75 21.2 25.6a45.08 45.08 0 0 1-.11 27.55c-4.76 3-9.23 6.43-13.34 10.24zm40 45.5l-.4.4.4-.4zm-6.3 32.47c4.4 10.77 14.92 18.25 26.55 18.8l1.5.04V211c-11.63 0-22.4-7.06-27.07-17.72-4.75-10.88-2.3-23.9 5.97-32.38a29.58 29.58 0 0 1 21.09-8.88v-.76c-8 0-15.73 3.2-21.38 8.86a.68.68 0 0 1 .12-.12 1.54 1.54 0 0 1-.13.12c-8.5 8.5-11.2 21.65-6.64 32.8z"/><path d="M341.72 160l.58-.6-.58.6zm21.26-1.2a22.67 22.67 0 0 0-16.04 6.65c-6.45 6.44-8.45 16.43-4.9 24.85 3.53 8.34 11.9 13.88 20.93 13.88v-.76c-11.97 0-21.93-9.96-21.93-21.93s9.96-21.93 21.93-21.93v-.76z"/><path d="M346.94 165.46c2.1-2.1-2.1 2.1 0 0zm16.04 1.66v-.76a15.09 15.09 0 0 0-10.69 4.43c-4.3 4.3-5.65 10.96-3.28 16.57 2.35 5.57 7.93 9.26 13.97 9.26v-.76c-7.85 0-14.37-6.52-14.37-14.37s6.52-14.37 14.37-14.37zM260.82 244.2c-10.77 4.4-18.25 14.92-18.8 26.55-.55 11.75 5.88 22.98 16.34 28.4 10.68 5.53 24.07 4.04 33.27-3.7 6.44-5.4 10.42-13.32 10.8-21.72.4-8.5-2.8-16.85-8.83-22.88-8.5-8.5-21.64-11.2-32.8-6.65zm38.62 39.5c-4.53 10.7-15.22 17.9-26.84 18.03-11.64.14-22.5-6.8-27.3-17.42-4.87-10.82-2.6-23.88 5.6-32.45 8.2-8.56 21.08-11.46 32.14-7.1 7.1 2.8 13 8.43 16.13 15.4 3.32 7.4 3.42 16.1.27 23.55zm-11.16-27.5c-8.56-8.56-22.78-8.8-31.6-.48-8.8 8.3-9.5 22.5-1.43 31.57 8.04 9.03 22.22 10.18 31.5 2.38 9.26-7.77 10.85-21.9 3.32-31.43a20.61 20.61 0 0 0-1.81-2.04zm4 25.05c-.15.36-.12.27 0 0zm.2-.5c-4.75 11.22-18.27 16.56-29.37 11.45-11.06-5.1-16-18.77-10.53-29.7 5.2-10.44 18.17-15.1 28.8-10.22 10.58 4.87 15.65 17.7 11.1 28.48zm-25.46-22.73c-5.26 1.93-9.17 6.84-9.8 12.42-.65 5.76 2 11.4 6.87 14.56s11.43 3.15 16.3 0c8-5.17 9.3-16.7 2.54-23.45a15.21 15.21 0 0 0-15.9-3.53zm18.5 19.8c-.02.04-.03.07-.05.1-2.26 5.22-7.52 8.7-13.22 8.7a14.5 14.5 0 0 1-13.27-8.8c-2.3-5.45-.9-11.9 3.35-15.96 4.24-4.06 10.77-5.15 16.08-2.6 6.82 3.26 10.07 11.56 7.1 18.57zm18.45 26.55l.02-.02-.02.02zm.4-.4l1.47-1.47-1.47 1.47zm1.67-1.67l.16-.16-.16.16zm-.2.2l.2-.2-.2.2zm3.68 7.02c6.94-6.95-6.95 6.94 0 0zM183.35 151.3c-11.76-.7-23.07 5.62-28.6 16.03-4.1 7.7-4.62 17.13-1.42 25.25a30.68 30.68 0 0 0 16.2 16.7c.1.04.16.08.23.1 11.1 4.7 24.3 2.15 32.9-6.27 8.6-8.4 11.45-21.5 7.02-32.7-4.27-10.82-14.7-18.43-26.32-19.1zm25.48 41.32c-4.4 10.75-15 18.08-26.6 18.35-7.94.2-15.66-2.84-21.34-8.4a29.57 29.57 0 0 1-8.87-21.09c0-11.63 7.06-22.4 17.72-27.07 10.88-4.75 23.9-2.3 32.38 5.97 8.47 8.3 11.22 21.23 6.72 32.23zm-39.8 16.48l-.3-.12.3.12zm.44.17l-.44-.18.44.18zm1.34.57l-.44-.18.44.18zm-.44-.18l-.5-.2.5.2zm3.1-6.9l-.58-.24c-.06-.03-.13-.05-.2-.07l.77.3z"/><path d="M191.53 161.13c-10.87-5.38-24.4-.92-30.1 9.74-5.7 10.7-1.63 24.37 8.85 30.37.75.43 1.53.8 2.33 1.16.03.01.05.02.08.03.08.03.13.06.2.08 11.12 4.57 24.26-.67 29.27-11.58 5.05-11.02.2-24.44-10.63-29.8zm11.86 21.85c-.75 11.68-10.98 20.8-22.63 20.44-11.68-.37-21.2-10.25-21.2-21.92 0-12.27 10.43-22.3 22.68-21.92 12.27.4 21.92 11.2 21.14 23.4z"/><path d="M172.44 202.33l-.5-.2.5.2zm.24.1c-.02-.01-.05-.02-.07-.03-.06-.02-.12-.05-.17-.07l.24.1zm16.98-33.7c-4.87-3.15-11.43-3.15-16.3 0-8 5.17-9.3 16.7-2.54 23.45 4.1 4.13 10.4 5.55 15.9 3.53 5.26-1.93 9.17-6.84 9.8-12.42.65-5.76-2-11.4-6.87-14.56zm1.76 23.15c-4.24 4.06-10.77 5.15-16.08 2.6-6.82-3.26-10.07-11.57-7.1-18.57a14.51 14.51 0 0 1 13.27-8.8 14.5 14.5 0 0 1 13.27 8.8c2.3 5.45.9 11.9-3.35 15.96zM76.9 299.15c10.68 5.53 24.07 4.04 33.27-3.7 6.44-5.4 10.42-13.32 10.8-21.72.4-8.5-2.8-16.85-8.83-22.88-8.5-8.5-21.64-11.2-32.8-6.65-10.77 4.4-18.25 14.92-18.8 26.55-.55 11.75 5.88 22.98 16.35 28.4zm-7.47-47.3c8.2-8.56 21.08-11.46 32.14-7.1 7.1 2.8 13 8.43 16.13 15.4 3.32 7.4 3.42 16.1.27 23.55-4.53 10.7-15.22 17.9-26.84 18.03-11.64.14-22.5-6.8-27.3-17.42-4.87-10.82-2.6-23.88 5.6-32.45z"/><path d="M112.6 251.3l.25.25-.25-.25zm-1.2-1.18l.7.7-.7-.7zm-4.6 6.08c2.1 2.1-2.1-2.1 0 0z"/><path d="M105.3 289.67c9.26-7.77 10.85-21.9 3.32-31.43a20.61 20.61 0 0 0-1.81-2.04c-8.56-8.56-22.78-8.8-31.6-.48-8.8 8.3-9.5 22.5-1.43 31.57 8.04 9.03 22.22 10.18 31.5 2.38zM71.1 262.5c5.2-10.44 18.17-15.1 28.8-10.22 10.58 4.88 15.65 17.7 11.1 28.48-4.74 11.22-18.27 16.56-29.37 11.45-11.06-5.1-16-18.77-10.53-29.7zM82.6 285c4.87 3.15 11.43 3.15 16.3 0 8-5.17 9.3-16.7 2.54-23.45-4.1-4.13-10.4-5.55-15.9-3.53-5.26 1.93-9.17 6.84-9.8 12.42-.65 5.76 2 11.4 6.87 14.56zm-1.76-23.15c4.24-4.06 10.77-5.15 16.08-2.6 6.82 3.26 10.07 11.57 7.1 18.57.18-.43.37-.86 0 0a14.51 14.51 0 0 1-13.27 8.8 14.5 14.5 0 0 1-13.27-8.8c-2.3-5.45-.9-11.9 3.35-15.96zm-52.78-91.77c-4.4-10.77-14.92-18.25-26.55-18.8l-1.5-.04v.76c11.63 0 22.4 7.06 27.07 17.72 4.75 10.88 2.3 23.9-5.97 32.38a29.58 29.58 0 0 1-21.09 8.88v.76c8 0 15.73-3.2 21.4-8.86 8.5-8.5 11.2-21.65 6.64-32.8zm-12.1 27.57l-.27.27.27-.27z"/><path d="M.02 203.43v.76c5.96 0 11.68-2.36 15.93-6.53l.03-.03c.02-.02.05-.04.08-.07s.06-.07.1-.1c.17-.17.34-.33.43-.43l-.4.4c6.34-6.45 8.3-16.36 4.77-24.72-3.52-8.34-11.9-13.88-20.93-13.88v.76c11.97-.02 21.93 9.94 21.93 21.9S12 203.43.02 203.43z"/><path d="M16.58 197.02c.13-.13.1-.1 0 0zm-1.03 1.03c-.14.15-.1.12 0 0zm-1.57-22.4c-2.35-5.57-7.93-9.26-13.97-9.26v.76c7.85 0 14.37 6.52 14.37 14.37S7.86 195.88.01 195.88v.76c4.03-.01 7.86-1.6 10.7-4.44 4.3-4.3 5.64-10.95 3.27-16.56z"/><path d="M10.7 192.2c-.35.35-.7.7 0 0z"/></svg>