<svg xmlns="http://www.w3.org/2000/svg" width="19" height="14" viewBox="172.92 230.67 18.88 14"><path fill="#010101" d="M191.23 235.67h-1.76v-3.44a.56.56 0 0 0-.56-.56h-2.56a.56.56 0 0 0-.56.56v.43a.56.56 0 1 0 1.12 0v.02h1.56v3h-15c-.3 0-.56.3-.56.6 0 1.52.34 2.47 1 3.56.65 1.07 1.62 1.94 2.87 2.56l-.7.8c-.76.93-.7 1.07-.68 1.13.1.2.3.34.52.34a.57.57 0 0 0 .22-.04h.01l1.93-1.85h8.3l1.93 1.85h.01c.07.03.14.04.2.04.23 0 .43-.13.52-.34.03-.06.08-.2-.68-1.13l-.63-.73c1.26-.6 2.26-1.44 2.94-2.52.72-1.14 1.1-2.13 1.1-3.7a.58.58 0 0 0-.54-.6h-.01.01zm-6.56 6h-4.8c-3.4 0-5.57-1.6-5.85-5h16.75c-.3 3.4-2.7 5-6.1 5z"/></svg>