<svg xmlns="http://www.w3.org/2000/svg" width="20" height="14" viewBox="-0.5 0 20 14"><path fill="#010101" d="M18.4 5h-1.76V1.56A.56.56 0 0 0 16.07 1H13.5a.56.56 0 0 0-.561.561v.43a.56.56 0 0 0 1.122.003v.017h1.56v3h-15c-.3 0-.56.3-.56.6 0 1.52.34 2.47 1 3.56.65 1.07 1.62 1.94 2.87 2.56l-.7.8c-.762.927-.702 1.067-.68 1.127.1.2.3.34.52.34a.56.56 0 0 0 .22-.04h.01l1.93-1.85h8.3l1.93 1.85h.01a.51.51 0 0 0 .2.04c.23 0 .43-.13.52-.34.03-.06.08-.2-.68-1.13l-.63-.73c1.26-.6 2.26-1.44 2.94-2.52.72-1.14 1.1-2.13 1.1-3.7a.58.58 0 0 0-.54-.6h-.01.01V5zm-6.56 6.188h-4.8C3.63 11.188 1.46 9.4 1.18 6h16.75c-.3 3.4-2.7 5.188-6.1 5.188z"/></svg>