<svg xmlns="http://www.w3.org/2000/svg" width="24" height="20" viewBox="316.6 114.3 23.8 20"><path opacity=".28" fill="#2c2e2f" d="M327.1 117.8c-1.4-1.2-2.8-2.3-4.2-2.3-2.4 0-4.4 1.7-4.9 4.4-.9 4.3 2 10.1 10.5 13.4 8.5-3.4 11.5-9.1 10.6-13.4-.5-2.6-2.4-4.3-4.9-4.3-1.3 0-2.6 1.1-4.1 2.2-.4.3-.8.6-1.1.9-.1.1-.2.1-.4.1-.1 0-.3 0-.4-.1-.3-.2-.6-.5-.9-.7l-.2-.2z"/><path fill="#fff" d="M328.5 134.3h-.2c-9.2-3.6-12.5-9.9-11.5-14.7.6-3.1 3-5.3 6.1-5.3 1.3 0 2.8 1.1 4.4 2.2.4.3.8.6 1.1.8h.2c.6-.3.9-.6 1.3-.8 1.4-1.1 2.9-2.1 4.3-2.1 3 0 5.4 2 6.1 5.2 1 4.8-2.1 11.2-11.4 14.7h-.4zm-5.6-18.9c-2.4 0-4.4 1.7-4.9 4.4-.9 4.3 2 10.1 10.5 13.4 8.5-3.4 11.5-9.1 10.6-13.4-.5-2.6-2.4-4.3-4.9-4.3-1.3 0-2.6 1.1-4.1 2.2-.4.3-.8.6-1.1.9-.1.1-.2.1-.4.1-.1 0-.3 0-.4-.1-.3-.2-.6-.5-.9-.7l-.2-.2c-1.4-1.2-2.9-2.3-4.2-2.3z"/></svg>