<svg xmlns="http://www.w3.org/2000/svg" width="24" height="20" viewBox="311.7 112.6 23.3 19.7"><path opacity=".85" fill="#f15929" d="M322 116c-1.4-1.2-2.8-2.3-4.1-2.3-2.4 0-4.3 1.7-4.8 4.3-.9 4.2 2 9.9 10.3 13.2 8.4-3.3 11.3-9 10.4-13.2-.5-2.6-2.4-4.2-4.8-4.2-1.3 0-2.6 1.1-4 2.2-.4.3-.8.6-1.1.9-.1.1-.2.1-.4.1-.1 0-.3 0-.4-.1-.3-.2-.6-.5-.9-.7l-.2-.2z"/><path fill="#fff" d="M323.4 132.3h-.2c-9.1-3.5-12.3-9.8-11.3-14.5.6-3.1 3-5.2 6-5.2 1.3 0 2.8 1.1 4.3 2.2.4.3.8.6 1.1.8h.2c.6-.3.9-.6 1.3-.8 1.4-1.1 2.9-2.1 4.2-2.1 3 0 5.3 2 6 5.1 1 4.7-2.1 11-11.2 14.5h-.4zm-5.5-18.6c-2.4 0-4.3 1.7-4.8 4.3-.9 4.2 2 9.9 10.3 13.2 8.4-3.3 11.3-9 10.4-13.2-.5-2.6-2.4-4.2-4.8-4.2-1.3 0-2.6 1.1-4 2.2-.4.3-.8.6-1.1.9-.1.1-.2.1-.4.1-.1 0-.3 0-.4-.1-.3-.2-.6-.5-.9-.7l-.2-.2c-1.4-1.2-2.8-2.3-4.1-2.3z"/></svg>