<svg xmlns="http://www.w3.org/2000/svg" width="20" height="21" fill="#fff"><path d="M10 4.375c1.253 0 2.273-.98 2.273-2.188S11.253 0 10 0 7.727.98 7.727 2.188 8.747 4.375 10 4.375zm0-3.5c.752 0 1.364.6 1.364 1.313S10.752 3.5 10 3.5s-1.364-.588-1.364-1.312S9.248.875 10 .875zm2.727 14.113v-1.863h.9c.25 0 .455-.195.455-.437V7.47a1.28 1.28 0 0 0-.6-1.093C12.295 5.63 11.426 5.25 10 5.25s-2.296.38-3.492 1.128a1.28 1.28 0 0 0-.599 1.093v5.218c0 .24.203.437.455.437h.9v1.863C3.825 15.27 0 16.2 0 17.938c0 .766.737 1.298 1.613 1.678l-.36.086c-.244.06-.392.296-.33.53a.45.45 0 0 0 .44.332.46.46 0 0 0 .11-.014l1.818-.438c.023-.006.036-.026.058-.036.028-.01.06-.008.084-.024.032-.02.054-.05.08-.076l.03-.028a.41.41 0 0 0 .085-.23c0-.008.008-.014.008-.022s-.008-.016-.008-.024a.42.42 0 0 0-.068-.227l-.9-1.313a.47.47 0 0 0-.63-.122.43.43 0 0 0-.126.607l.155.225c-1.003-.42-1.14-.756-1.14-.905 0-.64 2.03-1.713 6.363-2.07v2.945c0 .242.204.438.455.438h4.546c.25 0 .454-.196.454-.438v-2.945c4.333.357 6.364 1.43 6.364 2.07 0 .893-3.542 2.188-9.1 2.188-.25 0-.455.196-.455.438S9.75 21 10 21c4.97 0 10-1.052 10-3.063 0-1.748-3.825-2.667-7.273-2.95zm-.454-2.738c-.25 0-.455.195-.455.438v5.688H8.182v-5.688c0-.243-.203-.438-.455-.438h-.9V7.47c0-.15.07-.287.186-.36 1.07-.67 1.8-.987 2.996-.987s1.927.318 2.997.986c.114.072.186.2.186.36v4.78h-.9z"/></svg>