<svg xmlns="http://www.w3.org/2000/svg" width="460" height="458"><path fill="#63797d" d="M456.3 0v73.2H307.9V0h-3.7v150.1h-73.3V0h-3.7v150.2h-73.3V0h-3.7v73.2H0v3.7h150.2v73.2H0v3.7h73.3V304H0v3.7h150.2v73.2H0v3.7h150.2V458h3.7V307.8h73.3V458h3.7V307.8h73.3V458h3.7v-73.2h148.4V458h3.7V0h-3.7zM150.2 304.1H77V153.9h73.3v150.2zm154 0H153.9v-73.2h150.2v73.2zm0-77H153.9v-73.2h150.2v73.2zm3.7 3.7v-76.9h72.3v150.2h-72.3v-73.3zm148.4 150.3H307.9v-73.2h148.4v73.2zm0-77H384V153.9h72.3v150.2zm0-153.9H307.9V76.9h148.4v73.3z"/></svg>