<svg xmlns="http://www.w3.org/2000/svg" width="35" height="49" viewBox="876.8 283.58 35 49"><path fill="#ff755a" d="M909.88 331.24l-15.3-6.77a1.32 1.32 0 0 0-1.1.01l-14.74 6.73c-.9.42-1.93-.27-1.93-1.3V285c0-.78.62-1.4 1.38-1.4h32.25c.76 0 1.38.63 1.38 1.4v44.96c-.02 1-1.03 1.7-1.94 1.3z"/><path fill="#cc4646" d="M910.43 283.6H894v40.77a1.46 1.46 0 0 1 .58.11l15.3 6.77c.9.4 1.92-.28 1.92-1.3V285c-.01-.78-.62-1.4-1.38-1.4z"/><path fill="#ffa083" d="M898.18 322.14c-1.33-.6-2.74-1.43-4.18-1.43a10.19 10.19 0 0 0-4.28.94l-12.9 5.9v3.6c0 1.02 1.03 1.7 1.94 1.3l14.74-6.73c.35-.16 2.32-.58 2.67-.43l2.13-1.77-.12-1.36z"/><path fill="#d1806d" d="M898.14 321.6c-1.32-.58-2.7-.88-4.14-.88v4.86c.2 0 .4.04.57.12l15.3 6.77c.9.4 1.92-.28 1.92-1.3v-3.53l-13.65-6.05z"/></svg>