<svg xmlns="http://www.w3.org/2000/svg" width="35" height="49" viewBox="319.8 260.58 35 49"><path fill="#f0a052" d="M352.88 308.24l-15.3-6.77c-.35-.16-.75-.16-1.1.01l-14.74 6.73c-.9.42-1.94-.27-1.94-1.3V262c0-.78.62-1.4 1.38-1.4h32.25c.76 0 1.38.63 1.38 1.4v44.96c-.01 1-1.02 1.7-1.93 1.3z"/><path fill="#d69146" d="M353.43 260.6H337v40.77c.2 0 .4.03.58.12l15.3 6.77c.9.4 1.92-.28 1.92-1.3V262c-.01-.78-.62-1.4-1.38-1.4z"/><path fill="#ffbb71" d="M341.18 299.14c-1.33-.6-2.74-1.43-4.18-1.43a10.18 10.18 0 0 0-4.28.93l-12.9 5.9v3.6c0 1.02 1.03 1.7 1.93 1.3l14.74-6.73c.35-.16 2.32-.58 2.67-.43l2.13-1.77-.1-1.35z"/><path fill="#e2a466" d="M341.14 298.6c-1.32-.58-2.7-.88-4.14-.88v4.86a1.41 1.41 0 0 1 .57.11l15.3 6.77c.9.4 1.92-.28 1.92-1.3v-3.53l-13.65-6.04z"/></svg>