<svg xmlns="http://www.w3.org/2000/svg" width="51" height="51" viewBox="395.44 271.91 51 51"><path fill="#f0a052" d="M446.44 297.4c0 14.05-11.42 25.48-25.47 25.5h-.03c-14.06 0-25.5-11.44-25.5-25.5s11.44-25.5 25.5-25.5h.03c14.05.02 25.47 11.45 25.47 25.5z"/><path fill="#d69146" d="M446.44 297.4c0 14.05-11.42 25.48-25.47 25.5v-51c14.05.02 25.47 11.45 25.47 25.5z"/><g fill="#fff"><path d="M412.5 312.8h13.1l10.4-10.4c.8-.8.8-2.14 0-2.95s-2.14-.8-2.95 0l-6.58 6.58a4.25 4.25 0 0 1-3.3 1.56h-7v-2.3h7c.6 0 1.16-.3 1.52-.73l-.01-.01.06-.06c.23-.32.37-.72.37-1.14v-1.94h-11.65l-7.1 7.1m14.82-28.53l-12.8 10.45 1.73 2.1 2.25-1.84v8.47h5.27v-6.58h7.14v6.58h5.27v-8.42l2.25 1.84 1.73-2.1z"/><path d="M420.36 295.3h1.7v3.85h-1.7z"/></g></svg>