<svg xmlns="http://www.w3.org/2000/svg" width="42" height="53" viewBox="399.94 267.65 42 53"><path fill="#ff755a" d="M420.94 270.06l-18.8 8.1V297c0 5.3.85 12.1 18.8 21.18 17.95-9.08 18.8-15.88 18.8-21.18v-18.85l-18.8-8.1z"/><path fill="#cc4646" d="M439.75 278.15V297c0 5.3-.85 12.1-18.8 21.18v-48.12l18.8 8.1z"/><path fill="#fff" d="M418.75 303.18l-9.32-9.2 3.63-3.7 5.68 5.62 10.1-10 3.63 3.7z"/><path fill="#ddd" d="M432.46 289.6L420.94 301v-7.3l7.9-7.8z"/><path fill="#ffa083" d="M420.94 320.65l-1-.5c-8.37-4.23-13.9-8.4-16.94-12.7-2.7-3.84-3.07-7.3-3.07-10.45v-20.3l21-9.04 21 9.04V297c0 3.16-.37 6.6-3.07 10.45-3.03 4.32-8.57 8.47-16.94 12.7l-1 .5zm-16.6-41.04V297c0 4.03 0 10.07 16.6 18.7 16.6-8.62 16.6-14.67 16.6-18.7v-17.4l-16.6-7.15-16.6 7.15z"/><path fill="#d1806d" d="M420.94 267.65v4.8l16.6 7.15V297c0 4.03 0 10.08-16.6 18.7v4.96l1-.5c8.37-4.23 13.9-8.4 16.94-12.7 2.7-3.84 3.07-7.3 3.07-10.45v-20.3l-21-9.05z"/></svg>