<svg xmlns="http://www.w3.org/2000/svg" width="170" height="140"><path opacity=".95" fill="#fff" d="M0,0v104L126,0H0z"/><path fill="#f3755d" d="M37.3 11.62l-16 6.8V34.3c0 4.47.73 10.2 16 17.83 15.27-7.64 16-13.37 16-17.83V18.43l-16-6.8v-.01z"/><path fill="#cc4746" d="M53.28 18.43V34.3c0 4.47-.72 10.2-16 17.83v-40.5l16 6.8z"/><path fill="#fff" d="M35.42,39.5l-7.92-7.75l3.08-3.12l4.84,4.73l8.57-8.4l3.1,3.12L35.42,39.5z"/><path fill="#dededd" d="M47.08 28.08l-9.8 9.6v-6.14l6.7-6.57 3.1 3.1z"/><path fill="#f89f84" d="M37.3 54.2l-.84-.42c-7.1-3.56-11.83-7.06-14.4-10.7-2.3-3.24-2.6-6.14-2.6-8.8V17.2L37.3 9.6l17.86 7.6v17.1c0 2.66-.32 5.56-2.6 8.8-2.58 3.64-7.3 7.13-14.4 10.7l-.84.4h-.02zM23.17 19.66V34.3c0 3.4 0 8.48 14.12 15.74C51.4 42.78 51.4 37.7 51.4 34.3V19.66l-14.1-6.02-14.13 6.02z"/><path fill="#d1806d" d="M37.3 9.6v4.05l14.12 6.02V34.3c0 3.4 0 8.48-14.12 15.74v4.17l.84-.42c7.1-3.56 11.83-7.06 14.4-10.7 2.3-3.24 2.6-6.14 2.6-8.8V17.2L37.3 9.6z"/></svg>