<svg xmlns="http://www.w3.org/2000/svg" width="14.002" height="13.002" viewBox="413.944 292.061 14.002 13.002" fill="#789297"><path d="M414.523 302.922a.59.59 0 0 1-.405-.162.56.56 0 0 1-.174-.4l.012-2.192a.59.59 0 0 1 .176-.398l6.37-6.018 1.592-1.518c.116-.105.265-.163.42-.163s.303.058.417.16l2.284 2.184a.56.56 0 0 1 .181.417c-.002.15-.067.3-.184.394l-7.96 7.532a.59.59 0 0 1-.405.162l-2.323.01zm.606-1.144l1.515-.01 5.726-5.445-1.458-1.38-5.77 5.46-.012 1.376zm8.088-6.256l.758-.717-1.46-1.38-.758.716 1.46 1.382zm4.23 8.618h-13c-.273 0-.487.213-.487.46s.226.463.487.463h13.013c.273 0 .487-.215.487-.463s-.226-.46-.5-.46z"/></svg>