<svg xmlns="http://www.w3.org/2000/svg" width="14" height="13" viewBox="413.945 292.063 14 13" fill="#789297"><path d="M427.446 304.14h-13c-.273 0-.487.214-.487.46s.226.462.487.462h13.013c.273 0 .487-.215.487-.462s-.226-.46-.5-.46zm-13.49-4.082l-.012 2.192c0 .124.048.248.143.338a.49.49 0 0 0 .345.135l2.306-.012a.49.49 0 0 0 .345-.135l7.963-7.534c.2-.18.2-.473 0-.664l-2.282-2.182a.52.52 0 0 0-.7 0l-1.592 1.518-6.37 6.017a.48.48 0 0 0-.145.327zm8.46-6.87l1.604 1.518-.903.855-1.604-1.52.903-.854zm-7.475 7.072l5.87-5.555 1.604 1.518-5.87 5.544-1.616.012.012-1.52z"/></svg>