<svg xmlns="http://www.w3.org/2000/svg" width="13" height="13" viewBox="408.424 285.15 13 13"><path fill="#789297" d="M419.887 297.35c-.206 0-.387-.07-.522-.204l-2.226-2.225a4.96 4.96 0 0 1-2.95.962c-1.323 0-2.597-.53-3.516-1.453a4.99 4.99 0 0 1-1.452-3.514c-.006-1.3.523-2.59 1.453-3.515.935-.937 2.18-1.452 3.504-1.452 1.335 0 2.607.53 3.524 1.453.925.923 1.454 2.204 1.452 3.514a4.9 4.9 0 0 1-.96 2.952l2.19 2.193.01.003.02.026.34.342h-.152c.015.06.022.123.022.188a.73.73 0 0 1-.221.518c-.14.135-.322.21-.517.212h-.002zm-5.684-9.922a3.5 3.5 0 0 0-3.488 3.488 3.5 3.5 0 0 0 3.488 3.488c.915 0 1.787-.36 2.455-1.014.676-.684 1.033-1.553 1.033-2.475a3.5 3.5 0 0 0-3.488-3.487z"/></svg>