<svg xmlns="http://www.w3.org/2000/svg" xmlns:xlink="http://www.w3.org/1999/xlink" width="56" height="55" viewBox="351.31 388.02 56 54.99"><g fill="#808ca8"><use xlink:href="#B"/><use xlink:href="#C"/><path d="M370.96,433.92"/><path d="M369.7 417c-.1 0-.17-.02-.25-.05a.66.66 0 0 1-.4-.61v-5.82l-.38-.05c-2.48-.32-4.35-2.46-4.35-4.98v-12.47c0-2.77 2.23-5.02 4.98-5.02h20.04c2.75 0 4.98 2.25 4.98 5.02v12.47c0 2.77-2.23 5.02-4.98 5.02H376.4l-6.24 6.3c-.12.13-.28.2-.45.2zm-.4-27.68c-2.03 0-3.68 1.66-3.68 3.7v12.47c0 2.05 1.65 3.7 3.68 3.7h.4a.65.65 0 0 1 .65.65v4.9l5.32-5.37a.66.66 0 0 1 .46-.19h13.2c2.03 0 3.68-1.66 3.68-3.7V393c0-2.05-1.65-3.7-3.68-3.7H369.3zm.73 7.72a.65.65 0 1 1 0-1.3h15.93a.65.65 0 1 1 0 1.3h-15.93zm0 6.12a.65.65 0 0 1-.65-.66.64.64 0 0 1 .65-.65h15.93a.65.65 0 0 1 .65.65c0 .36-.3.66-.65.66h-15.93z"/><use xlink:href="#B" x="35.5" y="0.01"/><use xlink:href="#C" x="35.5"/><path d="M382.8 431.14h3.02v1.96h-3.02zm-5 .02h3v1.96h-3zm-5.08 0h3v1.96h-3z"/></g><defs ><path id="B" d="M361.37 432.56c-3.22 0-5.84-2.6-5.84-5.77s2.62-5.77 5.84-5.77 5.84 2.6 5.84 5.77-2.62 5.77-5.84 5.77zm0-10.1c-2.42 0-4.4 1.94-4.4 4.33s1.97 4.33 4.4 4.33 4.4-1.94 4.4-4.33-1.97-4.33-4.4-4.33z"/><path id="C" d="M352.7 443l.05-.23c.84-4.42 4.55-7.62 8.8-7.62s7.98 3.2 8.8 7.62l.04.23h1.4c-.76-5.24-5.07-9.3-10.25-9.3-5.2 0-9.5 4.03-10.25 9.3h1.4z"/></defs></svg>