<svg xmlns="http://www.w3.org/2000/svg" width="176" height="176"><path fill="#d8dce8" d="M7.2 176c-.9 0-1.8-.4-2.5-1-1-1-1.4-2.6-.8-4l14.9-38-1.3-1.7C6.2 116.3 0 99.1 0 82.9c0-22.2 9.2-43 25.9-58.7C42.5 8.6 64.6 0 88 0s45.5 8.6 62.1 24.2C166.3 39.4 176 62 176 84.7c0 16.6-5.9 36.3-14.6 49.1-.7 1-1.8 1.6-2.9 1.6-.7 0-1.4-.2-2-.7-.8-.6-1.3-1.4-1.5-2.4s0-1.9.6-2.7c8-11.7 13.3-29.7 13.3-44.9 0-41.9-37-77.4-80.8-77.4-44.7 0-80.9 33.9-80.9 75.6 0 16.1 6.5 32.8 18.4 47 .9 1 1.1 2.5.6 3.7l-12.7 32 36-15c.5-.2.9-.3 1.4-.3s1 .1 1.4.3c11.4 5 24.4 7.8 35.6 7.8 12.6 0 31-2.9 43.6-9.5.5-.3 1.1-.4 1.6-.4 1.4 0 2.6.8 3.2 2 .9 1.8.2 4-1.6 4.9-12 6.3-30.4 10.3-46.8 10.3-11.1 0-24.1-2.6-35.6-7.2l-1.4-.6-42.3 17.8c-.5.2-.9.3-1.4.3zm62-53.5c-9 0-16.3-7.5-16.3-16.7V79.3L46.7 84c-.7.6-1.6.9-2.5.9a4.1 4.1 0 0 1-3.1-1.4c-.8-.9-1.1-2-1.1-3.1.1-1.1.5-2.2 1.4-3l36-33.7c3.2-3 7.2-4.6 11.5-4.6 4.2 0 8.3 1.6 11.5 4.6l36 33.7c.8.8 1.3 1.8 1.4 3 .1 1.1-.3 2.3-1.1 3.1a4.1 4.1 0 0 1-3.1 1.4 4.27 4.27 0 0 1-2.7-1l-6.3-5.6v27.5c0 9.2-7.3 16.7-16.3 16.7H69.2zm19.7-74.7c-2.1 0-4.2.8-5.8 2.3L61.3 70.5v35.3c0 4.4 3.5 8.1 7.9 8.1h39c4.3 0 7.9-3.6 7.9-8.1V70.1l-21.4-20c-1.6-1.4-3.6-2.3-5.8-2.3z"/></svg>