<svg xmlns="http://www.w3.org/2000/svg" width="12" height="13" viewBox="194.997 194.999 12 12.001"><path fill="#387a87" d="M206.97 204.297c-.034-.102-.25-.253-.647-.45l-1.973-1.15c-.083-.04-.164-.06-.243-.06-.114 0-.256.08-.426.242s-.762.896-.92 1.058-.3.242-.392.242c-.052 0-.327-.095-.367-.114l-.366-.218c-.778-.432-1.446-.927-2.003-1.483s-1.05-1.224-1.483-2.002l-.3-.542c-.03-.077-.043-.14-.043-.192 0-.102.08-.233.243-.392s.895-.75 1.057-.92.243-.313.243-.426a.55.55 0 0 0-.06-.243c-.04-.083-.1-.184-.184-.303s-.905-1.563-.967-1.67c-.2-.398-.35-.614-.452-.648-.04-.017-.1-.025-.18-.025-.154 0-.354.028-.6.085s-.442.117-.584.18c-.284.12-.585.466-.903 1.04-.3.534-.435 1.063-.435 1.585a3.27 3.27 0 0 0 .03.447c.02.145.055.308.106.5s.435 1.244.452 1.295c.2.557.435 1.054.708 1.49.448.728 1.06 1.48 1.836 2.255s1.527 1.388 2.254 1.837c.438.272.935.508 1.49.707l.89.328c.088.03.75.21.896.23a3.27 3.27 0 0 0 .447.03c.522 0 1.05-.146 1.585-.435.574-.318.92-.62 1.04-.904.063-.142.122-.336.18-.584s.085-.447.085-.6c.002-.08-.007-.138-.024-.178z"/></svg>