<svg xmlns="http://www.w3.org/2000/svg" width="39" height="39" viewBox="401.445 278.14 39 39" fill="#fff"><path d="M420.945 284.6c-5.905 0-10.17 4.4-10.848 9.13-.422 3.152.597 6.224 2.714 8.548 1.863 2 2.88 4.648 2.88 7.386l-.008 4.314c0 1.743 1.44 3.15 3.224 3.15h4.154c1.783 0 3.224-1.408 3.224-3.15l.008-4.314c0-2.817.932-5.396 2.714-7.22 1.95-2 2.97-4.56 2.97-7.22-.01-5.897-5.015-10.625-11.032-10.625zm3.725 29.378c0 .827-.677 1.496-1.528 1.496h-4.155c-.852 0-1.528-.66-1.528-1.496v-1.9h7.203v1.9h.008zm3.152-12.696c-2.117 2.157-3.224 5.142-3.224 8.38v.748h-7.203v-.748c0-3.072-1.273-6.136-3.4-8.46-1.863-2-2.627-4.56-2.292-7.22.597-3.98 4.298-7.72 9.24-7.72 5.173 0 9.328 4.067 9.328 8.962a8.68 8.68 0 0 1-2.46 6.056zm-7.73-23.152h1.695v3.98h-1.695zm11.128 7.683l1.186 1.186 2.905-2.794-1.193-1.185zm5.07 10.25h4.154v1.664H436.3zm-34.845.001h4.155v1.664h-4.155zM407.74 283l-1.194 1.186L409.45 287l1.186-1.186z"/></svg>