<svg xmlns="http://www.w3.org/2000/svg" width="17" height="17" viewBox="406.438 283.14 17 17"><path fill="#50556d" d="M423.195 298.72l-3.627-3.627c1.038-1.3 1.602-2.9 1.602-4.586 0-1.968-.766-3.817-2.157-5.208s-3.24-2.157-5.208-2.157-3.817.766-5.208 2.157-2.157 3.24-2.157 5.208.766 3.817 2.157 5.208 3.24 2.157 5.208 2.157c1.687 0 3.287-.564 4.586-1.602l3.627 3.627a.83.83 0 0 0 .589.243c.223 0 .432-.086.59-.243.323-.324.323-.852-.001-1.177zm-9.39-2.512a5.71 5.71 0 0 1-5.701-5.701 5.71 5.71 0 0 1 5.701-5.701 5.71 5.71 0 0 1 5.701 5.701c0 1.558-.628 2.97-1.645 4l-.028.027-.026.028c-1.03 1.016-2.444 1.645-4.002 1.645z"/></svg>