<svg xmlns="http://www.w3.org/2000/svg" width="44" height="65" viewBox="196.843 288.276 44 65"><ellipse fill="#5c5c5c" cx="218.838" cy="352.024" rx="2.294" ry="1.252"/><path opacity=".67" fill="#f1592a" d="M218.844 288.278c-12.143 0-22 9.937-22 22.167 0 5.1 1.845 9.68 4.558 13.52 17.444 24.626 17.444 23.815 17.444 23.815s0 .81 17.446-23.82c2.71-3.836 4.553-8.418 4.553-13.515 0-12.23-9.845-22.167-22-22.167z"/><path opacity=".6" fill="#f05228" d="M218.67 316.248l.058-27.972c-12.038.255-21.863 9.51-21.73 22.368.053 5.157 1.343 8.96 4.6 13.645 12.245 17.6 16.065 22.274 17.15 23.566l-.077-31.607z"/><path fill="#fff" d="M230.466 310.597c0 4.14-5.13 11.562-11.47 11.562-6.332 0-11.473-5.164-11.473-11.562 0-6.38 5.142-11.56 11.473-11.56 6.34 0 11.47 5.178 11.47 11.56z"/><path fill="#4c6667" d="M219.077 296.482c-7.868 0-14.188 6.37-14.188 14.3s6.32 14.3 14.188 14.3 14.188-6.37 14.188-14.3-6.32-14.3-14.188-14.3zm8.436 12.306h-1.664c-.193 0-.322.13-.322.325v8.125a.61.61 0 0 1-.645.65h-11.61a.61.61 0 0 1-.645-.65v-8.125c0-.195-.13-.325-.322-.325h-1.664a.61.61 0 0 1-.645-.65c0-.195.13-.455.258-.52l8.436-5.925c.13-.065.193-.13.387-.13s.258.065.388.13l8.436 5.925c.193.13.258.325.258.52a.61.61 0 0 1-.647.65z"/></svg>