<svg xmlns="http://www.w3.org/2000/svg" width="57" height="57" viewBox="392.44 269.14 57 57"><circle fill="#324a5e" cx="420.94" cy="297.64" r="28.5"/><path fill="#fff" d="M433.83 316.4h-25.76a1.9 1.9 0 0 1-1.89-1.88v-33.75c0-1.03.85-1.88 1.9-1.88h25.76a1.9 1.9 0 0 1 1.89 1.88v33.75c-.01 1.03-.86 1.88-1.9 1.88z"/><path d="M428.48 276.55h2.38v5.03h-2.38zm-5.83 0h2.38v5.03h-2.38zm-5.8 0h2.38v5.03h-2.38zm-5.83 0h2.38v5.03h-2.38z" fill="#84dbff"/><path d="M408.78 286.5h24.33v1.62h-24.33zm0 4.23h24.33v1.62h-24.33zm0 4.22h24.33v1.62h-24.33zm0 4.22h24.33v1.62h-24.33zm0 4.26h24.33v1.62h-24.33zm0 4.22h16.8v1.62h-16.8z" fill="#e6e9ee"/></svg>