<svg xmlns="http://www.w3.org/2000/svg" width="60" height="60"><path d="M14.1 50.6c-.7 0-1-.6-1-1.1s.3-1.1 1-1.1h2.3V35.2h-3.5c-1.6 0-3.4-1.9-3.4-3.5 0-1.7 1.5-3.3 3.1-3.3.4 0 .8.1 1.1.2.6 0 1 .6 1 1.2 0 .7-.5 1.2-1.1 1.2-.3 0-.6-.1-.8-.4h-.2c-.5 0-1.3.6-1.3 1.1s.6 1.4 1.1 1.4h6.8V12.9c.1-2.1 1.4-3.2 3.9-3.2l10.1-.1 5 .1c2 .1 3 1.5 3 4v19.4h6.4c.5 0 1.1-.9 1.1-1.4s-.9-1.1-1.3-1.1h-.2c-.2.2-.5.4-.8.4-.6 0-1.1-.5-1.1-1.2 0-.6.5-1.2 1.1-1.2.3-.1.7-.2 1-.2 1.6 0 3.1 1.6 3.1 3.3 0 1.6-1.7 3.4-3.2 3.5h-3.4v13.2h2.4c.7 0 1 .6 1 1.1s-.3 1.1-1 1.1H14.1zm27.7-2.2V35.2h-4.3v13.2h4.3zm-6.3 0V35.2h-4.3v13.2h4.3zm-6.4 0V35.2h-4.3v13.2h4.3zm-6.3 0V35.2h-4.3v13.2h4.3zm16.3-15.3V13.5c0-.9 0-1.5-.9-1.7H24.6l-2.2.1c-1.3.1-1.3 1.1-1.2 2.4v18.8h17.9z" fill="#565656"/></svg>