<svg xmlns="http://www.w3.org/2000/svg" width="60" height="60"><path fill="#565656" d="M47.77 48.55c-.4 0-.8-.2-.98-.5l-1.66-2.58-.07.01-2.66.1H17.6a36.83 36.83 0 0 1-2.66-.1l-.07-.01-1.66 2.58c-.2.3-.57.5-.98.5a1.31 1.31 0 0 1-.52-.11c-.54-.24-.75-.8-.46-1.24l1.32-2.06-.13-.03c-2.6-.6-4.43-1.72-5.57-3.46-1.45-2.2-1.58-5.15-1.6-8.23v-.07l-.07-.02c-1.82-.44-3.1-1.83-3.1-3.4 0-1.95 1.92-3.54 4.3-3.54h2.23v-9.06c0-2.08 2.2-4.22 4.73-4.22s4.4 2.14 4.4 4.22c0 .5-.5.92-1.1.92s-1.1-.4-1.1-.92c0-1.06-1.05-1.93-2.33-1.93s-2.34.87-2.34 1.93v9.06h42.76c2.36 0 4.3 1.6 4.3 3.54 0 1.57-1.27 2.97-3.1 3.4l-.08.02v.07c-.01 3.07-.14 6.02-1.6 8.23-1.15 1.74-2.96 2.87-5.57 3.46l-.13.03 1.33 2.06a.76.76 0 0 1 .08.7c-.1.24-.28.43-.54.54-.18.07-.36.1-.54.1zM7.5 33.57c.06 6.93 1.08 10.2 10.1 10.2H42.4c9.02 0 10.04-3.26 10.1-10.2v-.1h-45v.1zM6.4 28.23c-1.14 0-2.06.76-2.06 1.7s.92 1.7 2.06 1.7h47.2c1.14 0 2.06-.76 2.06-1.7s-.93-1.7-2.06-1.7H6.4z"/></svg>