<svg xmlns="http://www.w3.org/2000/svg" width="60" height="47" viewBox="351.94 255.14 60 47" fill="#fff"><path d="M358.52 302.14c-1.7 0-3.38-.7-4.62-1.95-1.26-1.2-1.95-2.83-1.95-4.6v-28.5c0-1.7.7-3.37 1.95-4.6 1.2-1.25 2.84-1.94 4.62-1.94h9.68v-.32a5.03 5.03 0 0 1 1.49-3.58c.96-.96 2.26-1.5 3.65-1.5h17.23c1.35 0 2.63.53 3.6 1.5.94.88 1.5 2.2 1.5 3.58v.32h9.73c1.78 0 3.42.7 4.62 1.94 1.26 1.2 1.95 2.84 1.95 4.6v28.5c0 1.7-.7 3.37-1.95 4.6-1.2 1.26-2.84 1.95-4.62 1.95h-46.86zm0-39a3.91 3.91 0 0 0-3.93 3.93v28.5a3.91 3.91 0 0 0 3.93 3.93h46.85a3.91 3.91 0 0 0 2.78-1.15c.7-.7 1.1-1.6 1.15-2.57h.06v-28.7a3.91 3.91 0 0 0-3.93-3.93h-11.08a1.33 1.33 0 0 1-1.35-1.34v-1.66c0-.68-.25-1.3-.7-1.75s-1.07-.7-1.75-.7H373.4c-.68 0-1.3.24-1.75.7-.45.44-.7 1.06-.7 1.75v1.66c0 .74-.6 1.34-1.35 1.34h-11.08zm23.42 32.06c-3.72 0-7.22-1.44-9.85-4.06a13.95 13.95 0 0 1-4.07-9.82 13.82 13.82 0 0 1 4.07-9.82 14.07 14.07 0 0 1 9.85-4.06c3.67 0 7.26 1.48 9.85 4.06a13.95 13.95 0 0 1 4.07 9.82 13.82 13.82 0 0 1-4.07 9.82 14.07 14.07 0 0 1-9.85 4.06zm0-25.02c-3.02 0-5.84 1.16-7.95 3.27-2.1 2.17-3.27 4.98-3.27 7.93 0 3 1.16 5.82 3.27 7.93 2.17 2.1 5 3.27 7.95 3.27s5.78-1.16 7.95-3.26c2.17-2.16 3.33-4.98 3.28-7.94 0-3-1.16-5.82-3.27-7.93-2.18-2.1-5-3.27-7.96-3.27z"/><ellipse cx="402.39" cy="269.99" rx="2.61" ry="2.6"/></svg>