<?xml version="1.0" encoding="utf-8"?>
<!-- Generator: Adobe Illustrator 16.0.0, SVG Export Plug-In . SVG Version: 6.00 Build 0)  -->
<!DOCTYPE svg PUBLIC "-//W3C//DTD SVG 1.1//EN" "http://www.w3.org/Graphics/SVG/1.1/DTD/svg11.dtd">
<svg version="1.1" id="Layer_1" xmlns="http://www.w3.org/2000/svg" xmlns:xlink="http://www.w3.org/1999/xlink" x="0px" y="0px"
	 width="164px" height="26px" viewBox="333.3 52.3 164 26" enable-background="new 333.3 52.3 164 26" xml:space="preserve">
<path fill="#FFFFFF" d="M350.7,78.3h-3.7V67c0-1.4-0.5-2.6-1.5-3.5c-1-1-2.1-1.5-3.5-1.5c-1.4,0-2.5,0.5-3.5,1.5
	c-1,1-1.5,2.1-1.5,3.5v11.3h-3.7v-26h3.7v7.5c1.5-1,3.2-1.6,5-1.6c2.4,0,4.4,0.9,6.1,2.6c1.7,1.7,2.6,3.8,2.6,6.2L350.7,78.3
	L350.7,78.3z M374.4,68.3c0,2.8-1,5.1-2.9,7.1c-1.9,2-4.3,2.9-7,2.9c-2.7,0-5.1-1-7-2.9c-2-2-2.9-4.3-2.9-7.1s1-5.1,2.9-7.1
	c1.9-2,4.3-3,7-3c2.8,0,5.1,1,7,3C373.5,63.1,374.4,65.5,374.4,68.3z M370.7,68.3c0-1.7-0.6-3.2-1.8-4.4c-1.2-1.2-2.7-1.8-4.4-1.8
	c-1.7,0-3.3,0.6-4.4,1.8c-1.2,1.2-1.8,2.7-1.8,4.4c0,1.7,0.6,3.2,1.8,4.4c1.2,1.2,2.7,1.8,4.4,1.8s3.2-0.6,4.4-1.8
	C370.1,71.5,370.7,70,370.7,68.3L370.7,68.3z M406.9,78.3h-3.7V66.4c0-1.2-0.4-2.3-1.3-3.1c-0.8-0.9-1.9-1.3-3.1-1.3
	c-1.2,0-2.3,0.5-3.1,1.3c-0.8,0.8-1.3,1.9-1.3,3.1v11.9h-3.7V66.4c0-1.2-0.4-2.3-1.3-3.1c-0.8-0.9-1.9-1.3-3.1-1.3
	c-1.2,0-2.2,0.4-3.1,1.3c-0.8,0.8-1.3,1.9-1.3,3.1v11.9h-3.7V58.5h3.7v1.2c1.2-1,2.7-1.5,4.5-1.5c2.6,0,4.6,1.1,6,3.3
	c1.5-2.2,3.7-3.3,6.5-3.3c2.2,0,4,0.8,5.5,2.4s2.3,3.5,2.3,5.7V78.3L406.9,78.3z M430.7,68.3c0,0.5-0.1,1.2-0.2,1.9h-15.7
	c0.4,1.3,1.2,2.3,2.3,3.2c1.1,0.8,2.3,1.2,3.7,1.2c2.5,0,4.3-1.1,5.6-3.4h4c-0.7,2.2-1.9,3.9-3.7,5.3c-1.7,1.3-3.7,2-5.9,2
	c-2.7,0-5.1-1-7-2.9c-2-2-2.9-4.3-2.9-7.1s1-5.1,2.9-7.1c1.9-2,4.3-2.9,7-2.9c2.8,0,5.1,1,7,2.9C429.7,63.1,430.7,65.5,430.7,68.3
	L430.7,68.3z M426.7,66.4c-0.4-1.3-1.2-2.4-2.3-3.2c-1.1-0.8-2.3-1.2-3.7-1.2c-1.3,0-2.6,0.4-3.7,1.2c-1.1,0.8-1.8,1.9-2.3,3.1
	L426.7,66.4z M462,78.3h-3.7V67c0-1.4-0.5-2.6-1.5-3.5c-0.9-1-2.2-1.5-3.5-1.5c-1.4,0-2.5,0.5-3.5,1.5c-1,1-1.5,2.2-1.5,3.5v11.3
	h-3.7V58.5h3.7v1.3c1.5-1,3.2-1.6,5-1.6c2.4,0,4.4,0.9,6.2,2.6c1.7,1.7,2.5,3.8,2.5,6.2V78.3L462,78.3z M485.8,68.3
	c0,0.5-0.1,1.2-0.2,1.9h-15.7c0.4,1.3,1.2,2.3,2.3,3.2c1.1,0.8,2.3,1.2,3.7,1.2c2.5,0,4.3-1.1,5.6-3.4h4c-0.7,2.2-1.9,3.9-3.7,5.3
	c-1.7,1.3-3.7,2-5.9,2c-2.7,0-5.1-1-7-2.9c-2-2-2.9-4.3-2.9-7.1s1-5.1,2.9-7.1c1.9-2,4.3-2.9,7-2.9c2.8,0,5.1,1,7,2.9
	C484.8,63.1,485.8,65.5,485.8,68.3L485.8,68.3z M481.8,66.4c-0.4-1.3-1.2-2.4-2.3-3.2c-1.1-0.8-2.3-1.2-3.7-1.2
	c-1.3,0-2.6,0.4-3.7,1.2c-1.1,0.8-1.8,1.9-2.3,3.1L481.8,66.4z M497.3,62.3h-3.1v16h-3.7v-16h-3.1v-3.8h3.1v-6.3h3.7v6.3h3.1V62.3z"
	/>
</svg>
