<svg xmlns="http://www.w3.org/2000/svg" width="164" height="26" viewBox="333.27 52.27 164 26" fill="#fff"><path d="M350.66 78.27h-3.73V67c0-1.38-.5-2.56-1.46-3.54s-2.14-1.47-3.5-1.47-2.54.5-3.5 1.47S337 65.6 337 67v11.28h-3.73v-26H337v7.52c1.5-1.04 3.15-1.57 4.97-1.57 2.4 0 4.45.86 6.15 2.57s2.55 3.78 2.55 6.2v11.28zm23.78-10.02c0 2.76-.97 5.12-2.9 7.08-1.94 1.96-4.28 2.94-7.03 2.94-2.73 0-5.07-.98-7.02-2.94s-2.92-4.32-2.92-7.08.97-5.12 2.92-7.08 4.3-2.95 7.02-2.95c2.75 0 5.1.98 7.03 2.95 1.93 1.96 2.9 4.32 2.9 7.08zm-3.73 0c0-1.73-.6-3.2-1.82-4.43S366.2 62 364.5 62a5.98 5.98 0 0 0-4.4 1.83c-1.22 1.23-1.82 2.7-1.82 4.43s.6 3.2 1.82 4.43 2.68 1.83 4.4 1.83 3.18-.6 4.4-1.83c1.22-1.22 1.82-2.7 1.82-4.43zm36.2 10.02h-3.73v-11.9a4.24 4.24 0 0 0-1.27-3.1c-.85-.86-1.87-1.3-3.07-1.3a4.11 4.11 0 0 0-3.07 1.3 4.24 4.24 0 0 0-1.27 3.1v11.9h-3.73v-11.9a4.24 4.24 0 0 0-1.27-3.1c-.85-.86-1.87-1.3-3.07-1.3s-2.22.43-3.07 1.3a4.24 4.24 0 0 0-1.27 3.1v11.9h-3.73V58.53h3.73v1.2c1.22-1 2.73-1.5 4.53-1.5 2.63 0 4.64 1.1 6.02 3.3 1.5-2.2 3.7-3.3 6.52-3.3 2.17 0 4 .8 5.5 2.43s2.25 3.52 2.25 5.72v11.9zm23.8-10.02c0 .54-.06 1.17-.2 1.88h-15.68c.4 1.27 1.17 2.32 2.25 3.15 1.1.82 2.3 1.24 3.68 1.24 2.46 0 4.32-1.15 5.56-3.45h3.97c-.72 2.2-1.95 3.94-3.68 5.25s-3.68 1.96-5.86 1.96c-2.73 0-5.07-.98-7.02-2.94s-2.92-4.32-2.92-7.08.97-5.12 2.92-7.08 4.3-2.95 7.02-2.95c2.75 0 5.1.98 7.04 2.95 1.94 1.95 2.9 4.3 2.9 7.07zm-4-1.88a6.3 6.3 0 0 0-2.25-3.16c-1.1-.82-2.3-1.22-3.68-1.22a5.9 5.9 0 0 0-3.68 1.24c-1.1.83-1.84 1.88-2.25 3.15l11.86-.01zm35.3 11.9h-3.73V67c0-1.38-.5-2.56-1.46-3.54A4.73 4.73 0 0 0 453.3 62c-1.37 0-2.54.5-3.5 1.47s-1.46 2.16-1.46 3.54v11.3h-3.73V58.53h3.73v1.25c1.5-1.04 3.15-1.57 4.97-1.57 2.4 0 4.45.86 6.15 2.57s2.55 3.78 2.55 6.2v11.3zm23.77-10.02c0 .54-.06 1.17-.2 1.88H469.9c.4 1.27 1.16 2.32 2.25 3.15 1.1.82 2.3 1.24 3.68 1.24 2.46 0 4.32-1.15 5.56-3.45h3.97c-.72 2.2-1.95 3.94-3.68 5.25s-3.68 1.96-5.86 1.96c-2.73 0-5.07-.98-7.02-2.94s-2.92-4.32-2.92-7.08.97-5.12 2.92-7.08 4.3-2.95 7.02-2.95c2.75 0 5.1.98 7.03 2.95 1.95 1.95 2.92 4.3 2.92 7.07zm-4-1.88a6.3 6.3 0 0 0-2.25-3.16c-1.1-.82-2.3-1.22-3.68-1.22a5.9 5.9 0 0 0-3.68 1.24c-1.1.83-1.84 1.88-2.25 3.15l11.86-.01zm15.5-4.07h-3.1v15.98h-3.73V62.3h-3.1v-3.76h3.1v-6.26h3.73v6.26h3.1v3.76z"/></svg>