<svg xmlns="http://www.w3.org/2000/svg" width="30" height="30" viewBox="235 235 30 30"><path fill="#fff" d="M260.6 239.4c-2.8-2.8-6.6-4.4-10.6-4.4s-7.8 1.6-10.6 4.4c-2.4 2.4-3.9 5.6-4.3 9-.3 3.2.3 6.4 2 9.2l-1.6 5.8a.96.96 0 0 0 .2.9.96.96 0 0 0 .9.2l5.8-1.6c2.3 1.3 4.9 2 7.6 2 .5 0 1.1 0 1.6-.1 3.4-.4 6.6-1.9 9-4.3 2.8-2.8 4.4-6.6 4.4-10.6 0-3.9-1.6-7.7-4.4-10.5zm-1.3 19.9c-4.4 4.4-11 5.1-16.3 1.9-.1-.1-.3-.1-.5-.1h-.2l-4.7 1.3 1.3-4.7c.1-.2 0-.5-.1-.7-3.2-5.2-2.5-11.9 1.9-16.3 5.1-5.1 13.5-5.1 18.6 0 5.2 5.1 5.2 13.5 0 18.6z"/></svg>