<svg xmlns="http://www.w3.org/2000/svg" width="60" height="60"><path fill="#565656" d="M49.2 34.4c-.5 0-.9-.4-.9-.9v-.7c0-.5.4-.9.9-.9s.9.4.9.9v.7c0 .5-.4.9-.9.9zm-3.4 10.3c-.5 0-.9-.4-.9-.9v-6.9c0-.5.4-.9.9-.9h6.9c.5 0 .9.4.9.9v6.9c0 .5-.4.9-.9.9h-6.9zm6-1.8v-5.1h-5.1v5.1h5.1zm.7-26.9L28 8.4H17.5c-.2 0-.4.1-.5.2L6.8 16.2c-.2.2-.4.4-.4.7v3.8c0 .5.4.9.9.9h9.4v29.9H12c-.7 0-1.2.5-1.2 1 0 .6.5 1 1.2 1h21.1c.7 0 1.2-.5 1.2-1 0-.6-.5-1-1.2-1h-4.4V21.7h19.6v7.9c0 .5.4.9.9.9s.9-.4.9-.9v-7.9h2.1c.5 0 .9-.4.9-.9V17a1 1 0 0 0-.6-1zm-35.8 3.8H8.3v-2.4l8.4-6.3v8.7zm1.8-9.6h8.3v9.6h-8.3v-9.6zm0 11.5h6.7l-6.7 6.7v-6.7zm8.3.9v15.1l-7.5-7.5 7.5-7.6zM18.5 32l7.7 7.7-7.7 7.7V32zm0 19.6v-1.5l8.3-8.4v9.9h-8.3zm10.2-41l6.2 1.9-6.2 6.2v-8.1zm1.5 9.2l5.7-5.7 5.7 5.7H30.2zm7.8-6.3l7.9 2.4-2.8 2.8-5.1-5.2zm13.3 6.3h-6.7l3-3c.1-.1.1-.2.2-.3l3.5 1.1v2.2z"/></svg>