<svg xmlns="http://www.w3.org/2000/svg" width="60" height="60"><path fill="#565656" d="M50.9 7.7c0-.6-.5-1-1.1-1H23c-.6 0-1.1.5-1.1 1v10.5h-6.5c-.6 0-1.1.5-1.1 1v4h-4.2c-.6 0-1.1.5-1.1 1v29.3h41.8V50l.1-42.3zM16.6 20.3H22v3h-5.4v-3zm5.3 10h-6.2c-.6 0-1.1.5-1.1 1s.5 1 1.1 1h6.2v5.2h-6.2c-.6 0-1.1.5-1.1 1s.5 1 1.1 1h6.2v5h-6.2c-.6 0-1.1.5-1.1 1 0 .6.5 1 1.1 1h6.2v4.9H11.3V25.1h10.6v5.2zm16.8 21.3h-4.8v-6h4.8v6zm2.1-8h-8.7v-.1c0-1 1.4-2.3 2.5-2.3h3.7c1.1 0 2.5 1.3 2.5 2.4zm7.9 8h-7.9v-6h1c.6 0 1.1-.5 1.1-1v-1.1c0-2.3-2.5-4.4-4.7-4.4h-3.7c-2.3 0-4.7 2-4.7 4.4v1.1c0 .6.5 1 1.1 1h.8v6h-7.6V8.8h24.6v42.8zM29.6 34.3c-.3 0-.7-.2-.9-.4s-.3-.6-.2-.8c.1-.5.6-.8 1.1-.8h13.9c.3 0 .7.2.9.4s.3.6.2.8c-.1.5-.6.8-1.1.8H29.6zm0-8.8c-.3 0-.7-.2-.9-.4s-.3-.5-.2-.8c.1-.5.6-.8 1.1-.8h13.9c.3 0 .7.2.9.4a.96.96 0 0 1 .2.9c-.1.5-.6.8-1.1.8H29.6v-.1zm0-8.6c-.3 0-.7-.2-.9-.4s-.3-.6-.2-.8c.1-.5.6-.8 1.1-.8h13.9c.3 0 .7.2.9.4s.3.5.2.8c-.1.5-.6.8-1.1.8H29.6z"/></svg>