<svg xmlns="http://www.w3.org/2000/svg" width="60" height="60"><path fill="#565656" d="M39.5 52.7c-2 0-3.5-1.8-3.5-4.3v-9.7c0-.5.1-1 .2-1.4l.2-.7h-5.5v13.9h2.7c.5 0 .9.5.9 1.1s-.4 1.1-.9 1.1h-7.3c-.5 0-.9-.5-.9-1.1s.4-1.1.9-1.1H29V36.7h-5.4l.2.7c.1.5.2.9.2 1.4v9.7c0 2.4-1.7 4.3-3.8 4.3-2.2 0-3.5-2.4-3.5-4.5v-5.4h-6.1c-2.1 0-3.8-1.9-3.8-4.3V27c0-1.3.5-2.4 1.3-3.3l.4-.4-.2-.3c-.8-.9-1.6-2.4-1.6-4 0-3.1 2.3-5.6 5.2-5.6S17 15.9 17 19c0 2.3-1.2 4.4-3 5.3l-.4.2.2.5c.3.6.4 1.3.4 2v1.4h3.5c2.1 0 3.8 1.7 3.8 4 0 .5-.1 1-.2 1.4l-.3.7h18l-.2-.7c-.1-.5-.2-.9-.2-1.4 0-2.3 1.6-4 3.8-4h3.5v-1.1c0-.6.1-1.6.4-2.2l.2-.5-.5-.3c-1.8-1-3-3.1-3-5.3 0-3.1 2.3-5.6 5.2-5.6s5.2 2.5 5.2 5.6c0 1.6-.9 3.1-1.7 4l-.3.4.4.4c.9.8 1.3 2 1.3 3.3v11.8c0 2.3-1.6 4-3.8 4h-6.1v5.7c0 2.2-1.7 4.1-3.7 4.1zm.2-16c-1 0-1.9.9-1.9 2.1v9.7c0 1.3.6 2.1 1.6 2.1s1.9-.9 1.9-2.1v-6.7c0-.6.4-1.1.9-1.1h7.1c1.1 0 1.9-.7 1.9-1.8V27c0-1.2-.8-2.1-1.9-2.1-1 0-1.6 1.2-1.6 2.4v2.2c0 .6-.4 1.1-.9 1.1h-4.5c-1.1 0-1.9.8-1.9 1.9 0 1.2.8 2.1 1.9 2.1h4.5c.5 0 .9.5.9 1.1s-.4 1.1-.9 1.1l-7.1-.1zM10.6 24.9c-1 0-1.9.9-1.9 2.1v11.5c0 1.2.8 2.1 1.9 2.1h7.1c.5 0 .9.5.9 1.1v6.5c0 1.2.6 2.4 1.6 2.4s1.9-.9 1.9-2.1v-9.7c0-1.2-.8-2.1-1.9-2.1h-7.1c-.5 0-.9-.5-.9-1.1s.4-1.1.9-1.1h4.5c1 0 1.9-.9 1.9-2.1 0-1.1-.8-1.9-1.9-1.9h-4.5c-.5 0-.9-.5-.9-1.1V27c0-1.2-.6-2.1-1.6-2.1zm37.6-9.3c-1.9 0-3.3 1.5-3.3 3.4 0 2 1.5 3.7 3.3 3.7s3.3-1.7 3.3-3.7c0-1.9-1.4-3.4-3.3-3.4zm-36.4 0c-1.9 0-3.3 1.5-3.3 3.4 0 2 1.5 3.7 3.3 3.7s3.3-1.7 3.3-3.7c0-1.9-1.4-3.4-3.3-3.4z"/></svg>