<svg xmlns="http://www.w3.org/2000/svg" width="60" height="60"><path fill="#565656" d="M27.28 47.34a1.1 1.1 0 0 1-.77-.32l-3.48-3.48-.16.1a6.35 6.35 0 0 1-3.51 1.06c-3.5 0-6.36-2.85-6.36-6.37 0-3.5 2.85-6.37 6.36-6.37s6.36 2.85 6.36 6.37a6.35 6.35 0 0 1-1.06 3.51l-.1.16 3.16 3.16h3.23c.6 0 1.1.5 1.1 1.1s-.5 1.1-1.1 1.1h-3.68l.02-.01zm-7.92-13.2a4.19 4.19 0 0 0-4.19 4.19c0 2.3 1.88 4.2 4.2 4.2a4.16 4.16 0 0 0 1.8-.41l.3-.14-2.86-2.86c-.2-.2-.32-.48-.32-.77s.1-.57.32-.77c.2-.2.48-.3.77-.3s.56.1.77.3L23 40.44l.14-.3a4.18 4.18 0 0 0 .4-1.8 4.21 4.21 0 0 0-4.19-4.19h.01zm1.32 18.55c-7.15 0-12.96-5.85-12.96-13.05a13 13 0 0 1 9.48-12.48l.22-.06-1.54-6.24H14.1a3.73 3.73 0 1 1 0-7.46h2.64c3.5 0 6.36 2.85 6.36 6.36 0 .6-.5 1.1-1.1 1.1h-3.9l1.45 5.86.2-.02c.3-.02.6-.03.92-.03a13 13 0 0 1 6.37 1.67l7.63 4.28 2.55-6.37c.38-.94 1.1-1.67 2.04-2.06a3.69 3.69 0 0 1 1.43-.29c.05 0 .1 0 .15.01l.16.01 3.3-8.35h-3.68c-.6 0-1.1-.48-1.1-1.1a1.11 1.11 0 0 1 1.09-1.11h6.28c.6 0 1.12-.33 1.4-.85l1.9-3.82a1.09 1.09 0 0 1 .98-.6c.17 0 .33.04.5.1a1.1 1.1 0 0 1 .55.63 1.09 1.09 0 0 1-.06.83l-1.9 3.8c-.64 1.27-1.9 2.06-3.33 2.06h-.27l-3.63 9.15.12.1a3.56 3.56 0 0 1 .98 1.38c.38.9.38 1.9.02 2.8l-2.9 7.28 7.8 4.38c2 1.13 3.23 3.25 3.23 5.54a6.47 6.47 0 0 1-1.85 4.53c-1.18 1.23-2.8 1.92-4.5 1.92H20.68v.07zm.04-23.84A10.82 10.82 0 0 0 9.9 39.66c0 6 4.84 10.87 10.78 10.87H45.9c2.27 0 4.2-1.96 4.2-4.27 0-1.5-.8-2.9-2.13-3.64l-22-12.35c-1.6-.92-3.4-1.4-5.25-1.4zM40.7 26.1a1.52 1.52 0 0 0-.59.12c-.38.16-.7.47-.85.85L36.6 33.7l2.73 1.53 2.8-7.02c.3-.8-.05-1.67-.82-2-.2-.06-.4-.1-.62-.1zM14.1 15.6a1.56 1.56 0 0 0-1.55 1.55 1.55 1.55 0 0 0 1.55 1.55h6.7l-.1-.3c-.6-1.67-2.18-2.8-3.95-2.8H14.1h-.01z"/></svg>