<svg xmlns="http://www.w3.org/2000/svg" width="60" height="60"><path fill="#565656" d="M6.8 53.6c-.6 0-1-.5-1-1.2V40.6c0-.4.2-.7.4-1l9.4-7.3v-3.1c0-.4.2-.7.4-1l15.7-13.7c.2-.2.4-.2.6-.2s.4.1.6.2l15.7 13.7c.3.2.4.6.4 1v24.3H6.8zm40.1-2.1V29.9L32.2 17.1 17.6 29.9v21.6h9.3v-11c0-.7.5-1.2 1-1.2h8.6c.6 0 1 .5 1 1.2v10.9l9.4.1zm-11.4 0v-9.7h-6.6v9.7h6.6zm-20 0V35.1L7.8 41v10.5h7.7zM7.1 32.3c-.3 0-.6-.2-.8-.5-.3-.5-.3-1.3.2-1.7L31.6 8.2c.2-.2.4-.2.6-.2s.4.1.6.2l21 18.6c.5.4.5 1.1.2 1.7-.2.3-.5.5-.8.5-.2 0-.4-.1-.6-.2L32.2 10.7 7.7 32c-.2.2-.4.3-.6.3z"/></svg>