<svg xmlns="http://www.w3.org/2000/svg" width="60" height="60"><path fill="#565656" d="M10.7 53.6c-1.9 0-3.5-1.6-3.5-3.5V11.4c0-1.9 1.6-3.5 3.5-3.5h38.7c1.9 0 3.5 1.6 3.5 3.5v38.7c0 1.9-1.6 3.5-3.5 3.5H10.7zm0-43.5c-.7 0-1.3.6-1.3 1.3v38.7c0 .7.6 1.3 1.3 1.3H29V10.1H10.7zm20.4 41.3h18.3c.7 0 1.3-.6 1.3-1.3V11.4c0-.7-.6-1.3-1.3-1.3H31.1v41.3zm-12-13.8c-.3 0-.5-.1-.7-.3l-4-4c-.4-.4-.4-1 0-1.4.2-.2.4-.3.7-.3s.5.1.7.3l2.3 2.3v-9.5c0-.5.4-1 1-1a.94.94 0 0 1 1 1v9.5l2.3-2.3c.2-.2.4-.3.7-.3s.5.1.7.3c.4.4.4 1 0 1.4l-4 4c-.2.2-.4.3-.7.3zm21.8 0c-.5 0-1-.4-1-1v-9.5l-2.3 2.3c-.2.2-.4.3-.7.3s-.5-.1-.7-.3c-.4-.4-.4-1 0-1.4l4-4c.2-.2.4-.3.7-.3s.5.1.7.3l4 4c.4.4.4 1 0 1.4-.2.2-.4.3-.7.3s-.5-.1-.7-.3l-2.3-2.3v9.5a1.08 1.08 0 0 1-1 1z"/></svg>