<svg xmlns="http://www.w3.org/2000/svg" width="60" height="60"><path fill="#565656" d="M38.88 17.694h1.98v1.883h-1.98v-1.883zm-6.548 1.883h1.986v-1.883H32.33v1.883zM7.834 39.126l3.233 3.744h.587v6.754a3.27 3.27 0 0 0 3.268 3.266h31.686v-3.482c0-1.92-1.563-3.48-3.48-3.48h-4.033l-.936-14.355-1.883.123 1.053 16.115h5.8a1.6 1.6 0 0 1 1.596 1.598v1.598h-10.87V49.4c0-1.12-.53-2.12-1.354-2.754l-.52-7.383-4.127-3.02-1.162 1.484 3.47 2.502.402 5.695-.188-.004h-4.77c-.454-2.875-2.947-5.08-5.947-5.08v1.883a4.15 4.15 0 0 1 4.143 4.139v.94h6.574a1.6 1.6 0 0 1 1.597 1.598v1.598h-17.05c-.766 0-1.38-.617-1.38-1.38v-7.332L27.5 27.497h1.032v-1.883h-1.85l-14.505 15.37h-.256l-2.12-2.453 1.012-7.795.69-.002.01 5.453 1.735 1.793 1.354-1.314-1.206-1.248-.012-6.566-4.23.002-1.33 10.27zm38.16-18.004c-.496 0-.973-.23-1.305-.635l-.4-.502-1.115 7.162c-.26 1.645-1.467 2.807-2.938 2.807h-7.248c-1.473 0-2.682-1.154-2.938-2.807l-1.114-7.162-.413.502c-.33.402-.808.635-1.304.635a1.68 1.68 0 0 1-1.303-.635l-4.422-5.39a2.12 2.12 0 0 1 0-2.605l1.74-2.123h7.96l1.74 2.123c.08.105.146.203.207.314h6.934c.064-.11.13-.215.21-.314l1.738-2.123h7.965l1.738 2.123c.6.73.6 1.87 0 2.605l-4.418 5.39a1.69 1.69 0 0 1-1.305.635zm-14.526-7.22c.03-.04.03-.168 0-.21l-1.173-1.434h-6.187l-1.176 1.434c-.033.04-.033.168 0 .21l4.267 5.205 4.27-5.205zm8.805 1.194c-.104-.123-.188-.26-.256-.402h-6.842a1.72 1.72 0 0 1-.252.402l-2.405 2.936 1.374 8.826c.1.56.424 1.213 1.082 1.213h2.682v-3.197H34.22v-1.88h4.752v1.88h-1.434v3.197h2.688c.656 0 .992-.652 1.08-1.213l1.375-8.826-2.408-2.936zm9.986-1.194c.033-.043.033-.168 0-.21l-1.176-1.434h-6.186l-1.174 1.434c-.033.04-.033.166 0 .21l4.266 5.205 4.27-5.205z"/></svg>