<svg xmlns="http://www.w3.org/2000/svg" width="60" height="60"><path fill="#565656" d="M52.1 39.8c-2 0-3-.9-3.8-1.6-1.7-1.5-3.4-1.4-5.1 0-2.3 2-5.2 2.1-7.5 0-1.7-1.4-3.4-1.4-5.1 0-2.3 2-5.2 2.1-7.5 0-1.7-1.4-3.4-1.5-5.1 0-2.3 2.1-5.2 2.1-7.5 0-.5-.4-1-.9-1.7-1-.8-.2-1.8 0-1.9-1.1V19.6c0-.6.4-1.1 1-1.1h22.2V12c0-.9.3-1.7.7-2.4.6-1.1 1.8-2.4 4.1-2.4h.2c1.6.1 2.8.6 3.4 1.6.9 1.4.5 3 .5 3.2-.1.5-.7.9-1.2.7-.2-.1-.5-.3-.6-.5-.2-.2-.2-.5-.1-.8 0 0 .2-.8-.2-1.4s-1.2-.7-1.9-.7h-.1c-1.1 0-1.9.4-2.4 1.3-.5.7-.5 1.4-.5 1.5v6.4h11.7V12c0-.9.3-1.7.7-2.4.6-1.1 1.8-2.4 4.1-2.4h.2c1.6 0 2.7.6 3.4 1.6.9 1.4.5 3 .5 3.2-.1.5-.7.9-1.2.7-.3-.1-.5-.3-.6-.5-.1-.3-.2-.5-.1-.8.4-1.4-.9-2-2.1-2.1h-.1c-1.1 0-1.9.4-2.4 1.3-.4.7-.4 1.5-.4 1.5v6.4h6.5c.5 0 1 .5 1 1.1v19.2c0 .3-.1.5-.3.7-.3.2-.6.3-.8.3zM33.2 35c1.9 0 2.9.9 3.8 1.6 1.7 1.5 3.4 1.4 5.1 0 .5-.4 1-.9 1.7-1.2v-2.5H32.1v2.2c.3-.1.7-.1 1.1-.1zm-12.7 0c1.9 0 2.9.9 3.8 1.6 1.7 1.5 3.5 1.5 5.1 0l.7-.6V20.6H8.9V35h.2l.4.1.6.2c.6.3 1.1.7 1.6 1.1 1.7 1.5 3.4 1.5 5.1 0 .8-.6 1.8-1.5 3.7-1.4zm25.3 0c1.9 0 2.9.9 3.8 1.6.5.5 1 .8 1.6 1V20.7h-5.5V35h.1zM32 30.8h11.7v-4H32v4zm0-6.1h11.7v-4H32v4zm20.1 21.7c-1.9 0-2.9-.8-3.8-1.6-1.7-1.4-3.5-1.4-5.1 0-2.4 2-5.2 2-7.5 0-1.7-1.4-3.4-1.4-5.1 0-2.3 2-5.2 2-7.5 0-1.7-1.4-3.4-1.4-5.1 0-2.3 2-5.2 2-7.5 0-.6-.5-1.2-.9-1.9-1.1-.5-.1-.9 0-1.3-.4a1.23 1.23 0 0 1-.2-1.3c.5-.9 1.9-.5 2.6-.2s1.4.8 2 1.3c1.7 1.4 3.4 1.4 5.1 0 2.4-2 5.2-2 7.5 0 1.7 1.4 3.4 1.4 5.1 0 2.4-2 5.2-2 7.5 0 1.7 1.4 3.4 1.4 5.1 0 2.4-2 5.2-2 7.5 0 .5.4 1 .9 1.7 1 .8.2 1.9 0 1.9 1.1 0 .7-.5 1.2-1 1.2zm0 6.3c-1.9 0-2.9-.8-3.7-1.6-1.7-1.4-3.4-1.4-5.1 0-2.3 2-5.2 2-7.5 0-1.7-1.4-3.4-1.4-5.1 0-2.4 2-5.2 2-7.5 0-1.7-1.4-3.4-1.4-5.1 0-2.4 2-5.2 2-7.5 0-.6-.5-1.2-.9-1.9-1.1-.5-.1-.9 0-1.3-.3a1.23 1.23 0 0 1-.2-1.3c.9-1.6 3.7.3 4.6 1 1.7 1.4 3.4 1.4 5.1 0 2.4-2 5.2-2 7.5 0 1.7 1.4 3.4 1.4 5.1 0 2.4-2 5.2-2 7.5 0 1.7 1.4 3.4 1.4 5.1 0 2.3-2 5.2-2 7.5 0 .5.4 1 .8 1.7 1 .8.2 1.9 0 1.9 1.1-.2.7-.6 1.2-1.1 1.2z"/></svg>