<svg xmlns="http://www.w3.org/2000/svg" width="60" height="60"><path fill="#565656" d="M48.9 42.5c-1-1.3-2.5-2.3-4.2-2.9l-7.5-3.1s-.1 0-.2-.1l.1-.1a10.49 10.49 0 0 0 3.6-7.9c0-1.4-.3-2.8-.8-4.1l-.2-.3.3-.2c1.1-.8 1.6-1.7 1.6-2.7v-.9l2.6-5.3c.2-.3.3-.6.2-.9s-.3-.6-.7-.7L30.3 8.6c-.1 0-.2-.1-.3-.1s-.2 0-.3.1l-13.4 4.9a1.21 1.21 0 0 0-.7.7.96.96 0 0 0 .2.9l2.5 5.3v.9c0 1 .5 1.9 1.6 2.6l.3.2-.1.3c-.5 1.3-.8 2.7-.8 4.1 0 3 1.3 5.8 3.4 7.8l.1.1h.1l-7.5 3.2c-1.7.6-3.2 1.6-4.2 2.9s-1.6 2.8-1.6 4.4v5.8c0 .5.5.9 1 .9h38.9c.6 0 1-.4 1-.9v-5.8c0-1.6-.6-3.1-1.6-4.4zM29 39h2v1.7c0 .5-.5.9-1 .9-.3 0-.5-.1-.7-.3s-.3-.4-.3-.6V39zm-8.9-19.8l-1.7-4.4L30 10.6l11.6 4.3-1.7 4.4-.3-.1c-.5-.2-1.1-.4-1.9-.5-2.1-.4-4.8-.7-7.7-.7s-5.6.2-7.7.7l-1.9.5h-.3zm.5 2.6l-.4-.4.5-.2c1.3-.6 4.7-1.2 9.1-1.2 4.5 0 7.8.6 9.1 1.2l.5.2-.4.4c-.2.3-.8.8-2.2 1.3-1.9.7-4.5 1.1-7.1 1.1-2.7 0-5.3-.4-7.1-1.1-1.1-.5-1.7-1.1-2-1.3zm.7 6.6a8.15 8.15 0 0 1 .6-3.1l.1-.4.4.1c2.1.8 4.8 1.2 7.6 1.2s5.4-.4 7.5-1.2l.4-.1.1.4a8.15 8.15 0 0 1 .6 3.1 8.71 8.71 0 0 1-8.7 8.7c-4.8 0-8.6-3.9-8.6-8.7zm-9.7 23.5V47c0-2.5 1.8-4.7 4.5-5.7l1.3-.5 7.7 9.5 1.2 1.7H11.6v-.1zM25.9 46l.3 2.6-6.8-8.6 5.4-2.3c.7.4 1.4.6 2.2.8v2.1c0 .7.3 1.4.9 1.9.2.1.3.2.5.3l-1.8 1.5c-.5.6-.7 1.1-.7 1.7zm6.1 3.9l-1.3 2h-1.4l-1.3-2V46c0-.2.1-.4.2-.5l1.8-1.6 1.8 1.6c.2.1.2.3.2.5v3.9zm-.3-7c.8-.5 1.4-1.3 1.4-2.2v-2.1c.4-.1.9-.3 1.3-.4l.2-.1h.1l.7-.3 5.4 2.3-6.8 8.6.3-2.6c0-.6-.2-1.1-.6-1.6l-2-1.6zm16.7 9H33.7l8.9-11.2 1.3.5c2.8.9 4.5 3.2 4.5 5.7v5z"/></svg>