<svg xmlns="http://www.w3.org/2000/svg" width="60" height="60"><path fill="#565656" d="M41.4 43.9c-2 0-3.6-1.7-3.6-3.7s1.6-3.7 3.6-3.7 3.6 1.7 3.6 3.7c.1 2.1-1.6 3.7-3.6 3.7zm0-5.3c-.9 0-1.5.7-1.5 1.6s.7 1.6 1.5 1.6a1.58 1.58 0 0 0 1.6-1.6 1.58 1.58 0 0 0-1.6-1.6zm-22.8 5.3c-2 0-3.6-1.7-3.6-3.7s1.6-3.7 3.6-3.7 3.6 1.7 3.6 3.7c0 2.1-1.6 3.7-3.6 3.7zm0-5.3a1.58 1.58 0 0 0-1.6 1.6 1.58 1.58 0 0 0 1.6 1.6 1.58 1.58 0 0 0 1.6-1.6c-.1-.9-.8-1.6-1.6-1.6zm7.5.6h7.8v2.1h-7.8v-2.1zm13.7 13.5c-2 0-3.6-1.7-3.6-3.8v-1.4H23.7V49c0 2-1.8 3.8-3.8 3.8h-.5c-2 0-3.6-1.7-3.6-3.8v-1.5c-2.8-.6-4.8-3.1-4.8-6V27.7H9.7A2.69 2.69 0 0 1 7 25v-8.3A2.69 2.69 0 0 1 9.7 14H11c.5-3 3.1-5.2 6.1-5.2h25.7c3 0 5.6 2.2 6.1 5.2h1.3a2.69 2.69 0 0 1 2.7 2.7V25a2.69 2.69 0 0 1-2.7 2.7H49v13.7c0 2.9-2 5.4-4.8 6V49c0 2-1.8 3.8-3.8 3.8l-.6-.1zM38.4 49c0 .9.7 1.7 1.5 1.7h.5c.8 0 1.7-.7 1.7-1.7v-1.4h-3.8l.1 1.4zm-20.5 0c0 .9.7 1.7 1.5 1.7h.5c.8 0 1.7-.7 1.7-1.7v-1.4h-3.8V49h.1zM13 41.4c0 2.3 1.8 4.1 4.1 4.1h25.7c2.3 0 4.1-1.8 4.1-4.1v-6.7H13v6.7zm34-8.8V18.7H31v13.9h16zm-18.1 0V18.7H13v13.9h15.9zm21.4-7c.3 0 .6-.3.6-.7v-8.3c0-.4-.3-.7-.6-.7H49v9.6l1.3.1zM9.7 16c-.3 0-.6.3-.6.7V25c0 .4.3.7.6.7H11V16H9.7zm37.3.6v-1.8c0-2.3-1.8-4.1-4.1-4.1H17.2c-2.3 0-4.1 1.8-4.1 4.1v1.8H47z"/></svg>