<svg xmlns="http://www.w3.org/2000/svg" width="60" height="60"><path fill="#565656" d="M48 15.3c-2.22-2.22-5.33-3.44-8.76-3.44-4.43 0-8.97 1.98-12.44 5.46-4.8 4.8-6.5 11.34-4.84 16.54-.15 2.4-2.48 5.64-2.75 6l-8.55 8.55c-.17.18-.27.4-.27.66s.1.5.27.66l2.9 2.88c.17.18.4.27.66.27s.48-.1.66-.27l8.58-8.58c2.98-1.95 6.53-2.4 7.04-2.44.98.22 2 .35 3.04.35 4.44 0 8.97-2 12.44-5.46 3.1-3.1 5-7 5.4-11s-.8-7.63-3.38-10.2v.02zm.38 3.66c-.07.04-.14.07-.2.13l-5.3 5.3-3.97-3.97 5.3-5.3c.06-.06.1-.14.14-.2a9.61 9.61 0 0 1 2.34 1.7c.7.7 1.24 1.5 1.7 2.34zm-6.84 6.77l-4.13 4.13-3.97-3.97 4.13-4.13 3.97 3.97zM14.23 50.64l-1.56-1.56L20 41.76l1.56 1.56-7.32 7.32zm8.77-8.5l-1.8-1.82c.54-.8 1.43-2.24 2.03-3.8.45.72.97 1.38 1.57 1.98.73.73 1.56 1.34 2.47 1.85-1.28.36-2.8.92-4.26 1.78v.01zm21.67-6.96c-3.13 3.13-7.18 4.92-11.12 4.92-2.92 0-5.56-1.03-7.44-2.9-2.2-2.2-3.2-5.34-2.83-8.85s2.1-6.96 4.85-9.7c3.13-3.13 7.18-4.92 11.1-4.92 1.1 0 2.2.15 3.27.47l-4.94 4.94-2.16-2.16a.94.94 0 0 0-.66-.27c-.26 0-.48.1-.66.27a.94.94 0 0 0 0 1.32l2.16 2.16-4.13 4.13-2.16-2.17c-.18-.17-.4-.27-.66-.27a.86.86 0 0 0-.66.27c-.17.17-.27.4-.27.65a.94.94 0 0 0 .27.66l2.16 2.17-4 4c-.17.18-.27.4-.27.66a.94.94 0 0 0 .27.66c.18.17.4.27.66.27s.48-.1.66-.27l4-4 3.97 3.97-4 4a.94.94 0 0 0 0 1.32c.18.18.4.27.66.27a.94.94 0 0 0 .66-.27l4-4 2.17 2.17c.17.18.4.27.66.27a.94.94 0 0 0 .66-.27.94.94 0 0 0 0-1.32l-2.17-2.17 4.13-4.13 2.17 2.17c.18.18.4.27.66.27a.94.94 0 0 0 .66-.27.93.93 0 0 0 0-1.31l-2.17-2.17 4.94-4.94c1.34 4.48-.24 10.16-4.45 14.38zm-29.47-12a6.67 6.67 0 0 1-6.66-6.66c0-3.67 3-6.66 6.66-6.66s6.66 3 6.66 6.66a6.68 6.68 0 0 1-6.66 6.66zm2-10.64c.25 1.7-.32 3.44-1.6 4.85-1.03 1.14-1.43 2.5-1.1 3.8l.05.2.2.02.44.02c2.72 0 4.93-2.2 4.93-4.94a4.96 4.96 0 0 0-2.48-4.28l-.53-.3.08.62zm-2.3-.95c-2.6.15-4.65 2.3-4.65 4.93a4.92 4.92 0 0 0 1.92 3.91l.47.36.01-.6c.03-1.43.6-2.8 1.66-3.96 1.2-1.33 1.53-2.96.88-4.46l-.08-.2-.2.01z"/></svg>