<svg xmlns="http://www.w3.org/2000/svg" width="60" height="60"><path fill="#565656" d="M8.8 53.6a1.11 1.11 0 0 1-1.1-1.1v-23c0-.3.2-.6.4-.8l18.1-13.4c.2-.1.4-.2.6-.2.1 0 .3 0 .4.1l.1.1.1-.1c.6-.4 1.3-.7 1.9-.9l.5-.2-3-2.8-20.1 15c-.2.1-.4.2-.6.2-.3 0-.6-.2-.9-.4-.2-.2-.2-.5-.2-.8s.2-.5.4-.7L26.2 8.8c.2-.1.4-.2.6-.2s.5.1.6.2l4.9 4.3h.1a16.28 16.28 0 0 1 3.1-.3c3.3 0 6.4 1 9.1 2.8 5.1 3.4 7.8 9.4 7 15.4v.2l.2.1c1.2.6 1.9.9 3.2.9 1.2 0 2.3-.3 3.4-.7.1-.1.3-.1.4-.1a1.1 1.1 0 0 1 1 .6 1.1 1.1 0 0 1 0 .8.9.9 0 0 1-.6.6c-1.4.6-2.8.9-4.3.9-1.7 0-2.9-.5-4.4-1.3l-.1-.1v.1c-1.3.7-2.7 1.3-4.2 1.6l-.2.1v17.8a1.11 1.11 0 0 1-1.1 1.1H8.8zm21.9-14.4a1.11 1.11 0 0 1 1.1 1.1v11.2h12.1V35h-1.4c-3.2 0-6.4-1-9.1-2.8-4.6-3.2-7.3-8.4-7.1-14v-.6L9.9 30.1v21.4H22V40.3a1.11 1.11 0 0 1 1.1-1.1h7.6zm-6.6 12.3h5.5V41.4h-5.5v10.1zm11.6-36.6c-2.4 0-5.1.4-7.2 1.6l-.1.1v.1c-.7 5.3 1.9 10.9 6.3 13.9 2.3 1.6 5.1 2.4 7.9 2.4 1.9 0 3.8-.4 5.6-1.1l.5-.2-12.4-8.4c-.2-.2-.4-.4-.4-.7-.1-.3 0-.6.2-.8.2-.3.5-.5.9-.5.2 0 .4.1.6.2l12.3 8.4v-.5c.1-4.8-2.2-9.3-6.2-12-2.5-1.7-5.2-2.6-8-2.5z"/></svg>