<svg xmlns="http://www.w3.org/2000/svg" width="9" height="16" viewBox="416.38 289.64 9 16"><path fill="#6d6d6d" d="M425.38 291.1c0-.86-.56-1.47-1.36-1.47l-1.85.01a3.89 3.89 0 0 0-2.5 1.01c-.68.63-1.12 1.5-1.27 2.53-.07.5-.08.96-.08 1.4h-.54c-.2 0-.67 0-1.05.4-.37.4-.37.92-.37 1.12v1.95c0 .23 0 .74.4 1.15.37.4.86.4 1.06.4h.5l-.01 4.47c0 .25-.01.74.36 1.14.37.4.83.4 1.06.4h1.73c.37 0 .83 0 1.2-.4.38-.4.38-.9.38-1.28v-4.33h.83c.85 0 1.4-.58 1.4-1.5v-2c0-.2 0-.72-.38-1.1-.37-.4-.84-.4-1.03-.4-.15 0-.7-.04-.8-.04h-.01v-.1h.9c.84-.02 1.38-.58 1.38-1.47a29.19 29.19 0 0 0 .05-1.93zm-1 1.9c0 .3-.08.4-.4.4l-1.18.02c-.5.02-.7.24-.72.78v1.55l1.8-.04c.33 0 .4.07.4.43v2c0 .33-.08.42-.4.42h-1.84V304c0 .58-.02.6-.57.6h-1.73c-.36 0-.4-.06-.4-.46l.01-5.55h-1.53c-.36 0-.44-.07-.44-.45v-1.94c0-.37.08-.45.4-.45h1.52l.1-2.33c.22-1.57 1.32-2.57 2.8-2.62.24-.01 1.7.03 1.8.03h.01c.24 0 .34.1.34.36v1.84z"/></svg>