<svg xmlns="http://www.w3.org/2000/svg" width="15" height="15" viewBox="2325.24 196.19 15 15"><path fill="#6d6d6d" d="M2332.86 211.2c-2.07 0-4-.77-5.4-2.17-1.42-1.4-2.2-3.3-2.2-5.33s.78-3.94 2.2-5.33c1.42-1.4 3.34-2.17 5.4-2.17 2.15 0 3.94.64 5.16 1.86l.4.34-2.77 2.76-.35-.34c-.6-.6-1.44-.9-2.43-.9-2.07 0-3.9 1.77-3.9 3.8s1.82 3.8 3.9 3.8c1.48 0 2.64-.77 3.2-2.13h-3.8v-3.7h7.8l.05.4c.08.46.12 1.04.12 1.65 0 .5-.04 1.03-.12 1.5-.25 1.82-1.07 3.34-2.35 4.4-1.28 1.05-2.98 1.6-4.9 1.6zm0-14c-3.72 0-6.63 2.86-6.63 6.52s2.9 6.52 6.63 6.52c3.46 0 5.82-1.93 6.32-5.17a7.26 7.26 0 0 0 .12-1.34c0-.3-.02-.64-.07-1.07h-5.95v1.74h4.06l-.15.6c-.24 1.03-.77 1.9-1.55 2.54s-1.75.96-2.8.96c-1.24 0-2.48-.52-3.4-1.42-.93-.92-1.44-2.1-1.44-3.36 0-2.6 2.23-4.77 4.88-4.77 1.07 0 2.02.3 2.73.86l1.38-1.37c-1.1-.82-2.5-1.23-4.13-1.23z"/></svg>