<svg xmlns="http://www.w3.org/2000/svg" width="15" height="14" viewBox="596.52 243.95 15 14"><path fill="#6d6d6d" d="M602.03 257.95v-9.65h3.54v.5l.1-.08c.6-.42 1.3-.64 2.08-.64.78 0 1.44.14 1.97.4.48.24.87.6 1.15 1.07.56.93.63 2.17.63 3.14v5.25h-3.65v-4.7c0-1.46-.22-1.88-.98-1.88-.74 0-1.2.3-1.2 1.8v4.78h-3.65zm.9-.9h1.85v-3.9c0-.36 0-1.02.26-1.6a1.79 1.79 0 0 1 .63-.77c.32-.22.73-.33 1.2-.33.82 0 1.37.36 1.65 1.06.23.57.23 1.25.23 1.7v3.8h1.85v-4.36c0-1.34-.16-2.16-.53-2.73-.44-.68-1.18-1-2.32-1-1.17 0-1.92.63-2.2 1.18l-.13.24h-.76v-1.2h-1.74v7.87zm-6.2.9v-9.65h3.65v9.65h-3.65zm.9-.9h1.86v-7.87h-1.86v7.87zm.93-9.07c-1.13 0-2.05-.9-2.05-2.02s.92-2.02 2.05-2.02 2.04.9 2.04 2.02-.9 2.02-2.04 2.02zm0-3.16c-.63 0-1.15.5-1.15 1.13a1.14 1.14 0 0 0 1.15 1.13c.63 0 1.15-.5 1.15-1.13s-.52-1.13-1.15-1.13z"/></svg>