<svg xmlns="http://www.w3.org/2000/svg" width="120" height="40" viewBox="-0.17 0 120 40" fill="#fff"><path d="M119.82 8.44c0-2.52-.3-5-2.33-6.76C115.46-.07 112.8 0 110.3 0H9.4C6.93 0 4.36-.1 2.33 1.55.16 3.3-.13 5.84-.17 8.45v23.1c.04 2.5.28 4.9 2.25 6.67C4.12 40.08 6.82 40 9.4 40h100.88c2.7 0 5.5.06 7.55-2 2.06-2.03 2-4.85 2-7.54V8.44c0-.3.01.37 0 0zm-.86 22.02c0 2.18.14 4.58-1.28 6.4-1.57 2-3.93 2.26-6.3 2.26H8.3c-2.25 0-4.5-.2-6.08-2-1.4-1.56-1.48-3.6-1.5-5.6V8.44C.73 6.7.77 4.9 1.8 3.42 3.08 1.52 5.2.92 7.4.9h104.88c2.13.02 4.2.6 5.5 2.4 1.32 1.8 1.18 4.13 1.18 6.26v20.92zM24.9 19.9a5.15 5.15 0 0 1 2.46-4.32 5.29 5.29 0 0 0-4.16-2.24c-1.75-.18-3.45 1.04-4.34 1.04-.9 0-2.28-1.03-3.76-1-1.95.06-3.72 1.14-4.66 2.84-2.02 3.48-.5 8.6 1.42 11.4.97 1.38 2.1 2.92 3.57 2.86 1.45-.06 2-.92 3.73-.92s2.24.92 3.74.88c1.55-.02 2.53-1.38 3.46-2.78.7-.98 1.23-2.07 1.58-3.22-1.84-.75-3.04-2.56-3.04-4.55zm-2.85-8.42c.85-1 1.26-2.3 1.16-3.63-1.3.14-2.5.75-3.34 1.73-.85.96-1.28 2.22-1.2 3.5 1.3 0 2.55-.58 3.37-1.6zm20.2 15.66H37.5l-1.14 3.36h-2l4.5-12.42h2.1l4.5 12.42H43.4l-1.15-3.36zM38 25.6h3.76l-1.85-5.45h-.05L38 25.6zm17.15.37c0 2.8-1.5 4.62-3.8 4.62-1.18.06-2.3-.55-2.86-1.58h-.04v4.48H46.6V21.44h1.8v1.5h.03a3.23 3.23 0 0 1 2.9-1.6c2.3 0 3.83 1.8 3.83 4.62zm-1.92 0c0-1.83-.95-3.04-2.4-3.04-1.42 0-2.38 1.23-2.38 3.04 0 1.82.96 3.05 2.38 3.05 1.45 0 2.4-1.2 2.4-3.05zm11.9 0c0 2.8-1.5 4.62-3.8 4.62-1.18.06-2.3-.55-2.86-1.58h-.04v4.48H56.6V21.44h1.8v1.5h.03a3.23 3.23 0 0 1 2.9-1.6c2.3 0 3.83 1.8 3.83 4.62zm-1.92 0c0-1.83-.95-3.04-2.4-3.04-1.42 0-2.38 1.23-2.38 3.04 0 1.82.96 3.05 2.38 3.05 1.45 0 2.4-1.2 2.4-3.05zm8.53 1.07c.14 1.23 1.34 2.04 2.98 2.04 1.57 0 2.7-.8 2.7-1.92 0-.96-.68-1.54-2.3-1.94l-1.6-.4c-2.3-.55-3.35-1.62-3.35-3.35 0-2.14 1.87-3.6 4.53-3.6 2.63 0 4.44 1.47 4.5 3.6h-1.88c-.1-1.24-1.14-2-2.64-2s-2.53.76-2.53 1.86c0 .88.66 1.4 2.26 1.8l1.37.34c2.55.6 3.62 1.63 3.62 3.44 0 2.32-1.85 3.78-4.8 3.78-2.76 0-4.63-1.42-4.75-3.67h1.9zM83.4 19.3v2.14h1.73v1.47H83.4v5c0 .78.35 1.14 1.1 1.14.2 0 .4-.02.6-.04v1.46c-.34.06-.7.1-1.03.1-1.84 0-2.56-.7-2.56-2.44v-5.2h-1.3v-1.47h1.32V19.3h1.88zm2.74 6.67c0-2.85 1.68-4.64 4.3-4.64s4.3 1.8 4.3 4.64c0 2.86-1.67 4.64-4.3 4.64-2.65 0-4.3-1.78-4.3-4.64zm6.7 0c0-1.95-.9-3.1-2.4-3.1s-2.4 1.16-2.4 3.1c0 1.96.9 3.1 2.4 3.1s2.4-1.15 2.4-3.1zm3.46-4.53h1.78v1.54h.04a2.18 2.18 0 0 1 2.18-1.64 2.73 2.73 0 0 1 .64.07v1.74a2.62 2.62 0 0 0-.84-.11 1.87 1.87 0 0 0-1.95 1.79l.01.3v5.37H96.3v-9.05zm13.22 6.4c-.25 1.64-1.85 2.77-3.9 2.77-2.64 0-4.28-1.76-4.28-4.6s1.65-4.68 4.2-4.68c2.5 0 4.1 1.72 4.1 4.47v.64h-6.4v.1a2.37 2.37 0 0 0 2.15 2.56c.1.01.2.01.3.01.9.08 1.76-.43 2.1-1.27h1.77zm-6.3-2.7h4.54c.07-1.2-.85-2.23-2.06-2.3h-.17a2.27 2.27 0 0 0-2.3 2.28zM37.76 8.73c1.46-.1 2.73 1 2.83 2.44a3.01 3.01 0 0 1-.01.52c0 1.9-1.03 3-2.82 3H35.6V8.73h2.16zm-1.23 5.12h1.13a1.88 1.88 0 0 0 1.99-1.76 1.82 1.82 0 0 0-.02-.4c.14-1.03-.58-1.98-1.6-2.12-.12-.02-.24-.02-.36-.01h-1.13v4.28zm5.1-1.4a2.16 2.16 0 0 1 1.93-2.33c1.18-.1 2.22.75 2.33 1.92a2.67 2.67 0 0 1 0 .4 2.14 2.14 0 0 1-1.92 2.33c-1.18.1-2.22-.74-2.34-1.92a2.67 2.67 0 0 1 0-.4zm3.34 0c0-.98-.44-1.55-1.2-1.55s-1.2.57-1.2 1.55S43 14 43.76 14s1.2-.57 1.2-1.55zm6.58 2.26h-.92l-.93-3.32h-.07l-.93 3.32h-.92l-1.24-4.5h.9l.8 3.44h.07l.93-3.44h.85l.93 3.44h.07l.8-3.44h.9l-1.25 4.5zm2.3-4.5h.86v.72h.07a1.34 1.34 0 0 1 1.35-.8 1.46 1.46 0 0 1 1.57 1.35c.01.1 0 .22-.01.32v2.92h-.9V12c0-.72-.32-1.08-.97-1.08-.57-.03-1.06.4-1.08.98v2.8h-.9v-4.5zm5.26-1.76h.9v6.26h-.9V8.44zm2.1 4a2.16 2.16 0 0 1 1.93-2.33c1.18-.1 2.22.75 2.33 1.92a2.67 2.67 0 0 1 0 .4c.12 1.17-.75 2.22-1.92 2.33-1.18.1-2.22-.74-2.34-1.92a2.67 2.67 0 0 1 0-.4zm3.34 0c0-.98-.44-1.55-1.2-1.55s-1.2.57-1.2 1.55.44 1.55 1.2 1.55 1.2-.57 1.2-1.55zm1.86.98c0-.8.6-1.28 1.68-1.34l1.22-.07v-.4c0-.48-.32-.74-.92-.74-.5 0-.84.18-.94.5h-.86c.1-.77.82-1.27 1.85-1.27 1.13 0 1.77.56 1.77 1.5v3.08h-.86v-.63h-.07a1.54 1.54 0 0 1-1.36.71 1.36 1.36 0 0 1-1.5-1.21c-.01-.06-.01-.1-.01-.15zm2.9-.38v-.38l-1.1.07c-.62.04-.9.25-.9.65s.35.64.84.64c.6.06 1.1-.37 1.17-.95-.01-.01-.01-.02-.01-.03zm2.06-.6c0-1.42.73-2.32 1.87-2.32a1.46 1.46 0 0 1 1.38.79h.07V8.44h.9v6.26h-.85V14h-.07a1.59 1.59 0 0 1-1.42.79c-1.14-.01-1.87-.9-1.87-2.34zm.92 0c0 .96.45 1.53 1.2 1.53s1.22-.58 1.22-1.53c0-.94-.47-1.53-1.22-1.53-.75.01-1.2.6-1.2 1.53zm7 0a2.16 2.16 0 0 1 1.92-2.33c1.18-.1 2.22.75 2.33 1.92a2.67 2.67 0 0 1 0 .4c.12 1.17-.75 2.22-1.92 2.33-1.18.1-2.22-.74-2.34-1.92a1.89 1.89 0 0 1 .01-.41zm3.34 0c0-.98-.44-1.55-1.2-1.55-.78 0-1.2.57-1.2 1.55s.44 1.55 1.2 1.55 1.2-.57 1.2-1.55zm2.1-2.24h.86v.72h.07a1.34 1.34 0 0 1 1.35-.8 1.46 1.46 0 0 1 1.57 1.35c.01.1 0 .22-.01.32v2.92h-.9V12c0-.72-.32-1.08-.98-1.08-.57-.03-1.06.4-1.08.98 0 .05 0 .1.01.16v2.63h-.9v-4.5zm8.86-1.13v1.14h.98v.75h-.98v2.32c0 .47.2.68.64.68.1 0 .23-.01.34-.02v.74c-.16.03-.32.04-.48.05-1 0-1.4-.35-1.4-1.22v-2.54H92v-.75h.72V9.07h.9zm2.2-.63h.88v2.48h.07c.24-.53.8-.85 1.38-.8.82-.04 1.52.58 1.57 1.4v3.18h-.9V12c0-.72-.33-1.08-.97-1.08-.58-.05-1.1.38-1.14.96v2.8h-.9V8.44zm9.1 5.04a1.83 1.83 0 0 1-1.96 1.3 2.04 2.04 0 0 1-2.1-2c0-.1 0-.22.02-.33-.15-1.14.65-2.18 1.8-2.33l.3-.02c1.25 0 2 .86 2 2.27v.3h-3.2v.05a1.22 1.22 0 0 0 1.1 1.3h.1c.44.05.86-.16 1.08-.55h.87zm-3.14-1.45h2.28c.04-.6-.4-1.12-1-1.16h-.1c-.64-.01-1.16.5-1.17 1.14.01 0 .01.01.01.02z"/></svg>