<svg xmlns="http://www.w3.org/2000/svg" width="40" height="40" viewBox="400.9 277.6 40 40"><path fill="#dd4b39" d="M420.9 277.6c-11 0-20 8.9-20 20 0 11 9 20 20 20 11.1 0 20-9 20-20s-8.9-20-20-20zm0 38.2c-10 0-18.2-8.1-18.2-18.2 0-10 8.1-18.2 18.2-18.2 10 0 18.2 8.1 18.2 18.2 0 10-8.1 18.2-18.1 18.2h-.1zm10.9-23.3v-2.4h-1.2v2.4h-2.4v1.2h2.4v2.4h1.2v-2.4h2.4v-1.2h-2.4zm-10.6 3.5v3h4.3c-.6 1.8-2.3 3-4.3 3-2.5 0-4.5-2-4.6-4.5 0-2.5 2-4.5 4.6-4.6 1.1 0 2.1.4 2.9 1.1l2-2.3c-1.4-1.2-3.1-1.8-4.9-1.9a7.6 7.6 0 0 0 0 15.2 7.6 7.6 0 0 0 7.6-7.6v-1.5l-7.6.1z"/></svg>