<svg xmlns="http://www.w3.org/2000/svg" width="120" height="40"><g fill="#999"><path d="M120 8.4c0-2.5-.3-5-2.3-6.8S113-.1 110.5-.1H9.6c-2.5 0-5-.1-7.1 1.5C.3 3.3 0 5.8 0 8.4v23.1c0 2.5.3 4.9 2.3 6.7C4.3 40.1 7 40 9.6 40h100.9c2.7 0 5.5.1 7.6-2 2.1-2 2-4.8 2-7.5L120 8.4c0-.3 0 .4 0 0zm-.9 22.1c0 2.2.1 4.6-1.3 6.4-1.6 2-3.9 2.3-6.3 2.3H8.5c-2.3 0-4.5-.2-6.1-2C1 35.6.9 33.6.9 31.6V8.4c0-1.7.1-3.5 1.1-5C3.3 1.5 5.4.9 7.6.9h104.9c2.1 0 4.2.6 5.5 2.4s1.2 4.1 1.2 6.3v20.9h-.1z"/><path stroke="#999" stroke-width=".2" stroke-miterlimit="10" d="M41.1 11.4c0 .7-.2 1.3-.7 1.8s-1.2.8-2 .8-1.4-.3-2-.8c-.5-.5-.8-1.2-.8-2 0-.7.3-1.5.8-2s1.2-.8 2-.8c.4 0 .7.1 1.1.2.5.2.8.4 1 .6l-.5.5c-.4-.4-.8-.6-1.5-.6-.6 0-1 .2-1.5.6s-.6.9-.6 1.5.2 1.1.6 1.5.9.6 1.5.6 1.1-.2 1.5-.6c.3-.3.4-.6.5-1.1h-1.9V11h2.6c0 .1 0 .3-.1.4zm4.2-2.2h-2.4v1.7H45v.6h-2.2v1.7h2.4v.6h-3.1V8.5h3.1l.1.7zm2.8 4.7h-.7V9.2H46v-.7h3.7v.7h-1.5l-.1 4.7zm4.2 0V8.5h.7v5.3h-.7v.1zm3.7 0h-.7V9.2h-1.5v-.7h3.7v.7H56v4.7zm8.4-.7c-.5.5-1.2.8-2 .8-.7 0-1.4-.3-2-.8-.5-.5-.8-1.2-.8-2s.3-1.4.8-2c.5-.5 1.2-.8 2-.8s1.4.3 1.9.8.8 1.2.8 2c.1.8-.1 1.4-.7 2zm-3.4-.5c.4.4.9.6 1.5.6.5 0 1.1-.2 1.4-.6.4-.4.6-.9.6-1.5s-.2-1.1-.6-1.5S63 9 62.5 9s-1.1.2-1.5.6-.6.9-.6 1.5c0 .7.2 1.2.6 1.6zm5.2 1.2V8.5h.8l2.6 4.1V8.5h.7v5.3h-.7l-2.7-4.3v4.3l-.7.1z"/><path d="M72.5 28.9h1.7V17.8h-1.7v11.1zm-12.9-7.3c-2.1 0-3.8 1.6-3.8 3.8s1.7 3.8 3.8 3.8 3.8-1.6 3.8-3.8-1.7-3.8-3.8-3.8zm0 6.1c-1.1 0-2.1-.9-2.1-2.3s1-2.3 2.1-2.3 2.1.9 2.1 2.3c0 1.3-1 2.3-2.1 2.3zm-8.3-6.1c-2.1 0-3.8 1.6-3.8 3.8s1.7 3.8 3.8 3.8 3.8-1.6 3.8-3.8-1.7-3.8-3.8-3.8zm0 6.1c-1.1 0-2.1-.9-2.1-2.3s1-2.3 2.1-2.3 2.1.9 2.1 2.3c0 1.3-1 2.3-2.1 2.3zm27.3-.1c-.9 0-1.5-.4-1.8-1.1l5.1-2.1-.2-.4c-.3-.8-1.3-2.4-3.2-2.4-2 0-3.6 1.5-3.6 3.8 0 2.1 1.6 3.8 3.8 3.8 1.7 0 2.7-1.1 3.1-1.7l-1.3-.9c-.4.6-1 1-1.9 1zm-.1-4.5c.7 0 1.2.3 1.4.8l-3.4 1.4c0-1.5 1.1-2.2 2-2.2zm-8.8-1.2v.6c-.4-.4-1.2-.8-2.1-.8-1.9 0-3.6 1.7-3.6 3.8s1.7 3.8 3.6 3.8c.9 0 1.6-.4 2-.9h.1v.5c0 1.4-.8 2.2-2 2.2-1 0-1.7-.7-1.9-1.3l-1.5.6c.4 1 1.5 2.2 3.4 2.2 2 0 3.6-1.1 3.6-3.9v-6.8h-1.6zm-1.9 5.8c-1.2 0-2.1-1-2.1-2.3s1-2.3 2.1-2.3 2 1 2 2.3-.9 2.3-2 2.3zm21.7-9.9h-4v11.1h1.7v-4.2h2.3c1.8 0 3.7-1.3 3.7-3.4-.1-2.1-1.9-3.5-3.7-3.5zm0 5.4h-2.4v-3.8h2.4c1.2 0 1.9 1 1.9 1.9.1.8-.6 1.9-1.9 1.9zm10.3-1.6c-1.2 0-2.4.5-3 1.7l1.5.6c.3-.6.9-.8 1.5-.8.9 0 1.7.5 1.8 1.4v.1c-.3-.2-.9-.4-1.7-.4-1.6 0-3.2.9-3.2 2.5 0 1.5 1.3 2.4 2.8 2.4 1.1 0 1.7-.5 2.1-1.1h.1v.9h1.6v-4.3c-.1-1.9-1.6-3-3.5-3zm-.2 6.1c-.5 0-1.3-.3-1.3-.9 0-.9.9-1.2 1.8-1.2.7 0 1.1.2 1.5.4-.2.9-1 1.6-2 1.7zm9.4-5.9l-1.9 4.8h-.1l-2-4.8h-1.8l3 6.7-1.7 3.7h1.7l4.6-10.4H109zm-67.5 1v1.6h3.8c-.1.9-.4 1.6-.9 2-.6.6-1.4 1.2-3 1.2-2.4 0-4.2-1.9-4.2-4.3S39 19 41.4 19c1.1 0 2.1.4 2.9 1.1l1.1-1.1c-1.1-1-2.5-1.6-4-1.6-3.2 0-6 2.6-6 5.9 0 3.2 2.7 5.8 6 5.8 1.8 0 3.1-.6 4.1-1.6 1.1-1.1 1.4-2.5 1.4-3.7 0-.4 0-.7-.1-1h-5.3zM94 28.9h1.7V17.8H94v11.1z"/></g><path fill="#00d4ff" d="M20.8 19.8L11.1 9.1a.37.37 0 0 0-.517-.083c-.032.023-.06.05-.083.083-.1.1-.1.2-.1.3v21.2c0 .3.2.5.4.5.1 0 .3 0 .3-.2l9.6-10.6c.2-.1.2-.4.1-.5z"/><path fill="#fb3746" d="M22 21.2c-.2-.2-.5-.2-.7 0l-7.5 8.3c-.2.2-.2.5 0 .7.1.1.4.2.5.1l9.8-5.8c.2-.1.3-.4.2-.6l-.1-.1-2.2-2.6z"/><path fill="#ffc900" d="M29.8 19.3l-4.1-2.5a.47.47 0 0 0-.6.1l-2.6 2.9c-.2.2-.2.5 0 .6l2.6 2.9c.1.2.4.2.6.1l4-2.5c.4-.2.6-.8.4-1.3 0-.1-.1-.3-.3-.3z"/><path fill="#00f076" d="M21.3 19a.37.37 0 0 0 .517.083c.032-.023.06-.05.083-.083l2.2-2.5c.2-.2.2-.5 0-.6 0 0-.1 0-.1-.1L14.4 10c-.2-.1-.5 0-.6.2s-.1.4.1.5l7.4 8.3z"/></svg>