<?xml version="1.0" encoding="utf-8"?>
<!-- Generator: Adobe Illustrator 16.0.0, SVG Export Plug-In . SVG Version: 6.00 Build 0)  -->
<!DOCTYPE svg PUBLIC "-//W3C//DTD SVG 1.1//EN" "http://www.w3.org/Graphics/SVG/1.1/DTD/svg11.dtd">
<svg version="1.1" id="Layer_1" xmlns="http://www.w3.org/2000/svg" xmlns:xlink="http://www.w3.org/1999/xlink" x="0px" y="0px"
	 width="31px" height="32px" viewBox="0 0 31 32" enable-background="new 0 0 31 32" xml:space="preserve">
<path fill="#FFFFFF" d="M25.2,32c-0.2,0-0.4-0.1-0.5-0.2c-0.2-0.2-0.4-0.4-0.4-0.7c0-0.3,0-0.6,0.2-0.8l3.9-5.5l-4.5-3.3l-3.2,4.4
	c-0.2,0.3-0.6,0.5-1,0.5c-0.2,0-0.4-0.1-0.5-0.2c-0.2-0.2-0.4-0.4-0.4-0.7c0-0.3,0-0.6,0.2-0.8l3.2-4.4l-6.7-4.9l-0.1,0.1
	c-1.9,2-4.6,3-7.4,2.7c0,0,0,0,0,0c-1.1-0.1-2.2-0.5-3.1-1c-2.1-1.1-3.6-3-4.3-5.3C-0.3,9.4-0.1,7,1,4.8c1.7-3.3,5.2-5.2,8.8-4.8
	C10.9,0.2,12,0.5,13,1c2.1,1.1,3.6,3,4.4,5.3c0.7,2.3,0.5,4.7-0.6,6.9l-0.1,0.2l13.9,10.2c0.5,0.4,0.6,1.1,0.2,1.5l-4.6,6.4
	C26,31.9,25.6,32,25.2,32z M9.6,2.3C7.3,2,4.9,3.1,3.5,5.1C1.3,8.1,2,12.4,5,14.6c0.9,0.7,2,1.1,3.2,1.2c2.4,0.3,4.8-0.8,6.2-2.8
	c2.2-3,1.5-7.3-1.5-9.5C11.9,2.8,10.8,2.4,9.6,2.3z"/>
</svg>
