<?xml version="1.0" encoding="utf-8"?>
<!-- Generator: Adobe Illustrator 16.0.0, SVG Export Plug-In . SVG Version: 6.00 Build 0)  -->
<!DOCTYPE svg PUBLIC "-//W3C//DTD SVG 1.1//EN" "http://www.w3.org/Graphics/SVG/1.1/DTD/svg11.dtd">
<svg version="1.1" id="Layer_1" xmlns="http://www.w3.org/2000/svg" xmlns:xlink="http://www.w3.org/1999/xlink" x="0px" y="0px"
	 width="34px" height="33px" viewBox="0 0 34 33" enable-background="new 0 0 34 33" xml:space="preserve">
<g>
	<g>
		<path fill="#FFFFFF" d="M4.5,32.5c-0.5,0-0.9-0.4-0.9-0.9V14.1l-1.7,1.5c-0.2,0.1-0.4,0.2-0.6,0.2c-0.2,0-0.5-0.1-0.6-0.3
			c-0.2-0.2-0.2-0.4-0.2-0.6c0-0.2,0.1-0.4,0.3-0.6L16.4,0.7c0.2-0.1,0.4-0.2,0.6-0.2s0.4,0.1,0.6,0.2l15.6,13.6
			c0.2,0.1,0.3,0.4,0.3,0.6c0,0.2-0.1,0.4-0.2,0.6c-0.2,0.2-0.4,0.3-0.6,0.3c-0.2,0-0.4-0.1-0.6-0.2l-1.7-1.5v17.6
			c0,0.5-0.4,0.9-0.9,0.9H4.5z M20.8,19.1c0.5,0,0.9,0.4,0.9,0.9v10.8h7V12.6l-0.1-0.1L17,2.5L5.3,12.6v18.2h7V20
			c0-0.5,0.4-0.9,0.9-0.9H20.8z M14.1,30.8h5.9v-9.9h-5.9V30.8z"/>
		<path fill="#FFFFFF" d="M15.6,11.7c-0.5,0-0.9-0.4-0.9-0.9c0-0.5,0.4-0.9,0.9-0.9h2.9c0.5,0,0.9,0.4,0.9,0.9
			c0,0.5-0.4,0.9-0.9,0.9H15.6z"/>
	</g>
</g>
</svg>
