<svg xmlns="http://www.w3.org/2000/svg" width="13" height="12" viewBox="517.79 224.84 13 12" fill="#73b7a0"><path d="M526.02 236.82a.37.37 0 0 1-.22-.09c-.07-.07-.1-.12-.1-.2v-11.38c0-.14.17-.3.3-.3h1.12c.14 0 .3.16.3.3v6.9c0 .15.06.28.18.38.1.1.24.13.37.13a.55.55 0 0 0 .37-.14l1.12-1.05a.26.26 0 0 1 .22-.09.37.37 0 0 1 .22.09l.78.74c.07.07.1.12.1.2a.22.22 0 0 1-.1.2l-4.46 4.2c-.08.06-.13.08-.22.08zm-3.46-11.95a.37.37 0 0 1 .22.09c.07.07.1.12.1.2v11.38c0 .14-.17.3-.3.3h-1.12c-.14 0-.3-.16-.3-.3v-6.9c0-.15-.06-.28-.18-.38-.1-.1-.24-.13-.37-.13a.55.55 0 0 0-.37.14l-1.1 1.05c-.07.07-.13.1-.22.1a.37.37 0 0 1-.22-.09l-.78-.74c-.07-.07-.1-.12-.1-.2a.22.22 0 0 1 .1-.2l4.46-4.2a.27.27 0 0 1 .2-.08z"/></svg>