<svg xmlns="http://www.w3.org/2000/svg" width="20" height="20" viewBox="464.091 214.825 20 20" fill="#fff"><path d="M474.1 223.53c-1.3 0-2.36-1.06-2.36-2.36s1.058-2.36 2.36-2.36a2.36 2.36 0 0 1 2.359 2.359 2.36 2.36 0 0 1-2.359 2.359zm0-3.987a1.63 1.63 0 0 0-1.627 1.627 1.63 1.63 0 0 0 1.627 1.628 1.63 1.63 0 0 0 1.627-1.628 1.63 1.63 0 0 0-1.627-1.627zm-5.2 6.154c-1.916-2.555-1.635-6.76.603-8.997 1.2-1.2 2.818-1.876 4.528-1.876a6.37 6.37 0 0 1 4.53 1.876c2.238 2.237 2.516 6.447.595 9.007l-5.124 7.4-5.13-7.4zm5.132-10.14a5.67 5.67 0 0 0-4.01 1.662c-2 2-2.245 5.762-.527 8.052l4.538 6.553 4.53-6.542c1.723-2.297 1.48-6.064-.52-8.063a5.63 5.63 0 0 0-4.011-1.662zm.058 19.268c-3.04 0-5.616-.307-7.447-.888-1.646-.52-2.553-1.22-2.553-1.97 0-1.267 2.455-2.44 5.97-2.855a.34.34 0 0 1 .045-.003c.184 0 .34.14.36.323.023.2-.12.383-.32.406-1.998.235-3.266.67-3.978 1-.83.376-1.347.813-1.347 1.137 0 .45.944.98 2.465 1.385 1.794.478 4.2.74 6.804.74s5-.263 6.804-.74c1.52-.405 2.465-.936 2.465-1.385 0-.325-.516-.76-1.347-1.137-.712-.322-1.98-.756-3.978-1-.097-.012-.184-.06-.244-.137s-.087-.172-.076-.27c.02-.184.177-.323.36-.323l.044.002c3.516.414 5.97 1.588 5.97 2.855 0 .75-.907 1.448-2.553 1.97-1.832.583-4.408.9-7.448.9z"/></svg>