<svg xmlns="http://www.w3.org/2000/svg" width="77" height="69.31" viewBox="217.5 195.79 77 69.31"><path fill="#054B59" d="M223.92 222.74h14.12c.71 0 1.28-.57 1.28-1.28 0-.71-.57-1.28-1.28-1.28h-14.12c-.71 0-1.28.57-1.28 1.28-.01.71.57 1.28 1.28 1.28zm0 5.14h14.12c.71 0 1.28-.57 1.28-1.28 0-.71-.57-1.28-1.28-1.28h-14.12c-.71 0-1.28.57-1.28 1.28-.01.7.57 1.28 1.28 1.28z"/><path fill="#054B59" d="M290.65 227.88h-19.54c.96-.96 1.83-2.01 2.62-3.11.46-.66.88-1.36 1.25-2.07.09.03 1.12-2.51 1.12-2.51a28.42 28.42 0 001.71-8.98v-8.98c.01-.66-.28-1.29-.79-1.71-.77-.54-1.75-.7-2.66-.43-.99.24-2.02.25-3.02.04a51.468 51.468 0 01-8.27-4.13 1.26 1.26 0 00-1.37.04c-1.47.99-5.67 3.67-7.43 4.09-1.27.23-2.57.19-3.82-.1a2.93 2.93 0 00-2.44.58c-.62.5-.99 1.25-.99 2.05v8.55c0 .03.01 1.04.16 2.57h-25.82c-2.13 0-3.85 1.72-3.85 3.85v24.38c0 2.13 1.72 3.85 3.85 3.85l3.13.01 2.37 3.88c.46.77 1.3 1.25 2.2 1.25.9 0 1.74-.47 2.2-1.24l2.38-3.9h17.24v10.27c0 2.13 1.72 3.85 3.85 3.85l3.13.01 2.37 3.88c.46.78 1.3 1.25 2.2 1.25.9 0 1.74-.47 2.21-1.24l2.38-3.9h23.65c2.13 0 3.85-1.72 3.85-3.85v-24.38c-.02-2.15-1.74-3.87-3.87-3.87zm-41.02-25.3c.06-.05.13-.07.21-.07.03 0 .05 0 .08.01 1.63.37 3.31.4 4.95.09 2.08-.5 5.97-2.95 7.59-4.01 2.62 1.6 5.4 2.95 8.28 4.01 1.38.3 2.81.29 4.18-.03.11-.02.22-.04.33-.05v8.67c-.08 4.29-1.33 8.47-3.62 12.1a34.19 34.19 0 01-9.32 8.29 22.996 22.996 0 01-9.11-7.01c-2.97-4.15-3.62-11.06-3.62-13.37l.05-8.63zm-16 40.7c-.9 0-1.73.47-2.2 1.24l-2.38 3.89-2.37-3.88a2.59 2.59 0 00-2.21-1.25h-3.12c-.71 0-1.28-.57-1.28-1.28v-24.38c0-.71.57-1.28 1.28-1.28h26.16c.47 3.47 1.7 6.79 3.59 9.73.57.79 1.21 1.55 1.89 2.24-.88.44-1.56 1.21-1.89 2.14h-27.19c-.71 0-1.28.57-1.28 1.28 0 .71.57 1.28 1.28 1.28h26.95v2.57h-26.95c-.71 0-1.28.57-1.28 1.28 0 .71.57 1.28 1.28 1.28h26.95v5.13h-17.23zm58.3 12.83c0 .71-.58 1.28-1.28 1.28H267c-.9 0-1.73.47-2.2 1.24l-2.38 3.89-2.37-3.88c-.47-.77-1.3-1.25-2.2-1.25h-3.12c-.71 0-1.28-.58-1.28-1.28v-24.38c0-.71.57-1.28 1.28-1.28h.68c2.01 1.56 4.22 2.83 6.58 3.77.35.13.75.1 1.07-.09a40.96 40.96 0 005.26-3.68h22.34c.71 0 1.28.57 1.28 1.28v24.38z"/><path fill="#054B59" d="M257.28 238.14h14.12c.71 0 1.28-.57 1.28-1.28 0-.71-.58-1.28-1.28-1.28h-14.12c-.71 0-1.28.57-1.28 1.28 0 .71.57 1.28 1.28 1.28zm0 5.14h14.12c.71 0 1.28-.57 1.28-1.28s-.58-1.28-1.28-1.28h-14.12c-.71 0-1.28.57-1.28 1.28s.57 1.28 1.28 1.28zm29.52 2.56h-29.52c-.71 0-1.28.57-1.28 1.28 0 .71.57 1.28 1.28 1.28h29.52c.71 0 1.28-.57 1.28-1.28 0-.7-.57-1.28-1.28-1.28zm0 5.14h-29.52c-.71 0-1.28.57-1.28 1.28 0 .71.57 1.28 1.28 1.28h29.52c.71 0 1.28-.57 1.28-1.28 0-.71-.57-1.28-1.28-1.28zm-28.23-28.24h7.7c2.13 0 3.85-1.72 3.85-3.85v-5.13a3.837 3.837 0 00-2.57-3.61v-.24c0-2.83-2.3-5.13-5.13-5.13s-5.13 2.3-5.13 5.13v.24a3.86 3.86 0 00-2.57 3.61v5.13c0 2.13 1.72 3.85 3.85 3.85zm3.85-15.4a2.57 2.57 0 012.57 2.57h-5.13a2.554 2.554 0 012.56-2.57zm-5.14 6.42c0-.71.58-1.28 1.28-1.28h7.7c.71 0 1.28.57 1.28 1.28v5.13c0 .71-.57 1.28-1.28 1.28h-7.7c-.71 0-1.28-.57-1.28-1.28v-5.13z"/><path fill="#054B59" d="M263.7 216.33c0 .71-.58 1.28-1.28 1.28-.71 0-1.28-.57-1.28-1.28 0-.71.58-1.28 1.28-1.28.71-.01 1.28.57 1.28 1.28z"/></svg>