<svg xmlns="http://www.w3.org/2000/svg" width="100" height="90.9" viewBox="471.6 186.4 100 90.9"><g fill="#FFF"><path d="M563.8 224.1l-42.2 42.2-42.2-42.2c-1.8-1.8-4.7-1.8-6.4 0s-1.8 4.7 0 6.4l45.5 45.5c.9.9 2 1.3 3.2 1.3 1.2 0 2.4-.5 3.2-1.3l45.5-45.5c1.8-1.8 1.8-4.7 0-6.4-1.9-1.8-4.8-1.8-6.6 0z"/><path d="M518.4 239.6c.9.9 2 1.3 3.2 1.3 1.2 0 2.4-.5 3.2-1.3l45.5-45.5c1.8-1.8 1.8-4.7 0-6.4-1.8-1.8-4.7-1.8-6.4 0l-42.2 42.2-42.2-42.2c-1.8-1.8-4.7-1.8-6.4 0-1.8 1.8-1.8 4.7 0 6.4l45.3 45.5z"/></g></svg>