<svg xmlns="http://www.w3.org/2000/svg" width="472.555" height="75" viewBox="178.997 27.795 472.555 75"><path fill="#FFF" d="M229.104 102.677h-10.748v-32.47c0-3.976-1.44-7.378-4.204-10.2-2.769-2.822-6.167-4.234-10.084-4.234-3.923 0-7.321 1.44-10.085 4.234-2.769 2.794-4.237 6.165-4.237 10.2v32.501h-10.748V27.795h10.748v21.666c4.322-2.996 9.077-4.521 14.322-4.521 6.91 0 12.819 2.477 17.715 7.403 4.902 4.927 7.35 10.892 7.35 17.864v32.501l-.029-.031zm68.514-28.868c0 7.951-2.791 14.752-8.356 20.399-5.588 5.647-12.33 8.469-20.254 8.469-7.867 0-14.608-2.821-20.225-8.469-5.622-5.647-8.413-12.448-8.413-20.399 0-7.952 2.791-14.753 8.413-20.399 5.616-5.647 12.386-8.501 20.225-8.501 7.924 0 14.693 2.825 20.254 8.501 5.565 5.646 8.356 12.446 8.356 20.399zm-10.748 0c0-4.986-1.728-9.221-5.239-12.764-3.518-3.545-7.755-5.244-12.65-5.244a17.247 17.247 0 00-12.679 5.272c-3.518 3.546-5.245 7.78-5.245 12.764 0 4.985 1.728 9.22 5.245 12.763 3.517 3.545 7.721 5.272 12.679 5.272 4.957 0 9.161-1.728 12.679-5.272 3.511-3.515 5.244-7.777 5.244-12.763l-.034-.028zm104.305 28.868h-10.748V68.392a12.241 12.241 0 00-3.658-8.934c-2.448-2.476-5.392-3.745-8.847-3.745a11.855 11.855 0 00-8.846 3.745 12.23 12.23 0 00-3.658 8.934v34.285H344.67V68.392a12.241 12.241 0 00-3.658-8.934c-2.448-2.476-5.392-3.745-8.847-3.745s-6.398 1.241-8.847 3.745a12.236 12.236 0 00-3.657 8.934v34.285h-10.749V45.804h10.749v3.458c3.517-2.882 7.867-4.322 13.05-4.322 7.58 0 13.371 3.168 17.35 9.508 4.322-6.34 10.658-9.508 18.784-9.508 6.253 0 11.525 2.305 15.848 7.001 4.321 4.695 6.482 10.141 6.482 16.479v34.288-.031zm68.57-28.868c0 1.556-.169 3.371-.573 5.416h-45.178c1.153 3.661 3.371 6.686 6.482 9.077 3.169 2.36 6.624 3.57 10.603 3.57 7.091 0 12.448-3.312 16.021-9.938h11.435c-2.07 6.336-5.616 11.351-10.602 15.126-4.986 3.773-10.603 5.647-16.883 5.647-7.867 0-14.608-2.825-20.225-8.472-5.622-5.647-8.413-12.448-8.413-20.399 0-7.952 2.791-14.753 8.413-20.4 5.616-5.646 12.386-8.497 20.225-8.497 7.924 0 14.693 2.822 20.281 8.497 5.594 5.619 8.357 12.392 8.357 20.372h.057zm-11.524-5.417a18.118 18.118 0 00-6.483-9.104c-3.168-2.364-6.623-3.515-10.602-3.515a17.008 17.008 0 00-10.603 3.573c-3.168 2.392-5.301 5.416-6.482 9.074l34.17-.028zm101.711 34.285h-10.749v-32.47c0-3.976-1.44-7.378-4.204-10.2a13.627 13.627 0 00-10.141-4.206c-3.95 0-7.321 1.44-10.084 4.234-2.769 2.794-4.209 6.224-4.209 10.2v32.56h-10.749V45.804h10.749v3.602c4.321-2.997 9.077-4.524 14.321-4.524 6.911 0 12.819 2.479 17.716 7.405 4.901 4.927 7.35 10.892 7.35 17.864v32.558-.032zm68.485-28.868c0 1.556-.169 3.371-.573 5.416h-45.178c1.153 3.661 3.343 6.686 6.482 9.077 3.169 2.36 6.624 3.57 10.603 3.57 7.085 0 12.448-3.312 16.021-9.938h11.435c-2.07 6.336-5.615 11.351-10.602 15.126-4.986 3.773-10.603 5.647-16.883 5.647-7.867 0-14.608-2.825-20.225-8.472-5.622-5.647-8.419-12.448-8.419-20.399 0-7.952 2.797-14.753 8.419-20.4 5.616-5.646 12.386-8.497 20.225-8.497 7.924 0 14.693 2.822 20.254 8.497 5.621 5.619 8.413 12.392 8.413 20.372h.028zm-11.524-5.417a18.118 18.118 0 00-6.483-9.104c-3.168-2.364-6.623-3.515-10.602-3.515a16.985 16.985 0 00-10.603 3.573c-3.168 2.392-5.301 5.416-6.482 9.074l34.17-.028zm44.659-11.728h-8.931v46.044h-10.748V56.664h-8.932V45.831h8.932V27.795h10.748v18.036h8.931v10.833z"/></svg>