<svg xmlns="http://www.w3.org/2000/svg" width="120" height="119" viewBox="1940 1940.5 120 119"><path fill="#FFF" d="M2017.5 1940.5c-23.43 0-42.5 18.91-42.5 42.15 0 10.44 3.82 20.26 10.75 27.98l-13.5 13.39-3.48-3.46c-.98-.97-2.56-.97-3.54 0l-24.5 24.3c-.97.97-.97 2.54 0 3.5l10.5 10.41c.49.49 1.13.73 1.77.73s1.28-.24 1.77-.72l24.5-24.3c.98-.97.98-2.54 0-3.51l-3.48-3.46 13.5-13.39c7.78 6.87 17.68 10.66 28.21 10.66 23.43 0 42.5-18.91 42.5-42.15s-19.07-42.13-42.5-42.13zm-64.5 113.02l-6.96-6.91 20.96-20.79 6.96 6.91-20.96 20.79zm64.5-33.69c-10.04 0-19.46-3.86-26.53-10.87-7.07-7.02-10.97-16.36-10.97-26.31 0-20.51 16.82-37.19 37.5-37.19s37.5 16.68 37.5 37.19c0 20.5-16.82 37.18-37.5 37.18z"/></svg>