<svg xmlns="http://www.w3.org/2000/svg" width="23" height="23" viewBox="0.325 0.325 23 23" fill="#777677"><path d="M11.826 23.325c-6.342 0-11.5-5.16-11.5-11.5s5.16-11.5 11.5-11.5 11.5 5.16 11.5 11.5a11.42 11.42 0 0 1-3.37 8.128 11.42 11.42 0 0 1-8.128 3.37zm0-21.402a9.92 9.92 0 0 0-9.904 9.904c0 5.458 4.443 9.9 9.904 9.9s9.9-4.442 9.9-9.9a9.92 9.92 0 0 0-9.9-9.904zM10.45 16.767c-.104 0-.164-.028-.24-.106l-3.77-4.017-.1-.152-.006-.007c-.084-.1-.116-.207-.116-.26a.41.41 0 0 1 .105-.245l.746-.753c.067-.07.154-.106.242-.106a.33.33 0 0 1 .24.106l.053.053 2.55 2.672c.1.092.202.143.32.143s.23-.05.317-.138l5.828-6.18h.052l.056-.056c.066-.068.152-.105.242-.105s.174.038.24.105l.747.755c.14.142.14.35 0 .5l-7.268 7.692c-.078.08-.14.1-.24.1z"/></svg>