<?xml version="1.0" encoding="utf-8"?>
<!-- Generator: Adobe Illustrator 16.0.0, SVG Export Plug-In . SVG Version: 6.00 Build 0)  -->
<!DOCTYPE svg PUBLIC "-//W3C//DTD SVG 1.1//EN" "http://www.w3.org/Graphics/SVG/1.1/DTD/svg11.dtd">
<svg version="1.1" id="Ñëîé_1" xmlns="http://www.w3.org/2000/svg" xmlns:xlink="http://www.w3.org/1999/xlink" x="0px" y="0px"
	 width="56px" height="46.51px" viewBox="0 0 56 46.51" enable-background="new 0 0 56 46.51" xml:space="preserve">
<path fill="#FFFFFF" d="M24.98,24.43c0.96,0.4,1.97,0.61,3.02,0.61s2.06-0.21,3.02-0.61c0.92-0.39,1.75-0.95,2.46-1.66
	c0.71-0.71,1.27-1.54,1.66-2.46c0.4-0.96,0.61-1.97,0.61-3.02c0-1.05-0.21-2.06-0.61-3.02c-0.39-0.92-0.95-1.75-1.66-2.46
	c-0.71-0.71-1.54-1.27-2.46-1.66c-0.96-0.4-1.97-0.61-3.02-0.61s-2.06,0.21-3.02,0.61c-0.92,0.39-1.75,0.95-2.46,1.66
	c-0.71,0.71-1.27,1.54-1.66,2.46c-0.4,0.96-0.61,1.97-0.61,3.02c0,1.05,0.21,2.06,0.61,3.02c0.39,0.92,0.95,1.75,1.66,2.46
	C23.23,23.48,24.06,24.04,24.98,24.43z M22.54,17.29c0-3.01,2.45-5.46,5.46-5.46s5.46,2.45,5.46,5.46c0,3.01-2.45,5.46-5.46,5.46
	S22.54,20.3,22.54,17.29z"/>
<path fill="#FFFFFF" d="M16.15,32.26c-0.13,0.28-0.14,0.59-0.03,0.88c0.11,0.29,0.32,0.52,0.6,0.64c0.15,0.07,0.31,0.1,0.47,0.1
	c0.45,0,0.86-0.26,1.05-0.67c0.95-2.1,2.58-3.86,4.6-4.97l4.28,5.22c0.22,0.27,0.54,0.42,0.89,0.42c0.35,0,0.67-0.15,0.89-0.42
	l4.28-5.22c2.02,1.11,3.65,2.87,4.6,4.97c0.19,0.41,0.6,0.67,1.04,0.67c0.16,0,0.32-0.03,0.47-0.1c0.58-0.26,0.83-0.94,0.57-1.52
	c-0.65-1.44-1.55-2.73-2.67-3.85c-1.12-1.12-2.42-2.01-3.85-2.66c-0.01-0.01-0.02-0.01-0.04-0.02c-0.01-0.01-0.02-0.01-0.04-0.01
	c-0.02-0.01-0.04-0.01-0.06-0.02c-0.01,0-0.03-0.01-0.04-0.01c-0.02-0.01-0.05-0.01-0.07-0.02c-0.01,0-0.02,0-0.03-0.01
	c-0.03,0-0.05-0.01-0.08-0.01c-0.01,0-0.02,0-0.03,0c-0.03,0-0.07,0-0.11,0c-0.03,0-0.06,0-0.08,0c-0.01,0-0.02,0-0.03,0
	c-0.03,0-0.05,0.01-0.08,0.01c-0.01,0-0.02,0-0.04,0.01c-0.03,0.01-0.05,0.01-0.07,0.02c-0.01,0-0.03,0.01-0.04,0.01l-0.01,0
	c-0.02,0.01-0.04,0.01-0.06,0.02c-0.02,0.01-0.03,0.01-0.05,0.02c-0.02,0.01-0.04,0.02-0.05,0.02c-0.02,0.01-0.03,0.02-0.04,0.02
	c-0.02,0.01-0.04,0.02-0.05,0.03c-0.01,0.01-0.02,0.02-0.04,0.03s-0.03,0.02-0.05,0.04c-0.01,0.01-0.02,0.02-0.03,0.03
	c-0.02,0.02-0.04,0.03-0.05,0.05C32.05,25.99,32.04,26,32.04,26c-0.01,0.01-0.03,0.03-0.04,0.05c-0.01,0.01-0.01,0.02-0.02,0.02
	L28,30.92l-3.97-4.85c-0.01-0.01-0.01-0.02-0.02-0.02c-0.01-0.02-0.03-0.03-0.04-0.04l-0.03-0.03c-0.02-0.02-0.04-0.03-0.05-0.05
	c-0.01-0.01-0.02-0.02-0.04-0.03c-0.02-0.01-0.03-0.02-0.05-0.04c-0.01-0.01-0.03-0.02-0.04-0.03c-0.02-0.01-0.03-0.02-0.05-0.03
	c-0.02-0.01-0.03-0.02-0.04-0.02c-0.02-0.01-0.03-0.02-0.06-0.03c-0.01-0.01-0.03-0.01-0.04-0.02c-0.02-0.01-0.04-0.01-0.06-0.02
	c-0.01-0.01-0.03-0.01-0.04-0.01c-0.02-0.01-0.04-0.01-0.07-0.02c-0.01,0-0.03-0.01-0.04-0.01c-0.02,0-0.05-0.01-0.08-0.01
	c-0.01,0-0.02,0-0.03,0c-0.03,0-0.05,0-0.08,0c-0.03,0-0.07,0-0.11,0c-0.01,0-0.02,0-0.03,0c-0.02,0-0.05,0.01-0.08,0.01
	c-0.01,0-0.02,0-0.03,0.01c-0.02,0-0.04,0.01-0.07,0.02c-0.01,0-0.03,0.01-0.04,0.01c-0.02,0.01-0.04,0.01-0.06,0.02
	c-0.01,0-0.03,0.01-0.04,0.01c-0.01,0-0.03,0.01-0.04,0.01c-1.44,0.65-2.73,1.54-3.85,2.66C17.69,29.53,16.8,30.82,16.15,32.26z"/>
<path fill="#FFFFFF" d="M5.11,29.71c0.2,0.34,0.57,0.55,0.96,0.55c0,0,0,0,0.01,0c0.4,0,0.77-0.22,0.96-0.57l4.83-8.51
	c0.2-0.35,0.19-0.77-0.01-1.12c-0.2-0.34-0.57-0.56-0.97-0.55l-3.59,0.03C9.25,8.68,19.4,1.06,30.5,2.39
	c6.77,0.81,12.75,4.88,15.99,10.88c0.29,0.54,0.97,0.75,1.52,0.45c0.54-0.29,0.75-0.97,0.45-1.52c-1.74-3.21-4.23-6-7.22-8.07
	c-1.52-1.06-3.17-1.93-4.91-2.59c-1.78-0.68-3.65-1.14-5.56-1.37c-3.12-0.37-6.21-0.13-9.2,0.74c-2.89,0.83-5.56,2.2-7.93,4.07
	S9.29,9.11,7.8,11.72c-1.55,2.7-2.52,5.65-2.89,8.77c0,0.01,0,0.01,0,0.02c-0.01,0.06-0.01,0.11-0.01,0.17
	c0,0.61,0.5,1.11,1.12,1.11c0,0,0.01,0,0.01,0l2.96-0.02l-2.92,5.14l-3.98-6.77c-0.31-0.53-1-0.71-1.53-0.4
	c-0.53,0.31-0.71,1-0.4,1.53L5.11,29.71z"/>
<path fill="#FFFFFF" d="M55.85,25.16l-4.96-8.44c-0.2-0.34-0.57-0.55-0.96-0.55c0,0-0.01,0-0.01,0c-0.4,0-0.77,0.22-0.96,0.57
	l-4.83,8.51c-0.2,0.35-0.19,0.77,0.01,1.12c0.2,0.34,0.57,0.55,0.96,0.55c0,0,0.01,0,0.01,0l3.59-0.03
	c-0.89,5.11-3.6,9.66-7.71,12.89c-4.41,3.47-9.91,5.01-15.49,4.34c-6.54-0.78-12.21-4.48-15.58-10.15c-0.31-0.53-1-0.71-1.53-0.39
	c-0.53,0.31-0.71,1-0.39,1.53c1.78,3,4.26,5.6,7.15,7.53c1.48,0.98,3.08,1.8,4.74,2.41c1.71,0.64,3.51,1.07,5.34,1.29
	c0.94,0.11,1.87,0.17,2.81,0.17c2.16,0,4.31-0.3,6.4-0.91c2.89-0.83,5.56-2.2,7.93-4.07s4.33-4.14,5.83-6.75
	c1.54-2.7,2.52-5.65,2.89-8.77c0-0.02,0-0.04,0.01-0.06c0.01-0.07,0.02-0.14,0.02-0.21c0-0.62-0.51-1.11-1.13-1.11l-2.96,0.02
	l2.92-5.14l3.98,6.77c0.31,0.53,1,0.71,1.53,0.4C55.98,26.38,56.16,25.69,55.85,25.16z"/>
</svg>
