<svg xmlns="http://www.w3.org/2000/svg" width="15" height="15" viewBox="413.44 290.14 15 15"><path fill="#68777a" d="M427.9 291.14H414c-.3 0-.55.22-.55.5v12.5l2.67-2.42h11.78c.3 0 .55-.22.55-.5v-9.58c-.01-.28-.25-.5-.56-.5zm-11.15 2.28h4c.18 0 .33.16.33.35s-.15.35-.33.35h-4c-.18 0-.33-.16-.33-.35a.33.33 0 0 1 .33-.35zm8.33 5.6h-8.33c-.18 0-.33-.16-.33-.35s.15-.35.33-.35h8.33c.2 0 .33.16.33.35s-.15.35-.33.35zm0-2.38h-8.33c-.18 0-.33-.26-.33-.45s.15-.45.33-.45h8.33c.2 0 .33.26.33.45s-.15.45-.33.45z"/></svg>