<?xml version="1.0" encoding="utf-8"?>
<!-- Generator: Adobe Illustrator 16.0.0, SVG Export Plug-In . SVG Version: 6.00 Build 0)  -->
<!DOCTYPE svg PUBLIC "-//W3C//DTD SVG 1.1//EN" "http://www.w3.org/Graphics/SVG/1.1/DTD/svg11.dtd">
<svg version="1.1" id="bold" xmlns="http://www.w3.org/2000/svg" xmlns:xlink="http://www.w3.org/1999/xlink" x="0px" y="0px"
	 width="15px" height="15px" viewBox="248.5 248.5 15 15" enable-background="new 248.5 248.5 15 15" xml:space="preserve">
<path fill="#68777A" d="M263.2,248.5c-2.9-0.1-6.3,1.5-8.4,3.9c-2,0-4,0.9-5.4,2.3c-0.1,0.1-0.1,0.2-0.1,0.3c0,0.1,0.1,0.2,0.3,0.2
	l2.4,0.3l-0.3,0.3c-0.1,0.1-0.1,0.3,0,0.4l4,4c0.1,0.1,0.1,0.1,0.2,0.1c0.1,0,0.1,0,0.2-0.1l0.3-0.3l0.3,2.4c0,0.1,0.1,0.2,0.2,0.2
	c0,0,0.1,0,0.1,0c0.1,0,0.2,0,0.2-0.1c1.4-1.4,2.3-3.4,2.3-5.4c2.4-2.1,3.9-5.5,3.9-8.4C263.5,248.6,263.4,248.5,263.2,248.5
	L263.2,248.5z M260.3,253.9c-0.3,0.3-0.7,0.5-1.1,0.5c-0.4,0-0.8-0.2-1.1-0.5c-0.6-0.6-0.6-1.6,0-2.2c0.6-0.6,1.6-0.6,2.2,0
	S260.9,253.3,260.3,253.9z"/>
<path fill="#68777A" d="M250.2,259.1c-0.7,0.7-1.6,3.7-1.7,4c0,0.1,0,0.2,0.1,0.3c0.1,0.1,0.1,0.1,0.2,0.1c0,0,0.1,0,0.1,0
	c0.3-0.1,3.4-1,4-1.7c0.8-0.8,0.8-2,0-2.7C252.2,258.3,251,258.3,250.2,259.1L250.2,259.1z"/>
</svg>
