<svg xmlns="http://www.w3.org/2000/svg" width="15" height="15" viewBox="413.44 290.14 15 15"><path fill="#68777a" d="M427.75 292.24a.48.48 0 0 0-.37-.4l-6.3-1.68c-.1-.02-.18-.02-.27 0l-6.3 1.68a.49.49 0 0 0-.37.41c-.04.25-.87 6.2 1.27 9.15s5.3 3.7 5.42 3.74c.04.01.08.01.12.01s.08 0 .12-.01c.13-.03 3.3-.8 5.42-3.74 2.14-2.96 1.3-8.9 1.26-9.15zM425 295.7l-4.3 4.1c-.1.1-.23.14-.36.14s-.26-.05-.36-.14l-2.66-2.54a.47.47 0 0 1-.15-.35c0-.13.05-.25.15-.35l.53-.5c.2-.2.52-.2.72 0l1.77 1.7 3.4-3.26c.1-.1.23-.14.36-.14s.27.05.36.14l.53.5c.2.2.2.5 0 .7z"/></svg>