<svg xmlns="http://www.w3.org/2000/svg" width="34" height="34" viewBox="33 33 34 34"><circle fill="#dd4b39" cx="50" cy="50" r="17"/><path fill="#dc4e41" d="M39.9 50c-.05 2.68 1.8 5.24 4.32 6.07 2.4.8 5.33.2 6.92-1.84 1.16-1.43 1.43-3.35 1.3-5.13h-6.13v2.18l3.67.04c-.3 1.06-1 2.05-2.08 2.42-2.06.9-4.7-.28-5.35-2.45-.78-2.07.5-4.58 2.62-5.18 1.3-.46 2.67.06 3.8.74.57-.53 1.1-1.1 1.63-1.68-1.28-1.07-2.92-1.72-4.6-1.58-3.3.04-6.2 3.1-6.08 6.4h0zm16.52-2.75l-.02 1.84h-1.84v1.83l1.84.01.01 1.84h1.83l.01-1.84 1.84-.01V49.1h-1.84l-.01-1.84h-1.82z"/><path fill="#fff" d="M39.9 50c-.13-3.3 2.77-6.36 6.1-6.4 1.7-.14 3.33.5 4.6 1.58l-1.63 1.68c-1.12-.68-2.48-1.2-3.8-.74-2.12.6-3.4 3.1-2.62 5.18.65 2.17 3.28 3.35 5.35 2.45 1.06-.38 1.77-1.37 2.08-2.43l-3.67-.04V49.1h6.13c.13 1.78-.14 3.7-1.3 5.13-1.6 2.05-4.52 2.65-6.92 1.84-2.54-.83-4.4-3.4-4.33-6.07zm16.52-2.75h1.82l.01 1.84h1.84v1.83l-1.84.01-.01 1.84h-1.83l-.01-1.84-1.84-.01V49.1h1.84l.02-1.83z"/></svg>