<svg xmlns="http://www.w3.org/2000/svg" width="32" height="32" viewBox="-0.11 -0.1 31.5 32"><path fill="#b1b5b7" d="M25.46 31.9a5.93 5.93 0 0 1-5.92-5.92c0-.7.12-1.5.3-2.1l-9.4-4.4C9.42 20.9 7.62 21.8 5.82 21.8 2.55 21.8-.1 19.15-.1 15.9s2.66-5.92 5.93-5.92c1.78 0 3.48.86 4.65 2.36l9.5-4.65a4.38 4.38 0 0 1-.45-1.86A5.93 5.93 0 0 1 25.46-.1c3.27 0 5.93 2.66 5.93 5.92s-2.66 5.92-5.93 5.92c-1.6 0-3.4-1.06-4.75-2.76l-9.42 4.54c.27.54.45 1.74.45 2.36 0 .67-.2 1.65-.4 2.28l9.3 4.4c1.08-1.47 3.08-2.5 4.82-2.5 3.27 0 5.93 2.66 5.93 5.92s-2.66 5.93-5.93 5.93zm-.01-9.65a3.73 3.73 0 0 0-3.73 3.73 3.74 3.74 0 0 0 3.73 3.73 3.73 3.73 0 0 0 3.73-3.73c.01-2.06-1.67-3.73-3.73-3.73zM5.82 12.17a3.73 3.73 0 0 0-3.73 3.73 3.74 3.74 0 0 0 3.73 3.73 3.73 3.73 0 1 0 0-7.46zM25.45 2.1a3.73 3.73 0 0 0-3.73 3.73 3.74 3.74 0 0 0 3.73 3.73 3.73 3.73 0 0 0 3.73-3.73c.01-2.05-1.67-3.73-3.73-3.73z"/></svg>