<svg xmlns="http://www.w3.org/2000/svg" width="60" height="60"><path fill="#565656" d="M8.13 38.34c-.54 0-1-.43-1-.96s.44-.96 1-.96h6c-.44-1.26-1.67-2.13-3.08-2.13H7.92c-.54 0-1-.43-1-.96s.44-.96 1-.96h3.13c2.85 0 5.17 2.25 5.17 5.02 0 .53-.44.96-1 .96l-7.1-.01zm36.64 0c-.54 0-1-.43-1-.96 0-2.77 2.32-5.02 5.17-5.02h3.13c.54 0 1 .43 1 .96a.99.99 0 0 1-.99.97h-3.13c-1.4 0-2.63.87-3.05 2.17l5.96-.04c.54 0 1 .43 1 .96s-.44.96-1 .96h-7.1zm10.37-9.56c-1.2-1.23-2.86-1.9-4.64-1.9a1.09 1.09 0 0 0-.26.03l-2.6.72-.83-1.55 1.63-1.58h3.6c.54 0 1-.43 1-.96s-.44-.96-1-.96H48.2c-.03 0-.05.01-.08.02-.03 0-.05-.01-.07-.01-.26 0-.5.1-.7.28l-1.48 1.44-2.18-4.06c-.74-1.38-2.57-2.46-4.17-2.46h-19c-1.6 0-3.44 1.08-4.17 2.46l-2.1 3.95-1.56-1.52c-.2-.18-.44-.28-.7-.28-.06 0-.1.02-.17.03-.06-.01-.12-.04-.18-.04H7.77c-.54 0-.98.43-.98.97 0 .53.44.96.98.96h3.8l1.7 1.66-.88 1.64-2.64-.7c-.1-.02-.17-.03-.26-.03-1.78 0-3.43.68-4.64 1.9a6.08 6.08 0 0 0-1.77 4.61L5.6 45.26c.03.6 1.8.92 2.15.92l.14-.03v3.48c0 .53.44.96 1 .96h7.64c.55 0 1-.43 1-.96l-.03-3.45 24.98-.03v3.48c0 .53.44.96 1 .96h7.65c.54 0 1-.43 1-.96l-.03-3.45h.17c.35 0 2.12-.3 2.15-.9l2.52-11.9c.08-1.73-.55-3.36-1.77-4.6l.01.01zm-37.06-7.66c.4-.76 1.54-1.43 2.43-1.43H39.5c.88 0 2.02.67 2.43 1.43l3.8 7-2.02.54c-.04.01-.07.04-.1.05H16.4c-.04-.01-.06-.04-.1-.05l-2-.5 3.77-7.05zM9.88 48.7v-2.52l5.67-.03.03 2.52-5.7.03zm28.52-4.44l-16.82.01-.03-3.58 16.85-.03v3.6zm6.04 4.44v-2.52l5.67-.03.03 2.52-5.7.03zm8.06-4.44l-12.12.01v-4.53c0-.53-.44-.97-1-.97H20.6c-.54 0-1 .43-1 .97v4.54H7.53l-2.46-11c-.06-1.18.38-2.33 1.2-3.17.8-.82 1.9-1.3 3.1-1.32l6.4 1.72c.02.01.04 0 .06.01.13.07.28.1.44.1H43.7a1.06 1.06 0 0 0 .44-.11c.02 0 .04 0 .06-.01l6.4-1.72c1.2.03 2.3.5 3.1 1.3.84.85 1.27 1.97 1.22 3.15l-2.43 11z"/></svg>