<svg xmlns="http://www.w3.org/2000/svg" width="15" height="12" viewBox="413.445 291.64 15 12" fill="#5e676c"><path d="M427.946 293.5a1.6 1.6 0 0 0-1.184-.507h-2.366v-.03a1.33 1.33 0 0 0-.386-.942c-.242-.246-.57-.4-.927-.4h-4.277a1.3 1.3 0 0 0-.94.39 1.34 1.34 0 0 0-.385.942v.03h-2.353a1.6 1.6 0 0 0-1.183.507c-.3.304-.5.74-.5 1.203v7.218a1.65 1.65 0 0 0 .5 1.202 1.68 1.68 0 0 0 1.183.508h11.635c.47 0 .885-.188 1.184-.508a1.73 1.73 0 0 0 .499-1.202v-7.218a1.65 1.65 0 0 0-.5-1.203zm-.242 8.42h-.015a.94.94 0 0 1-.271.666.91.91 0 0 1-.656.276h-11.635c-.256 0-.485-.103-.656-.276s-.27-.406-.27-.666v-7.218a.94.94 0 0 1 .271-.667c.17-.174.4-.275.656-.275h2.752c.214 0 .385-.174.385-.392v-.42c0-.16.057-.304.157-.406s.242-.16.4-.16h4.263c.157 0 .3.058.4.16s.157.246.157.406v.42c0 .217.17.392.385.392h2.752a.91.91 0 0 1 .656.275.94.94 0 0 1 .27.667v7.218zm-6.76-7.175a3.48 3.48 0 0 0-2.48 1.044 3.56 3.56 0 0 0-1.026 2.52 3.6 3.6 0 0 0 1.026 2.522c.642.652 1.512 1.043 2.48 1.043a3.48 3.48 0 0 0 2.48-1.043c.642-.653 1.026-1.536 1.026-2.522a3.6 3.6 0 0 0-1.026-2.521 3.49 3.49 0 0 0-2.481-1.044zm1.94 5.55c-.5.493-1.184.813-1.94.813a2.76 2.76 0 0 1-1.939-.813c-.5-.507-.798-1.203-.798-1.97a2.86 2.86 0 0 1 .798-1.972 2.71 2.71 0 0 1 1.94-.812 2.77 2.77 0 0 1 1.94.812 2.79 2.79 0 0 1 .8 1.972c.014.767-.3 1.463-.8 1.97z"/><ellipse cx="426.021" cy="295.451" rx=".699" ry=".71"/></svg>