<svg xmlns="http://www.w3.org/2000/svg" width="60" height="60"><path fill="#565656" d="M32.8 50.55c-.47-.66-.96-1.52-1.4-2.3-.56-.98-1.13-2-1.34-2l-.2.33c-.37.6-1.22 2.03-2.85 3.94l-.86-.68-5.35-4.8c.01.02-.04.02-.13.02-1.2 0-3.66-.8-5.14-1.28l-.68-.22c-2.8-.88-4-1.6-4.14-1.75l-.76-.52.8-.83c2.23-1.88 2.65-6.08 3.1-10.52.45-4.52.92-9.18 3.04-12.92 2.5-4.4 6.77-6.54 13.1-6.56 6.32.02 10.6 2.16 13.1 6.56 2.12 3.74 2.58 8.4 3.03 12.9.45 4.46.86 8.67 3.1 10.55l.8.68-.96.7c-.13.13-1.1.67-3.94 1.56-.34.1-3.38 1.06-5.17 1.38l-.98.18c-.05.02-.67.52-1.27 1-.74.6-1.67 1.55-2.57 2.47-.85.87-1.65 1.7-2.2 2.1l-.02.02-.07.02-.06-.03zm3.52-7.86c-1.17.88-3.55 2.33-4.76 2.7l-.15.05 1.94 2.72 4.05-4.02h-.02l-.08.06c-.3-.32-.55-.65-.72-.97-.03-.06-.2-.4-.25-.54h-.01zm-12.7.54c-.18.35-.44.7-.78 1.03l-.1.1 4.1 3.8 1.73-2.86-.06.1c-.96-.3-2.76-1.2-4.67-2.6l-.01-.02-.2.46zm8.7-22.03l-.77.72c-2.4 2.18-4.9 3.92-7.36 5.18-1.8.92-3.65 1.58-5.45 1.97 0 3.38 1.54 7.12 4.25 10.2 1.2 1.36 2.53 2.5 3.86 3.28 1.2.7 2.3 1.1 3.18 1.1s2-.4 3.2-1.1c1.33-.8 2.66-1.93 3.85-3.28 2.7-3.08 4.26-6.8 4.26-10.23a15.23 15.23 0 0 0-.41-3.56c-3.87-1-7.04-3.12-8.58-4.28h.01-.03zM13.05 41.1c.75.38 1.65.74 2.7 1.05 1.4.42 2.58.55 4.23.72l1.36.15c.16-.15.28-.4.37-.6l.06-.12.03-1.27c-3.34-3.22-5.03-7.03-5.15-11.6l-.67.04-.08.7c-.43 4.28-.83 8.32-2.86 10.92l.01.01zM43.08 25.9a17.86 17.86 0 0 1 .28 3.13c0 4.63-1.64 8.5-5 11.87l.01 1.35c.12.2.26.4.44.56 5.46-.64 7.2-1.23 8.16-1.73l.02-.01c-2.06-2.6-2.46-6.65-2.9-10.92l-.47-4.2-.5-.07-.05-.03v.04zM29.9 12.5c-2.96.08-5.4.63-7.26 1.63-1.68.9-2.98 2.2-3.96 3.95-1.55 2.73-2.13 6.23-2.48 9.3v.02c2.3-.22 4.66-.92 7-2.1 2.3-1.17 4.63-2.8 6.9-4.85 3.18-2.87 5.34-5.73 6.1-6.82l.02-.02c-1.75-.68-3.85-1.03-6.25-1.03h-.04l-.06-.04h.01zm3.87 7.24c1.78 1.3 5.4 3.55 9.48 4.12h.03c-.47-2.38-1.1-4.27-1.97-5.8-.85-1.5-1.9-2.64-3.23-3.5-1.3 1.82-2.75 3.55-4.3 5.17l-.01.01z"/></svg>