<svg xmlns="http://www.w3.org/2000/svg" width="60" height="60"><path fill="#565656" d="M51.3 50a.94.94 0 0 1-1-1v-6.1h-7.9V49c0 .6-.5 1-1 1a.94.94 0 0 1-1-1v-7a1.08 1.08 0 0 1 1-1h8.9V28.8a1.08 1.08 0 0 1 1-1 .94.94 0 0 1 1 1V49a.94.94 0 0 1-1 1zm-32.6 0a.94.94 0 0 1-1-1v-6.1H9.8V49c0 .6-.5 1-1 1a.94.94 0 0 1-1-1V28.8c0-.6.5-1 1-1a.94.94 0 0 1 1 1v12.1h8.9a.94.94 0 0 1 1 1V49a1.08 1.08 0 0 1-1 1zm35.6-31c-6.3-5-14.9-7.9-23.4-8h-1.8c-8.4.1-17.1 3-23.4 8-.3.2-.4.6-.3 1 .1.3.5.6.8.6H29v11.3H18.9c-1.7 0-3 1.3-3 2.9s1.4 3.2 3 3.2H29v10h-3c-.6 0-1 .5-1 1 0 .6.5 1 1 1h8a.94.94 0 0 0 1-1 1.08 1.08 0 0 0-1-1h-3V38h10c1.7 0 3.2-1.5 3.2-3.2 0-1.6-1.4-2.9-3-2.9H31.1V20.6h22.6c.4 0 .7-.2.8-.6.2-.3.1-.7-.2-1zM41.2 33.9c.5 0 1 .4 1 .9s-.4 1.2-1 1.2H18.9c-.5 0-1-.7-1-1.2s.4-.9 1-.9h22.3zM9 18.9c4.1-2.8 9.1-4.7 14.1-5.6-1.8 1.3-3.7 3.2-5.2 5.6H9zm11 0c2.6-3.8 6.5-6.1 9.8-6.1h.4c3.4 0 7.3 2.3 9.9 6.1H20zm22.2 0c-1.2-2-3.3-3.8-5.6-5.6 5.3.9 10.6 2.9 14.5 5.6h-8.9z"/></svg>