<svg xmlns="http://www.w3.org/2000/svg" width="60" height="60"><path fill="#565656" d="M23.84 48.53c-1.13-.1-2.18-.64-2.9-1.5l-8.5-10.12a4.3 4.3 0 0 1-.98-3.13 4.25 4.25 0 0 1 1.51-2.9l13.6-11.4c1.03-.87 2.4-1.3 3.73-1.18l.34.04 11.04 1.7c.3.05.56.2.74.45s.25.54.2.83a1.13 1.13 0 0 1-1.2.95l-.08-.01-11.04-1.7-.2-.02c-.76-.06-1.5.17-2.1.66l-13.6 11.4a2 2 0 0 0-.72 1.38c-.05.54.12 1.07.47 1.5l8.5 10.13c.35.4.85.67 1.4.72a1.99 1.99 0 0 0 1.48-.47L39.3 34.3a2.87 2.87 0 0 0 1.02-2.15l.06-3.58-.2-.02h-.1a7.75 7.75 0 0 1-.73-.03c-.77-.07-1.26-.45-1.94-.76l-.16-.07-.1.13c-.08.1-.18.2-.28.28a2.31 2.31 0 0 1-1.71.53 2.34 2.34 0 0 1-1.59-.82 2.32 2.32 0 0 1-.54-1.71 2.36 2.36 0 0 1 .82-1.59 2.3 2.3 0 0 1 1.71-.53 2.34 2.34 0 0 1 1.59.82c.64.75 1.32 1.4 2.4 1.48l.5.02c1.38-.02 2.8-.57 3.96-1.56s1.97-2.28 2.23-3.63c.25-1.27-.02-2.45-.74-3.3-.62-.74-1.56-1.2-2.65-1.3-1-.1-2.46.46-3.47.96a1.13 1.13 0 0 1-.6.11c-.4-.03-.74-.27-.9-.62-.14-.26-.15-.56-.06-.85.1-.28.3-.52.56-.65 1.38-.7 3.24-1.32 4.66-1.2l.27.03c1.56.2 2.95.92 3.9 2.06 1.16 1.4 1.6 3.23 1.23 5.18-.35 1.86-1.4 3.6-2.98 4.93a9.47 9.47 0 0 1-2.68 1.57l-.15.06-.08 4.1c-.03 1.48-.7 2.88-1.83 3.83L26.96 47.54c-.87.74-2 1.1-3.12 1z"/></svg>