<svg xmlns="http://www.w3.org/2000/svg" width="17" height="17" viewBox="412.445 289.141 17 17"><circle fill="#f74911" cx="420.945" cy="297.641" r="8.499"/><path d="M422.777 302.97a.59.59 0 0 0-.679-.476c-1.6.28-3.114-.785-3.395-2.377l-.45-2.554 1.572 1.517c.232.224.604.218.83-.016.135-.14.187-.33.155-.5-.02-.118-.078-.23-.17-.32l-3.448-3.327-2.103 4.305c-.142.292-.02.643.27.784a.59.59 0 0 0 .784-.27l.958-1.962.45 2.554a4.11 4.11 0 0 0 4.753 3.328c.318-.056.53-.36.474-.68zm4.127-6.974c-.032-.18-.146-.34-.32-.425a.59.59 0 0 0-.784.27l-.958 1.962-.45-2.554a4.11 4.11 0 0 0-4.753-3.328c-.32.056-.532.36-.476.68s.36.532.68.476c1.6-.28 3.114.786 3.395 2.377l.45 2.554-1.572-1.517c-.232-.225-.604-.218-.828.015s-.22.604.015.83l3.45 3.327 2.103-4.306a.59.59 0 0 0 .05-.358z" fill="#fff"/></svg>