<svg xmlns="http://www.w3.org/2000/svg" width="15" height="15" viewBox="412.75 290.37 15 15" fill="#555"><circle cx="421.76" cy="295.01" r=".85"/><path d="M412.77 304.97c.02.04.04.07.05.1 0 .01.01.01.01.03 0 .01.01.01.01.03l.01.01c.01.03.04.04.05.06l.04.04c.02.02.04.02.05.04v.01c.02.02.05.02.06.04.01 0 .01 0 .03.01.01 0 .03.01.03.01.04.01.08.01.12.01h13.98a.52.52 0 0 0 .53-.53V290.9a.52.52 0 0 0-.53-.53h-13.94a.52.52 0 0 0-.53.53v13.92c0 .04.01.1.01.13.01.01.01.02.01.02zm13.96-.67h-11.68l8.63-5.65 3.05 2.9v2.74zm-12.92-12.87h12.92v8.67l-2.62-2.5c-.18-.17-.45-.2-.66-.06l-2.47 1.63-1.72-1.73a.53.53 0 0 0-.66-.08l-4.8 3.02v-8.94zm0 10.2l5-3.15 1.27 1.28-6.27 4.1v-2.23z"/></svg>