<svg xmlns="http://www.w3.org/2000/svg" width="14" height="14" viewBox="413.95 291.15 14 14"><path fill="#555" d="M425.9 300.2a7.06 7.06 0 0 0-2.66-1.67c1.06-.73 1.76-1.95 1.76-3.33-.01-2.24-1.82-4.04-4.05-4.05a4.06 4.06 0 0 0-4.05 4.05c0 1.38.7 2.6 1.76 3.33a7.06 7.06 0 0 0-2.66 1.67 6.96 6.96 0 0 0-2.05 4.95h1.1c0-3.26 2.65-5.9 5.9-5.9s5.9 2.65 5.9 5.9h1.1a7 7 0 0 0-2.05-4.95zm-4.96-2.05a2.95 2.95 0 0 1-2.95-2.95c0-1.63 1.33-2.95 2.95-2.95a2.95 2.95 0 0 1 2.95 2.95c.01 1.63-1.32 2.95-2.95 2.95z"/></svg>