<svg xmlns="http://www.w3.org/2000/svg" width="15" height="15" viewBox="413.44 290.14 15 15"><path fill="#555" d="M416.62 304.14c-.16 0-.3-.08-.4-.2-.06-.08-.1-.18-.1-.28h-.03l1.6-4.8-4.04-2.86a.55.55 0 0 1-.2-.32.46.46 0 0 1 .09-.36.48.48 0 0 1 .4-.2h.04l4.95.01 1.53-4.64a.51.51 0 0 1 .48-.34.77.77 0 0 1 .15.02h.01c.16.05.27.17.33.32l1.53 4.64h4.98c.28 0 .5.22.5.5 0 .15-.08.3-.2.4l-4.04 2.86 1.55 4.63c.1.26-.06.54-.32.62-.05.02-.1.02-.16.02a.58.58 0 0 1-.32-.1l-4-2.85-4.03 2.87a.82.82 0 0 1-.3.07zm1.96-5.87c.18.13.25.35.18.55l-1.17 3.52 3.05-2.18a.54.54 0 0 1 .3-.1.53.53 0 0 1 .3.09l3.06 2.18-1.17-3.5a.49.49 0 0 1 .17-.57l3.07-2.17h-3.8c-.2 0-.4-.14-.47-.34l-1.16-3.52-1.17 3.52a.5.5 0 0 1-.48.34h-3.8l3.08 2.18z"/></svg>