<?xml version="1.0" encoding="utf-8"?>
<!-- Generator: Adobe Illustrator 16.0.0, SVG Export Plug-In . SVG Version: 6.00 Build 0)  -->
<!DOCTYPE svg PUBLIC "-//W3C//DTD SVG 1.1//EN" "http://www.w3.org/Graphics/SVG/1.1/DTD/svg11.dtd">
<svg version="1.1" id="regular" xmlns="http://www.w3.org/2000/svg" xmlns:xlink="http://www.w3.org/1999/xlink" x="0px" y="0px"
	 width="15px" height="16px" viewBox="248.5 141.3 15 16" enable-background="new 248.5 141.3 15 16" xml:space="preserve">
<g>
	<path fill="#6D6D6D" d="M262.7,142.5c-0.4,0-0.8,0.4-0.8,0.9v1.1c-1.4-1.9-3.6-3.1-5.9-3.1c-3.5,0-6.5,2.5-7.3,6.2
		c-0.1,0.5,0.2,0.9,0.6,1c0.1,0,0.1,0,0.2,0c0.4,0,0.7-0.3,0.8-0.7c0.6-2.8,3-4.8,5.7-4.8c2.2,0,4.3,1.4,5.2,3.4h-2.3
		c-0.4,0-0.8,0.4-0.8,0.9s0.4,0.9,0.8,0.9h3.5c0,0,0,0,0,0h0.3c0.4,0,0.8-0.4,0.8-0.9v-4C263.5,142.9,263.1,142.5,262.7,142.5z"/>
	<path fill="#6D6D6D" d="M262.7,150.1c-0.4-0.1-0.9,0.2-1,0.6c-0.6,2.8-3,4.8-5.7,4.8c-2.2,0-4.3-1.4-5.2-3.4h2.3
		c0.4,0,0.8-0.4,0.8-0.9s-0.4-0.9-0.8-0.9h-3.4c0,0-0.1,0-0.1,0h-0.2c-0.4,0-0.8,0.4-0.8,0.9v4c0,0.5,0.4,0.9,0.8,0.9
		c0.4,0,0.8-0.4,0.8-0.9v-1.1c1.4,1.9,3.6,3.1,5.9,3.1c3.5,0,6.5-2.5,7.3-6.2C263.4,150.7,263.1,150.3,262.7,150.1z"/>
</g>
</svg>
