<svg xmlns="http://www.w3.org/2000/svg" width="15" height="15" viewBox="413.44 290.14 15 15" fill="#555"><circle cx="424.11" cy="294.24" r=".94"/><path d="M428.28 295c-.3-.8-.9-1.95-1.84-2.9s-2.1-1.5-2.88-1.8c-.86-.33-1.84-.12-2.5.53l-2.3 2.3a2.35 2.35 0 0 0-.49 2.6l.4.8-5.05 5.05c-.1.1-.17.26-.17.4v2.58a.59.59 0 0 0 .59.59h2.58a.59.59 0 0 0 .59-.59v-1.05h1.05a.59.59 0 0 0 .59-.59v-1.05h1.05a.59.59 0 1 0 0-1.18h-1.64a.59.59 0 0 0-.59.59v1.05h-1.05a.59.59 0 0 0-.59.59v1.06h-1.4v-1.75l5.2-5.2a.59.59 0 0 0 .09-.72c-.2-.33-.4-.7-.55-1.06a1.17 1.17 0 0 1 .25-1.29l2.3-2.3c.33-.33.82-.43 1.25-.27.68.26 1.66.74 2.47 1.54.8.8 1.3 1.8 1.58 2.5a1.16 1.16 0 0 1-.26 1.25L424.6 299a1.17 1.17 0 0 1-1.29.25 6.5 6.5 0 0 1-1.05-.54c-.28-.17-.64-.08-.8.2-.17.28-.08.64.2.8.4.24.8.45 1.22.62.88.37 1.9.17 2.57-.5l2.33-2.32c.66-.66.86-1.64.52-2.5z"/></svg>