<svg xmlns="http://www.w3.org/2000/svg" width="42" height="42" viewBox="236.4 146.3 42 42"><path fill="#20A120" d="M257.4 188.3c-11.6 0-21-9.4-21-21s9.4-21 21-21 21 9.4 21 21-9.4 21-21 21zm0-39.7c-10.3 0-18.6 8.3-18.6 18.6s8.3 18.6 18.6 18.6 18.6-8.3 18.6-18.6c0-10.2-8.3-18.5-18.6-18.6zm11.3 24.5c-.1-.2-.5-.5-1.2-.8l-.8-.5-1-.6-.8-.5-.4-.3-.6-.3c-.1-.1-.3-.1-.4-.1-.2 0-.5.1-.8.5s-.6.6-.9 1c-.3.3-.5.7-.8 1-.3.3-.6.5-.7.5-.1 0-.2 0-.4-.1l-.3-.1-.4-.2-.3-.2c-1.5-.8-2.7-1.7-3.7-2.8-1-1-2-2.3-2.8-3.7-.1-.1-.1-.2-.2-.3l-.2-.4c0-.1-.1-.2-.1-.3 0-.1-.1-.3-.1-.4 0-.2.1-.4.5-.7.3-.3.6-.6 1-.8.4-.3.7-.6 1-.9.3-.3.5-.6.5-.8 0-.2 0-.3-.1-.4l-.3-.6-.3-.4-.5-.8-.6-1-.5-.8c-.4-.7-.7-1.2-.8-1.2h-.3c-.3 0-.7.1-1.1.2-.5.1-.8.2-1.1.3-.5.2-1.1.9-1.7 2-.6 1-.8 2-.8 2.9 0 .3 0 .6.1.8 0 .3.1.6.2.9l.2.8.3.9.3.8c.3 1 .8 1.9 1.3 2.8.8 1.4 2 2.8 3.4 4.2 1.4 1.4 2.9 2.6 4.2 3.4.9.5 1.8 1 2.8 1.3l.8.3.9.3.8.2c.3.1.6.2.9.2.3 0 .6.1.8.1 1 0 2-.3 2.9-.8 1.1-.6 1.7-1.2 2-1.7.1-.4.3-.7.3-1.1.1-.4.1-.7.1-1.1-.2-.5-.2-.6-.3-.7z"/></svg>