<svg xmlns="http://www.w3.org/2000/svg" width="42" height="42" viewBox="236.4 146.26 42 42"><path fill="#20a120" d="M257.4 188.26c-11.58 0-21-9.42-21-21s9.42-21 21-21 21 9.42 21 21-9.42 21-21 21zm0-39.62c-10.26 0-18.62 8.34-18.62 18.62a18.64 18.64 0 0 0 18.62 18.62 18.64 18.64 0 0 0 18.62-18.62c-.02-10.27-8.34-18.58-18.6-18.6v-.01zm11.3 24.44c-.06-.2-.46-.48-1.2-.84l-.84-.48-1-.56-.84-.5-.42-.28-.56-.35c-.14-.07-.3-.1-.45-.1-.2 0-.48.14-.8.45s-.62.63-.88.98-.54.67-.84.98c-.28.3-.56.45-.73.45-.1 0-.2-.03-.35-.08l-.32-.14-.38-.22-.28-.18c-1.46-.8-2.7-1.74-3.74-2.77-1.04-1.04-1.96-2.28-2.77-3.74-.06-.1-.12-.2-.18-.3l-.22-.38c-.04-.07-.08-.18-.14-.32-.05-.14-.08-.28-.08-.36 0-.2.14-.42.45-.73.32-.3.64-.57.98-.84.35-.28.7-.56.98-.88.3-.32.45-.6.45-.8 0-.16-.04-.3-.1-.45s-.18-.35-.35-.56l-.28-.4-.5-.84-.56-1-.48-.84c-.37-.74-.66-1.15-.84-1.2-.07-.03-.18-.04-.34-.04-.28 0-.66.06-1.12.17s-.84.22-1.1.34c-.53.22-1.1.87-1.68 1.96-.56.98-.8 2-.8 2.94a4.75 4.75 0 0 0 .06.84c.04.3.1.6.2.9l.22.75.32.88.28.78c.34.97.78 1.9 1.32 2.8.84 1.36 1.96 2.76 3.43 4.2 1.44 1.44 2.86 2.6 4.2 3.43.88.54 1.8.98 2.8 1.32l.8.28.88.32.76.24a5.41 5.41 0 0 0 .91.2 4.74 4.74 0 0 0 .84.05c.98 0 1.96-.28 2.94-.8 1.06-.6 1.7-1.16 1.96-1.68a8.58 8.58 0 0 0 .34-1.09c.1-.37.14-.74.14-1.12.01-.14 0-.28-.03-.34v-.03z"/></svg>