<?xml version="1.0" encoding="utf-8"?>
<!-- Generator: Adobe Illustrator 16.0.0, SVG Export Plug-In . SVG Version: 6.00 Build 0)  -->
<!DOCTYPE svg PUBLIC "-//W3C//DTD SVG 1.1//EN" "http://www.w3.org/Graphics/SVG/1.1/DTD/svg11.dtd">
<svg version="1.1" id="Layer_1" xmlns="http://www.w3.org/2000/svg" xmlns:xlink="http://www.w3.org/1999/xlink" x="0px" y="0px"
	 width="511.992px" height="511.992px" viewBox="0 0 511.992 511.992" enable-background="new 0 0 511.992 511.992"
	 xml:space="preserve">
<path fill="#D66161" d="M415.402,495.422l-159.406-159.41L96.59,495.422c-22.098,22.094-57.922,22.094-80.02,0
	c-22.094-22.098-22.094-57.922,0-80.02l159.41-159.406L16.57,96.59c-22.094-22.098-22.094-57.922,0-80.02
	c22.098-22.094,57.922-22.094,80.02,0l159.406,159.41L415.402,16.57c22.098-22.094,57.922-22.094,80.02,0
	c22.094,22.098,22.094,57.922,0,80.02l-159.41,159.406l159.41,159.406c22.094,22.098,22.094,57.922,0,80.02
	C473.324,517.516,437.5,517.516,415.402,495.422z"/>
</svg>
