<svg xmlns="http://www.w3.org/2000/svg" width="21" height="20" viewBox="239.5 240 21 20"><path d="M258 252.9a.65.65 0 0 0-.6.6v3.5a1.79 1.79 0 0 1-1.8 1.8h-13.1a1.79 1.79 0 0 1-1.8-1.8v-13.1a1.79 1.79 0 0 1 1.8-1.8h8.4a.65.65 0 0 0 .6-.6c0-.3-.3-.6-.7-.6h-8.3c-1.7 0-3 1.3-3 3V257a3.01 3.01 0 0 0 3 3h13.1a3.01 3.01 0 0 0 3-3v-3.5a.65.65 0 0 0-.6-.6zm-2.1-12.7a.61.61 0 0 0-.8 0 .61.61 0 0 0 0 .8l3.3 3.3c-2.1-.3-5.5-.3-8.5 1.5-2.7 1.6-4.4 4.1-5.1 7.6-.1.3.1.6.5.7h.1c.3 0 .5-.2.6-.5.6-3.1 2.1-5.4 4.3-6.8 3-1.8 6.7-1.5 8.5-1.2l-3.8 3.9a.61.61 0 0 0 0 .8.76.76 0 0 0 .4.2.76.76 0 0 0 .4-.2l4.7-4.7v-.8l-4.6-4.6z"/></svg>