<svg xmlns="http://www.w3.org/2000/svg" width="14" height="15" viewBox="413.945 290.14 14 15"><path d="M420.945 292.688c-2.474 0-4.48 2.027-4.48 4.528 0 2.006 1.292 3.706 3.08 4.3v2.776h.56v.85h1.68v-.85h.56v-2.776c1.788-.594 3.08-2.293 3.08-4.3-.001-2.5-2.007-4.528-4.48-4.528zm0-2.548c-.155 0-.28.127-.28.283v1.132c0 .156.125.283.28.283a.28.28 0 0 0 .28-.283v-1.132c0-.156-.125-.283-.28-.283zm6.72 6.793h-1.12a.28.28 0 0 0-.28.283c0 .156.125.283.28.283h1.12c.154 0 .28-.127.28-.283a.28.28 0 0 0-.279-.283zm-12.32 0h-1.12a.28.28 0 0 0-.28.283c0 .156.125.283.28.283h1.12c.155 0 .28-.127.28-.283a.28.28 0 0 0-.28-.283zm10.155-4.72l-.8.8c-.1.1-.1.3 0 .4.055.055.126.083.197.083a.28.28 0 0 0 .198-.083l.792-.8c.1-.1.1-.3 0-.4a.28.28 0 0 0-.396 0zm-8.713 8.808l-.792.8c-.1.1-.1.3 0 .4.055.056.126.083.198.083s.143-.027.198-.083l.792-.8c.1-.1.1-.3 0-.4a.28.28 0 0 0-.396 0zm8.316 0a.28.28 0 0 0-.396 0c-.1.1-.1.3 0 .4l.8.8c.055.056.127.083.198.083s.144-.027.198-.083c.1-.1.1-.3 0-.4l-.8-.8zm-8.713-8.808a.28.28 0 0 0-.396 0c-.1.1-.1.3 0 .4l.792.8a.28.28 0 0 0 .198.083c.072 0 .144-.028.198-.083.1-.1.1-.3 0-.4l-.792-.8z" fill="#efce4a"/><path fill="#f7e6a1" d="M417.865 297.5c-.155 0-.28-.127-.28-.283 0-1.873 1.507-3.396 3.36-3.396a.28.28 0 0 1 .28.283.28.28 0 0 1-.28.283c-1.544 0-2.8 1.27-2.8 2.83 0 .156-.125.283-.28.283z"/><path fill="#556080" d="M419.545 302.3v1.982h.56v.848h1.68v-.848h.56V302.3z"/></svg>