<svg xmlns="http://www.w3.org/2000/svg" width="19" height="19" viewBox="2.33 2.33 19 19" fill="#f85a5a"><path d="M11.83 21.33a9.51 9.51 0 0 1-9.5-9.5 9.51 9.51 0 0 1 9.5-9.5 9.51 9.51 0 0 1 9.5 9.5 9.41 9.41 0 0 1-2.79 6.71 9.43 9.43 0 0 1-6.7 2.8zm0-17.68a8.2 8.2 0 0 0-8.18 8.18c0 4.5 3.67 8.17 8.18 8.17S20 16.34 20 11.83c-.01-4.5-3.68-8.18-8.18-8.18zm1.2 8.5c-.07-.07-.07-.17 0-.24l2.6-2.6a.36.36 0 0 0 .1-.24.36.36 0 0 0-.1-.24l-.48-.48a.36.36 0 0 0-.24-.1.31.31 0 0 0-.24.1l-2.6 2.6c-.07.07-.17.07-.24 0l-2.6-2.6a.36.36 0 0 0-.24-.1.36.36 0 0 0-.24.1l-.5.48a.36.36 0 0 0-.1.24.36.36 0 0 0 .1.24l2.6 2.6c.07.07.07.17 0 .24l-2.6 2.6a.36.36 0 0 0-.1.24.36.36 0 0 0 .1.24l.48.48a.36.36 0 0 0 .24.1c.07 0 .17-.04.24-.1l2.6-2.6c.07-.07.17-.07.24 0l2.6 2.6a.36.36 0 0 0 .24.1c.07 0 .17-.04.24-.1l.48-.48a.36.36 0 0 0 .1-.24.36.36 0 0 0-.1-.24l-2.58-2.6z"/></svg>