<svg xmlns="http://www.w3.org/2000/svg" width="16" height="16" viewBox="412.95 290.15 16 16"><path fill="#fff" d="M426.6 300.5c-.85-.86-1.9-1.5-3.04-1.9 1.2-.83 2-2.23 2-3.8-.01-2.55-2.08-4.62-4.63-4.63-2.55.01-4.62 2.07-4.63 4.63 0 1.58.8 2.97 2 3.8-1.14.4-2.2 1.05-3.04 1.9a7.95 7.95 0 0 0-2.34 5.66h1.26c0-3.73 3.03-6.74 6.74-6.74a6.76 6.76 0 0 1 6.74 6.74h1.26a8.01 8.01 0 0 0-2.34-5.66zm-5.67-2.34c-1.86 0-3.37-1.5-3.37-3.37a3.38 3.38 0 0 1 3.37-3.37c1.86 0 3.37 1.5 3.37 3.37.01 1.86-1.5 3.37-3.37 3.37z"/></svg>