<?xml version="1.0" encoding="utf-8"?>
<!-- Generator: Adobe Illustrator 16.0.0, SVG Export Plug-In . SVG Version: 6.00 Build 0)  -->
<!DOCTYPE svg PUBLIC "-//W3C//DTD SVG 1.1//EN" "http://www.w3.org/Graphics/SVG/1.1/DTD/svg11.dtd">
<svg version="1.1" id="Layer_1" xmlns="http://www.w3.org/2000/svg" xmlns:xlink="http://www.w3.org/1999/xlink" x="0px" y="0px"
	 width="23.7px" height="23.7px" viewBox="0 0 23.7 23.7" enable-background="new 0 0 23.7 23.7" xml:space="preserve">
<path fill="#4BE1AB" d="M11.8,23.7C5.3,23.7,0,18.3,0,11.8C0,5.3,5.3,0,11.8,0c6.5,0,11.8,5.3,11.8,11.8c0,3.2-1.2,6.1-3.5,8.4
	C17.9,22.4,15,23.7,11.8,23.7z M11.8,1.6C6.2,1.6,1.6,6.2,1.6,11.8C1.6,17.4,6.2,22,11.8,22C17.4,22,22,17.4,22,11.8
	C22,6.2,17.4,1.6,11.8,1.6z"/>
<path fill="#4BE1AB" d="M10.4,16.9c-0.1,0-0.2,0-0.2-0.1l-3.9-4.1l-0.1-0.2l0,0c-0.1-0.1-0.1-0.2-0.1-0.3c0-0.1,0-0.2,0.1-0.3
	l0.8-0.8c0.1-0.1,0.2-0.1,0.2-0.1s0.2,0,0.2,0.1l0.1,0.1l2.6,2.7c0.1,0.1,0.2,0.1,0.3,0.1c0.1,0,0.2-0.1,0.3-0.1l6-6.4h0.1l0.1-0.1
	c0.1-0.1,0.2-0.1,0.2-0.1c0.1,0,0.2,0,0.2,0.1l0.8,0.8c0.1,0.1,0.1,0.4,0,0.5l-7.5,7.9C10.6,16.9,10.5,16.9,10.4,16.9z"/>
</svg>
