<?xml version="1.0" encoding="utf-8"?>
<!-- Generator: Adobe Illustrator 16.0.0, SVG Export Plug-In . SVG Version: 6.00 Build 0)  -->
<!DOCTYPE svg PUBLIC "-//W3C//DTD SVG 1.1//EN" "http://www.w3.org/Graphics/SVG/1.1/DTD/svg11.dtd">
<svg version="1.1" id="Layer_1" xmlns="http://www.w3.org/2000/svg" xmlns:xlink="http://www.w3.org/1999/xlink" x="0px" y="0px"
	 width="22px" height="22.26px" viewBox="242 244.87 22 22.26" enable-background="new 242 244.87 22 22.26" xml:space="preserve">
<path fill="#F57F41" d="M246.16,257.8l-4.16,6.06l4.01-0.75l0.75,4.01l3.94-5.75L246.16,257.8z"/>
<path fill="#EA623C" d="M259.84,257.8l-4.55,3.57l3.95,5.76l0.75-4.01l4.01,0.75L259.84,257.8z"/>
<path fill="#FFE07F" d="M253,244.87c-4.94,0-8.97,4.02-8.97,8.97c0,4.94,4.02,8.96,8.97,8.96s8.96-4.02,8.96-8.96
	C261.97,248.89,257.94,244.87,253,244.87z"/>
<path fill="#FFD23A" d="M253,244.87v17.93c4.94,0,8.96-4.02,8.96-8.96C261.97,248.89,257.94,244.87,253,244.87z"/>
<path fill="#1D608B" d="M251.4,257.66l-3.06-3.06l0.93-0.93l2.13,2.13l5.33-5.33l0.93,0.93L251.4,257.66z"/>
<path fill="#0D3954" d="M253,256.07l4.66-4.67l-0.93-0.93L253,254.2V256.07z"/>
</svg>
