<?xml version="1.0" encoding="utf-8"?>
<!-- Generator: Adobe Illustrator 16.0.0, SVG Export Plug-In . SVG Version: 6.00 Build 0)  -->
<!DOCTYPE svg PUBLIC "-//W3C//DTD SVG 1.1//EN" "http://www.w3.org/Graphics/SVG/1.1/DTD/svg11.dtd">
<svg version="1.1" id="Layer_1" xmlns="http://www.w3.org/2000/svg" xmlns:xlink="http://www.w3.org/1999/xlink" x="0px" y="0px"
	 width="100.61px" height="36.99px" viewBox="0.21 0 100.61 36.99" enable-background="new 0.21 0 100.61 36.99"
	 xml:space="preserve">
<g>
	<path fill="#515151" d="M25.46,6.64c-0.17,0.8-1.16,0.39-1.1-0.34c0.09-0.84,0.07-1.56-0.41-2.31c-1.04-1.63-3.21-2.25-5-2.57
		c-4.16-0.74-8.93-0.31-12.83,1.4c-1.78,0.77-3.67,2-4.41,3.9c-0.82,2.12,0.23,4,2.18,4.94c2.86,1.4,6.28,1.44,9.4,1.7
		c2.4,0.21,5.75,0.14,7.69,1.78c2.26,1.9,0.4,5.03-1.65,6.14c-2.5,1.36-5.62,1.5-8.4,1.25c-1.29-0.11-2.56-0.35-3.8-0.71
		c-0.6-0.17-2.43-0.56-2.67-1.27c-0.45-1.36,1.58-0.28,1.94-0.14c1.23,0.48,2.55,0.77,3.86,0.94c2.67,0.35,5.8,0.35,8.29-0.88
		c2.43-1.2,3.26-4.32,0.17-5.26c-2.1-0.64-4.41-0.67-6.58-0.86l-1.23-0.1C7.7,14,2.57,13.62,0.8,10.4
		c-2.16-3.96,2.09-7.44,5.34-8.75c3.84-1.54,8.31-1.99,12.4-1.41C21.79,0.71,26.37,2.48,25.46,6.64
		C25.43,6.77,25.53,6.32,25.46,6.64L25.46,6.64z M31.6,17.95c0,0.7-0.1,1.4-0.37,2.06c-0.28,0.66-1,1.26-1.24,1.7
		c2.14,0,3.48-1.95,4.41-3.63c0.14-0.25,0.25-0.65,0.5-0.82c0.26-0.16,0.6-0.09,0.76,0.17v0c0.06,0.1,0.09,0.19,0.08,0.3
		c0,0.84-1.03,2.12-1.52,2.75c-1.31,1.65-3.28,2.69-5.41,2.13c-0.8-0.21-1.6-0.67-2.07-1.37c-0.27-0.4-0.29-1.04,0.34-1.06
		c0.54,0,0.67,0.77,1.19,0.9c0.92,0.24,1.69-0.81,1.97-1.54c0.34-0.88,0.46-2.06,0-2.93c-0.66-1.24-1.7-0.25-2.23,0.52
		c-0.63,0.91-1.09,1.92-1.6,2.89c-0.5,0.92-0.2,2.68-0.21,3.73l-0.42,7.51c-0.2,1.67-0.47,4.98-2.42,5.61
		c-2.59,0.84-2.52-2.9-2.35-4.4c0.3-2.48,1.03-4.91,1.9-7.25l1.43-3.48l0.82-1.7l0.02-1.98c-0.2,0.24-0.55,0.27-0.79,0.07
		c-0.18-0.15-0.25-0.4-0.16-0.63c0.35-0.8,0.6-1.66,0.77-2.52c0.09-0.46-0.01-1.52,0.34-1.88c0.38-0.38,0.94-0.06,0.94,0.43V18
		c0.64-1.08,1.42-2.83,2.8-3.08c1.76-0.32,2.56,1.61,2.56,3.04h0l0-0.01L31.6,17.95L31.6,17.95z M25.08,22.65
		c-0.55,1.23-5.03,13.21-2.31,13.21c1.68,0,1.84-4.58,1.95-5.65C24.97,27.71,25.03,25.17,25.08,22.65
		C24.6,23.73,25.06,23.53,25.08,22.65L25.08,22.65z"/>
	<path fill="#515151" d="M36.44,20.43c0.97,1.34,2.84,1.1,3.95,0.1c0.52-0.47,0.94-1.05,1.27-1.66c0.25-0.45,0.63-2,1.42-1.66
		c1.07,0.47-0.98,3.03-1.4,3.53c-0.97,1.16-2.32,1.92-3.87,1.7c-3.12-0.44-4.49-5.74-1.58-7.36c1.34-0.74,2.9,0.23,2.9,1.73
		c0,1.66-1.3,2.92-2.7,3.6c0.21,0.28,0.38-0.19,0,0L36.44,20.43L36.44,20.43L36.44,20.43z M36,19.48c0.75-0.31,1.4-0.88,1.77-1.62
		c0.26-0.53,0.5-1.56-0.2-1.88C35.8,15.2,35.76,18.63,36,19.48C36.3,19.35,35.95,19.3,36,19.48z"/>
	<path fill="#515151" d="M51.95,17.98c-0.97,1.78-2.08,3.5-4.01,4.36c-1.97,0.88-4.37,0.44-5.22-1.72c-0.73-1.86-0.35-4.5,1.38-5.71
		c1.73-1.2,4.54,0.39,3.28,2.53c-0.46,0.8-1.55,0.3-1-0.48s-0.3-1.54-1.11-1.37c-1.96,0.4-2.13,3.57-1.33,4.96
		c1.09,1.92,3.6,1.06,4.91-0.1c0.78-0.69,1.45-1.6,1.91-2.53c0.16-0.33,0.24-0.74,0.7-0.74C51.88,17.18,52.1,17.61,51.95,17.98
		C51.89,18.09,51.99,17.88,51.95,17.98L51.95,17.98L51.95,17.98L51.95,17.98z"/>
	<path fill="#515151" d="M53.35,10.53c0,1.73-2.67,1.73-2.67,0S53.35,8.8,53.35,10.53z M50.97,19.13l0.08-2.3
		c0.04-0.59-0.08-1.83,0.37-2.27c0.41-0.41,0.94,0.02,0.91,0.5l-0.15,1.8c-0.09,1.23-0.4,2.93,0.3,4.03
		c0.98,1.54,2.6-0.01,3.31-0.93c0.37-0.48,1.67-3.4,2.37-2.59c0.63,0.71-1.23,2.9-1.69,3.47c-0.82,1.03-2.02,2.08-3.44,1.74
		c-1.52-0.37-2.06-2.04-2.06-3.44l0,0L50.97,19.13L50.97,19.13z M52.52,10.53c0-0.66-1.01-0.66-1.01,0
		C51.51,11.17,52.52,11.17,52.52,10.53z"/>
	<path fill="#515151" d="M68.61,17.95c-0.73,1.45-1.55,3.03-2.98,3.9c-1.53,0.95-3.16,0.19-3.69-1.47c-1,1.66-3.55,2.79-4.65,0.53
		c-0.86-1.77,0.06-4.17,1.58-5.27c0.79-0.57,1.84-0.89,2.8-0.7c0.52,0.1,1.93,0.59,1.62,1.35c-0.34,0.83-1.25-0.11-1.73-0.25
		c-0.98-0.27-2.05,0.25-2.66,1.01c-0.6,0.74-0.88,1.73-0.78,2.68c0.11,1.12,1.13,1.72,2.1,1.02c0.66-0.48,1.07-1.3,1.26-2.07
		c0.09-0.36,0.05-0.87,0.48-1.03c0.35-0.13,0.71,0.13,0.73,0.49c0.05,0.91,0.11,1.93,0.72,2.66c0.72,0.86,1.87,0.06,2.44-0.55
		c0.64-0.69,1.11-1.51,1.53-2.35c0.16-0.31,0.27-0.75,0.72-0.75c0.31,0.01,0.56,0.27,0.55,0.59c0,0,0,0,0,0
		C68.64,17.83,68.63,17.89,68.61,17.95C68.56,18.03,68.64,17.88,68.61,17.95L68.61,17.95L68.61,17.95L68.61,17.95z"/>
	<path fill="#515151" d="M75.95,17.98c-0.85,1.8-2.39,4.75-4.79,4.5c-2.6-0.28-3.18-4.26-3.43-6.24c-0.34-2.73-0.33-5.53-0.04-8.26
		c0.15-1.42,0.37-2.84,0.77-4.21c0.3-1.05,0.86-2.8,2.11-3.08c2.73-0.58,2.46,4.3,2.31,5.77c-0.3,2.97-1.36,5.87-2.64,8.55
		l-1.03,2.03c-0.31,0.59,0.04,1.38,0.25,2c0.31,0.92,0.87,2.33,2.04,2.33c1.25,0,2.21-1.57,2.75-2.5c0.24-0.42,0.49-1.34,0.92-1.6
		C75.65,16.96,76.14,17.51,75.95,17.98C75.85,18.22,75.99,17.89,75.95,17.98L75.95,17.98l0.01,0L75.95,17.98z M68.59,12.08
		l0.16,3.46c1.03-1.99,1.88-4.1,2.45-6.27c0.54-2.04,1.02-4.51,0.42-6.59c-0.21-0.72-0.84-1.33-1.4-0.5
		c-0.56,0.83-0.78,1.92-0.98,2.9C68.78,7.37,68.6,9.75,68.59,12.08L68.59,12.08L68.59,12.08z"/>
	<path fill="#515151" d="M77.34,10.53c0,1.73-2.67,1.73-2.67,0S77.34,8.8,77.34,10.53z M74.96,19.13l0.08-2.3
		c0.04-0.59-0.08-1.83,0.37-2.27c0.41-0.41,0.94,0.02,0.91,0.5l-0.15,1.8c-0.09,1.23-0.4,2.93,0.3,4.03c0.98,1.54,2.6-0.01,3.3-0.93
		c0.37-0.48,1.67-3.4,2.37-2.59c0.63,0.71-1.23,2.9-1.69,3.47c-0.82,1.03-2.02,2.08-3.45,1.74c-1.52-0.37-2.06-2.04-2.06-3.44l0,0
		L74.96,19.13L74.96,19.13z M76.52,10.53c0-0.66-1.01-0.66-1.01,0C75.51,11.17,76.52,11.17,76.52,10.53z"/>
	<path fill="#515151" d="M82.89,16.62c-0.18,0.47-0.48,1.67-1.13,1.67c-0.92,0-0.36-0.97-0.18-1.36c0.29-0.64,0.68-1.49,0.5-2.19
		c-0.15-0.6-0.23-1.83,0.67-1.83c0.73,0,0.79,0.96,0.7,1.48c-0.17,0.89,0.31,1.59,0.72,2.38c0.8,1.53,1.83,3.69-0.03,4.92
		c1.15,0.23,2.36-0.56,3.1-1.36c0.46-0.5,0.84-1.06,1.18-1.65c0.2-0.38,0.44-1.28,0.84-1.48c0.44-0.22,0.8,0.36,0.65,0.74
		c-0.24,0.58-0.53,1.14-0.86,1.68c-0.73,1.16-1.71,2.21-2.98,2.75c-1.17,0.49-2.5,0.5-3.68,0.03c-0.56-0.23-1.04-0.63-1.37-1.14
		c-0.3-0.45,0.22-0.99,0.69-0.8c0.53,0.22,0.77,0.7,1.46,0.53c0.53-0.13,0.84-0.64,0.92-1.15c0.18-1.13-0.78-2.24-1.19-3.23
		c-0.06,0.16,0.12,0.29,0,0L82.89,16.62L82.89,16.62z"/>
	<path fill="#515151" d="M100.78,7.36c0,0.93-3.35,0.51-3.88,0.51h-4.1v0.16c0,1.88-0.4,3.76-0.9,5.56l-1.04,2.97
		c-0.15,0.35-0.32,0.7-0.52,1.03c-0.3,0.5-0.15,0.77,0.08,1.33c0.33,0.81,0.84,1.78,1.69,2.13c0.95,0.4,1.74-0.38,2.3-1.06
		c0.61-0.75,1.1-1.58,1.46-2.47c0.3-0.73,1.3-0.2,0.98,0.5c-0.67,1.49-1.55,3.12-3,3.95c-1.7,0.97-3.37-0.5-4.13-1.93
		c-0.95-1.8-1.22-3.91-1.29-5.9c-0.06-2.08,0.02-4.23,0.43-6.28H83.6c-0.84,0-0.6-1.03,0.14-1.03h5.38c0.24-0.86,0.66-2,1.6-2.34
		c0.87-0.32,1.53,0.31,1.8,1.09c0.14,0.4-0.02,1.25,0.48,1.25h7.27c0.3,0,0.56,0.2,0.56,0.5l-0.02,0l-0.01,0L100.78,7.36
		L100.78,7.36z M89.73,16.5c1.2-2.65,1.95-5.72,1.95-8.63h-1.73C89.34,10.55,89.18,13.8,89.73,16.5
		C90.02,15.85,89.65,16.1,89.73,16.5L89.73,16.5z M91.1,5.52c-0.47,0-0.77,1.01-0.88,1.32h1.41C91.6,6.58,91.51,5.52,91.1,5.52z"/>
</g>
</svg>
