<svg xmlns="http://www.w3.org/2000/svg" width="47" height="47" viewBox="397.444 274.141 47 47.001"><circle fill="#fff" cx="420.944" cy="297.642" r="23.5"/><circle fill="#ff8376" cx="420.945" cy="297.64" r="22.5"/><path fill="#fff" d="M431.752 309.758h-25.866a.71.71 0 0 1-.709-.708v-17.292a.71.71 0 0 1 .709-.708h25.866a.71.71 0 0 1 .708.708v17.292a.71.71 0 0 1-.708.708z"/><g fill="#ff8376"><circle cx="428.35" cy="294.133" r="1.205"/><circle cx="409.323" cy="294.133" r="1.205"/></g><path d="M428.35 294.204c-.283 0-.53-.248-.53-.532v-7.05c0-.283.248-.53.53-.53s.532.248.532.53v7.016c-.036.32-.248.567-.532.567zm-19.027 0c-.283 0-.53-.248-.53-.532v-7.05c0-.283.248-.53.53-.53s.532.248.532.53v7.016c-.036.32-.25.567-.532.567z" fill="#2b3b4e"/><path fill="#324a5e" d="M435.615 285.912H405.4a.71.71 0 0 0-.709.708.71.71 0 0 0 .709.709h29.48v27.992l1.417-1.205V286.62c.036-.39-.283-.708-.672-.708z"/><path fill="#54c0eb" d="M419.265 294.563l-2.438 1.983v-.785h-1.57v2.065l-2.313 1.86h1.446v6.568h9.75v-6.568h1.446l-6.32-5.122zm-1.198 9.005c-.455 0-.785-.372-.785-.785 0-.454.372-.785.785-.785s.785.372.785.785-.33.785-.785.785zm0-2.272c-.455 0-.785-.372-.785-.785 0-.455.372-.785.785-.785s.785.372.785.785-.33.785-.785.785zm2.395 2.272c-.454 0-.785-.372-.785-.785 0-.454.372-.785.785-.785s.785.372.785.785c.042.413-.33.785-.785.785zm0-2.272c-.454 0-.785-.372-.785-.785 0-.455.372-.785.785-.785s.785.372.785.785c.042.413-.33.785-.785.785z"/></svg>