<svg xmlns="http://www.w3.org/2000/svg" width="45" height="45" viewBox="396.44 910.42 45 45"><path fill="#ff8376" d="M440.6 926.8c-2.67-9.45-11.35-16.37-21.66-16.37a22.5 22.5 0 0 0-22.5 22.5c0 10.3 6.92 19 16.37 21.66 1.95.55 4 .84 6.13.84a22.5 22.5 0 0 0 22.5-22.5 22.57 22.57 0 0 0-.84-6.13z"/><path fill="#fef2cc" d="M419.52 922.75l-3.12 10.3 3.12 10.3h6.4v-10.3h3.9v-10.3z"/><path fill="#fff" d="M409.22 922.75h10.3v20.6h-10.3z"/><path fill="#263230" d="M419.52 921.97l-.78.78.78.78h5.54v4.06h1.56v-4.06h2.43v8.74h-2.43v-1.56h-1.56v1.56h-5.54l-.78.78.78.78h5.62v3.6h-1.56V939h1.56v3.6h-5.62l-.78.78.78.78h7.18v-10.3h3.9v-11.86z"/><path d="M417.8 930.7h-1.56v4.68h1.56v-1.56h1.72v-1.56h-1.72zm0 11.88v-4.06h-1.56v4.06H410v-19.05h1.56v-1.56h-3.12v22.17h11.08v-1.56zm-3.12-20.6v1.56h1.56v4.06h1.56v-4.06h1.72v-1.56z" fill="#394b48"/></svg>