<?xml version="1.0" encoding="utf-8"?>
<!-- Generator: Adobe Illustrator 16.0.0, SVG Export Plug-In . SVG Version: 6.00 Build 0)  -->
<!DOCTYPE svg PUBLIC "-//W3C//DTD SVG 1.1//EN" "http://www.w3.org/Graphics/SVG/1.1/DTD/svg11.dtd">
<svg version="1.1" id="Layer_1" xmlns="http://www.w3.org/2000/svg" xmlns:xlink="http://www.w3.org/1999/xlink" x="0px" y="0px"
	 width="51.2px" height="70.15px" viewBox="0 0 51.2 70.15" enable-background="new 0 0 51.2 70.15" xml:space="preserve">
<g>
	<rect x="10.04" y="30.05" fill="#8AA0B2" width="13.3" height="3.78"/>
	<path fill="none" stroke="#344154" stroke-width="1.6462" stroke-miterlimit="10" d="M47.95,0.82H3.25c-1.34,0-2.42,1.09-2.42,2.42
		V66.9c0,1.34,1.09,2.42,2.42,2.42h44.71c1.34,0,2.42-1.08,2.42-2.42V3.25C50.38,1.91,49.29,0.82,47.95,0.82z"/>
	<rect x="7.78" y="7.78" fill="none" stroke="#344154" stroke-width="1.6462" stroke-miterlimit="10" width="35.65" height="7.85"/>
	
		<rect x="7.78" y="27.79" fill="none" stroke="#344154" stroke-width="1.6462" stroke-miterlimit="10" width="35.65" height="34.13"/>
	<line fill="none" stroke="#344154" stroke-width="1.6462" stroke-miterlimit="10" x1="16.72" y1="36.21" x2="16.72" y2="61.91"/>
	<line fill="none" stroke="#344154" stroke-width="1.6462" stroke-miterlimit="10" x1="25.6" y1="27.79" x2="25.6" y2="62.15"/>
	<line fill="none" stroke="#344154" stroke-width="1.6462" stroke-miterlimit="10" x1="34.48" y1="28.02" x2="34.48" y2="62.39"/>
	<line fill="none" stroke="#344154" stroke-width="1.6462" stroke-miterlimit="10" x1="43.42" y1="36.09" x2="7.78" y2="36.09"/>
	<line fill="none" stroke="#344154" stroke-width="1.6462" stroke-miterlimit="10" x1="43.42" y1="44.97" x2="7.78" y2="44.97"/>
	<line fill="none" stroke="#344154" stroke-width="1.6462" stroke-miterlimit="10" x1="43.42" y1="53.85" x2="7.78" y2="53.85"/>
	<path fill="#FF6D3B" d="M29.21,10.04c0,0-0.67,2.02-3.77,3.32h15.72v-3.32H29.21z"/>
</g>
</svg>
