<?xml version="1.0" encoding="utf-8"?>
<!-- Generator: Adobe Illustrator 16.0.0, SVG Export Plug-In . SVG Version: 6.00 Build 0)  -->
<!DOCTYPE svg PUBLIC "-//W3C//DTD SVG 1.1//EN" "http://www.w3.org/Graphics/SVG/1.1/DTD/svg11.dtd">
<svg version="1.1" id="Layer_1" xmlns="http://www.w3.org/2000/svg" xmlns:xlink="http://www.w3.org/1999/xlink" x="0px" y="0px"
	 width="52.97px" height="70.12px" viewBox="0 0 52.97 70.12" enable-background="new 0 0 52.97 70.12" xml:space="preserve">
<g>
	<g>
		
			<rect x="0.81" y="0.81" fill="none" stroke="#344154" stroke-width="1.6209" stroke-miterlimit="10" width="45.83" height="62.98"/>
		<polyline fill="none" stroke="#344154" stroke-width="1.6209" stroke-miterlimit="10" points="46.64,6.33 52.16,6.33 52.16,69.31 
			6.33,69.31 6.33,63.79 		"/>
		
			<rect x="6.33" y="6.33" fill="none" stroke="#344154" stroke-width="1.6209" stroke-miterlimit="10" width="15.77" height="15.77"/>
		<line fill="none" stroke="#344154" stroke-width="1.6209" stroke-miterlimit="10" x1="5.43" y1="32.33" x2="41.84" y2="32.33"/>
		<line fill="none" stroke="#344154" stroke-width="1.6209" stroke-miterlimit="10" x1="5.43" y1="38.69" x2="41.84" y2="38.69"/>
		<line fill="none" stroke="#344154" stroke-width="1.6209" stroke-miterlimit="10" x1="27.08" y1="6.33" x2="41.84" y2="6.33"/>
		<line fill="none" stroke="#344154" stroke-width="1.6209" stroke-miterlimit="10" x1="27.08" y1="12.12" x2="41.84" y2="12.12"/>
		<line fill="none" stroke="#344154" stroke-width="1.6209" stroke-miterlimit="10" x1="5.43" y1="45.04" x2="41.84" y2="45.04"/>
		<line fill="none" stroke="#344154" stroke-width="1.6209" stroke-miterlimit="10" x1="41.84" y1="57.97" x2="29.25" y2="57.97"/>
		<rect x="29.25" y="51.13" fill="#8AA0B2" width="12.6" height="3.77"/>
		<path fill="#FF6D3B" d="M9.6,18.84h9.25V9.6C18.84,9.6,16.01,16.17,9.6,18.84z"/>
	</g>
</g>
</svg>
