<?xml version="1.0" encoding="utf-8"?>
<!-- Generator: Adobe Illustrator 16.0.0, SVG Export Plug-In . SVG Version: 6.00 Build 0)  -->
<!DOCTYPE svg PUBLIC "-//W3C//DTD SVG 1.1//EN" "http://www.w3.org/Graphics/SVG/1.1/DTD/svg11.dtd">
<svg version="1.1" id="Layer_1" xmlns="http://www.w3.org/2000/svg" xmlns:xlink="http://www.w3.org/1999/xlink" x="0px" y="0px"
	 width="34px" height="34px" viewBox="33 33 34 34" enable-background="new 33 33 34 34" xml:space="preserve">
<path fill="#DD4B39" d="M50,33c-9.389,0-17,7.611-17,17s7.611,17,17,17s17-7.611,17-17S59.389,33,50,33z M49.225,56.979
	c-1.713,1.713-4.491,1.713-6.204,0s-1.713-4.49,0-6.204l3.102-3.102c1.713-1.713,4.492-1.713,6.204,0
	c0.271,0.27,0.482,0.571,0.667,0.886L51.551,50c-0.068,0.068-0.152,0.107-0.233,0.154c-0.101-0.34-0.274-0.662-0.542-0.93
	c-0.854-0.856-2.245-0.856-3.102,0l-3.103,3.102c-0.855,0.856-0.855,2.246,0,3.104c0.856,0.854,2.248,0.854,3.103,0l1.104-1.104
	c0.895,0.348,1.858,0.441,2.798,0.304L49.225,56.979z M56.979,49.225l-3.103,3.102c-1.712,1.714-4.491,1.714-6.203,0
	c-0.271-0.27-0.48-0.571-0.667-0.885L48.449,50c0.068-0.069,0.153-0.108,0.234-0.155c0.1,0.34,0.273,0.662,0.541,0.931
	c0.855,0.856,2.246,0.854,3.102,0l3.103-3.102c0.855-0.855,0.855-2.246,0-3.103c-0.856-0.854-2.246-0.854-3.103,0l-1.103,1.105
	c-0.895-0.35-1.859-0.442-2.799-0.306l2.351-2.351c1.714-1.713,4.491-1.713,6.204,0S58.692,47.512,56.979,49.225z"/>
</svg>
