<?xml version="1.0" encoding="utf-8"?>
<!-- Generator: Adobe Illustrator 16.0.0, SVG Export Plug-In . SVG Version: 6.00 Build 0)  -->
<!DOCTYPE svg PUBLIC "-//W3C//DTD SVG 1.1//EN" "http://www.w3.org/Graphics/SVG/1.1/DTD/svg11.dtd">
<svg version="1.1" id="Layer_1" xmlns="http://www.w3.org/2000/svg" xmlns:xlink="http://www.w3.org/1999/xlink" x="0px" y="0px"
	 width="34px" height="34px" viewBox="33 33 34 34" enable-background="new 33 33 34 34" xml:space="preserve">
<path fill="#38A1F3" d="M50,33c-9.389,0-17,7.611-17,17s7.611,17,17,17s17-7.611,17-17S59.389,33,50,33z M56.711,46.895
	c0.008,0.148,0.011,0.299,0.012,0.448c0,4.577-3.486,9.854-9.854,9.854c-1.882,0.002-3.726-0.54-5.308-1.559
	c0.271,0.03,0.545,0.049,0.825,0.049c1.558,0.002,3.073-0.521,4.3-1.482c-1.51-0.023-2.787-1.03-3.229-2.404
	c0.216,0.042,0.434,0.063,0.653,0.063c0.307-0.002,0.613-0.043,0.91-0.122c-1.578-0.317-2.777-1.714-2.777-3.394v-0.045
	c0.462,0.262,0.996,0.415,1.564,0.432c-0.963-0.644-1.541-1.725-1.541-2.883c-0.002-0.611,0.16-1.213,0.469-1.74
	c1.711,2.094,4.265,3.474,7.141,3.617c-0.061-0.26-0.092-0.523-0.092-0.789c0-1.91,1.56-3.461,3.46-3.461
	c0.958-0.001,1.874,0.396,2.53,1.096c0.775-0.151,1.52-0.436,2.199-0.84c-0.258,0.809-0.809,1.485-1.522,1.914
	c0.686-0.083,1.355-0.266,1.987-0.545l0.002-0.002C57.977,45.796,57.391,46.395,56.711,46.895z"/>
</svg>
