<svg xmlns="http://www.w3.org/2000/svg" width="34" height="34" viewBox="33 33 34 34"><circle fill="#38a1f3" cx="50" cy="50" r="17"/><path fill="#f1f2f2" d="M58.438 45.104a7.02 7.02 0 0 1-1.988.544c.714-.428 1.265-1.105 1.522-1.914a6.86 6.86 0 0 1-2.199.84 3.46 3.46 0 0 0-2.53-1.095c-1.9 0-3.46 1.55-3.46 3.46a3.52 3.52 0 0 0 .092.789c-2.876-.143-5.43-1.523-7.14-3.617a3.43 3.43 0 0 0-.469 1.741 3.47 3.47 0 0 0 1.54 2.883c-.568-.017-1.102-.17-1.564-.432v.044c0 1.68 1.2 3.077 2.778 3.394a3.55 3.55 0 0 1-.911.122 3.41 3.41 0 0 1-.653-.062c.442 1.374 1.72 2.38 3.23 2.404-1.227.962-2.742 1.484-4.3 1.482-.28 0-.554-.018-.826-.048 1.583 1.018 3.426 1.56 5.308 1.558 6.368 0 9.854-5.277 9.854-9.854a9.61 9.61 0 0 0-.011-.449c.68-.5 1.265-1.098 1.728-1.792h.001z"/></svg>