<svg xmlns="http://www.w3.org/2000/svg" width="45" height="45" viewBox="398.44 275.14 45 45"><circle fill="#ff8376" cx="420.94" cy="297.64" r="22.5"/><g fill="#333c49"><circle cx="415.22" cy="292.33" r="2.84"/><circle cx="426.67" cy="292.33" r="2.84"/></g><path fill="#3f4a5a" d="M430.76 292.93a5.22 5.22 0 0 0-3.7-1.54h-4.26c0 1.02-.82 1.84-1.84 1.84s-1.84-.82-1.84-1.84h-4.26c-1.34 0-2.7.5-3.72 1.54a5.23 5.23 0 0 0-1.54 3.72v2.63h22.7v-2.63a5.22 5.22 0 0 0-1.53-3.72z"/><g fill="#333c49"><path d="M417.07 297.85h7.76v4.54h-7.76z"/><circle cx="412.83" cy="300.11" r="5.67"/></g><circle fill="#6bc7d9" cx="412.83" cy="300.11" r="4.14"/><path fill="#9de8f7" d="M415.95 300.1c0 1.72-1.4 3.12-3.12 3.12s-3.12-1.4-3.12-3.12 1.4-3.12 3.12-3.12 3.12 1.4 3.12 3.12z"/><g fill="#fff"><path d="M412.42 298.4a1.31 1.31 0 0 1-1.31 1.31 1.305 1.305 0 1 1 1.31-1.31z"/><circle cx="412.83" cy="300.11" r=".51"/></g><circle fill="#333c49" cx="429.06" cy="300.11" r="5.67"/><circle fill="#6bc7d9" cx="429.06" cy="300.11" r="4.14"/><path fill="#9de8f7" d="M432.18 300.1c0 1.72-1.4 3.12-3.12 3.12s-3.12-1.4-3.12-3.12 1.4-3.12 3.12-3.12 3.12 1.4 3.12 3.12z"/><g fill="#fff"><path d="M428.65 298.4a1.31 1.31 0 0 1-1.31 1.31 1.29 1.29 0 0 1-1.3-1.3 1.3 1.3 0 0 1 2.6 0z"/><circle cx="429.06" cy="300.11" r=".51"/><circle cx="420.94" cy="300.11" r=".85"/></g></svg>