<svg xmlns="http://www.w3.org/2000/svg" width="23" height="19" viewBox="409.44 288.14 23 19" fill="#343e5c"><path d="M432.3 298.7c-.2-.27-5.1-6.57-11.35-6.57s-11.15 6.3-11.35 6.57a.72.72 0 0 0 0 .86c.2.27 5.1 6.57 11.35 6.57s11.15-6.3 11.35-6.57a.72.72 0 0 0 0-.86zm-11.36 5.98c-4.6 0-8.6-4.18-9.78-5.55 1.18-1.37 5.16-5.55 9.78-5.55 4.6 0 8.6 4.18 9.78 5.55-1.18 1.37-5.16 5.55-9.78 5.55zm0-9.88c-2.5 0-4.55 1.95-4.55 4.34s2.04 4.34 4.55 4.34 4.55-1.95 4.55-4.34-2.04-4.34-4.55-4.34zm0 7.24c-1.67 0-3.03-1.3-3.03-2.9s1.36-2.9 3.03-2.9 3.03 1.3 3.03 2.9-1.35 2.9-3.03 2.9z"/></svg>