<svg xmlns="http://www.w3.org/2000/svg" width="18" height="19"><path fill="#343e5c" d="M17.766 6.692a2.56 2.56 0 0 0-.563-.841L15 2.753c-.218-.207-.516-.384-.89-.532S13.032 2 13.26 2H1.665C.813 2 .547 2.104.33 2.3S0 2.767 0 3.062v14.875a.99.99 0 0 0 .328.752 1.12 1.12 0 0 0 .797.311h15.75c.313 0 .578-.104.797-.312a.99.99 0 0 0 .328-.751V7.666c0-.295-.078-.62-.234-.974zM4.983 3.77c0-.096.037-.18.11-.25s.162-.104.264-.104h5.847c.102 0 .19.035.264.104s.1.154.1.25v3.542c0 .096-.037.18-.1.25s-.162.104-.264.104H5.358c-.102 0-.19-.035-.264-.104s-.11-.153-.11-.25V3.77zm8.517 13.81h-9v-4.25h9v4.25zm3 0H15v-4.604c0-.296-.11-.546-.328-.753s-.484-.3-.797-.3h-9.75c-.313 0-.577.103-.797.3S3 12.683 3 12.98v4.604H1.5V3.417h2.04V8.02c0 .295.11.546.328.753a1.12 1.12 0 0 0 .797.31h7.29c.313 0 .58-.104.798-.3a1 1 0 0 0 .328-.753V3.417c.117 0 .27.036.457.1a1.27 1.27 0 0 1 .398.222l2.214 3.1c.08.074.157.2.234.382s.118.322.118.425v9.916z"/></svg>