<svg xmlns="http://www.w3.org/2000/svg" width="101" height="37" viewBox="0 0 100.37 36.933" fill="#484848"><path d="M25.194 6.626c-.17.797-1.16.386-1.088-.335.085-.835.066-1.565-.407-2.304-1.043-1.626-3.2-2.243-4.98-2.562C14.54.682 9.79 1.12 5.89 2.825c-1.773.774-3.66 2-4.4 3.883-.82 2.115.235 3.984 2.172 4.93 2.854 1.394 6.265 1.435 9.38 1.698 2.396.208 5.74.14 7.682 1.78 2.258 1.906.394 5.025-1.646 6.13-2.505 1.358-5.607 1.487-8.387 1.252a19.15 19.15 0 0 1-3.79-.71c-.588-.173-2.426-.565-2.66-1.27-.453-1.358 1.578-.277 1.938-.14 1.232.475 2.548.77 3.855.94 2.665.347 5.8.35 8.27-.872 2.423-1.202 3.25-4.314.165-5.247-2.106-.637-4.4-.67-6.57-.855l-1.228-.104c-3.207-.26-8.33-.64-10.088-3.858-2.168-3.958 2.08-7.432 5.32-8.732C9.74.113 14.2-.338 18.275.246c3.255.467 7.827 2.23 6.92 6.38-.03.137.07-.313 0 0zm6.123 11.294c0 .7-.097 1.408-.37 2.056-.28.662-.998 1.257-1.24 1.694 2.13 0 3.477-1.943 4.4-3.62.14-.254.25-.654.5-.818a.55.55 0 0 1 .842.469c0 .835-1.027 2.117-1.523 2.74-1.312 1.648-3.276 2.684-5.403 2.128-.796-.208-1.597-.67-2.067-1.363-.27-.395-.284-1.042.337-1.06.543 0 .663.764 1.183.9.923.24 1.682-.813 1.963-1.54.342-.88.457-2.06 0-2.923-.66-1.243-1.692-.254-2.23.523-.626.907-1.084 1.917-1.608 2.883-.496.916-.192 2.675-.214 3.725l-.42 7.5c-.2 1.668-.47 4.966-2.42 5.598-2.58.835-2.517-2.895-2.34-4.402.3-2.477 1.03-4.905 1.888-7.238l1.432-3.473.82-1.686.015-1.978c-.426.5-1.178.045-.952-.557.354-.8.6-1.653.774-2.52.093-.46-.014-1.522.34-1.875.374-.374.938-.058.938.426v4.452c.638-1.082 1.417-2.822 2.8-3.075 1.76-.32 2.55 1.605 2.55 3.033zm-6.504 4.702c-.546 1.225-5.02 13.184-2.3 13.184 1.677 0 1.837-4.57 1.942-5.645.248-2.505.303-5.024.358-7.54-.478 1.074-.02.88 0 0z"/><path d="M36.15 20.396c.967 1.336 2.837 1.103 3.947.104.518-.465.932-1.05 1.268-1.656.248-.448.633-1.995 1.412-1.655 1.07.467-.976 3.025-1.4 3.522-.97 1.162-2.312 1.914-3.86 1.695-3.118-.442-4.48-5.73-1.575-7.34 1.338-.74 2.893.225 2.893 1.73 0 1.654-1.295 2.92-2.696 3.602.205.283.38-.186 0 0zm-.44-.953c.747-.313 1.403-.88 1.764-1.613.262-.53.5-1.56-.2-1.875-1.76-.78-1.8 2.637-1.563 3.488.303-.127-.05-.175 0 0z"/><path d="M51.635 17.95c-.97 1.78-2.072 3.495-4 4.353-1.97.876-4.366.435-5.213-1.718-.73-1.854-.35-4.496 1.374-5.694s4.53.386 3.277 2.524c-.463.8-1.544.308-.996-.483s-.3-1.54-1.112-1.37c-1.958.408-2.126 3.56-1.333 4.95 1.092 1.912 3.583 1.056 4.904-.104.777-.683 1.45-1.593 1.905-2.522.16-.326.242-.74.696-.74.43.001.646.438.5.806-.06.108.04-.097 0 0z"/><path d="M53.026 10.508c0 1.725-2.666 1.725-2.666 0s2.666-1.722 2.666 0zm-2.373 8.584l.08-2.297c.04-.587-.076-1.822.368-2.266.412-.412.94.017.912.5l-.146 1.786c-.093 1.23-.402 2.922.298 4.026.976 1.537 2.605-.008 3.305-.93.367-.483 1.663-3.398 2.37-2.59.624.712-1.23 2.894-1.685 3.464-.82 1.03-2.02 2.08-3.44 1.74-1.52-.366-2.06-2.04-2.06-3.43zm1.553-8.584c0-.655-1.01-.663-1.01 0 0 .647 1.01.64 1.01 0z"/><path d="M68.26 17.92c-.724 1.448-1.55 3.02-2.97 3.898-1.53.946-3.15.185-3.68-1.466-.988 1.656-3.545 2.78-4.64.528-.86-1.768.063-4.162 1.58-5.257.784-.565 1.833-.892 2.797-.695.514.105 1.928.594 1.614 1.353-.343.825-1.245-.113-1.725-.244-.98-.268-2.047.244-2.657 1.006-.596.743-.876 1.732-.778 2.68.116 1.112 1.123 1.712 2.094 1.017.66-.473 1.07-1.296 1.257-2.068.087-.362.047-.87.473-1.025.347-.126.707.13.732.493.048.906.107 1.924.718 2.65.722.86 1.867.063 2.436-.55.636-.684 1.112-1.51 1.523-2.345.156-.317.273-.753.714-.753a.57.57 0 0 1 .512.776c-.04.078.03-.068 0 0z"/><path d="M75.585 17.95c-.855 1.788-2.383 4.74-4.783 4.482-2.585-.28-3.17-4.25-3.42-6.232-.343-2.725-.332-5.52-.045-8.248.148-1.412.37-2.834.772-4.2.3-1.052.862-2.804 2.11-3.07 2.726-.583 2.453 4.282 2.302 5.764-.302 2.967-1.36 5.854-2.635 8.53l-1.033 2.04c-.315.586.04 1.378.248 1.994.31.92.866 2.324 2.032 2.324 1.253 0 2.202-1.568 2.743-2.5.24-.416.492-1.338.92-1.6.5-.308.983.243.79.724-.107.225.04-.097 0 0zm-7.34-5.888l.16 3.457c1.03-1.99 1.874-4.096 2.448-6.262.54-2.037 1.024-4.5.423-6.582-.207-.715-.84-1.33-1.4-.5S69.1 4.09 68.9 5.06c-.47 2.29-.644 4.665-.644 7z"/><path d="M76.977 10.508c0 1.725-2.666 1.725-2.666 0s2.666-1.722 2.666 0zm-2.373 8.584l.08-2.297c.04-.587-.076-1.822.368-2.266.412-.412.94.017.912.5l-.146 1.786c-.093 1.23-.402 2.922.298 4.026.976 1.537 2.605-.008 3.305-.93.367-.483 1.663-3.398 2.37-2.59.624.712-1.23 2.894-1.685 3.464-.82 1.03-2.02 2.08-3.44 1.74-1.52-.366-2.06-2.04-2.06-3.43zm1.552-8.584c0-.655-1.01-.663-1.01 0 .001.647 1.01.64 1.01 0z"/><path d="M82.514 16.587c-.177.473-.476 1.67-1.128 1.67-.916 0-.36-.97-.18-1.362.293-.64.682-1.492.503-2.187-.15-.59-.23-1.827.674-1.827.733 0 .786.958.688 1.48-.167.89.313 1.59.72 2.38.788 1.526 1.822 3.678-.032 4.914 1.148.23 2.36-.56 3.098-1.355.46-.497.842-1.054 1.174-1.643.21-.374.44-1.277.838-1.476.442-.22.808.36.646.74-.237.58-.524 1.145-.86 1.675-.73 1.153-1.703 2.2-2.978 2.742-1.15.49-2.5.502-3.67.028a3.03 3.03 0 0 1-1.37-1.135c-.298-.447.22-.984.685-.795.533.217.77.693 1.456.524.53-.13.84-.64.92-1.148.18-1.13-.777-2.24-1.183-3.224-.06.156.117.283 0 0z"/><path d="M100.37 7.344c0 .925-3.34.513-3.873.513h-4.1v.16c0 1.878-.394 3.757-.9 5.555-.29 1.006-.62 2.007-1.038 2.967-.153.35-.318.698-.514 1.027-.302.508-.15.768.078 1.325.328.805.843 1.773 1.69 2.125.952.395 1.74-.378 2.295-1.06a9.65 9.65 0 0 0 1.458-2.462c.304-.73 1.3-.198.982.508-.666 1.484-1.544 3.11-3.004 3.945-1.688.964-3.366-.49-4.125-1.923-.947-1.785-1.22-3.906-1.283-5.9-.065-2.08.02-4.225.428-6.27h-5.26c-.837 0-.61-1.025.14-1.025h5.367c.24-.86.662-2 1.587-2.335.872-.316 1.528.307 1.795 1.09.14.41-.02 1.247.482 1.247h7.254c.3-.002.56.2.56.51zM89.34 16.47c1.2-2.64 1.948-5.708 1.948-8.613h-1.73c-.603 2.673-.758 5.918-.22 8.613.293-.645-.078-.39 0 0zm1.362-10.957c-.468 0-.774 1.005-.88 1.318h1.406c-.03-.26-.118-1.318-.527-1.318z"/></svg>