<svg xmlns="http://www.w3.org/2000/svg" width="16" height="19" viewBox="412.94 288.14 16 19"><path fill="#343e5c" d="M420.18 306.45v-8.72a1.44 1.44 0 0 1-.6-1.18c0-.78.6-1.4 1.35-1.4s1.35.63 1.35 1.4c0 .57-.33 1.06-.8 1.28v8.6c0 .38-.3.7-.66.7-.37.01-.65-.3-.65-.68zm4.02-7.1a.61.61 0 0 0 .34.1.63.63 0 0 0 .56-.33 5.12 5.12 0 0 0 .69-2.82c-.1-2.77-2.36-4.94-5.02-4.83-1.27.06-2.46.63-3.33 1.63-.88.98-1.33 2.28-1.27 3.62.03.8.23 1.55.6 2.23.18.33.58.46.9.26.32-.18.43-.6.25-.94-.26-.5-.4-1.04-.44-1.63-.03-.97.3-1.9.92-2.63.63-.72 1.5-1.12 2.44-1.17 1.93-.08 3.57 1.5 3.65 3.52.03.72-.14 1.43-.5 2.05a.7.7 0 0 0 .22.94zm1.93 2.65c.27.24.7.2.93-.08 1.22-1.5 1.9-3.42 1.9-5.4 0-4.62-3.58-8.36-8-8.36s-8 3.75-8 8.36c0 2.1.74 4.1 2.1 5.63.13.15.3.23.48.23a.64.64 0 0 0 .44-.18.71.71 0 0 0 .04-.97c-1.12-1.28-1.74-2.95-1.74-4.7 0-3.85 3-7 6.7-7 3.68 0 6.68 3.14 6.68 7 0 1.65-.56 3.25-1.58 4.5-.24.3-.2.72.08.98z"/></svg>