<svg xmlns="http://www.w3.org/2000/svg" width="22" height="17" viewBox="409.945 289.14 22 17" fill="#579dab"><path d="M431.213 291.788c-.44-.452-1.046-.718-1.736-.718h-3.47v-.04c0-.513-.2-1.006-.565-1.334a1.93 1.93 0 0 0-1.359-.555H417.8c-.543 0-1.024.206-1.38.555s-.564.82-.564 1.334v.04h-3.45a2.37 2.37 0 0 0-1.735.718 2.42 2.42 0 0 0-.732 1.705v10.225a2.3 2.3 0 0 0 .732 1.704c.44.432 1.066.72 1.735.72h17.064c.7 0 1.297-.267 1.736-.72.438-.432.73-1.047.73-1.704v-10.225c0-.678-.272-1.273-.732-1.705zm-.355 11.93h-.02c0 .37-.146.698-.397.945a1.36 1.36 0 0 1-.962.389h-17.064a1.36 1.36 0 0 1-.962-.389 1.31 1.31 0 0 1-.397-.945v-10.225c0-.37.146-.698.397-.945a1.36 1.36 0 0 1 .962-.4h4.036c.314 0 .565-.246.565-.554V291c0-.226.083-.432.23-.575s.355-.226.585-.226h6.252a.83.83 0 0 1 .586.226.8.8 0 0 1 .23.575v.595c0 .308.25.554.564.554h4.036c.376 0 .7.144.962.4s.397.575.397.945v10.225zm-9.913-10.164a5.21 5.21 0 0 0-3.64 1.478c-.94.924-1.505 2.176-1.505 3.573a5.01 5.01 0 0 0 1.505 3.572 5.15 5.15 0 0 0 3.639 1.479c1.422 0 2.72-.574 3.64-1.48a4.97 4.97 0 0 0 1.506-3.572c0-1.395-.585-2.67-1.506-3.573s-2.217-1.478-3.64-1.478zm2.845 7.863c-.732.698-1.736 1.15-2.845 1.15s-2.112-.45-2.844-1.15c-.732-.718-1.17-1.703-1.17-2.792s.46-2.074 1.17-2.792a4.03 4.03 0 0 1 2.844-1.15 4.13 4.13 0 0 1 2.845 1.15 3.89 3.89 0 0 1 1.171 2.792c.02 1.1-.44 2.075-1.17 2.792z"/><ellipse cx="428.39" cy="294.54" rx="1.024" ry="1.006"/></svg>