<svg xmlns="http://www.w3.org/2000/svg" width="81" height="55" viewBox="28.63 209.15 81 54.31" fill="#50696e"><path d="M40.87 263.45c-6.75 0-12.24-5.5-12.24-12.24v-10.76c0-.78.6-1.4 1.4-1.4a1.38 1.38 0 0 1 1.4 1.4v10.76a9.46 9.46 0 0 0 9.44 9.44H97.4a9.46 9.46 0 0 0 9.44-9.44v-10.75c0-.78.6-1.4 1.4-1.4.77 0 1.4.63 1.4 1.4v10.75c0 6.75-5.5 12.24-12.24 12.24H40.87zm28.26-15.53a1.37 1.37 0 0 1-.98-.42l-12.6-12.57a1.38 1.38 0 0 1-.4-1c0-.38.15-.72.4-1a1.38 1.38 0 0 1 1-.4c.38 0 .72.15 1 .4l10.2 10.2v-32.6c0-.78.6-1.4 1.4-1.4a1.38 1.38 0 0 1 1.4 1.4v32.6l10.18-10.2a1.38 1.38 0 0 1 1-.4c.38 0 .72.15 1 .4.55.56.55 1.42 0 1.98L70.1 247.5c-.26.27-.6.42-.98.42z"/></svg>