<svg xmlns="http://www.w3.org/2000/svg" width="1530.71" height="1530.54" viewBox="0 446.57 1530.71 1530.54"><path fill="#030104" d="M765.38 446.57C342.62 446.57 0 789.07 0 1211.84c0 422.65 342.62 765.27 765.38 765.27 422.48 0 765.33-342.62 765.33-765.27.06-422.77-342.84-765.27-765.33-765.27zm505.05 865.58l-343.2 343.14c-44.6 44.7-114.54 46.82-156.34 5.08-41.7-41.75-39.53-111.68 5.08-156.24l164.17-164.28h-607.7c-59.24 0-107.04-47.96-107.14-106.98 0-59.08 47.9-106.93 107.14-106.93h610.84L778.24 961.02c-43.85-43.96-45.74-113.57-3.78-155.26 41.75-41.7 111.14-40.02 155.05 3.94l338.66 338.5c1.46 1.46 2.54 3.35 3.78 4.75 1.24 1.08 2.54 1.78 3.56 2.92 41.8 41.52 39.58 111.57-5.08 156.28z"/></svg>