<svg xmlns="http://www.w3.org/2000/svg" width="512" height="336"><path fill="#24B3C9" d="M127.847 148.05L405.55 24.415l58.564 131.544-277.704 123.636z"/><ellipse transform="rotate(-23.999 296.03 152.012)" fill="#0399AF" cx="296" cy="152" rx="48" ry="56"/><path fill="#24B3C9" d="M308.91 192.23l-4.05-9.1c-6 2.44-12.66 3.38-17.03 2.64l-1.4-9.95c4.62.53 10.75.16 16.47-2.39 5.91-2.63 8.65-7.33 6.64-11.84-1.88-4.22-6.37-5.48-14.44-4.92-11.44.82-19.82-.84-23.7-9.56-3.59-8.07-.72-16.77 8-22.67l-4.09-9.2 7.69-3.42 3.88 8.72c6-2.44 10.66-2.83 14.33-2.66l1.31 9.75c-2.71-.03-7.8-.35-14.18 2.5-6.57 2.92-7.41 7.34-5.99 10.54 1.71 3.84 6.05 4.5 15.44 4.13 12.26-.74 19.21 2.24 22.92 10.59 3.55 7.97 1.15 17.47-8.42 23.76l4.3 9.66-7.68 3.42z"/><path fill="#0399AF" d="M405.57 24.4C401 26.43 133.33 145.61 127.85 148.05c1.51 3.4 56.35 126.55 58.57 131.55 5.48-2.44 273.15-121.61 277.72-123.65-1.51-3.4-56.34-126.55-58.57-131.55zm32.01 91.56c-16.9 11.22-25.03 32.2-19.93 51.93l-191.24 85.14c-11.26-16.99-32.29-24.99-51.93-19.93l-20.07-45.07c16.9-11.22 25.03-32.2 19.93-51.93l191.24-85.14c11.26 16.99 32.29 24.99 51.93 19.93l20.07 45.07z"/><circle fill="#0399AF" cx="197.34" cy="195.93" r="8"/><circle fill="#0399AF" cx="393.75" cy="108.48" r="8"/><g><path fill="#24B3C9" d="M190.929 149.853l301.05-42.316 20.046 142.603-301.052 42.317z"/><ellipse transform="rotate(-8.001 351.409 199.975)" fill="#0399AF" cx="351.46" cy="200" rx="48" ry="56"/><path fill="#24B3C9" d="M352.78 242.23l-1.39-9.86c-6.44.69-13.1-.24-17.1-2.16l1.4-9.95c4.29 1.79 10.29 3.11 16.49 2.24 6.4-.9 10.33-4.66 9.65-9.55-.64-4.57-4.61-7.03-12.53-8.71-11.22-2.37-18.82-6.27-20.15-15.73-1.23-8.75 3.93-16.32 13.94-19.59l-1.4-9.97 8.34-1.17 1.33 9.46c6.44-.69 11.02.22 14.51 1.39l-1.43 9.73c-2.6-.77-7.4-2.48-14.32-1.51-7.12 1-9.14 5.02-8.66 8.48.59 4.17 4.57 5.99 13.7 8.23 11.99 2.67 17.85 7.45 19.12 16.5 1.21 8.64-3.71 17.11-14.64 20.52l1.47 10.47-8.33 1.18z"/><path fill="#0399AF" d="M491.96 107.55c-4.95.7-295.1 41.47-301.04 42.31.52 3.68 19.28 137.18 20.04 142.6 5.94-.83 296.09-41.61 301.04-42.31-.52-3.69-19.28-137.19-20.04-142.6zm5.53 96.84c-19.34 6.12-32.93 24.05-33.48 44.42l-207.3 29.13c-6.14-19.43-24.15-32.92-44.42-33.48l-6.87-48.86c19.34-6.12 32.93-24.05 33.48-44.42l207.3-29.13c6.14 19.43 24.15 32.92 44.42 33.48l6.87 48.86z"/><circle fill="#0399AF" cx="244.51" cy="215.03" r="8"/><circle fill="#0399AF" cx="457.42" cy="185.11" r="8"/></g><g><path fill="#24B3C9" d="M176 192h304v144H176z"/><ellipse fill="#0399AF" cx="328" cy="264" rx="48" ry="56"/><path fill="#24B3C9" d="M323.43 306v-9.96c-6.47-.21-12.94-2.06-16.64-4.51l2.77-9.66c4 2.37 9.75 4.52 16.02 4.52 6.47 0 10.88-3.18 10.88-8.11 0-4.62-3.59-7.6-11.19-10.37-10.78-3.9-17.76-8.83-17.76-18.38 0-8.84 6.16-15.61 16.53-17.46V222h8.42v9.55c6.47.21 10.89 1.75 14.17 3.39l-2.77 9.44c-2.47-1.13-6.98-3.49-13.97-3.49-7.19 0-9.75 3.7-9.75 7.19 0 4.21 3.7 6.57 12.42 10.06 11.5 4.32 16.64 9.86 16.64 19 0 8.73-6.06 16.43-17.35 18.28V306h-8.42z"/><path fill="#0399AF" d="M480 192H176v144h304V192zm-8 96.67c-20 3.37-35.96 19.23-39.33 39.33H223.33c-3.37-20.1-19.33-35.96-39.33-39.33v-49.33c20-3.37 35.96-19.23 39.33-39.33h209.34c3.37 20.1 19.33 35.96 39.33 39.33v49.33z"/><circle fill="#0399AF" cx="220" cy="264" r="8"/><circle fill="#0399AF" cx="435" cy="264" r="8"/></g><g><path fill="#0399AF" d="M348.44 144H320v176h16V160h32l-19.56-16zM296 98.18l16 13.09V66.06l-16 7.13z"/><path fill="#008096" d="M320.14 248.09c0 6.14 9.02 8.39 15.86 11.48v-18.03c-7.07-1.52-15.86-.66-15.86 6.55zM296 98.18l16 13.09v-8.69c-5.13-2.58-10.53-4.29-16-4.99v.59zM320 285.81c6.04 1.18 13.82.82 16-4.91v-5.28c-2.06-5.5-10.53-7.32-16-9.88v20.07zM296 81.94l16-7.12v-8.76c-5.25 2.34-10.59 4.72-16 7.12v8.76zM320 208.79v24.33c1.27-.44 2.61-.79 4.04-1.05V222h8.42v9.55c1.26.04 2.42.14 3.54.28v-23.04c-5.17-1.01-10.44-1.09-16 0zM330.02 192c-2.47-6.74-.73-14.46 5.98-19.46V160h5.84l-.15-1.04 8.34-1.17.31 2.21h17.65l-19.37-15.85c-10.82.22-20.76 4.55-28.63 12.04V200h16v-8h-5.97zM336 319.21V294.4c-1.29.43-2.67.78-4.15 1.02V306h-8.42v-9.96c-1.15-.04-2.3-.13-3.43-.26v23.43c5.17 1.01 10.44 1.09 16 0z"/></g><g><path fill="#E8EBF0" d="M176 0L0 144h32v192h288V144h32z"/><path fill="#606776" d="M16 320h320v16H16z"/><path fill="#D63123" d="M128 200h96v136h-96z"/><path fill="#F93B2A" d="M136 208h80v128h-80z"/><path fill="#E8EBF0" d="M248 16h48v84h-48z"/><path fill="#F93B2A" d="M240 0h64v16h-64z"/><path fill="#D63123" d="M288 0h16v16h-16z"/><path fill="#FF4F3E" d="M246 0h6v16h-6z"/><path fill="#D8DBE1" d="M284 16h12v84h-12z"/><circle fill="#606776" cx="176" cy="126" r="40"/><path fill="#474E5D" d="M140 130c0-22.09 17.91-40 40-40 10.03 0 19.19 3.7 26.21 9.79C198.87 91.35 188.06 86 176 86c-22.09 0-40 17.91-40 40 0 12.06 5.35 22.87 13.79 30.21-6.09-7.02-9.79-16.18-9.79-26.21z"/><path fill="#474E5D" d="M184 90h-8v36h-36v8h36v32c2.74 0 5.42-.28 8-.8V134h31.2c.52-2.58.8-5.26.8-8h-32V90z"/><path fill="#E8EBF0" d="M172 86h8v80h-8z"/><path fill="#E8EBF0" d="M136 122h80v8h-80z"/><path fill="#F93B2A" d="M176 20.67L326.73 144H352L176 0 0 144h25.27z"/><path fill="#D8DBE1" d="M184.89 27.95L176 20.67 25.27 144H32v9.04z"/></g></svg>