<svg xmlns="http://www.w3.org/2000/svg" width="386.55" height="298.1" viewBox="71 213.9 386.55 298.1"><path fill="#f87939" d="M343.12 385.98c-1.65.1-2.63-.3-3.9-1.5l-55.15-52.93-1.7-2.35-.1-.1c-1.42-1.34-2.02-3.2-2.07-4.03-.06-1.06.5-2.85 1.47-4l11.25-12.64c1-1.17 2.36-1.82 3.77-1.9s2.82.44 3.94 1.5l.9.8 34.52 32.57c1.52 1.38 3.35 2.1 5.24 2 1.87-.1 3.63-1 4.94-2.47L433.8 237.5l.82-.04.84-.94c1-1.15 2.33-1.8 3.77-1.9 1.4-.07 2.8.46 3.93 1.47l12.55 11.4c2.33 2.14 2.5 5.43.42 7.8L346.9 384.05c-1.22 1.34-2.16 1.84-3.78 1.93z"/><path d="M88.47 485.8v17.47c0 4.82 3.9 8.73 8.73 8.73h209.6c4.82 0 8.73-3.9 8.73-8.73V485.8H88.47zM246.5 316.94c13.43-14.25 19.12-33.62 15.6-53.15-5.07-28.26-30.26-49.9-60.12-49.9-30.2 0-55.13 22-60.12 49.9-3.5 19.53 2.2 38.9 15.62 53.15 9.1 9.65 12.45 22 13.68 30.66 2.57 18.2-2.95 31.96-9.87 42.13h81.42c-6.93-10.17-12.45-23.93-9.9-42.13 1.2-8.65 4.58-21 13.67-30.66zm77.77 151.4H79.73c-4.82 0-8.73-3.9-8.73-8.73v-8.73c0-24.08 19.6-43.67 43.67-43.67h174.67c24.08 0 43.67 19.6 43.67 43.67v8.73a8.75 8.75 0 0 1-8.74 8.73z" fill="#698186"/></svg>