<svg xmlns="http://www.w3.org/2000/svg" width="556.08" height="512"><path fill="#ececf1" d="M0,512V105l76.97-21.5L105,0h284v512"/><path fill="#e2e2e7" d="M193.58,512V0H389v512"/><path fill="#d3d3d8" d="M0,105h105V0L0,105z"/><path fill="#ff641a" d="M288.75 166C253.6 166 225 137.4 225 102.25s28.6-63.75 63.75-63.75 63.75 28.6 63.75 63.75S323.9 166 288.75 166z"/><circle fill="#ff7d43" cx="288.75" cy="102.25" r="38.25"/><path d="M60 217h269.27v30H60v-30zm0 90h271.56v30H60v-30z" fill="#596c76"/><path fill="#ff7d43" d="M531.67 472.4H336.42c-4.5 0-8.14 2.96-8.14 6.6v26.4c0 3.64 3.65 6.6 8.14 6.6h195.25c4.5 0 8.13-2.96 8.13-6.6V479c.01-3.65-3.63-6.6-8.13-6.6z"/><path fill="#ff641a" d="M539.8 479v26.4c0 3.64-3.64 6.6-8.13 6.6h-97.63v-39.6h97.63c4.5-.01 8.13 2.94 8.13 6.6z"/><path fill="#936118" d="M489.52 427.06c-4.7-6.7-31.67-24.1-26.76-59 1.14-8.06 4.27-19.57 12.74-28.56 12.5-13.28 17.8-31.32 14.55-49.5-4.72-26.33-28.2-46.48-56-46.48-28.13 0-51.35 20.48-56 46.48-3.26 18.2 2.04 36.24 14.55 49.5 8.47 9 11.6 20.5 12.74 28.56 4.92 34.9-22.05 52.27-26.75 59-3.78 5.4.1 12.8 6.66 12.8h97.63c6.58.01 10.43-7.42 6.66-12.8z"/><path fill="#7a5338" d="M482.86 439.87h-48.8V243.53c27.8 0 51.3 20.15 56 46.48 3.26 18.2-2.04 36.24-14.55 49.5-8.47 9-11.6 20.5-12.74 28.56-4.9 34.9 22.07 52.3 26.76 59 3.76 5.37-.1 12.8-6.67 12.8z"/><path fill="#bb7c14" d="M515.4 423.6H352.7c-22.43 0-40.68 18.25-40.68 40.68v16.27c0 4.5 3.64 8.13 8.14 8.13h227.8a8.14 8.14 0 0 0 8.14-8.13v-16.27c-.01-22.44-18.25-40.68-40.7-40.68z"/><path fill="#8e5d0d" d="M556.08 464.27v16.27c0 4.5-3.64 8.13-8.14 8.13h-113.9V423.6h81.36c22.44 0 40.68 18.24 40.68 40.67z"/><path fill="#596c76" d="M61.78,392h167v30h-167V392z"/></svg>