<svg xmlns="http://www.w3.org/2000/svg" width="25" height="23" fill="#9f9f9f"><path d="M21.16 9.1h-2.896l-2.967-2.92a.58.58 0 0 0-.413-.17H4.84C3.824 6 3 6.8 3 7.813v10.902c0 1.002.823 1.813 1.84 1.813h8.857A5 5 0 0 0 18.02 23c2.746 0 4.98-2.2 4.98-4.904v-7.193c0-1-.826-1.813-1.84-1.813zm-4.553 0H14.5l-1.97-1.946h2.1L16.606 9.1zm1.415 12.756c-2.1 0-3.807-1.682-3.807-3.75s1.708-3.748 3.807-3.748 3.808 1.684 3.808 3.748-1.7 3.75-3.808 3.75zm0-8.65c-2.745 0-4.98 2.2-4.98 4.9a4.8 4.8 0 0 0 .172 1.277H4.84c-.37 0-.67-.293-.67-.658v-10.9c0-.364.3-.66.67-.66h6.034l2.966 2.92a.59.59 0 0 0 .414.169h6.904c.368 0 .67.296.67.66v4.04a5 5 0 0 0-3.807-1.747zm-.73 6.534l-1.256-1.234a.57.57 0 0 1 0-.816c.23-.225.6-.225.83 0l.777.766 1.478-1.94a.59.59 0 0 1 .82-.115.57.57 0 0 1 .117.807l-1.883 2.473c-.198.26-.614.322-.882.058zm0 0"/></svg>