<svg xmlns="http://www.w3.org/2000/svg" width="25" height="23" fill="#9f9f9f"><path d="M3.56 23C2.15 23 1 21.83 1 20.4v-3.98c0-1.43 1.15-2.6 2.56-2.6H8.5c.56 0 1.03.43 1.1 1 .15 1.53 1.4 2.68 2.92 2.68s2.77-1.15 2.92-2.68c.06-.57.53-1 1.1-1h4.93c1.4 0 2.56 1.17 2.56 2.6v3.98c0 1.43-1.15 2.6-2.56 2.6H3.56zm0-7.8a1.21 1.21 0 0 0-1.2 1.2v3.98c0 .66.53 1.2 1.2 1.2h17.88a1.21 1.21 0 0 0 1.2-1.2V16.4c0-.66-.53-1.2-1.2-1.2h-4.7a4.41 4.41 0 0 1-1.41 2.6 4.26 4.26 0 0 1-5.68 0 4.27 4.27 0 0 1-1.4-2.6h-4.7zm8.94-2.48a.74.74 0 0 1-.5-.2l-3.73-3.8c-.13-.13-.2-.3-.2-.5a.68.68 0 0 1 .2-.49c.13-.13.3-.2.48-.2a.74.74 0 0 1 .5.2l2.56 2.6V.7a.68.68 0 0 1 .7-.7c.37 0 .68.3.7.7v9.64l2.56-2.6c.13-.13.3-.2.48-.2s.35.07.48.2.2.3.2.5a.68.68 0 0 1-.2.49L13 12.53a.64.64 0 0 1-.48.22z"/></svg>