<svg xmlns="http://www.w3.org/2000/svg" width="25" height="23"><path fill="#9f9f9f" d="M21.97 8.7h-8.42V1.97l2.1 2.15a.56.56 0 0 0 .4.17.56.56 0 0 0 .4-.17c.1-.1.17-.25.17-.4s-.06-.3-.17-.4L13.38.16a.55.55 0 0 0-.39-.16.56.56 0 0 0-.4.17L9.52 3.3a.56.56 0 0 0-.17.4c0 .15.06.3.17.4a.56.56 0 0 0 .4.17.56.56 0 0 0 .4-.17l2.1-2.15V8.7H4c-.3 0-.52.24-.52.53v12.23c.01.3.24.53.52.53h17.96c.3 0 .52-.24.52-.53V9.24c.01-.3-.23-.53-.5-.53zm-1.34 1.06L13 16.9 5.34 9.77h15.3zm-16.1.67l5.26 4.9-5.26 4.93v-9.83zm.82 10.5l5.2-4.9 2.1 1.95c.1.1.22.14.35.14s.25-.05.35-.14l2.1-1.95 5.2 4.9H5.34zm16.1-.68l-5.26-4.93 5.26-4.9v9.83z"/></svg>