<svg xmlns="http://www.w3.org/2000/svg" width="15" height="15" viewBox="407.44 284.14 15 15"><path fill="#adb4c6" d="M422.22 297.9l-3.2-3.2c.92-1.15 1.4-2.56 1.4-4.05a6.49 6.49 0 0 0-1.9-4.6 6.45 6.45 0 0 0-4.6-1.9 6.49 6.49 0 0 0-4.6 1.9 6.45 6.45 0 0 0-1.9 4.6 6.49 6.49 0 0 0 1.9 4.6 6.45 6.45 0 0 0 4.6 1.9c1.5 0 2.9-.5 4.05-1.4l3.2 3.2c.14.14.32.2.52.2a.76.76 0 0 0 .52-.21.73.73 0 0 0 0-1.04zm-8.28-2.22a5.04 5.04 0 0 1-5.03-5.03 5.04 5.04 0 0 1 5.03-5.03 5.04 5.04 0 0 1 5.03 5.03c0 1.37-.55 2.62-1.45 3.53l-.04.04c-.92.9-2.17 1.46-3.54 1.46z"/></svg>