<svg xmlns="http://www.w3.org/2000/svg" width="30" height="30"><path fill="#fff" d="M15 23.65c.64 0 1.15-.52 1.15-1.16v-6.35h6.06a1.15 1.15 0 0 0 1.15-1.15 1.16 1.16 0 0 0-1.15-1.16h-6.06V8.08c0-.64-.5-1.15-1.15-1.15s-1.16.5-1.16 1.15v5.77H7.8a1.16 1.16 0 0 0-1.16 1.16c0 .64.52 1.15 1.16 1.15h6.06v6.35c-.01.63.5 1.14 1.15 1.14z"/><path fill="#364a4e" d="M15 0C6.73 0 0 6.73 0 15s6.73 15 15 15 15-6.73 15-15S23.27 0 15 0zm7.2 16.15h-6.06v6.35A1.16 1.16 0 0 1 15 23.66a1.17 1.17 0 0 1-1.16-1.16v-6.35H7.8A1.16 1.16 0 0 1 6.63 15c0-.64.52-1.15 1.16-1.15h6.06V8.08c0-.64.52-1.15 1.16-1.15a1.15 1.15 0 0 1 1.15 1.15v5.77h6.06A1.15 1.15 0 0 1 23.37 15a1.16 1.16 0 0 1-1.16 1.15zm0 0" opacity=".7"/></svg>