<svg xmlns="http://www.w3.org/2000/svg" width="14" height="15" fill="#84c2ad"><path d="M13.86 7.15L7.1.15A.48.48 0 0 0 6.77 0c-.13 0-.24.05-.33.15L5.7.9c-.1.1-.14.22-.14.35s.05.25.14.35l5.7 5.9-5.7 5.9a.46.46 0 0 0-.14.35c0 .13.05.25.14.35l.73.75c.1.08.2.13.33.13s.24-.05.33-.15l6.75-7c.1-.1.15-.22.15-.35s-.05-.25-.14-.35zm-5.43.35c0-.13-.05-.25-.14-.35l-6.75-7C1.44.05 1.33 0 1.2 0 1.08 0 .97.05.87.15L.15.9c-.1.1-.15.22-.15.35s.05.25.15.35l5.7 5.9-5.7 5.9c-.1.1-.15.2-.15.33s.05.25.15.35l.72.75c.1.1.2.15.33.15s.24-.05.33-.15l6.75-7a.45.45 0 0 0 .15-.35zm0 0"/></svg>