<svg xmlns="http://www.w3.org/2000/svg" width="14" height="14" viewBox="230.54 230.54 14 14"><path fill="#fd7f56" d="M244 235.06a1.9 1.9 0 0 0-1.33-.52H237v-.25c0-.48-.2-.9-.56-1.23a1.9 1.9 0 0 0-1.33-.52h-2.7c-.52 0-.96.17-1.33.52s-.56.75-.56 1.23v7.5c0 .48.2.9.56 1.23a1.9 1.9 0 0 0 1.33.52h10.23c.52 0 .96-.17 1.33-.52.37-.34.56-.75.56-1.23v-5.5c0-.48-.18-.9-.55-1.23zm-.53 6.73a.68.68 0 0 1-.24.53.8.8 0 0 1-.57.22h-10.23c-.22 0-.42-.07-.57-.22s-.24-.32-.24-.53v-7.5a.68.68 0 0 1 .24-.53.8.8 0 0 1 .57-.22h2.7c.22 0 .42.07.57.22.16.15.24.32.24.53v.5a.68.68 0 0 0 .24.53.8.8 0 0 0 .57.22h5.92c.22 0 .42.07.57.22.16.15.24.32.24.53v5.5z"/></svg>