<svg xmlns="http://www.w3.org/2000/svg" width="170" height="140"><path opacity=".95" fill="#FFF" d="M0 0v104L126 0H0z"/><path fill="#DE4747" d="M0 140L170 0h-44.368L0 103.462V140z"/><path fill="#FFF" d="M47.936 84.523l3.896-3.645-5.354.656-2.192-4.773-.966 5.133-5.5.752 4.846 2.673-.97 5.133 3.784-3.666 4.752 2.533-2.306-4.796h.01zm11.837-10.526l-.813 1.283 3.164 3.883-1.035.844-2.908-3.569-1.223 1.848-1.1-.914 1.453-2.016-2.178-2.674-.756.614c.452.793.822 1.556 1.088 2.2a6.812 6.812 0 00-1.165.234c-.428-1.238-1.464-2.9-2.524-4.405l1.014-.536.896 1.359.604-.491-1.885-2.314 1.035-.844 1.886 2.313 1-.814.843 1.036-1 .813 1.94 2.383.78-1.158.894.934-.01-.009zm3.571-6.255l1.014 1.244 1.255-1.023.815 1-1.255 1.022 2.255 2.768c.474.58.624.979.36 1.487-.25.475-.86 1-1.72 1.699a5.124 5.124 0 00-1.195-.825l1.44-1.154c.186-.149.207-.244.074-.406L64.15 70.82l-3.965 3.229-.815-1 3.966-3.229-1.013-1.244-4.175 3.4-.814-1 2.803-2.283-1.042-1.28-2.14 1.744-.795-.977 2.14-1.743-.947-1.163 1.023-.834.947 1.163 2.198-1.8.796.978-2.198 1.8 1.043 1.28 2.7-2.207.815 1-1.34 1.1.007-.012zm-1.706 5.435c.96.086 2.18.351 2.866.644l-.383 1.24c-.66-.313-1.898-.621-2.867-.74l.384-1.144zM72.5 62.13l.348.45c2.184 2.942 2.948 4.12 2.928 4.735.01.438-.167.696-.488 1.016-.264.293-.8.738-1.388 1.17-.26-.27-.687-.58-1.08-.707.448-.295.879-.613 1.292-.955.186-.15.293-.258.28-.44.028-.37-.53-1.3-2.14-3.46l-1.628 1.326c1.067 1.857 1.793 3.84 1.405 5.86a3.517 3.517 0 00-1.36-.15c.535-2.523-1.047-5-2.6-7.1l-1.2.985L63.712 61l4.64-3.78 3.146 3.86-2.373 1.933.816 1.192 2.55-2.075h.009zm-5.419.97l2.604-2.122-1.592-1.954-2.605 2.12L67.07 63.1h.011zm9.294-.3l-1.046.854-5.23-6.42 1.046-.853 5.23 6.419zm-3.362-9.874l7.4 9.07c.55.675.643 1.12.397 1.65-.298.514-.968 1.117-2.035 1.967a6.981 6.981 0 00-1.284-.792l1.775-1.406c.212-.192.235-.328.065-.537l-7.4-9.07 1.082-.882zm8.508 1.054c.543.098 2.733.695 3.235.886l-.014 1.384c-.477-.25-1.354-.618-2.142-.944l3.494 4.292-.964.787-3.165-3.884c.46 1.25.795 2.544.878 3.522-.36-.25-1.002-.518-1.423-.68-.042-1.262-.564-3.14-1.172-4.598l-1.396 1.138-.825-1.012 1.57-1.28-3.116-3.826.966-.788 3.117 3.826 1.208-.983.824 1-1.208.983.133.164v.013zm-3.154-.025c-.605-.647-1.72-1.52-2.674-2.095l.587-.75c.98.567 1.891 1.248 2.714 2.026l-.627.82v-.001zm1.375-5.433l1.229 3.333-.825.343c-.313-.886-.94-2.25-1.435-3.164l1.031-.512zm8.801-2.45l.652.802-6.534 5.326-.653-.802 2.673-2.18-.54-.663-2.058 1.677-.626-.768 2.06-1.676-.484-.592-2.338 1.904-.644-.8 2.338-1.905-.72-.885 1.023-.833.72.884 2.535-2.064.643.8-2.534 2.066.484.592 2.3-1.866.623.767-2.3 1.866.541.663 2.839-2.313zm4.092 6.495c.4.477.5.83.279 1.223-.215.426-.73.864-1.438 1.44a5.434 5.434 0 00-1.023-.637l1.1-.868c.152-.124.16-.207.057-.334l-.637-.78-3.115 2.54 1.48 1.813-1 .814-4.518-5.547 5.127-4.178 3.676 4.513.012.001zm-7.151-.346l.596.733 3.117-2.538-.597-.734-3.116 2.539zm4.907-.34l-.598-.73-3.115 2.54.596.73 3.117-2.54zm6.127-4.45c.385-.194.895-.187 1.67-.353 1.076-.22 2.119-.934 3.365-1.948l3.848-3.445c.1.372.326.992.533 1.27l-3.648 3.146c-1.336 1.1-2.426 1.745-3.596 2-.707.15-1.381.136-1.658.362-.418.342-.52 1.473-.564 2.63l-1.459-.298c.139-.87.35-1.68.646-2.3L93.03 45.26l-1.36 1.1-.814-1 2.396-1.952 3.266 4.012v.011zm-5.131-5.066c-.779-.294-2.203-.45-3.33-.48l.355-1.273c1.102-.026 2.516.118 3.328.361l-.353 1.392zm8.281 1.283c-.117 1.042-.551 2.342-1.031 3.294a7.804 7.804 0 00-1.299-.037c.525-.896 1-1.955 1.158-2.78l-2.385 1.94-.672-.827 1.932-1.572-.748-.918-1.5 1.212-.674-.826 1.488-1.213-.586-.72.979-.796.586.72 1.629-1.326-.588-.72.988-.806.588.72 1.545-1.26.676.826-1.549 1.26.75.92 1.984-1.62.676.826-2.467 2.008c1.115-.27 2.432-.5 3.273-.52l-.533 1.225c-.799.004-2.082.15-3.205.388l.221-.895-2.326 1.895 1.086-.398h.004zm-4.902-2.217c-.908.74-1.33.717-2.023-.132l-2.008-2.465 3.127-2.55 1.688 2.07-2.27 1.848.324.396c.217.269.314.267.652-.01l1.162-.947c.244-.2.234-.327-.102-.777.268-.004.697-.185.98-.315.535.823.457 1.252-.182 1.772l-1.359 1.107.011.003zm-2.602-2.6l.539.663 1.385-1.128-.539-.663-1.385 1.128zm6.176 4.04l1.629-1.326-.75-.92-1.627 1.327.748.919zm.146-4.473c-.92.75-1.354.737-2.047-.112l-2-2.466 3.189-2.598 1.688 2.07L97 37.177l.313.383c.23.28.324.278.672-.006l1.221-.994c.256-.2.25-.338-.094-.832.266-.004.699-.162.98-.315.553.867.486 1.286-.178 1.826l-1.418 1.157-.01.002zm-2.613-2.6l.539.663 1.42-1.156-.539-.663-1.418 1.156h-.002z"/><path fill="#F3755D" d="M37.3 11.62l-16 6.8V34.3c0 4.47.729 10.2 16 17.83 15.27-7.64 16-13.37 16-17.83V18.43l-16-6.8v-.01z"/><path fill="#CC4746" d="M53.28 18.43V34.3c0 4.47-.72 10.2-16 17.83v-40.5l16 6.8z"/><path fill="#FFF" d="M35.42 39.5l-7.92-7.75 3.08-3.12 4.84 4.73 8.57-8.4 3.1 3.12L35.42 39.5z"/><path fill="#DEDEDD" d="M47.08 28.08l-9.8 9.6v-6.14l6.7-6.57 3.1 3.101v.009z"/><path fill="#F89F84" d="M37.3 54.2l-.84-.42c-7.1-3.561-11.83-7.061-14.4-10.7-2.3-3.24-2.6-6.14-2.6-8.8V17.2L37.3 9.6l17.86 7.6v17.1c0 2.66-.32 5.561-2.6 8.8-2.58 3.64-7.3 7.13-14.4 10.7l-.84.4h-.02zM23.17 19.66V34.3c0 3.4 0 8.48 14.12 15.74C51.4 42.78 51.4 37.7 51.4 34.3V19.66l-14.1-6.02-14.13 6.02z"/><path fill="#D1806D" d="M37.3 9.6v4.05l14.12 6.02V34.3c0 3.4 0 8.48-14.12 15.74v4.17l.84-.42c7.1-3.56 11.83-7.06 14.4-10.7 2.3-3.24 2.6-6.14 2.6-8.8V17.2L37.3 9.6z"/></svg>