<svg xmlns="http://www.w3.org/2000/svg" width="170" height="140"><path opacity=".95" fill="#FFF" d="M0 0v104L126 0H0z"/><path fill="#DE4747" d="M0 140L170 0h-44.368L0 103.462V140z"/><path fill="#FFF" d="M51.306 85.88l-6.594-7.86 5.025-4.166.8.94-3.9 3.233 2.06 2.436 3.64-3.025.8.94-3.67 3.05 2.956 3.5-1.117.952zm6.634-5.468l-6.594-7.862 5.135-4.258.8.93-4.003 3.324 2.07 2.448 3.753-3.118.8.93-3.78 3.141 2.18 2.579 3.975-3.303.813.945-5.149 4.244zm12.8-10.556l-2.5-1.244-3.979 3.296.785 2.62-1.173.979-3.074-10.77.972-.815 10.147 4.955-1.188.98.01-.001zm-6.83.808l3.194-2.667-4.7-2.364 1.506 5.031zm10.297-3.666l-5.8-6.912-2.653 2.2-.818-.95 6.514-5.394.818.95-2.68 2.234 5.788 6.898-1.169.974zm8.463-6.83c-1.052.867-2.092 1.257-3.1 1.162-1.008-.095-1.95-.676-2.83-1.728l-3.958-4.735 1.125-.95 4.048 4.814c.603.722 1.24 1.128 1.895 1.208.655.08 1.33-.164 2.013-.726.675-.556 1.035-1.17 1.073-1.83s-.246-1.352-.842-2.066l-4.023-4.812 1.137-.96L83.2 54.28c.878 1.05 1.278 2.087 1.188 3.082-.09.995-.668 1.937-1.718 2.803v.003zm10.393-8.72L89.87 49.65c-.332-.2-.646-.258-.931-.202-.283.056-.603.229-.944.514l-1.733 1.43 2.807 3.33-1.135.96-6.595-7.859 3.258-2.7c.866-.714 1.7-1.076 2.485-1.076s1.484.364 2.085 1.08c.431.515.662 1.075.7 1.663.037.588-.152 1.17-.533 1.734.508-.325 1.123-.276 1.807.122l3.168 1.8-1.229 1.015-.013-.012h-.004zm-7.568-.997l1.964-1.643c.572-.472.9-.94 1.002-1.4s-.05-.9-.418-1.343c-.367-.443-.786-.66-1.238-.648-.451.012-.975.26-1.554.737l-1.976 1.63 2.22 2.658v.009zM96 49.02l-6.596-7.86 5.146-4.26.801.93-4.004 3.324 2.07 2.447 3.752-3.12.801.93-3.781 3.14 2.181 2.578 3.976-3.3.801.943L96 49.02zm6.9-5.7l-6.594-7.86 2.77-2.307c1.277-1.054 2.572-1.537 3.85-1.434 1.277.104 2.447.786 3.485 2.028 1.046 1.248 1.507 2.524 1.38 3.792s-.846 2.445-2.125 3.5l-2.768 2.28h.002zm.353-1.918l1.53-1.286c1.93-1.6 2.07-3.4.42-5.375-1.641-1.96-3.45-2.148-5.381-.557l-1.539 1.27 4.97 5.948zM39.3 91.005l3.528-3.3-4.848.593-1.984-4.319-.875 4.646-4.972.68 4.387 2.42-.876 4.646 3.426-3.32 4.302 2.295-2.088-4.341z"/><path fill="#F3755D" d="M37.3 11.62l-16 6.8V34.3c0 4.47.729 10.2 16 17.83 15.27-7.64 16-13.37 16-17.83V18.43l-16-6.8v-.01z"/><path fill="#CC4746" d="M53.28 18.43V34.3c0 4.47-.72 10.2-16 17.83v-40.5l16 6.8z"/><path fill="#FFF" d="M35.42 39.5l-7.92-7.75 3.08-3.12 4.84 4.73 8.57-8.4 3.1 3.12L35.42 39.5z"/><path fill="#DEDEDD" d="M47.08 28.08l-9.8 9.6v-6.14l6.7-6.57 3.1 3.101v.009z"/><path fill="#F89F84" d="M37.3 54.2l-.84-.42c-7.1-3.561-11.83-7.061-14.4-10.7-2.3-3.24-2.6-6.14-2.6-8.8V17.2L37.3 9.6l17.86 7.6v17.1c0 2.66-.32 5.561-2.6 8.8-2.58 3.64-7.3 7.13-14.4 10.7l-.84.4h-.02zM23.17 19.66V34.3c0 3.4 0 8.48 14.12 15.74C51.4 42.78 51.4 37.7 51.4 34.3V19.66l-14.1-6.02-14.13 6.02z"/><path fill="#D1806D" d="M37.3 9.6v4.05l14.12 6.02V34.3c0 3.4 0 8.48-14.12 15.74v4.17l.84-.42c7.1-3.56 11.83-7.06 14.4-10.7 2.3-3.24 2.6-6.14 2.6-8.8V17.2L37.3 9.6z"/></svg>