<svg xmlns="http://www.w3.org/2000/svg" width="170" height="140"><path opacity=".95" fill="#FFF" d="M0 0v104L126 0H0z"/><path fill="#DE4747" d="M0 140L170 0h-44.368L0 103.462V140z"/><path fill="#FFF" d="M47.936 84.523l3.896-3.645-5.354.656-2.191-4.773-.967 5.133-5.5.752 4.847 2.673-.97 5.133 3.783-3.666 4.752 2.533-2.305-4.796h.009zM59.697 74l-.809 1.284 3.178 3.872-1.029.847-2.922-3.56-1.215 1.85-1.116-.908 1.446-2.02-2.201-2.666-.752.62c.455.8.826 1.552 1.096 2.185a6.955 6.955 0 00-1.163.238c-.433-1.237-1.476-2.885-2.54-4.396l1.012-.54.9 1.356.604-.494-1.885-2.318 1.029-.847 1.895 2.308.998-.818.846 1.031-.996.817 1.949 2.378.775-1.16.898.931.002.01zm3.548-6.27l1.021 1.239 1.252-1.026.817.996-1.252 1.026 2.267 2.761c.475.579.627.979.365 1.485-.25.478-.857 1.013-1.715 1.717a5.443 5.443 0 00-1.197-.819l1.434-1.16c.187-.152.207-.246.072-.408l-2.246-2.735-3.953 3.245-.818-.998 3.954-3.244-1.019-1.24-4.162 3.417-.818-.998 2.793-2.293L59 67.4l-2.133 1.752-.801-.976 2.133-1.75-.951-1.159 1.02-.839.953 1.16 2.191-1.8.8.976-2.2 1.8 1.047 1.275 2.703-2.218.817.997-1.335 1.094.001.018zm-1.686 5.44c.961.084 2.184.343 2.869.633l-.379 1.243c-.662-.3-1.9-.614-2.869-.729l.379-1.147zm10.99-11.206l.338.46c2.133 2.801 2.893 3.973 2.885 4.578.002.427-.131.7-.418 1.004-.25.264-.736.662-1.256 1.07-.279-.294-.736-.637-1.148-.784l1.093-.8c.173-.143.259-.25.256-.443 0-.33-.512-1.199-2.03-3.204l-1.392 1.141c1.272 2.021 1.903 3.95.987 6.215a3.541 3.541 0 00-1.315-.278c.813-1.87.339-3.439-.692-5.1l-1.772 1.456-.8-.986 1.878-1.54-.667-.906 1.008-.828.667.906 2.388-1.96h-.01zm-1.186-.948l-4.66 3.826-3.17-3.859 4.66-3.825 3.17 3.86v-.002zm-3.4-2.052l-2.645 2.17 1.601 1.937 2.644-2.17-1.6-1.937zm8.66 3.484l-1.042.856-5.263-6.399 1.043-.855 5.262 6.4v-.002zm-3.777-9.567l7.439 9.066c.533.649.65 1.098.4 1.584-.254.52-.861 1.076-1.881 1.895a6.118 6.118 0 00-1.25-.815l1.606-1.28c.188-.173.22-.298.05-.506l-7.441-9.066 1.067-.876.01-.002zm8.533 1.02c1.092.242 2.173.534 3.239.872l-.011 1.386c-.476-.25-1.355-.613-2.146-.938l3.513 4.278-.963.8-3.179-3.872c.463 1.25.806 2.54.899 3.519-.359-.248-1.004-.513-1.426-.673-.047-1.264-.574-3.139-1.188-4.594l-1.399 1.144-.828-1.009 1.564-1.285-3.131-3.814.963-.8 3.13 3.813 1.207-.987.827 1.007-1.205 1 .134.163v-.01zm-3.152-.012c-.6-.646-1.728-1.513-2.684-2.086l.585-.753a14.51 14.51 0 012.724 2.017l-.625.822zm1.354-5.44l1.239 3.33-.821.345c-.317-.885-.95-2.246-1.448-3.157l1.03-.518zm8.793-2.482l.655.801-6.516 5.35-.658-.801 2.668-2.199-.543-.66-2.053 1.686-.627-.766 2.053-1.686-.485-.6-2.33 1.912-.646-.787 2.33-1.914-.725-.88 1.02-.837.725.88L85.76 43.4l.646.787-2.527 2.075.484.593 2.285-1.875.629.766-2.283 1.874.542.66 2.829-2.323.009.01zm4.114 6.48c.4.474.505.826.283 1.22-.211.428-.725.866-1.43 1.447a5.372 5.372 0 00-1.025-.634l1.109-.871c.151-.124.159-.208.055-.336l-.637-.776-3.107 2.55 1.484 1.8-.998.816-4.539-5.53 5.111-4.197 3.693 4.498v.013zm-7.151-.322l.601.73 3.105-2.551-.6-.729-3.106 2.55zm4.905-.357l-.6-.729-3.107 2.55.6.73 3.105-2.551h.002zm6.102-4.495c.34-.2.848-.172 1.639-.297 1.07-.16 2.1-.881 3.295-1.871 1.24-1.018 2.916-2.547 3.927-3.6.123.387.396 1.053.625 1.35l-3.733 3.278c-1.346 1.104-2.398 1.735-3.516 1.936-.68.093-1.307.04-1.57.26-.416.344-.529 1.483-.576 2.727l-1.48-.359c.117-.853.303-1.664.58-2.3l-2.676-3.259-1.356 1.113-.817-.996 2.399-1.96 3.272 3.987-.013-.009zm-5.143-5.035c-.782-.301-2.205-.44-3.332-.467l.35-1.275c1.1-.03 2.516.107 3.334.35l-.352 1.392zm6.055-1.535c1.207 1.92 1.717 3.674.42 6.04a3.832 3.832 0 00-1.363-.337c1.172-1.95.773-3.313-.156-4.801l-1.983 1.629-.771-.94 3.201-2.617-1.267-1.54-1.565 1.283c.119.643.197 1.258.187 1.8a8.823 8.823 0 00-1.368.152c.085-1.176-.246-2.57-.82-3.8l1.201-.617c.184.391.342.794.469 1.207l1.146-.942-1.2-1.472 1.078-.886 1.2 1.473 2.526-2.074.752.916-2.527 2.074 1.266 1.543 3.004-2.465.77.938-2.135 1.75 1.961 2.399c.248.302.312.3.555.106l.73-.6c.229-.199.144-.4-.754-1.556.36.014.944-.174 1.303-.353 1.111 1.592 1.15 2.181.373 2.818l-.998.82c-.963.8-1.43.646-2.256-.36l-1.969-2.399-.998.819-.012-.008z"/><path fill="#F3755D" d="M37.3 11.62l-16 6.8V34.3c0 4.47.729 10.2 16 17.83 15.27-7.64 16-13.37 16-17.83V18.43l-16-6.8v-.01z"/><path fill="#CC4746" d="M53.28 18.43V34.3c0 4.47-.72 10.2-16 17.83v-40.5l16 6.8z"/><path fill="#FFF" d="M35.42 39.5l-7.92-7.75 3.08-3.12 4.84 4.73 8.57-8.4 3.1 3.12L35.42 39.5z"/><path fill="#DEDEDD" d="M47.08 28.08l-9.8 9.6v-6.14l6.7-6.57 3.1 3.101v.009z"/><path fill="#F89F84" d="M37.3 54.2l-.84-.42c-7.1-3.561-11.83-7.061-14.4-10.7-2.3-3.24-2.6-6.14-2.6-8.8V17.2L37.3 9.6l17.86 7.6v17.1c0 2.66-.32 5.561-2.6 8.8-2.58 3.64-7.3 7.13-14.4 10.7l-.84.4h-.02zM23.17 19.66V34.3c0 3.4 0 8.48 14.12 15.74C51.4 42.78 51.4 37.7 51.4 34.3V19.66l-14.1-6.02-14.13 6.02z"/><path fill="#D1806D" d="M37.3 9.6v4.05l14.12 6.02V34.3c0 3.4 0 8.48-14.12 15.74v4.17l.84-.42c7.1-3.56 11.83-7.06 14.4-10.7 2.3-3.24 2.6-6.14 2.6-8.8V17.2L37.3 9.6z"/></svg>