<svg xmlns="http://www.w3.org/2000/svg" width="170" height="140"><path fill="#de4747" d="M0,140L170,0h-44.368L0,103.462V140z"/><path d="M47.935 84.524l3.896-3.645-5.354.656-2.192-4.773-.966 5.133-5.5.752 4.846 2.672-.97 5.133 3.784-3.666 4.752 2.533-2.306-4.795zM59.697 74l-.808 1.284 3.178 3.872-1.03.847-2.922-3.56-1.215 1.85-1.116-.908 1.446-2.02-2.2-2.666-.753.62c.455.8.827 1.552 1.096 2.185a6.93 6.93 0 0 0-1.163.238c-.433-1.237-1.476-2.885-2.54-4.396l1.012-.54.9 1.356.603-.494L52.3 69.35l1.03-.847 1.895 2.307.997-.818.847 1.032-.997.817 1.95 2.378.775-1.16.898.93zm3.548-6.27l1.02 1.24 1.252-1.027.818.996-1.252 1.027 2.266 2.76c.476.58.627.98.366 1.486-.25.477-.857 1.013-1.715 1.717-.3-.284-.812-.635-1.198-.82l1.435-1.16c.186-.152.206-.246.072-.408l-2.246-2.735-3.954 3.245-.818-.998 3.954-3.245-1.018-1.24-4.163 3.417-.818-.998 2.793-2.293L59 67.4l-2.133 1.752-.8-.975 2.133-1.75-.952-1.16 1.02-.838.952 1.16 2.192-1.8.8.976-2.2 1.8 1.047 1.275 2.702-2.218.818.997-1.335 1.094zm-1.686 5.44c.96.084 2.183.343 2.868.633l-.378 1.243c-.662-.3-1.9-.614-2.87-.73l.38-1.146zm10.99-11.206l.338.46c2.133 2.8 2.892 3.972 2.885 4.578.001.427-.132.7-.418 1.004-.25.264-.737.662-1.256 1.07-.28-.294-.736-.637-1.148-.784l1.092-.8c.173-.142.258-.25.256-.443 0-.33-.512-1.2-2.03-3.204l-1.392 1.14c1.272 2.022 1.903 3.95.987 6.215a3.56 3.56 0 0 0-1.315-.278c.813-1.87.338-3.44-.692-5.1l-1.773 1.456-.8-.986 1.878-1.54-.667-.906 1.008-.828.667.906 2.388-1.96zm-1.186-.948l-4.66 3.826-3.17-3.86 4.66-3.825 3.17 3.86zm-3.4-2.052l-2.644 2.17 1.6 1.936 2.643-2.17-1.6-1.936zm8.66 3.484l-1.042.857-5.263-6.4 1.043-.855 5.262 6.4zm-3.778-9.567l7.44 9.066c.533.65.65 1.098.4 1.584-.254.52-.86 1.077-1.88 1.895-.284-.253-.844-.627-1.25-.816l1.606-1.28c.188-.173.22-.298.05-.506l-7.442-9.066 1.068-.876zm8.534 1.02a37.72 37.72 0 0 1 3.239.873l-.01 1.385c-.476-.25-1.356-.613-2.146-.937l3.513 4.278-.964.8-3.178-3.872c.463 1.25.805 2.54.9 3.518-.36-.248-1.005-.513-1.427-.673-.046-1.263-.574-3.138-1.188-4.593l-1.4 1.143-.828-1.008 1.565-1.286-3.13-3.814.962-.8 3.13 3.813 1.207-.987.827 1.007-1.205 1 .134.163zm-3.152-.012c-.6-.646-1.728-1.513-2.684-2.086l.585-.753a14.55 14.55 0 0 1 2.723 2.016l-.624.823zm1.354-5.44l1.24 3.33-.822.345c-.318-.885-.95-2.246-1.448-3.157l1.03-.517zm8.793-2.482l.655.8-6.516 5.35-.657-.8 2.667-2.2-.542-.66-2.053 1.685-.627-.765 2.052-1.685-.485-.6-2.33 1.912-.646-.787 2.33-1.914-.724-.88 1.02-.837.724.88L85.76 43.4l.647.788-2.528 2.075.485.592 2.284-1.875.63.766-2.284 1.874.542.66 2.83-2.323zm4.115 6.48c.4.474.504.826.283 1.22-.212.428-.725.866-1.43 1.447a5.41 5.41 0 0 0-1.025-.633l1.108-.872c.152-.124.16-.208.055-.336l-.637-.776-3.107 2.55 1.484 1.8-.997.816-4.54-5.53 5.112-4.197 3.694 4.498zm-7.152-.322l.6.73 3.106-2.55-.6-.73-3.107 2.55zm4.905-.357l-.6-.73-3.107 2.55.6.73 3.106-2.55zm6.102-4.495c.34-.2.848-.172 1.638-.297 1.07-.16 2.1-.88 3.296-1.87 1.24-1.018 2.915-2.548 3.926-3.6.123.386.396 1.052.625 1.35l-3.734 3.278c-1.345 1.104-2.397 1.735-3.515 1.935-.68.093-1.306.04-1.57.26-.417.344-.53 1.484-.577 2.727l-1.48-.36c.117-.852.303-1.664.58-2.3l-2.675-3.258-1.357 1.113-.818-.996 2.4-1.96 3.273 3.987zm-5.143-5.035c-.782-.3-2.205-.44-3.332-.467l.35-1.275c1.1-.03 2.515.107 3.333.35l-.35 1.392zm6.055-1.535c1.207 1.92 1.717 3.674.42 6.04a3.85 3.85 0 0 0-1.363-.337c1.172-1.95.773-3.312-.156-4.8l-1.984 1.628-.77-.94 3.2-2.617-1.266-1.54-1.565 1.283c.118.642.196 1.258.186 1.8-.33-.002-1.02.08-1.368.152.085-1.176-.247-2.57-.82-3.8l1.2-.617a9.03 9.03 0 0 1 .469 1.207l1.146-.942-1.2-1.472 1.078-.886 1.2 1.473 2.526-2.074.752.916-2.527 2.074 1.266 1.543 3.003-2.465.77.938-2.134 1.75 1.96 2.4c.248.302.312.3.555.107l.73-.6c.23-.2.144-.4-.753-1.556.36.014.944-.174 1.302-.352 1.112 1.592 1.15 2.18.373 2.818l-.997.82c-.963.8-1.43.647-2.256-.36l-1.97-2.4-.998.82z" fill="#fff"/></svg>