<svg xmlns="http://www.w3.org/2000/svg" width="170" height="140"><path fill="#de4747" d="M0,140L170,0h-44.368L0,103.462V140z"/><path d="M47.935 84.524l3.896-3.645-5.354.656-2.192-4.773-.966 5.133-5.5.752 4.846 2.672-.97 5.133 3.784-3.666 4.752 2.533-2.306-4.795zm11.838-10.527l-.813 1.283 3.164 3.883-1.035.844-2.908-3.57-1.223 1.848-1.1-.914 1.453-2.016-2.178-2.673-.756.614c.452.793.822 1.555 1.088 2.2a6.83 6.83 0 0 0-1.165.234c-.428-1.238-1.464-2.9-2.524-4.405l1.014-.536.896 1.36.604-.492-1.885-2.314 1.035-.844 1.886 2.314 1-.815.843 1.036-1 .814 1.94 2.382.78-1.158.894.934zm3.57-6.255l1.014 1.244 1.255-1.023.815 1-1.255 1.022 2.255 2.768c.474.58.624.98.36 1.487-.25.475-.86 1-1.72 1.7a5.1 5.1 0 0 0-1.195-.826l1.44-1.154c.186-.15.207-.244.074-.406L64.15 70.82l-3.965 3.23-.815-1 3.966-3.23-1.013-1.244-4.175 3.4-.814-1 2.803-2.283-1.042-1.28-2.14 1.744-.796-.977 2.14-1.743-.947-1.163 1.023-.834.947 1.163 2.198-1.8.796.977-2.198 1.8 1.043 1.28 2.7-2.207.815 1-1.34 1.1zm-1.706 5.435c.96.086 2.18.35 2.866.643l-.383 1.24c-.66-.313-1.898-.62-2.867-.74l.384-1.143zM72.5 62.13l.348.45c2.184 2.942 2.948 4.12 2.928 4.735.01.438-.167.696-.488 1.016-.264.293-.8.738-1.388 1.17-.26-.27-.687-.58-1.08-.707a14.8 14.8 0 0 0 1.292-.955c.186-.15.293-.258.28-.44.028-.37-.53-1.3-2.14-3.46l-1.628 1.326c1.067 1.857 1.793 3.84 1.405 5.86a3.5 3.5 0 0 0-1.36-.15c.535-2.524-1.047-5-2.6-7.1l-1.2.985L63.712 61l4.64-3.78 3.146 3.86-2.373 1.933.816 1.192 2.55-2.075zm-5.42.97l2.604-2.122-1.592-1.954-2.605 2.12L67.07 63.1zm9.294-.3l-1.046.854-5.23-6.42 1.046-.853 5.23 6.418zm-3.362-9.874l7.4 9.07c.55.675.643 1.12.397 1.65-.298.514-.968 1.117-2.035 1.967-.295-.243-.866-.6-1.284-.792l1.775-1.406c.212-.192.235-.328.065-.537l-7.4-9.07 1.082-.882zm8.508 1.054c.543.098 2.733.695 3.235.886l-.014 1.384c-.477-.25-1.354-.618-2.142-.944l3.495 4.292-.965.787-3.165-3.884c.46 1.25.795 2.544.878 3.522-.36-.25-1.002-.518-1.423-.68-.042-1.262-.564-3.14-1.172-4.598l-1.396 1.138-.825-1.012 1.57-1.28-3.116-3.826.966-.788 3.117 3.826 1.208-.984.824 1-1.208.984.133.164zm-3.153-.025c-.606-.647-1.72-1.52-2.674-2.095l.587-.75a14.6 14.6 0 0 1 2.714 2.027l-.627.82zm1.375-5.433l1.228 3.333-.825.343c-.313-.886-.94-2.25-1.435-3.164l1.032-.512zm8.8-2.45l.654.802L82.66 52.2l-.653-.802 2.673-2.18-.54-.663-2.058 1.677-.626-.768 2.06-1.676-.484-.592-2.337 1.904-.644-.8 2.338-1.905-.72-.885 1.023-.833.72.884 2.535-2.064.643.8-2.535 2.066.484.592 2.3-1.866.623.767-2.3 1.866.54.663 2.84-2.313zm4.092 6.495c.4.477.5.83.28 1.223-.215.426-.73.864-1.438 1.44a5.38 5.38 0 0 0-1.023-.637l1.1-.868c.152-.124.16-.207.057-.334l-.637-.78-3.115 2.54 1.48 1.813-1 .814-4.518-5.547 5.127-4.178 3.676 4.513zm-7.15-.346l.596.733 3.117-2.538-.598-.734-3.115 2.54zm4.907-.34l-.598-.73-3.115 2.54.596.73 3.117-2.54zm6.126-4.45c.385-.195.895-.187 1.67-.353 1.076-.22 2.12-.934 3.365-1.948l3.848-3.445c.1.372.326.992.533 1.27l-3.648 3.146c-1.336 1.1-2.426 1.745-3.596 2-.707.15-1.38.136-1.658.362-.418.342-.52 1.473-.564 2.63l-1.46-.298c.14-.87.35-1.68.648-2.3L93.03 45.26l-1.36 1.1-.814-1 2.396-1.952 3.265 4.012zm-5.13-5.066c-.78-.294-2.203-.45-3.33-.48l.354-1.274c1.102-.026 2.516.118 3.33.362l-.354 1.392zm8.28 1.283c-.117 1.042-.55 2.342-1.03 3.294-.326-.043-.963-.066-1.3-.037.527-.895 1-1.955 1.158-2.78l-2.383 1.94-.672-.827 1.93-1.572-.748-.918-1.5 1.212-.672-.826 1.488-1.213-.586-.72.977-.796.586.72 1.63-1.326-.588-.72.988-.806.588.72 1.545-1.26.676.826-1.55 1.26.75.92 1.986-1.62.676.826-2.467 2.008c1.115-.27 2.43-.5 3.273-.52l-.533 1.225c-.8.004-2.082.15-3.205.388l.22-.895-2.326 1.895 1.086-.398zm-4.902-2.217c-.908.74-1.33.717-2.023-.132l-2.008-2.465 3.127-2.55 1.688 2.07-2.27 1.848.324.396c.217.268.314.266.652-.01l1.162-.947c.244-.2.236-.327-.1-.777.266-.004.697-.184.98-.315.535.823.457 1.252-.182 1.772l-1.36 1.108zm-2.602-2.6l.54.663 1.385-1.128-.54-.663-1.385 1.128zm6.176 4.04l1.63-1.326-.75-.92-1.627 1.327.748.918zm.148-4.473c-.92.75-1.355.737-2.047-.112l-2-2.466 3.188-2.597 1.688 2.07L97 37.177l.313.383c.23.28.324.278.672-.006l1.22-.994c.256-.2.25-.338-.094-.832.266-.004.7-.162.98-.315.553.867.486 1.286-.178 1.826l-1.417 1.157zm-2.615-2.6l.54.663 1.42-1.156-.54-.663-1.418 1.156z" fill="#fff"/></svg>