<svg xmlns="http://www.w3.org/2000/svg" width="170" height="140"><path fill="#fff" fill-opacity="0" d="M0,0v103.46L125.632,0H0z"/><path fill="#d79245" d="M0,140L170,0h-44.368L0,103.46V140z"/><path d="M55.263 77.792l-.804 1.286 3.2 3.862-1.03.85-2.932-3.55-1.2 1.856-1.118-.906 1.44-2.025-2.197-2.66-.75.62a20.67 20.67 0 0 1 1.103 2.183 6.95 6.95 0 0 0-1.163.242c-.437-1.235-1.483-2.88-2.554-4.4l1-.543.905 1.354.6-.496-1.9-2.303 1.03-.85 1.9 2.303.995-.822.85 1.03-.995.82 1.958 2.372.77-1.163.9.928zm3.53-6.28l1.02 1.237 1.248-1.03.822.995-1.248 1.03 2.273 2.752c.478.578.63.977.37 1.484-.248.478-.853 1.016-1.7 1.723-.292-.283-.813-.63-1.2-.817l1.432-1.163c.185-.153.205-.246.07-.408l-2.254-2.73-3.944 3.258-.82-.994 3.943-3.258-1.02-1.237-4.15 3.43-.822-.996 2.787-2.3-1.05-1.272-2.128 1.757-.802-.97 2.127-1.76-.955-1.156 1.018-.84.955 1.156 2.186-1.806.803.972-2.186 1.805 1.05 1.273 2.695-2.226.82.994-1.33 1.098zm-1.67 5.445c.962.08 2.185.336 2.87.625l-.374 1.242c-.663-.307-1.903-.606-2.872-.72l.375-1.146zM68.478 65.36l.352.448c2.204 2.928 2.977 4.1 2.96 4.715.012.438-.162.7-.48 1.02-.262.295-.806.744-1.38 1.18a2.95 2.95 0 0 0-1.084-.7c.58-.38 1.1-.8 1.286-.964.185-.153.3-.26.276-.44.025-.37-.538-1.288-2.164-3.445l-1.62 1.337c1.08 1.85 1.82 3.827 1.445 5.85-.372-.12-.962-.198-1.36-.14.518-2.528-1.08-4.982-2.638-7.08l-1.203.994-3.17-3.84 4.615-3.813 3.17 3.84-2.36 1.95.825 1.188 2.53-2.094zm-5.412 1.008l2.6-2.14-1.605-1.943-2.6 2.14 1.605 1.943zm9.292-.36l-1.04.86-5.272-6.384 1.04-.86 5.272 6.385zm-3.428-9.853l7.45 9.02c.554.672.65 1.117.407 1.648-.294.516-.96 1.123-2.02 1.98a6.51 6.51 0 0 0-1.29-.782l1.766-1.42c.2-.193.233-.33.062-.537l-7.45-9.02 1.075-.9zM90.06 54.9l-5.008 4.137.63.764-1.03.85-5.35-6.477a12.33 12.33 0 0 1 .072 1.807l-.24-.033.796.705-.923 1.403 2.513 3.04c.448.543.593.93.424 1.362-.17.452-.616.878-1.346 1.48a5.03 5.03 0 0 0-1.18-.793l1.027-.83c.15-.125.17-.218.036-.38l-2.235-2.706-.934 1.414-1.104-.842 1.16-1.637-1.95-2.36-1.4 1.146-.82-.994 1.4-1.146-1.814-2.197 1.028-.85 1.815 2.198 1.236-1.022.822.995-1.237 1.02 1.7 2.06.732-1.092c-.326-.04-.695-.087-.93-.068.15-1.913-.347-4.304-1.22-6.422l1.248-.584.735 2.232 1.966-1.624c-.512-.336-1.327-.712-2.018-.958l.62-1.135c.756.232 1.666.627 2.178.964l-.433.843 2.325-1.92.813.983-2.048 1.7 1.07 1.296 1.886-1.557.784.948-1.886 1.558 1.1 1.32 1.873-1.548.783.948-1.873 1.547 1.127 1.364 2.277-1.882.817.983zm-8.937-4.155l-1.735 1.433 1.07 1.295 1.734-1.432-1.07-1.296zM82.976 53l-1.734 1.434 1.1 1.318 1.734-1.434-1.1-1.318zm1.263 5.065l1.735-1.434-1.126-1.364-1.736 1.433 1.127 1.365zm6.397-19.37c.028.152.035.302.042.452 2.137.492 5.05.1 7.412-.966-.055.453-.02 1.202.067 1.636-2.336.917-5.062 1.126-7.437.676a16.82 16.82 0 0 1-1.97 7.366c-.396-.198-1.035-.43-1.5-.484 1.602-2.5 2.412-5.96 2.02-8.577l1.376-.103zm-.1 6.982l1.123-.927 1.155 1.4c1.26 1.527 2.515 3.565 1.276 6.727a5.24 5.24 0 0 0-1.56-.073c1.173-2.817.182-4.5-.86-5.75l-1.136-1.377zm4.282-3.556l1.133-.936 4.986 6.037-1.134.936-4.985-6.037z" fill="#fff"/></svg>