<svg xmlns="http://www.w3.org/2000/svg" width="170" height="140"><path fill="#fff" d="M0 0v103.46L125.632 0z" opacity="0"/><path fill="#d79245" d="M0 140L170 0h-44.368L0 103.46z"/><path d="M38.975 96.06l-1.2.998-3.176-1.8c-.338-.193-.65-.26-.94-.203s-.607.23-.956.518l-1.733 1.43 2.805 3.354-1.133.935-6.57-7.86 3.256-2.684c.866-.715 1.7-1.072 2.474-1.072s1.473.36 2.07 1.074c.43.514.66 1.064.686 1.65s-.148 1.16-.53 1.724c.527-.297 1.13-.25 1.812.146l3.147 1.787zm-6.793-1.614c.578-.477.914-.943 1.007-1.4s-.046-.908-.422-1.357-.793-.668-1.25-.655-.982.26-1.566.742l-2 1.64 2.233 2.67 2-1.64zm8.504.204l-6.568-7.858 5.133-4.233.774.928-4 3.298 2.066 2.473 3.778-3.115.775.928-3.778 3.115 2.177 2.604 4-3.3.774.928-5.132 4.23zm8-7.27c-.84.14-1.665.032-2.473-.32s-1.556-.94-2.245-1.765c-.683-.817-1.125-1.653-1.325-2.506s-.153-1.676.144-2.467.825-1.502 1.588-2.13c.54-.446 1.112-.778 1.712-.994s1.195-.298 1.777-.243l.3 1.168c-.623.004-1.17.087-1.643.247a4.23 4.23 0 0 0-1.344.762c-.82.678-1.236 1.466-1.24 2.365s.402 1.84 1.22 2.817c.823.986 1.682 1.56 2.576 1.725s1.752-.094 2.576-.77c.42-.348.755-.737 1-1.17s.426-.953.545-1.56l1.102.5c-.055.577-.244 1.142-.57 1.7s-.757 1.044-1.3 1.5c-.76.63-1.563 1.014-2.403 1.154zm7.745-6.387a4.29 4.29 0 0 1-2.444-.343c-.804-.358-1.548-.943-2.23-1.758-.688-.825-1.138-1.66-1.346-2.508a4.11 4.11 0 0 1 .116-2.444c.286-.78.8-1.482 1.55-2.1.755-.623 1.544-1 2.368-1.13s1.633-.017 2.435.34 1.542.946 2.225 1.763c.688.825 1.137 1.66 1.345 2.5a4.26 4.26 0 0 1-.1 2.448c-.27.785-.797 1.488-1.546 2.104s-1.535 1-2.36 1.12zm2.762-4.376c-.007-.9-.426-1.848-1.257-2.84-.824-.985-1.68-1.563-2.567-1.733s-1.726.072-2.518.726-1.184 1.428-1.176 2.32.426 1.833 1.25 2.82c.83.994 1.7 1.577 2.58 1.75s1.727-.062 2.5-.7c.792-.653 1.185-1.43 1.176-2.332zm5.18-14.767l.922-.76 6.568 7.858-1.034.853-4.512-5.397 2.167 7.33-.8.65-6.862-3.403 4.496 5.354-1.034.852-6.568-7.857.922-.76 8.302 4.117-2.577-8.837zm9.746-8.035l.922-.76 6.568 7.858-1.034.853-4.512-5.397 2.168 7.33-.8.65-6.862-3.402 4.495 5.354-1.034.852-6.568-7.858.922-.76 8.303 4.116-2.58-8.836zm9.657 5.3L77.2 51.268l5.134-4.233.774.927-4 3.298 2.067 2.472 3.777-3.115.776.927-3.778 3.115 2.177 2.604 4-3.3.775.928-5.134 4.234zm5.72-17.992l1.077-.9 6.57 7.858-.88.724-9.497-2.2 4.963 5.938-1.077.9-6.57-7.858.867-.715 9.516 2.2-4.97-5.95zm3.224-2.655l2.767-2.282c1.282-1.056 2.562-1.533 3.838-1.43s2.433.778 3.474 2.02c1.045 1.25 1.504 2.5 1.374 3.778s-.833 2.43-2.115 3.488L99.3 46.326l-6.57-7.858zm8.475 4.682c1.95-1.606 2.1-3.406.424-5.4-1.655-1.98-3.457-2.166-5.405-.56l-1.556 1.283 4.983 5.96 1.554-1.283zm6.773-3.98l-6.568-7.858 5.135-4.233.774.927-4 3.3 2.066 2.472 3.778-3.115.775.927-3.78 3.116 2.176 2.604 4-3.3.776.928-5.134 4.232zm.3-13.53l2.767-2.28c1.28-1.057 2.56-1.533 3.837-1.43s2.433.778 3.473 2.02c1.046 1.25 1.504 2.5 1.375 3.78s-.835 2.43-2.115 3.488l-2.77 2.28-6.568-7.858zm8.475 4.68c1.948-1.606 2.1-3.406.423-5.4-1.653-1.98-3.457-2.166-5.405-.56l-1.555 1.282 4.982 5.96 1.555-1.283z" fill="#fff"/></svg>