<svg xmlns="http://www.w3.org/2000/svg" width="21" height="17" viewBox="315.522 112.302 21 17"><path fill="#f15929" d="M334.954 115.15c-3.07-3.644-9.112-2.06-9.112 1.634 0-3.692-6.045-5.275-9.118-1.634-3.172 3.763-.047 10.362 9.117 14.15 9.16-3.79 12.288-10.387 9.113-14.15z"/><path fill="#bababa" d="M336.368 116.802c-.6-2.718-2.736-4.472-5.49-4.472-1.54 0-3.207 1.447-4.837 2.527-1.65-1.112-3.316-2.556-4.876-2.556-2.754 0-4.91 1.766-5.487 4.514-.874 4.076 1.92 9.493 10.09 12.437a.77.77 0 0 0 .273.05.78.78 0 0 0 .273-.05c8.152-3.01 10.926-8.41 10.054-12.45zm-10.328 11.106c-7.178-2.682-9.658-7.362-8.92-10.847.438-2.08 2.034-3.438 4.043-3.438 1.36 0 2.884 1.465 4.404 2.594a.81.81 0 0 0 .926 0c1.524-1.096 3.027-2.545 4.386-2.545 2.007 0 3.59 1.326 4.042 3.4.738 3.453-1.726 8.116-8.882 10.846z"/></svg>