<svg xmlns="http://www.w3.org/2000/svg" width="21" height="17" viewBox="209.995 150.949 20.999 17"><path fill="#fff" d="M230.84 155.448c-.6-2.718-2.736-4.47-5.5-4.47-1.54 0-3.207 1.446-4.84 2.524-1.65-1.11-3.317-2.555-4.876-2.555-2.754 0-4.91 1.766-5.487 4.514-.875 4.076 1.92 9.494 10.09 12.438.093.034.18.05.273.05a.77.77 0 0 0 .272-.049c8.154-3.008 10.928-8.4 10.056-12.452zm-10.33 11.1c-7.178-2.682-9.657-7.362-8.92-10.848.437-2.08 2.033-3.438 4.043-3.438 1.36 0 2.885 1.464 4.406 2.592a.8.8 0 0 0 .925 0c1.525-1.095 3.027-2.542 4.387-2.542 2.008 0 3.59 1.324 4.042 3.39.737 3.453-1.727 8.115-8.884 10.847z"/></svg>