<svg xmlns="http://www.w3.org/2000/svg" width="126" height="104"><path opacity=".8" fill="#FFF" d="M0 0v104L126 0H0z"/><path opacity=".82" fill="#7F7A77" d="M27.077 58.5c-4.564 0-7.87-.561-9.557-2.859-2.396-3.268-1.138-8.93 3.452-15.426l-2.776-2.047 8.329-3.806-1 9.083-2.78-2.015c-3.44 4.898-4.48 8.966-2.856 11.185 1.114 1.519 3.391 2.125 6.583 1.756 5.899-.683 14.126-4.541 22.008-10.321 12.591-9.235 19.293-19.883 16.862-24.893-1.568-3.231-5.222-1.493-8.074-.504l2.815-2.199c5.277-1.87 7.283-.307 8.608 1.501 2.117 2.883 1.412 7.547-1.98 13.133-3.358 5.529-8.957 11.474-15.769 16.47C42.803 53.53 33.88 57.5 27.079 58.5h-.002z"/><path opacity=".82" fill="none" stroke="#6D6761" stroke-width="3.1" stroke-linecap="round" stroke-linejoin="round" stroke-miterlimit="10" d="M26.388 16.867l8.831 17.881 5.961-17.881h7.45a4.47 4.47 0 010 8.94h-4.265l8.734 8.941"/></svg>