<svg xmlns="http://www.w3.org/2000/svg" width="19" height="23"><path fill="#f3755d" d="M9.5 1.044L.994 4.556v8.18c0 2.302.386 5.253 8.505 9.2 8.12-3.938 8.505-6.89 8.505-9.2v-8.18L9.5 1.044z"/><path fill="#cc4746" d="M18.005 4.556v8.18c0 2.302-.385 5.253-8.506 9.2V1.044l8.506 3.512z"/><path fill="#fff" d="M8.505 15.42l-4.213-3.994 1.64-1.61 2.572 2.44 4.56-4.333 1.643 1.61z"/><path fill="#dededd" d="M14.707 9.53L9.5 14.475v-3.17l3.565-3.386z"/><path fill="#f89f84" d="M9.5 23l-.447-.217c-3.784-1.835-6.29-3.64-7.663-5.513C.168 15.603 0 14.104 0 12.735V3.922L9.5 0 19 3.922v8.813c0 1.37-.168 2.867-1.4 4.535-1.373 1.874-3.878 3.678-7.663 5.513L9.5 23zM1.99 5.188v7.547c0 1.748 0 4.37 7.51 8.115 7.512-3.745 7.51-6.367 7.51-8.115V5.188l-7.51-3.1-7.51 3.1z"/><path fill="#d1806d" d="M9.5 0v2.087l7.51 3.1v7.547c0 1.748 0 4.37-7.51 8.115V23l.448-.217c3.784-1.835 6.3-3.64 7.663-5.514 1.22-1.667 1.4-3.164 1.4-4.534V3.923L9.5 0z"/></svg>