<svg xmlns="http://www.w3.org/2000/svg" width="100" height="100"><path fill="#FFF" d="M50.91 96h-.92c-7.21.02-13.87-.17-20.35-.56-5.94-.36-11.36-2.41-15.68-5.94-4.17-3.4-7.01-7.99-8.46-13.66-1.26-4.93-1.32-9.77-1.39-14.45-.05-3.36-.1-7.34-.11-11.38.01-4.06.06-8.04.1-11.4.06-4.68.13-9.52 1.39-14.45C6.94 18.5 9.78 13.9 13.95 10.5c4.32-3.52 9.74-5.58 15.68-5.94 6.49-.39 13.15-.58 20.38-.56 7.21-.02 13.87.17 20.35.56 5.94.36 11.36 2.42 15.68 5.94 4.17 3.4 7.01 7.99 8.46 13.66 1.26 4.93 1.32 9.77 1.39 14.45.05 3.36.09 7.34.1 11.38v.02c-.01 4.05-.06 8.03-.1 11.39-.06 4.68-.13 9.52-1.39 14.45-1.45 5.66-4.29 10.26-8.46 13.66-4.32 3.52-9.74 5.57-15.68 5.94-6.2.37-12.58.55-19.45.55zm-.92-7.19c7.09.02 13.61-.16 19.93-.55 4.49-.27 8.39-1.73 11.58-4.33 2.95-2.41 4.98-5.72 6.04-9.86 1.05-4.1 1.11-8.51 1.17-12.77.04-3.34.09-7.29.1-11.29-.01-4.01-.06-7.96-.1-11.3-.06-4.26-.12-8.67-1.17-12.77-1.06-4.14-3.09-7.46-6.04-9.86-3.19-2.6-7.09-4.06-11.58-4.33-6.33-.39-12.84-.56-19.92-.55-7.09-.02-13.61.16-19.94.55-4.49.27-8.39 1.73-11.58 4.33-2.95 2.41-4.98 5.72-6.04 9.86-1.05 4.1-1.11 8.51-1.17 12.77-.05 3.34-.09 7.29-.1 11.3.01 3.99.06 7.95.1 11.29.06 4.26.12 8.67 1.17 12.77 1.06 4.14 3.09 7.46 6.04 9.86 3.19 2.6 7.09 4.06 11.58 4.33 6.34.39 12.86.57 19.93.55zm-.17-16.35c-12.38 0-22.46-10.08-22.46-22.46s10.08-22.46 22.46-22.46S72.28 37.61 72.28 50c0 12.38-10.07 22.46-22.46 22.46zm0-37.73c-8.42 0-15.27 6.85-15.27 15.27s6.85 15.27 15.27 15.27S65.09 58.42 65.09 50s-6.85-15.27-15.27-15.27zM74.8 20.35c-2.98 0-5.39 2.41-5.39 5.39s2.41 5.39 5.39 5.39 5.39-2.41 5.39-5.39-2.42-5.39-5.39-5.39z"/></svg>