<?xml version="1.0" encoding="utf-8"?>
<!-- Generator: Adobe Illustrator 16.0.0, SVG Export Plug-In . SVG Version: 6.00 Build 0)  -->
<!DOCTYPE svg PUBLIC "-//W3C//DTD SVG 1.1//EN" "http://www.w3.org/Graphics/SVG/1.1/DTD/svg11.dtd">
<svg version="1.1" id="Layer_1" xmlns="http://www.w3.org/2000/svg" xmlns:xlink="http://www.w3.org/1999/xlink" x="0px" y="0px"
	 width="100px" height="100px" viewBox="0 0 100 100" enable-background="new 0 0 100 100" xml:space="preserve">
<path fill="#FFFFFF" d="M86.4,13.6c-8.9-8.9-23.2-8.9-32.1,0L43,24.9c4.4-0.8,9-0.5,13.4,0.9l5.1-5.1c4.9-4.9,12.9-4.9,17.8,0
	c4.9,4.9,4.9,12.9,0,17.8L61.4,56.4c-4.9,4.9-12.9,4.9-17.8,0c-2-2-3.2-4.6-3.5-7.2l-8,8c1.1,2.3,2.5,4.5,4.4,6.3
	c8.9,8.9,23.2,8.9,32.1,0l17.8-17.8C95.2,36.9,95.2,22.5,86.4,13.6z M63.9,36.1c-8.9-8.9-23.2-8.9-32.1,0L13.6,54.3
	c-8.9,8.9-8.9,23.2,0,32.1s23.2,8.9,32.1,0l11.6-11.7c-4.5,0.8-9,0.5-13.4-0.9l-5.4,5.5c-4.9,4.9-12.9,4.9-17.8,0
	c-4.9-4.9-4.9-12.9,0-17.8l18.2-18.2c4.9-4.9,12.9-4.9,17.8,0c2,2,3.2,4.5,3.5,7.2l5.4-5.4l2.6-2.6C67.2,40.1,65.8,38,63.9,36.1
	L63.9,36.1z"/>
</svg>
