<svg xmlns="http://www.w3.org/2000/svg" width="100" height="100"><path fill="#FFF" d="M86.36 13.62c-8.86-8.86-23.23-8.86-32.09 0l-11.3 11.3c4.45-.79 9.03-.49 13.36.9l5.07-5.06c4.92-4.92 12.9-4.92 17.83 0 4.92 4.92 4.92 12.9 0 17.83L61.4 56.4c-4.92 4.92-12.9 4.92-17.83 0-2.01-2.02-3.16-4.55-3.52-7.17l-7.97 7.97c1.08 2.28 2.48 4.45 4.36 6.33 8.86 8.86 23.23 8.86 32.09 0L86.36 45.7c8.85-8.85 8.85-23.22 0-32.08zM63.89 36.08c-8.86-8.86-23.22-8.86-32.08 0L13.65 54.29c-8.86 8.86-8.86 23.23 0 32.09 8.86 8.86 23.23 8.86 32.09 0L57.37 74.7c-4.45.79-9.03.5-13.36-.9l-5.4 5.45c-4.92 4.92-12.9 4.92-17.83 0-4.92-4.92-4.92-12.9 0-17.82l18.16-18.21c4.92-4.92 12.9-4.92 17.83 0 2.02 2.02 3.16 4.55 3.53 7.17L65.69 45l2.58-2.58c-1.09-2.29-2.49-4.45-4.38-6.34z"/></svg>