<svg xmlns="http://www.w3.org/2000/svg" viewBox="0 0 100 100"><path fill="#FFF" d="M34.2 84.7C66.4 84.7 84 58 84 34.8c0-.8 0-1.5-.1-2.3 3.4-2.5 6.4-5.6 8.7-9.1-3.1 1.4-6.5 2.3-10.1 2.8 3.6-2.2 6.4-5.6 7.7-9.7-3.4 2-7.1 3.5-11.1 4.3-3.2-3.4-7.8-5.5-12.8-5.5-9.7 0-17.5 7.8-17.5 17.5 0 1.4.2 2.7.5 4-14.6-.7-27.5-7.7-36.1-18.3-1.5 2.6-2.4 5.6-2.4 8.8 0 6.1 3.1 11.4 7.8 14.6-2.9-.1-5.6-.9-7.9-2.2v.2c0 8.5 6 15.6 14.1 17.2-1.5.4-3 .6-4.6.6-1.1 0-2.2-.1-3.3-.3 2.2 7 8.7 12 16.4 12.2-6 4.7-13.6 7.5-21.8 7.5-1.4 0-2.8-.1-4.2-.2 7.7 4.9 17 7.8 26.9 7.8"/></svg>