<svg xmlns="http://www.w3.org/2000/svg" width="100" height="100"><path fill="#FFF" d="M92.46 23.67c-3.16 1.38-6.52 2.3-10.03 2.75 3.61-2.15 6.36-5.54 7.66-9.62-3.37 2.01-7.08 3.42-11.04 4.21-3.2-3.4-7.75-5.51-12.72-5.51-9.64 0-17.4 7.82-17.4 17.41 0 1.38.12 2.71.4 3.97-14.47-.71-27.28-7.64-35.88-18.21-1.5 2.61-2.38 5.59-2.38 8.8 0 6.03 3.11 11.37 7.73 14.47-2.8-.05-5.54-.87-7.87-2.14v.19c0 8.46 6.04 15.49 13.95 17.1-1.42.39-2.96.58-4.56.58-1.12 0-2.24-.06-3.3-.3 2.26 6.89 8.66 11.96 16.27 12.13a34.986 34.986 0 01-21.59 7.42c-1.43 0-2.8-.06-4.17-.24 7.71 4.97 16.85 7.81 26.71 7.81 32.04 0 49.55-26.54 49.55-49.54 0-.77-.03-1.51-.06-2.25 3.46-2.44 6.36-5.51 8.73-9.03z"/></svg>