<svg xmlns="http://www.w3.org/2000/svg" width="100" height="100" viewBox="200 200 100 100"><path fill="#FFF" d="M266.1 236.3c.2 0 .4-.1.6-.2 1.1-.4 1.7-1.6 1.3-2.7-4-10.7-15.7-18.5-29.5-18.5-17.1 0-31 11.9-31 26.6.1 7.5 3.6 14.5 9.5 19.1 1.1.9 1.5 2.3 1.2 3.6-.4 1.6-.9 3.8-1.4 5.4-.1.4.1.7.3.9.3.2.7.2 1 .1 1.9-1.1 5-2.9 6.8-3.9.9-.5 1.9-.6 2.8-.3 3.5 1.1 7.1 1.6 10.7 1.6.5 0 .9-.2 1.2-.6.3-.4.4-.9.3-1.3-1.1-4.8-.6-9.8 1.4-14.3 4.2-9.1 14.4-15 24.8-15.5zm-17.9-7.1c2.4 0 4.4 2 4.4 4.4s-2 4.4-4.4 4.4c-2.4 0-4.4-2-4.4-4.4s2-4.4 4.4-4.4zm-20.3 8.9c-2.4 0-4.4-2-4.4-4.4s2-4.4 4.4-4.4c2.4 0 4.4 2 4.4 4.4s-2 4.4-4.4 4.4z"/><path fill="#FFF" d="M267.7 239.8c-13.7 0-24.8 9.5-24.8 21.3 0 11.7 11.1 21.3 24.8 21.3 2.6 0 5.1-.3 7.6-1 .9-.3 1.9-.1 2.7.3 1.5.8 3.9 2.3 5.6 3.2.3.2.7.2 1-.1s.4-.6.3-.9c-.3-1.2-.7-2.8-1-4.1-.3-1.3.1-2.7 1.2-3.6 4.6-3.7 7.3-9.2 7.4-15.1 0-11.7-11.1-21.3-24.8-21.3zm-8.8 17.7c-1.9 0-3.5-1.6-3.5-3.5s1.6-3.5 3.5-3.5 3.5 1.6 3.5 3.5-1.6 3.5-3.5 3.5zm17.7 0c-1.9 0-3.5-1.6-3.5-3.5s1.6-3.5 3.5-3.5 3.5 1.6 3.5 3.5-1.6 3.5-3.5 3.5z"/></svg>