<?xml version="1.0" encoding="utf-8"?>
<!-- Generator: Adobe Illustrator 16.0.0, SVG Export Plug-In . SVG Version: 6.00 Build 0)  -->
<!DOCTYPE svg PUBLIC "-//W3C//DTD SVG 1.1//EN" "http://www.w3.org/Graphics/SVG/1.1/DTD/svg11.dtd">
<svg version="1.1" id="Layer_1" xmlns="http://www.w3.org/2000/svg" xmlns:xlink="http://www.w3.org/1999/xlink" x="0px" y="0px"
	 width="85px" height="70.1px" viewBox="0 0 85 70.1" enable-background="new 0 0 85 70.1" xml:space="preserve">
<path fill="#FFFFFF" d="M58.6,21.4c0.2,0,0.4-0.1,0.6-0.2c1.1-0.4,1.7-1.6,1.3-2.7C56.5,7.8,44.8,0,31,0C13.9,0,0,11.9,0,26.6
	c0.1,7.5,3.6,14.5,9.5,19.1c1.1,0.9,1.5,2.3,1.2,3.6c-0.4,1.6-0.9,3.8-1.4,5.4c-0.1,0.4,0.1,0.7,0.3,0.9c0.3,0.2,0.7,0.2,1,0.1
	c1.9-1.1,5-2.9,6.8-3.9c0.9-0.5,1.9-0.6,2.8-0.3c3.5,1.1,7.1,1.6,10.7,1.6c0.5,0,0.9-0.2,1.2-0.6c0.3-0.4,0.4-0.9,0.3-1.3
	c-1.1-4.8-0.6-9.8,1.4-14.3C38,27.8,48.2,21.9,58.6,21.4L58.6,21.4z M40.7,14.3c2.4,0,4.4,2,4.4,4.4c0,2.4-2,4.4-4.4,4.4
	c-2.4,0-4.4-2-4.4-4.4C36.3,16.3,38.3,14.3,40.7,14.3z M20.4,23.2c-2.4,0-4.4-2-4.4-4.4c0-2.4,2-4.4,4.4-4.4c2.4,0,4.4,2,4.4,4.4
	C24.8,21.2,22.8,23.2,20.4,23.2z"/>
<path fill="#FFFFFF" d="M60.2,24.9c-13.7,0-24.8,9.5-24.8,21.3c0,11.7,11.1,21.3,24.8,21.3c2.6,0,5.1-0.3,7.6-1
	c0.9-0.3,1.9-0.1,2.7,0.3c1.5,0.8,3.9,2.3,5.6,3.2c0.3,0.2,0.7,0.2,1-0.1c0.3-0.3,0.4-0.6,0.3-0.9c-0.3-1.2-0.7-2.8-1-4.1
	c-0.3-1.3,0.1-2.7,1.2-3.6c4.6-3.7,7.3-9.2,7.4-15.1C85,34.5,73.9,24.9,60.2,24.9L60.2,24.9z M51.4,42.6c-1.9,0-3.5-1.6-3.5-3.5
	s1.6-3.5,3.5-3.5c1.9,0,3.5,1.6,3.5,3.5S53.3,42.6,51.4,42.6z M69.1,42.6c-1.9,0-3.5-1.6-3.5-3.5s1.6-3.5,3.5-3.5
	c1.9,0,3.5,1.6,3.5,3.5S71,42.6,69.1,42.6z"/>
</svg>
