<svg xmlns="http://www.w3.org/2000/svg" width="100" height="100"><path fill="#FFF" d="M84.84 14.88C75.54 5.61 63.17.5 50 .5 36.86.5 24.47 5.6 15.11 14.86 5.73 24.14.56 36.47.55 49.54v.03c0 7.91 2.08 15.89 6.02 23.17L.68 99.5l27.07-6.16a49.47 49.47 0 0022.22 5.28H50c13.13 0 25.53-5.1 34.89-14.37 9.39-9.29 14.56-21.6 14.56-34.68.01-12.97-5.18-25.3-14.61-34.69zM50 90.9h-.02c-6.93 0-13.79-1.74-19.85-5.03l-1.28-.7-18 4.09 3.91-17.77-.76-1.3c-3.75-6.46-5.73-13.6-5.73-20.64C8.29 26.78 27 8.23 50 8.23c11.11 0 21.54 4.31 29.39 12.12 7.96 7.93 12.34 18.31 12.34 29.23C91.72 72.36 73 90.9 50 90.9zM36.54 27.93h-2.17c-.75 0-1.98.28-3.02 1.41s-3.96 3.86-3.96 9.4 4.05 10.91 4.62 11.66c.57.75 7.83 12.5 19.32 17.02 9.56 3.76 11.5 3.01 13.57 2.82 2.07-.19 6.69-2.73 7.64-5.36.94-2.63.94-4.89.66-5.36-.28-.47-1.04-.75-2.17-1.31s-6.67-3.34-7.71-3.71c-1.04-.38-1.79-.56-2.55.57-.75 1.13-2.98 3.73-3.64 4.49-.66.75-1.32.85-2.45.28-1.13-.57-4.74-1.78-9.06-5.62-3.36-2.99-5.7-6.8-6.36-7.93-.66-1.13-.07-1.74.5-2.3.51-.5 1.19-1.2 1.76-1.85.56-.66.73-1.13 1.1-1.88.38-.75.19-1.41-.09-1.97s-2.45-6.14-3.46-8.37c-.83-1.89-1.72-1.96-2.53-1.99z"/></svg>