<svg xmlns="http://www.w3.org/2000/svg" width="100" height="100" viewBox="0 0 100 100"><path fill-rule="evenodd" clip-rule="evenodd" fill="#FFF" d="M85.3 14.5C75.9 5.2 63.5 0 50.2 0 22.9 0 .7 22.2.7 49.5c0 8.7 2.3 17.3 6.6 24.8L.3 100l26.3-6.9c7.2 3.9 15.4 6 23.7 6 27.3 0 49.5-22.2 49.6-49.6-.1-13.2-5.3-25.6-14.6-35M50.2 90.8c-7.4 0-14.7-2-21-5.7l-1.5-.9-15.6 4.1L16.3 73l-1-1.6C11.2 64.9 9 57.3 9 49.6 9 26.8 27.5 8.4 50.2 8.4c11 0 21.3 4.3 29.1 12.1 7.8 7.8 12.1 18.1 12.1 29.1 0 22.7-18.5 41.2-41.2 41.2m22.6-30.9c-1.2-.6-7.3-3.6-8.5-4s-2-.6-2.8.6c-.8 1.2-3.2 4-3.9 4.9-.7.8-1.4.9-2.7.3s-5.2-1.9-10-6.1c-3.7-3.3-6.2-7.3-6.9-8.6-.7-1.2-.1-1.9.5-2.5.6-.6 1.2-1.4 1.9-2.2.6-.7.8-1.2 1.2-2.1.4-.8.2-1.5-.1-2.2s-2.8-6.7-3.8-9.2c-1-2.4-2-2.1-2.8-2.1h-2.4c-.9 0-2.2.3-3.3 1.5-1.1 1.2-4.3 4.2-4.3 10.3s4.4 12 5.1 12.8c.6.8 8.7 13.3 21.2 18.7 3 1.3 5.3 2 7.1 2.6 3 .9 5.7.8 7.8.5 2.4-.4 7.3-3 8.4-5.9 1-2.9 1-5.4.7-5.9-.3-.4-1.2-.8-2.4-1.4"/></svg>