<svg xmlns="http://www.w3.org/2000/svg" width="16" height="16" viewBox="247.81 247.81 16 16"><path fill="#838a9a" d="M263.4 250.25c-.28-.3-.62-.43-1-.43h-13.14a1.39 1.39 0 0 0-1.01.43 1.45 1.45 0 0 0-.42 1.04v10.04c0 .4.14.75.42 1.04s.62.43 1 .43h13.14c.4 0 .73-.14 1-.43a1.45 1.45 0 0 0 .42-1.04V251.3c0-.4-.14-.75-.42-1.04zm-.72 11.1c0 .08-.03.15-.08.2s-.12.1-.2.1h-13.14c-.08 0-.14-.03-.2-.1s-.08-.13-.08-.2v-7.1a5.1 5.1 0 0 0 .62.61l3.8 3.12c.68.6 1.48 1.3 2.44 1.3s1.76-.7 2.44-1.3l3.8-3.12a5.1 5.1 0 0 0 .62-.61v7.1h-.02zm0-9.8c.03.9-.64 1.83-1.3 2.38l-3.58 2.93c-.5.45-1.23 1.25-1.96 1.25-.74 0-1.45-.8-1.96-1.25l-3.58-2.93c-.88-.7-1.3-1.6-1.3-2.62 0-.08.03-.15.08-.2.06-.06.12-.1.2-.1h13.14c.2.13.34.24.28.54z"/></svg>