<?xml version="1.0" encoding="utf-8"?>
<!-- Generator: Adobe Illustrator 16.0.0, SVG Export Plug-In . SVG Version: 6.00 Build 0)  -->
<!DOCTYPE svg PUBLIC "-//W3C//DTD SVG 1.1//EN" "http://www.w3.org/Graphics/SVG/1.1/DTD/svg11.dtd">
<svg version="1.1" id="Layer_1" xmlns="http://www.w3.org/2000/svg" xmlns:xlink="http://www.w3.org/1999/xlink" x="0px" y="0px"
	 width="11.9px" height="12px" viewBox="411.4 291.7 11.9 12" enable-background="new 411.4 291.7 11.9 12" xml:space="preserve">
<path fill="#3A405B" d="M417.4,296.4v2.4h3.4c-0.5,1.4-1.8,2.4-3.4,2.4c-2,0-3.6-1.6-3.6-3.6c0-2,1.6-3.6,3.6-3.6
	c0.9,0,1.7,0.3,2.3,0.9l1.6-1.8c-1.1-0.9-2.4-1.5-3.9-1.5c-3.3,0-5.9,2.7-5.9,6c0,3.3,2.7,6,5.9,6c3.3,0,5.9-2.7,5.9-6v-1.2
	L417.4,296.4L417.4,296.4z"/>
</svg>
