<svg xmlns="http://www.w3.org/2000/svg" width="16" height="16" viewBox="1663.5 288.97 16 16"><path fill="#838a9a" d="M1675.72 304.97c-.08 0-.15 0-.22-.01h-.01c-3.38-.22-6.68-2.82-8.77-5.3-1.63-1.95-4.84-6.5-2.4-8.92l1.22-1.22c1.17-1.1 2.3-.28 3.2.65l1.3 1.3c.76.75.75 1.82 0 2.57-.4.4-.75.83-1.17 1.2.86 1.86 2.63 3.43 4.4 4.38l1.16-1.2c.73-.73 1.82-.74 2.54 0l1.96 1.95c1.04 1.04.44 2.17-.46 3.02 0 0-.44.43-.6.63-.42.68-1.4.96-2.13.96zm-10.62-13.45c-1.18 1.17-.06 3.42.56 4.6.84 1.6 2 3.05 3.3 4.28 1.28 1.18 2.76 2.17 4.36 2.85.75.32 1.57.6 2.4.6.9 0 1.34-.64 1.93-1.2l.04-.04c.4-.4 1-.88.44-1.42l-1.97-1.96c-.3-.3-.65-.3-.94 0l-1.3 1.35c-.3.3-.67.33-1.03.15h-.02c-2.07-1.33-4.15-2.84-5.14-5.2h0a.83.83 0 0 1 .19-.91l.02-.02c.3-.25.97-1 .97-1 .4-.4.8-.78.3-1.3l-1.95-1.95c-.3-.3-.66-.3-.96 0l-1.2 1.2z"/></svg>