<svg xmlns="http://www.w3.org/2000/svg" width="18" height="18" viewBox="1725.68 996.5 18 18" fill="#838a9a"><path d="M1741.3 1012.4a2.39 2.39 0 1 1 0-4.78c.07 0 .13 0 .2.01a7.28 7.28 0 0 0 .11-1.22 6.87 6.87 0 0 0-3.29-5.89.59.59 0 0 1-.19-.82.58.58 0 0 1 .5-.28.56.56 0 0 1 .31.09 8.05 8.05 0 0 1 3.86 6.9 7.91 7.91 0 0 1-.17 1.6c.66.44 1.07 1.2 1.07 2-.01 1.3-1.08 2.4-2.4 2.4zm0-3.6a1.21 1.21 0 1 0 1.21 1.21 1.22 1.22 0 0 0-1.21-1.21zm-6.62 5.7c-2.1 0-4.14-.84-5.65-2.3a2.43 2.43 0 0 1-.96.2 2.39 2.39 0 1 1 2.39-2.39c0 .53-.17 1.04-.5 1.46a6.96 6.96 0 0 0 4.71 1.85c.9 0 1.8-.18 2.64-.52.07-.03.15-.04.23-.04.24 0 .46.14.55.37a.6.6 0 0 1-.32.78c-.98.38-2.02.6-3.1.6zm-6.6-5.7a1.21 1.21 0 1 0 1.21 1.21 1.22 1.22 0 0 0-1.21-1.21zm-.88-2.34h-.04c-.16-.01-.3-.08-.4-.2s-.15-.27-.14-.43c.12-1.68.74-3.26 1.8-4.55a8 8 0 0 1 3.89-2.61 2.4 2.4 0 0 1 2.38-2.16 2.39 2.39 0 1 1 0 4.78c-.95 0-1.82-.58-2.2-1.44-2.67.88-4.5 3.23-4.7 6.06a.59.59 0 0 1-.59.55zm7.48-8.77a1.21 1.21 0 0 0 0 2.42 1.21 1.21 0 0 0 0-2.42z"/></svg>