<svg xmlns="http://www.w3.org/2000/svg" width="40" height="40" viewBox="400.9 277.6 40 40"><path fill="#38a1f3" d="M430.4 290.6c-.7.4-1.5.7-2.4.9-.7-.7-1.7-1.2-2.7-1.2-2 0-3.7 1.6-3.7 3.6 0 .3 0 .6.1.8-3-.1-5.8-1.5-7.7-3.8-.3.6-.5 1.2-.5 1.8 0 1.2.6 2.4 1.7 3.1-.6 0-1.2-.2-1.7-.5v.1c0 1.8 1.3 3.3 3 3.6-.5.1-1.1.2-1.7.1.5 1.5 1.9 2.5 3.5 2.6-1.3 1-2.9 1.6-4.6 1.6h-.9c1.7 1.1 3.7 1.7 5.7 1.6 5.8.1 10.5-4.5 10.6-10.3v-.6c.7-.5 1.3-1.2 1.8-1.9a8.3 8.3 0 0 1-2.1.6c.8-.5 1.4-1.2 1.6-2.1zm-9.5-13c-11 0-20 8.9-20 20 0 11 9 20 20 20 11.1 0 20-9 20-20s-8.9-20-20-20zm0 38.2c-10 0-18.2-8.1-18.2-18.2 0-10 8.1-18.2 18.2-18.2 10 0 18.2 8.1 18.2 18.2 0 10-8.1 18.2-18.1 18.2h-.1z"/></svg>