<svg xmlns="http://www.w3.org/2000/svg" width="30" height="30" viewBox="173.94 235.64 30 30" fill="#c7cddc"><path d="M188.94 235.64a15.01 15.01 0 0 0-15 15 15.01 15.01 0 0 0 15 15 15.01 15.01 0 0 0 15-15c0-8.28-6.7-15-15-15zm8.34 15.23c-1.07 1.07-2.54 1.64-4.04 1.64h-.02a5.36 5.36 0 0 1-1.94-.34l-7.22 7.22c-.53.5-1.2.75-1.85.75a2.6 2.6 0 0 1-1.85-.75c-1-1-1-2.67 0-3.68l7.35-7.38c-.14-.48-.2-.98-.2-1.48 0-1.5.62-2.92 1.7-4 1.07-1.07 2.5-1.64 4.04-1.64.64 0 1.1-.1 1.87.2.14.07.23.18.25.32.02.16 0 .3-.1.4l-3.44 3.27.2 2.55 2.53.3 3.45-3.4c.1-.1.27-.14.4-.1.14.05.25.1.3.27.8 2.05.13 4.26-1.4 5.83zm-15.9 5.7c-.5.46-.5 1.23 0 1.74.46.5 1.23.5 1.74 0 .48-.46.46-1.26 0-1.74-.46-.5-1.23-.46-1.74 0z"/></svg>